<?xml version="1.0" encoding="utf-8"?>
<!-- Generator: Adobe Illustrator 19.0.0, SVG Export Plug-In . SVG Version: 6.00 Build 0)  -->
<svg version="1.1" id="Layer_1" xmlns="http://www.w3.org/2000/svg"  x="0px" y="0px"
	 viewBox="-166 505.8 1202.6 1038.2" style="enable-background:new -166 505.8 1202.6 1038.2;" xml:space="preserve">
<style type="text/css">
	.st0{display:none;fill:#3A3A3A;}
	.st1{display:none;fill:#FFFFFF;enable-background:new    ;}
	.st2{font-family:'Lato-Light';}
	.st3{font-size:150px;}
	.st4{fill:#424F56;}
</style>
<path id="XMLID_873_" class="st0" d="M-166,1167.1c108.9,224.8,340,379,606.4,376.9c262.8-2,488.9-155.5,596.3-377L-166,1167.1z"/>
<text id="XMLID_55_" transform="matrix(1 0 0 1 304.8185 1418.3218)" class="st1 st2 st3">404</text>
<g id="XMLID_2_">
	<path id="XMLID_19_" class="st4" d="M703.6,1167c0.2-0.3,0.4-0.5,0.6-0.8c3.5-4.6,20.6-17.1,28.9-23.7c8.3-6.7,2.1-17.1-1.7-21.6
		c-3.7-4.6-10.8-15.8-13.6-21.6c-2.8-15-12.8-29.1-19.5-41.1c-12.9-22.5-21.7-36.5-23.3-38.7c-0.1-2.5-1.1-5.2-2.8-6.5
		s-1.5-1.5-1.1-2.5c1.2-0.6,1.6-2.8,1.7-3.8c2.8-3.3,0-7.2-0.6-8.6c1.4-3.5,2.8-5.2,2.6-6.7c4-3.7,4.4-5,7.5-13.4
		c3.1-8.3,15.8-27.4,18.3-31.5c39.7-13.6,64.7-26.9,66.3-28.9c-5.8-30.2-12.8-47.5-15.3-54.7c-2.5-7.2-6.3-33.9-7.6-38
		c-1.2-4.2-1.7-31.1-4.2-37.2c-2.5-6-3.8-18.1-3.8-18.1c-0.3-8.6-6.7-31.9-10-36.4c-3.3-4.4-12.5-20-17.8-24.1
		c-22.2-21.9-32.1-23.8-34.4-24.1c-4.9-5.6-10.2-9.8-10.7-10.3c0.7-1.6,0.7-2.6-0.1-4c-0.8-1.5-5.1-6-5-6.7c0.3-1.4,4.3,1.9,8.3,5.4
		s7,5,8.2,5.6c1.2,0.6,3,1.8,1.7-0.3c-1.4-2.1,1.5-0.6,5.2,1.5c3.7,2.1,9.9,1.9,10.4,1c-1.2-1.2-4.8-9.4-7.4-12.9
		c-2.6-3.5-7.1-6.3-13.4-8.2s-15.2-0.8-16.2-0.7c-1.5-1.8-7-13-16.1-19.7c-9.2-6.7-20.5-7.2-31.6-7.2s-17.5,7.2-23.6,13.5
		c-6.1,6.3-9.2,13.4-10.8,19c-1.6,5.6,3.9,12.2,4.5,11.6c1.5-1.9,4.3,3.6,5.6,7.6c1.4,4,5.4,11.7,7.1,12.8
		c0.6,9.9,1.4,12.5,2.4,12.7c2.8,0.7,3.9,0.6,5,0.8c-0.2,6.1,3.1,6.7,4.4,6.5c5.2,0.4,8.5,3.1,11.4,6.2c2.9,3.1,15.6-3.2,18.4-4.5
		c2.8-1.2,11.3,0.9,11.4,1.6s-1.2,1.1-2.6,7.2c-1.4,6.1-20.7,62.7-21.8,62.7s-9.3-2.5-10.3-3.7c-1-1.1-5-9.8-7.3-10.5
		s-3.5-2.7-5.9-4.4c-2.4-1.7-9.6-7.1-17.7-11.8c-8.1-4.7-10.5-3.2-11.4-2.4c-0.9,0.8,0.5,3,3.4,5.5s11,8.5,16.5,11.6
		c5.5,3,1.5,3.1-0.5,2.9c-2-0.2-11.7-2.7-16.2-3.2c-4.6-0.5-18.2-1.2-20.5-1.2s-7.7,0.4-7.1,3.3c0.6,2.9,13.8,4.6,17.7,4.5
		c3.9-0.1,4.7,0.6,4.7,2.5c0,1.9-3.3,1.9-4.9,1.7c-6.5,0.3-11,8.9-12.3,13.3c-1.2,4.4,0.9,6.6,2.2,7c1.3,0.4,1.6-5,1.9-2.4
		s2,2.5,4.5,2c5.5-1.1,9-0.5,9-0.5c3.9-0.1,10.7,3.9,15.3,5.7c4.6,1.8,3.6,2.4,3.7,4.9c-1.2,9.7,11.7,9.4,13.3,9.4
		c-0.1,3.6,17.1,7.4,18.2,7.5c0,3.3-2.1,11.4-3.5,18.7c-2.5,14.4-8.2,40-8.7,42.5c1.4,0.5,2.6,1.9,2,1.9
		c-28,24.1-52.7,46.1-52.7,46.1c-5.5,4.8-7.8,9.4-7.8,12.8c0,3.3,4.8,30,9.8,66.2c5,36.2,14.8,61.7,18.1,69.2c7.5,0,10.6-1.2,12.9-1
		c2.3,0.2,1.2,7.7-0.6,10.8s-1.9,8.5-1.7,12.5s0.2,8.5,0.2,10s-1.2,18.3-3.3,22.9s-0.4,9.6,4,11.2c4.4,1.7,18.3-23.9,20.2-27.7
		s19.1-25.6,24.4-32.1c5.2-6.5-3.7-13.3-5.6-15.6c-1.9-2.3-3.3-14.4-4.4-18.5c-0.4-15.4-7.3-22.7-7.9-23.7s-1.6-27.9,0.1-19.5
		s20.8,37.2,29.4,57.4c4.4,20.5,29.2,44.7,32.7,47.8s14.2,7.7,14.4,15.4s-7.7,15-12.7,20.8c-5,5.8-10.4,9.2-15.2,10.8
		c-0.3,0.1-0.7,0.2-1,0.4H233.2c-7.4-4.8-12-9.9-13.6-13.2c-2.2-4.3-1-18-1-19.8c2.1,0.7,13.7,4.2,21.6,6.4s10.3-2.7,10.5-5.6
		c0.4-9.6,0.4-16.8,1.6-22.2c1.1-5.4,3.2-4,4.1-2.6c0.8,1.4-0.2,6.8-0.7,11.4c-0.5,4.7,0,7.6,1,8.4c3.9,2.5,7.9,4.6,9.4,5.6
		c0,3.3,1,9.7,2.1,15c1.1,5.3,2.6,7.2,4.4,7.5c4,0.8,14.8,1.5,20.4,0.8s5.8-2.1,4.7-3.7c-2.6-4.2-9.1-12.2-12.2-16.4
		c-10.4-18.1-8.8-32.7-8.8-33.7c0.8-0.3,3.2-1,4.2-1.4c0.2-4.8,0.6-11.1,2.3-17.2c5-31.4,5.3-35.5,5.6-45
		c4.7-21.9-0.6-24.4-8.6-45.5c-12.5-33.3-22.6-57.2-23.5-59.9c2.8,2.2,13.3,11.7,17.4,14.6c-8.7-30-13.7-43.8-14.5-46.7
		c0-1.1,0.8-6.5,3.5-14.7c2.6-8.2,3.9-10.3,6.5-13.6c6.5-8,5.6-12.6,5.6-14.6c0-1.9,1.2-5.8,2.5-7.8c2.6-7.4,11.6-17.8,13.9-21.5
		s2.7-4.3,6.9-0.4c4.2,3.9,7.5,7.1,10.7,8c2.7,3.6,8.6,9.7,12,9.8s5.2,1.4,6.2,4.5c1,3.1,3.9,3.9,8.3,5.4s10.5-5.1,10.8-5.8
		c4.1,0.8,7.6-0.1,9-1.8c3.9-4,11.7-7.6,16.1-9.6c7.4-3.1,14.1-7.7,14.2-8.6c-0.3-1.9,0.1-2.1,0.6-3.2c4.2-2.6,29.1-19.4,31.5-19.6
		c2.4-0.1,5.6-1,5.8-1.2c5.7-3.5,16.2-7.4,18.5-9.4s2.4-4.2,1.4-4.8c-1-0.6-0.7-2-0.3-2.7c2.1-3.1,1.5-5.9,0.5-6.3s-1.8-0.4-2.1-0.5
		c0.1-3.1-0.6-3.5-0.9-4.4c-1.5-0.4-1-1.7-0.7-2.5c0.3-0.8,11.1-10.3,12.9-12.3s1.9-3.4-0.8-4.4c-2.7-0.9-9.3,5.6-12.9,8.7
		c-3.6,3.1-11.9,11.6-17.9,11.4c-6-0.1-6.9,0.1-7.9,1c-1,0.9-6.1,8.2-6.6,9.3c-1.2,5.6-3.1,6.2-5.6,7.9c-6.5,4-23.9,13.9-35.8,18.9
		c-11.9,5-15.4,5-17.3,5.4c-0.2-1.5-2.3-4.4-3.3-4.8c-5.6-8.7-11-11.4-12.3-12.9c-1.5-3.5-0.6-6.9-1.5-8.7c-4.2-4.2-6.5-10-6.9-12.5
		c-1.7-6.2-2.1-9.6-3.3-15.8c-4.2-22.3-10.7-29.9-11.2-30.2c0.4-0.3,3.3-2.5,5.1-3.7c4.6,6.4,11.5,9,14.6,10.1
		c8.9,2.2,18.1,3.1,17.8,1.9c-3.2-6.2-5.6-20.8-5.8-22.8c-0.2-2,1-2.7,2.8-2.8c6.5-0.1,6.1-4.5,5.2-5.5c-2.9-5.3-0.5-12.2,0-12.9
		c2.6-2.5,2.2-5.3,2.6-6c0.5-0.6,0.5-1,0.5-1s4.5,2.3,6.5,3.6c2.7-6.6,2.6-9.6,2-14.6c-2.7-17.5-23.9-24.6-31.6-27.9
		c0,0-4.6-2.2-10.2-3.9s-22.1-5.4-37.9,17.1s-18.5,35.2-19.8,38.3c3.1,2.3,14.6,8.3,15.4,8.3c-2.5,1.5-9.5,9.2-16.2,11.1
		c-6.7,1.9-12.6,9.4-14.3,10c-1.7,0.6-1.8,0.1-13.7,3c-11.9,2.9-14.2,14.2-14.8,15.2c-0.8,0.4-14.8,5-16,5.4s-13.3,10.6-21.9,11.2
		c-8.5,0.6-14,5.2-15.1,6.1c-1.1,0.8-8.3,12.1-8.3,13.3c0,1.2,3.7,5.1,4.4,8.2c0.7,3.1,2.2,4.7,2.2,4.7c4.4,4.2,4.1,7.8,7,22
		c2.9,14.2,1,15.3-1.2,17.3c-2.2,2.1-4.6,2.2-3.9,4.6s-3.6,8.1-6.7,14.2s-8.3,16.1-10,19.4c-5.8,16.2-9.2,27.1-3.3,38.9
		c5.8,11.8,35.4,49.8,52.5,74.3c17.1,24.6,17.9,24.6,16.7,36.2c-1.2,11.7-15,78.2-15.4,84.4s-0.3,6.9,0.6,7.6
		c-1.1,4.3-6.8,28.4-7.6,33.6c-1.4,2.8-2.5,5.5-3.1,8l-354.8,0.5c108.9,224.8,340,379,606.4,376.9c262.8-2,488.9-155.5,596.3-377
		H703.6z M607.9,1000.6c-2.1-7.5-5.8-18.5-5.8-19.6c0-1,0-14.4,0-17.1c11.7-0.8,19.8-8.7,21.9-11.7
		C621.4,959.6,607.9,1000.6,607.9,1000.6z M197.7,813.9c0,0-4.8-4.2-4.8-7.9s9.6-6.5,11.7-6.5S201.2,811.6,197.7,813.9z"/>
</g>
</svg>
