<?xml version="1.0" encoding="utf-8"?>
<!-- Generator: Adobe Illustrator 19.0.0, SVG Export Plug-In . SVG Version: 6.00 Build 0)  -->
<svg version="1.1" id="Layer_1" xmlns="http://www.w3.org/2000/svg"  x="0px" y="0px"
	 viewBox="-166 505.8 1202.6 1038.2" style="enable-background:new -166 505.8 1202.6 1038.2;" xml:space="preserve">
<style type="text/css">
	.st0{display:none;fill:#3A3A3A;}
	.st1{display:none;fill:#FFFFFF;enable-background:new    ;}
	.st2{font-family:'Lato-Light';}
	.st3{font-size:150px;}
	.st4{fill:#424F56;}
</style>
<path id="XMLID_873_" class="st0" d="M-166,1167.1c108.9,224.8,340,379,606.4,376.9c262.8-2,488.9-155.5,596.3-377L-166,1167.1z"/>
<text id="XMLID_55_" transform="matrix(1 0 0 1 304.8185 1418.3218)" class="st1 st2 st3">404</text>
<g id="XMLID_23_">
	<g id="XMLID_1047_">
		<path id="XMLID_1050_" class="st4" d="M1007.5,1086.5l-62.6-65l-66.2-28l-50.8-45l-68-35l-29.4,40.8l-82.7,26l-15.3,89.2
			l-34.5,63.6l-38.5,30.3l0.1-0.1l-0.7-0.4l4.2-7.6l0.6,0.3l0.8-1.5l-3-1.7l0.2-0.4l-4.3-2.4l-0.2,0.4l-2.9-1.6l-0.8,1.4l0.6,0.3
			l-1.9,3.4c-0.3-0.1-0.4,0-0.4,0l-12,4.8c0,0-3.5,1.5-5.9,2.6l-10.9-6.1c-0.3-0.9-1.4-1.4-1.4-1.4s4.9-8.7,6-10.8
			c1.2-2.1-1.4-3.4-1.4-3.4l-1.5,2.6l0.7,0.4l-6,10.7l-14.9-8.3c1-1.7,1.9-3.5,2-3.6c0.1-0.1,0.1-0.4-0.3-1l0.9-1.6l0,0l0.2-0.3
			l-20-11.1c3.2-8.9,9.6-27.1,13.7-38.5l3,1c0.2,0.1,0.5,0.1,0.7-0.1c0.2-0.1,0.4-0.3,0.5-0.6l1.3-4c0.2-0.5-0.1-1.1-0.6-1.2
			l-2.8-0.9c0.9-2.4,1.4-4,1.5-4.3c0.3-0.8,0.3-1.5,0.1-2c-0.1-0.2-0.3-0.3-0.4-0.4l1.5-4.3c0,0,0.6,0.4,0.8-0.3
			c0.3-0.7,0-0.8-0.4-0.9s-3-1.1-3-1.1l3.1-9.4l-28.3-10l-3.5,9.4l-3.4-1.3c0,0-0.6,1.1-0.4,1.2l0.5,0.2l-17.4,49l-6.1-3.4l-0.1,0.2
			l0,0l-2.2,3.9l-0.4-0.2l-1.5,2.6l-1.8-1l-1.1,2l-7.9-4.4l2.4-4.3l-0.3-0.2l2.2-3.9v-0.1l0.1-0.2l-14.5-8.1l0.2-0.4
			c0,0,1-1.6,0.6-3s-1.7-1.8-1.7-1.8s-0.7,1.3-1.1,2c0.5,0.3,0.3,0.7,0.3,0.7l-0.6,1l-1.1-0.6l-0.1,0.2v0.1l-2.2,4l-0.3-0.2
			l-2.4,4.2l-0.4-0.2c0.4-0.7,0.9-1.6,1.1-1.9c0-0.1-1.4-2.6-6.4-5.4c-1.7-0.9-3.2-1.6-4.5-2l5.4-9.6c0.1-0.1,0-0.3-0.1-0.4l-1-0.6
			c-0.1-0.1-0.3,0-0.4,0.1l-0.4,0.7l0.8,0.4l-5.1,9.1c-1.9-0.5-3-0.5-3-0.5l-1.1,1.9l-2.3-1.3l2.1-3.8l-4.9-2.8l7.3-13.2l-15.5-8.6
			l-1.6,2.8l-5.2-2.9l-3.8,6.8l-1-0.6l-1.7,3.1l-2.8-1.6l4.2-7.6l0.8,0.4l0.4-0.7c0.1-0.1,0-0.3-0.1-0.4l-1-0.6
			c-0.1-0.1-0.3,0-0.4,0.1l-4.6,8.3l-0.9-0.5l4.6-8.3c0.1-0.1,0-0.3-0.1-0.4l-1-0.6c-0.1-0.1-0.3,0-0.4,0.1l-0.4,0.7l0.8,0.4
			l-4.2,7.6l-10.8-6c1.3-3.6,10.2-28.9,15.4-43.4l3,1c0.2,0.1,0.5,0.1,0.7-0.1c0.2-0.1,0.4-0.3,0.5-0.6l1.3-4
			c0.2-0.5-0.1-1.1-0.6-1.2l-2.8-0.9c0.9-2.4,1.4-4,1.5-4.3c0.3-0.8,0.3-1.5,0.1-2c-0.1-0.2-0.3-0.3-0.4-0.4l1.5-4.3
			c0,0,0.6,0.4,0.8-0.3c0.3-0.7,0-0.8-0.4-0.9s-3-1.1-3-1.1l3.1-9.4l-28.3-10l-3.5,9.4l-3.4-1.3c0,0-0.6,1.1-0.4,1.2l0.5,0.2
			l-14.2,40c-5.4-1.6-19.1-5.5-24.5-7.1c-0.5-0.7-0.9-1.3-1.4-2l0,0H302c-51.5-73.8-43.1-161.5-48.3-165.2l0.3-0.3l-0.6-0.6
			l-0.4,0.4l-10.1-8.2l0.3-0.2l-1.9-0.9l0.5-1.4l-1.2-0.2l-23.9,65.4L51.8,922.1c-0.1,0-0.1-0.1-0.2-0.1c0,0,0,0.1-0.1,0.1l-6.3,0.6
			l-16.4-9.1l1.8-3.3c0,0,5.5,3,6.4,3.6s1.3,0.2,1.6-0.3c0.2-0.4,0.1-0.8,0-1l2.6-4.6l0.1-0.1l0.1-0.1l-11.3-6.3l-0.2-0.1l-1.4-0.8
			c0,0-11.5,5-12.1,5.3c-0.3,0.2-0.6,0.4-0.7,0.6l-25-13.9l-0.1-10c0,0,0.8-0.5-0.1-0.8c0-1.4,0.1-15.8,0.1-15.8s0.8-0.6,0.1-0.7
			c-0.7,0-1.5-0.1-1.6-0.1c0,0-0.3,0.4,0.1,0.5c0,0.1,0,0.4,0,0.9c-0.2,0.1-0.6,0.7-1.2,1.6V868c0,0-1.6-0.8-3.3-0.6
			s-2.6-0.9-3.6-0.7s-3.5,0.1-4.6-0.8s-2.5-0.8-2.5,0.3c-0.1,1-1.1,7.5-0.4,8.1c0.7,0.6,2.7,0.2,3.2,0.2s2.6,0.9,3.6,0.7
			c0.9-0.2,2.5,0.6,2.5,0.6s2.6,0.4,3.2,0.6c0.6,0.2,1.1,0.2,1.1,0.2s0.8,3.7,1.4,5.2c-0.2,0.1-0.6,0.4-0.1,0.7c0,0.3,0,4.8,0,8.9
			l-1.8-1v0.1l-0.1,0.2l-2.1,3.8c-0.4-0.2-0.6-0.3-0.7-0.4c0,0-2.7,5-3.2,5.7c1.1,1.2,8,8.7,19.1,18.7s8.7,10.7,10.8,14.4
			c2.1,3.8,0.3,4.7-1.8,8c-0.8,0.8-6.9,2.9-16.4,5.6c-15.7,5.5-14.8,17.1-13.8,23.3s9.2,18.3,9.2,18.3l74.5,41.7v34.7
			c-0.1,0.1-0.1,0.3-0.1,0.4c0,0.1,0,0.3,0.1,0.4v2.2h-0.1c-0.7-0.8-0.8,1.5-0.2,4.1s2.6,1.9,2.6,1.9s27.8,2.9,30.3,3.1
			s1.8-0.4,1.8-0.4s0.8-3,1.7-6.6c0.9-3.5,0.9-3.7,0.4-3.8c0,0-0.1,0-0.2,0v-1c0-0.2-0.1-0.3-0.2-0.4c0.2-0.2,0.3-0.4,0.3-0.7
			c0-0.6-0.5-1-1-1c-0.6,0-1,0.5-1,1c0,0.3,0.1,0.5,0.3,0.7c-0.1,0.1-0.2,0.3-0.2,0.4v1.6c-0.1,0-0.3,0.1-0.5,0.1v-17.4l105.2,58.7
			v29.4c-0.1,0.1-0.1,0.3-0.1,0.4s0,0.3,0.1,0.4v2.2h-0.1c-0.7-0.8-0.8,1.5-0.2,4.1c0.6,2.6,2.6,1.9,2.6,1.9s27.8,2.9,30.3,3.1
			c2.5,0.2,1.8-0.4,1.8-0.4s0.8-3,1.7-6.6c0.9-3.5,0.9-3.7,0.4-3.8c0,0-0.1,0-0.2,0v-1.3c0-0.2-0.1-0.3-0.2-0.4
			c0.2-0.2,0.3-0.4,0.3-0.7c0-0.6-0.5-1-1-1c-0.6,0-1,0.5-1,1c0,0.3,0.1,0.5,0.3,0.7c-0.1,0.1-0.2,0.3-0.2,0.4v1.6
			c-0.1,0-0.3,0.1-0.5,0.1v-12.1l72,40.3H170.2c0.2-0.7,0.4-1.4,0.5-2.1c1.3-5.2,1.3-5.5,0.6-5.6c-0.1,0-0.2,0-0.3,0v-1.8
			c0-0.2-0.1-0.5-0.3-0.6c0.3-0.3,0.4-0.6,0.4-1.1c0-0.8-0.7-1.5-1.5-1.5s-1.5,0.7-1.5,1.5c0,0.4,0.2,0.8,0.4,1.1
			c-0.2,0.2-0.3,0.4-0.3,0.6v2.3c-1.6,0.3-4,0.7-7.4,1.2v-1c0-0.2-0.1-0.5-0.3-0.6c0.3-0.3,0.4-0.6,0.4-1.1c0-0.8-0.7-1.5-1.5-1.5
			s-1.5,0.7-1.5,1.5c0,0.4,0.2,0.8,0.4,1.1c-0.2,0.2-0.3,0.4-0.3,0.6v1.3c-0.2,0-0.4,0-0.6,0.1v-0.3c0-0.2-0.1-0.5-0.3-0.6
			c0.3-0.3,0.4-0.6,0.4-1.1c0-0.8-0.7-1.5-1.5-1.5s-1.5,0.7-1.5,1.5c0,0.4,0.2,0.8,0.4,1.1c-0.2,0.2-0.3,0.4-0.3,0.6v0.6
			c-0.1,0-0.3,0-0.4,0v-1.6c0-0.3-0.1-0.5-0.3-0.7c0.3-0.3,0.5-0.7,0.5-1.1c0-0.9-0.7-1.6-1.6-1.6s-1.6,0.7-1.6,1.6
			c0,0.4,0.2,0.9,0.5,1.1c-0.2,0.2-0.3,0.4-0.3,0.7v1.9c-0.2,0-0.4,0-0.6,0.1v-1.1c0-0.2-0.1-0.5-0.3-0.6c0.3-0.3,0.4-0.6,0.4-1.1
			c0-0.8-0.7-1.5-1.5-1.5s-1.5,0.7-1.5,1.5c0,0.4,0.2,0.8,0.4,1.1c-0.2,0.2-0.3,0.4-0.3,0.6v1.4c-0.2,0-0.4,0-0.6,0v-2.3
			c0-0.2-0.1-0.5-0.3-0.6c0.3-0.3,0.4-0.6,0.4-1.1c0-0.8-0.7-1.5-1.5-1.5s-1.5,0.7-1.5,1.5c0,0.2,0,0.3,0.1,0.5
			c-0.2-0.3-0.6-0.5-1-0.5c-0.5,0-0.9,0.3-1.1,0.7c0-0.8-0.7-1.4-1.5-1.4s-1.5,0.7-1.5,1.5c0,0.4,0.2,0.8,0.4,1.1
			c-0.2,0.2-0.3,0.4-0.3,0.6v0.2v1.8c-0.1,0-0.1,0-0.2,0v-0.4c0-0.2-0.1-0.4-0.2-0.5c0.2-0.2,0.4-0.5,0.4-0.9c0-0.7-0.5-1.2-1.2-1.2
			s-1.2,0.5-1.2,1.2c0,0.3,0.1,0.7,0.4,0.9c-0.1,0.1-0.2,0.3-0.2,0.5v0.4c-0.4,0-0.7,0-1.1,0v-1.7c0-0.2-0.1-0.5-0.3-0.6
			c0.3-0.3,0.4-0.6,0.4-1.1c0-0.8-0.7-1.5-1.5-1.5s-1.5,0.7-1.5,1.5c0,0.4,0.2,0.8,0.4,1.1c-0.2,0.2-0.3,0.4-0.3,0.6v1.7
			c-0.4,0-0.8,0-1.2,0v-0.8c0-0.2-0.1-0.4-0.2-0.5c0.2-0.2,0.4-0.5,0.4-0.9c0-0.7-0.5-1.2-1.2-1.2c-0.1,0-0.2,0-0.4,0.1
			c-0.2-0.6-0.7-1-1.4-1c-0.8,0-1.5,0.7-1.5,1.5c0,0.4,0.2,0.8,0.4,1.1c-0.2,0.2-0.3,0.4-0.3,0.6v1c-0.2,0-0.3,0-0.5,0v-2.1
			c0-0.2-0.1-0.5-0.3-0.6c0.3-0.3,0.4-0.6,0.4-1.1c0-0.8-0.7-1.5-1.5-1.5s-1.5,0.7-1.5,1.5c0,0.4,0.2,0.8,0.4,1.1
			c-0.2,0.2-0.3,0.4-0.3,0.6v2c-0.2,0-0.3,0-0.5,0v-0.9c0-0.2-0.1-0.5-0.3-0.6c0.3-0.3,0.4-0.6,0.4-1.1c0-0.8-0.7-1.5-1.5-1.5
			s-1.5,0.7-1.5,1.5c0,0.4,0.2,0.8,0.4,1.1c-0.2,0.2-0.3,0.4-0.3,0.6v0.7c-0.2,0-0.4,0-0.7,0v-1.5c0-0.2-0.1-0.4-0.2-0.6
			c0.2-0.2,0.4-0.6,0.4-0.9c0-0.7-0.6-1.3-1.3-1.3c-0.5,0-0.9,0.3-1.1,0.7c0.1-0.2,0.2-0.4,0.2-0.7c0-0.8-0.7-1.5-1.5-1.5
			s-1.5,0.7-1.5,1.5c0,0.4,0.2,0.8,0.4,1.1c-0.2,0.2-0.3,0.4-0.3,0.6v2.2c-0.1,0-0.1,0-0.2,0c-1-1.1-1.1,1.7-0.4,5.2H27.1
			c0.2-0.7,0.4-1.5,0.6-2.3c1.1-4.4,1.1-4.6,0.5-4.7c-0.1,0-0.2,0-0.3,0v-1.6c0-0.2-0.1-0.4-0.2-0.5c0.2-0.2,0.4-0.5,0.4-0.9
			c0-0.7-0.6-1.2-1.2-1.2s-1.2,0.6-1.2,1.2c0,0.4,0.1,0.7,0.4,0.9c-0.1,0.1-0.2,0.3-0.2,0.5v2c-1.4,0.3-3.4,0.6-6.3,1v-0.8
			c0-0.2-0.1-0.4-0.2-0.5c0.2-0.2,0.4-0.5,0.4-0.9c0-0.7-0.6-1.2-1.2-1.2s-1.2,0.6-1.2,1.2c0,0.4,0.1,0.7,0.4,0.9
			c-0.1,0.1-0.2,0.3-0.2,0.5v1.1c-0.2,0-0.3,0-0.5,0.1v-0.2c0-0.2-0.1-0.4-0.2-0.5c0.2-0.2,0.4-0.5,0.4-0.9c0-0.7-0.6-1.2-1.2-1.2
			s-1.2,0.6-1.2,1.2c0,0.4,0.1,0.7,0.4,0.9c-0.1,0.1-0.2,0.3-0.2,0.5v0.5c-0.1,0-0.2,0-0.3,0v-1.4c0-0.2-0.1-0.4-0.2-0.6
			c0.3-0.2,0.4-0.6,0.4-1c0-0.7-0.6-1.3-1.3-1.3s-1.3,0.6-1.3,1.3c0,0.4,0.2,0.7,0.4,1c-0.1,0.1-0.2,0.3-0.2,0.6v1.6
			c-0.1,0-0.3,0-0.5,0v-1c0-0.2-0.1-0.4-0.2-0.5c0.2-0.2,0.4-0.5,0.4-0.9c0-0.7-0.6-1.2-1.2-1.2s-1.2,0.6-1.2,1.2
			c0,0.4,0.1,0.7,0.4,0.9c-0.1,0.1-0.2,0.3-0.2,0.5v1.1c-0.2,0-0.3,0-0.5,0v-2c0-0.2-0.1-0.4-0.2-0.5c0.2-0.2,0.4-0.5,0.4-0.9
			c0-0.7-0.6-1.2-1.2-1.2s-1.2,0.6-1.2,1.2c0,0.1,0,0.3,0.1,0.4c-0.2-0.2-0.5-0.4-0.8-0.4c-0.4,0-0.8,0.2-1,0.6
			c0-0.7-0.6-1.2-1.2-1.2c-0.7,0-1.2,0.6-1.2,1.2c0,0.4,0.1,0.7,0.4,0.9c-0.1,0.1-0.2,0.3-0.2,0.5v0.1v1.5H3.4v-0.3
			c0-0.2-0.1-0.3-0.2-0.4c0.2-0.2,0.3-0.4,0.3-0.7c0-0.6-0.5-1-1-1s-1,0.5-1,1c0,0.3,0.1,0.5,0.3,0.7c-0.1,0.1-0.2,0.3-0.2,0.4v0.4
			c-0.3,0-0.6,0-0.9,0v-1.4c0-0.2-0.1-0.4-0.2-0.5c0.2-0.2,0.4-0.5,0.4-0.9c0-0.7-0.6-1.2-1.2-1.2s-1.2,0.6-1.2,1.2
			c0,0.4,0.1,0.7,0.4,0.9c-0.1,0.1-0.2,0.3-0.2,0.5v1.4c-0.3,0-0.7,0-1,0v-0.6c0-0.2-0.1-0.3-0.2-0.4c0.2-0.2,0.3-0.4,0.3-0.7
			c0-0.6-0.5-1-1-1c-0.1,0-0.2,0-0.3,0.1c-0.2-0.5-0.6-0.9-1.2-0.9c-0.7,0-1.2,0.6-1.2,1.2c0,0.4,0.1,0.7,0.4,0.9
			c-0.1,0.1-0.2,0.3-0.2,0.5v0.9c-0.1,0-0.3,0-0.4,0v-1.8c0-0.2-0.1-0.4-0.2-0.5c0.2-0.2,0.4-0.5,0.4-0.9c0-0.7-0.6-1.2-1.2-1.2
			s-1.2,0.6-1.2,1.2c0,0.4,0.1,0.7,0.4,0.9c-0.1,0.1-0.2,0.3-0.2,0.5v1.7c-0.1,0-0.3,0-0.4,0v-0.7c0-0.2-0.1-0.4-0.2-0.5
			c0.2-0.2,0.4-0.5,0.4-0.9c0-0.7-0.6-1.2-1.2-1.2s-1.2,0.6-1.2,1.2c0,0.4,0.1,0.7,0.4,0.9c-0.1,0.1-0.2,0.3-0.2,0.5v0.6
			c-0.2,0-0.4,0-0.6,0v-1.3c0-0.2-0.1-0.3-0.2-0.5c0.2-0.2,0.3-0.5,0.3-0.8c0-0.6-0.5-1.1-1.1-1.1s-1.1,0.5-1.1,1
			c0-0.1-0.1-0.1-0.1-0.1c0.2-0.2,0.4-0.5,0.4-0.9c0-0.7-0.6-1.2-1.2-1.2s-1.2,0.6-1.2,1.2c0,0.4,0.1,0.7,0.4,0.9
			c-0.1,0.1-0.2,0.3-0.2,0.5v1.9c-0.1,0-0.1,0-0.1,0c-0.9-1-0.9,1.8-0.3,4.9h-13.7c0.7-2.8,1.5-5.9,2.3-9.2
			c2.8-11.3,2.7-11.8,1.3-12.1c-0.1,0-0.4,0-0.8,0v-4c0-0.5-0.2-1-0.6-1.4c0.6-0.6,1-1.4,1-2.3c0-1.8-1.4-3.2-3.2-3.2
			s-3.2,1.4-3.2,3.2c0,0.9,0.4,1.7,1,2.3c-0.3,0.4-0.6,0.8-0.6,1.4v5c-3.5,0.7-8.7,1.6-16,2.6v-2.2c0-0.5-0.2-1-0.6-1.4
			c0.6-0.6,1-1.4,1-2.3c0-1.8-1.4-3.2-3.2-3.2c-1.8,0-3.2,1.4-3.2,3.2c0,0.9,0.4,1.7,1,2.3c-0.3,0.4-0.6,0.8-0.6,1.4v2.9
			c-0.4,0.1-0.9,0.1-1.3,0.2v-0.8c0-0.5-0.2-1-0.6-1.4c0.6-0.6,1-1.4,1-2.3c0-1.8-1.4-3.2-3.2-3.2s-3.2,1.4-3.2,3.2
			c0,0.9,0.4,1.7,1,2.3c-0.3,0.4-0.6,0.8-0.6,1.4v1.2c-0.3,0-0.6,0.1-0.8,0.1v-3.5c0-0.6-0.2-1.1-0.6-1.5c0.6-0.6,1-1.5,1-2.5
			c0-1.9-1.5-3.5-3.5-3.5s-3.5,1.5-3.5,3.5c0,1,0.4,1.8,1,2.5c-0.4,0.4-0.6,0.9-0.6,1.5v4.1c-0.4,0-0.8,0.1-1.2,0.1v-2.4
			c0-0.5-0.2-1-0.6-1.4c0.6-0.6,1-1.4,1-2.3c0-1.8-1.4-3.2-3.2-3.2c-1.8,0-3.2,1.4-3.2,3.2c0,0.9,0.4,1.7,1,2.3
			c-0.3,0.4-0.6,0.8-0.6,1.4v2.9c-0.4,0-0.9,0.1-1.3,0.1v-5c0-0.5-0.2-1-0.6-1.4c0.6-0.6,1-1.4,1-2.3c0-1.8-1.4-3.2-3.2-3.2
			c-1.8,0-3.2,1.4-3.2,3.2c0,0.3,0.1,0.6,0.2,0.9c-0.5-0.6-1.3-0.9-2.1-0.9c-1.1,0-2,0.6-2.5,1.5c-0.1-1.7-1.5-3.1-3.2-3.1
			c-1.8,0-3.2,1.4-3.2,3.2c0,0.9,0.4,1.7,1,2.3c-0.3,0.4-0.6,0.8-0.6,1.4v0.4v3.9c-0.1,0-0.2,0-0.3,0v-0.9c0-0.4-0.2-0.8-0.5-1.1
			c0.5-0.5,0.8-1.1,0.8-1.9c0-1.5-1.2-2.6-2.6-2.6c-1.5,0-2.6,1.2-2.6,2.6c0,0.7,0.3,1.4,0.8,1.9c-0.3,0.3-0.5,0.7-0.5,1.1v0.9
			c-0.8,0-1.6,0-2.3,0v-3.6c0-0.5-0.2-1-0.6-1.4c0.6-0.6,1-1.4,1-2.3c0-1.8-1.4-3.2-3.2-3.2c-1.8,0-3.2,1.4-3.2,3.2
			c0,0.9,0.4,1.7,1,2.3c-0.3,0.4-0.6,0.8-0.6,1.4v3.6c-0.8,0-1.7,0-2.5,0v-1.7c0-0.4-0.2-0.8-0.5-1.1c0.5-0.5,0.8-1.1,0.8-1.9
			c0-1.4-1.2-2.6-2.6-2.6c-0.3,0-0.5,0.1-0.8,0.1c-0.4-1.3-1.6-2.2-3-2.2c-1.8,0-3.2,1.4-3.2,3.2c0,0.9,0.4,1.7,1,2.3
			c-0.3,0.4-0.6,0.8-0.6,1.4v2.2c-0.3,0-0.7,0-1,0v-4.6c0-0.5-0.2-1-0.6-1.4c0.6-0.6,1-1.4,1-2.3c0-1.8-1.4-3.2-3.2-3.2
			s-3.2,1.4-3.2,3.2c0,0.9,0.4,1.7,1,2.3c-0.3,0.4-0.6,0.8-0.6,1.4v4.4c-0.4,0-0.7,0-1.1-0.1v-1.9c0-0.5-0.2-1-0.6-1.4
			c0.6-0.6,1-1.4,1-2.3c0-1.8-1.4-3.2-3.2-3.2s-3.2,1.4-3.2,3.2c0,0.9,0.4,1.7,1,2.3c-0.3,0.4-0.6,0.8-0.6,1.4v1.5
			c-0.5,0-1-0.1-1.4-0.1v-3.4c0-0.5-0.2-0.9-0.5-1.2c0.5-0.5,0.8-1.2,0.8-2c0-1.5-1.2-2.8-2.8-2.8c-0.9,0-1.8,0.5-2.3,1.2
			c0.1-0.4,0.2-0.8,0.2-1.2c0-1.8-1.4-3.2-3.2-3.2s-3.2,1.4-3.2,3.2c0,0.9,0.4,1.7,1,2.3c-0.3,0.4-0.6,0.8-0.6,1.4v4.8
			c-0.1,0-0.3,0-0.4,0c-2.4-2.5-2.4,4.8-0.6,13c0.2,1.1,0.6,2.1,1,2.9h-24.7c108.9,224.8,340,379,606.4,376.9
			c262.8-2,488.9-155.5,596.3-377L1007.5,1086.5z M-11.1,880.2c-0.9-1.8-2.9-7.1,0.4-12.3C-10.8,871.1-11,877.2-11.1,880.2z
			 M33,909.5l-2.6-1.5l0.6-1.1l2.6,1.5L33,909.5z M34.4,907L34.4,907l-2.7-1.4l0.5-0.9l2.1,1.2C34.2,906.3,34.3,906.7,34.4,907z
			 M31.3,905.4l-1-0.5l0.5-0.9l1,0.5L31.3,905.4z M31.1,905.6l-0.5,0.8l-1-0.5l0.5-0.8L31.1,905.6z M33.8,908.2l-2.6-1.5l0.5-0.8
			l2.6,1.5L33.8,908.2z M35.9,911.1l-1.5-0.9l0.6-1.1l1.5,0.9L35.9,911.1z M36.6,909.8l-1.5-0.9l0.5-0.8l1.5,0.9L36.6,909.8z
			 M38.5,912.6l-1.2-0.7l0.6-1.1l1.2,0.7L38.5,912.6z M39.3,911.2l-1.2-0.7l0.5-0.8l1.2,0.7L39.3,911.2z M39.9,910.1l-1.2-0.7
			l0.4-0.7l-1.4-0.8l-0.4,0.7l-1.5-0.9v-0.1c0.4,0,0.7-0.2,0.9-0.5l3.7,2.1L39.9,910.1z M41,908l-0.5,1l-3.7-2.1
			c0.2-0.5,0.1-1-0.3-1.4L41,908z M35.9,905.1c-0.5-0.1-1,0.1-1.4,0.5l-2.1-1.2l0.5-1L35.9,905.1z M32.5,903.2l-0.5,1l-1-0.5l0.5-1
			L32.5,903.2z M30.1,901.9l0.9,0.5l-0.5,1l-0.9-0.5L30.1,901.9z M30.4,903.7l-0.5,0.9l-0.9-0.5l0.5-0.9L30.4,903.7z M29.7,904.8
			l-0.5,0.8l-0.9-0.5l0.5-0.8L29.7,904.8z M20,908.1l-0.4,0.7l-3.2-1.8c0.4-0.4,0.9-0.6,0.9-0.6l11.3-4.9l0.4,0.3l-2.4,4.3l-0.5-0.3
			l-0.5,0.8l-0.9-0.5l-0.5,0.9l-0.8-0.4l-0.4,0.7l-0.7-0.4l-0.5,0.9l-0.7-0.4l-0.5,1L20,908.1z M26.2,912.5l-5.3-3l4.8-1.7l2.3,1.3
			L26.2,912.5z M27.6,906.5l0.6-1.1l0.9,0.5l-0.6,1.1L27.6,906.5z M29.6,906.2l1,0.5l-0.6,1.1l-0.9-0.5L29.6,906.2z M-136.1,1145.4
			c-0.1-0.1-0.2-0.2-0.2-0.3c0.2-0.1,0.3-0.3,0.4-0.5C-136,1144.9-136.1,1145.1-136.1,1145.4z M-135.8,1148.8v2.9l0,0v-4.8
			c0.1,0.3,0.3,0.5,0.5,0.7C-135.6,1147.9-135.8,1148.3-135.8,1148.8z M-86,1149.8v3.1c-0.1,0-0.2,0-0.4,0v-4.1c0-0.5-0.2-1-0.6-1.4
			c0.2-0.2,0.4-0.5,0.6-0.8c0.1,0.7,0.4,1.4,0.8,1.8C-85.8,1148.9-86,1149.3-86,1149.8z M-81.1,1149.1c-0.1-0.2-0.2-0.4-0.4-0.5
			c0.1-0.1,0.3-0.3,0.4-0.4V1149.1z M-80.6,1146.1c0-0.1,0-0.2-0.1-0.3c0.1,0.1,0.1,0.1,0.2,0.2C-80.6,1146-80.6,1146-80.6,1146.1z
			 M-13,1161.2v1.1l0,0v-1.9c0.1,0.1,0.1,0.2,0.2,0.3C-12.9,1160.9-13,1161-13,1161.2z M6.4,1161.6v1.2H6.3v-1.6
			c0-0.2-0.1-0.4-0.2-0.5c0.1-0.1,0.2-0.2,0.2-0.3c0,0.3,0.1,0.6,0.3,0.7C6.5,1161.3,6.4,1161.4,6.4,1161.6z M8.3,1161.4
			c0-0.1-0.1-0.2-0.1-0.2c0.1-0.1,0.1-0.1,0.1-0.2V1161.4z M8.5,1160.2c0-0.1,0-0.1,0-0.2C8.5,1160,8.5,1160.1,8.5,1160.2
			C8.5,1160.1,8.5,1160.2,8.5,1160.2z M120.1,1159.2c0-0.1-0.1-0.1-0.1-0.2c0.1-0.1,0.1-0.2,0.2-0.2
			C120.2,1158.9,120.1,1159.1,120.1,1159.2z M120.3,1160.7v1.4l0,0v-2.3c0.1,0.1,0.1,0.2,0.2,0.3
			C120.4,1160.3,120.3,1160.5,120.3,1160.7z M143.3,1161.2v1.4c-0.1,0-0.1,0-0.2,0v-1.8c0-0.2-0.1-0.5-0.3-0.6
			c0.1-0.1,0.2-0.2,0.3-0.4c0,0.3,0.2,0.6,0.4,0.9C143.4,1160.8,143.3,1161,143.3,1161.2z M145.6,1160.9c0-0.1-0.1-0.2-0.2-0.3
			c0.1-0.1,0.1-0.2,0.2-0.2V1160.9z M145.8,1159.5c0-0.1,0-0.1,0-0.2C145.8,1159.4,145.8,1159.4,145.8,1159.5L145.8,1159.5z
			 M376.6,1012.7c0.1,0,0.2,0.1,0.1,0.2l-1.3,4c0,0.1-0.1,0.1-0.1,0.1h-0.1l-3-1c0.6-1.6,1.1-3.1,1.5-4.3L376.6,1012.7z M375,1005.2
			c0.1,0.2,0.2,0.6-0.1,1.3c-0.1,0.3-0.7,1.9-1.5,4.3l-0.3-0.1L375,1005.2z M372.8,1011.4l0.3,0.1c-0.5,1.3-1,2.7-1.5,4.3l-0.3-0.1
			L372.8,1011.4z M371,1016.5l0.3,0.1c-5.1,14.3-13.9,39.2-15.3,43.2l-0.2-0.1L371,1016.5z M327.5,1029.3l-2.7,7.7l-2.4-1.4
			l-0.1,0.2l0,0l-2.2,3.9l-0.1-0.1l-0.3,0.6c-5.1-5.6-9.8-11.3-14.1-17.1L327.5,1029.3z M304.5,1022.9c4.5,6.1,9.4,12.1,14.8,18
			l-0.5,0.9l-4.8-2.7c-5-5.7-9.5-11.5-13.6-17.3L304.5,1022.9z M301.6,1019.7l0.2-0.4c0.3,0.4,0.5,0.7,0.8,1.1
			c-0.7-0.2-1.1-0.3-1.2-0.3c-0.2,0-0.4-0.1-0.7-0.2l0.3-0.5L301.6,1019.7z M253.4,853.8c4.8,3.4-3.5,90.3,47.4,164l-0.2-0.1l-1,1.8
			v0.1c-0.3,0-0.5-0.1-0.8-0.1l0,0l1.2-2.1l-1.5-0.9l-0.6,1.2l0.7,0.4c0,0-0.1,0.2-0.3,0.5c-49.6-73.3-41.4-159-46.6-162.7
			L253.4,853.8z M284.9,1004.1c-38.3-69.1-31.7-142.6-36-145.7l2.2-2.2c4.8,3.5-3.4,89.5,46.7,163c0,0.1-0.1,0.1-0.1,0.2
			c-0.6-0.1-1.1-0.1-1.4,0c-0.2-1-1.5-1.4-1.5-1.4l-0.7,1.2c-3-4.5-5.8-9.1-8.4-13.7l0.2-0.4l0,0l0.1-0.2L284.9,1004.1z
			 M285.5,1004.8l-0.1,0.2c-0.1-0.1-0.1-0.2-0.2-0.3L285.5,1004.8z M282,1006.8c-0.3-0.6-0.7-1.2-1-1.8l2.1,1.2l-0.5,0.9L282,1006.8
			z M282.3,1007.4L282.3,1007.4L282.3,1007.4L282.3,1007.4z M271,997.9l-0.5,0.9l-1.3-0.7l0.5-0.9L271,997.9z M269.9,996.9l0.3-0.6
			l1.3,0.7l-0.3,0.6L269.9,996.9z M271.5,998.2l2.7,1.5l-0.5,0.9l-2.7-1.5L271.5,998.2z M271.6,997.9l0.3-0.6l2.7,1.5l-0.3,0.6
			L271.6,997.9z M274.7,999.9l2.7,1.5l-0.5,0.9l-2.7-1.5L274.7,999.9z M278.4,1002c0.3,0.6,0.6,1.2,1,1.8l-2.1-1.2l0.5-0.9
			L278.4,1002z M277.9,1001.4l0.1-0.1c0,0.1,0.1,0.2,0.1,0.2L277.9,1001.4z M278.8,1001.1l2.3,1.3l-0.3,0.6l-1.3-0.7
			C279.2,1001.9,279,1001.5,278.8,1001.1z M280.6,1003.2l-0.3,0.5c-0.2-0.3-0.4-0.7-0.6-1L280.6,1003.2z M280.1,1005.2
			c0.2,0.3,0.3,0.6,0.5,0.9l-0.8-0.4L280.1,1005.2z M280.6,1004.3l0.5-0.8l2.7,1.5l-0.5,0.9l-2.5-1.4
			C280.6,1004.5,280.6,1004.4,280.6,1004.3z M281.2,1003.2l0.3-0.6l2.5,1.4c0,0.1,0.1,0.1,0.1,0.2l-0.3,0.5L281.2,1003.2z
			 M278.5,1000.6c-35.7-67.9-29.3-137.7-32.1-139.7l2-2.1c3.9,2.8-2.7,75.7,35.3,144.7L278.5,1000.6z M277.7,1000.7l-0.2,0.4
			l-2.7-1.5l0.3-0.6l2.3,1.3C277.6,1000.5,277.6,1000.6,277.7,1000.7z M277.1,1002.9l2.5,1.4c0.1,0.1,0.1,0.2,0.2,0.3l-0.4,0.8
			l-2.8-1.6L277.1,1002.9z M279.7,1005.9l1.2,0.7c0.1,0.3,0.3,0.5,0.4,0.8l-1.9-1.1L279.7,1005.9z M282.8,1007.7l0.8,0.4l-0.2,0.4
			l-0.7-0.4c0-0.1-0.1-0.1-0.1-0.2L282.8,1007.7z M283,1007.4l0.5-0.9l0.8,0.4l-0.5,0.9L283,1007.4z M283.6,1006.2l0.5-0.9l0.8,0.4
			l-0.5,0.9L283.6,1006.2z M284.3,1005l0.1-0.2c0.1,0.2,0.2,0.3,0.3,0.5L284.3,1005z M297.8,1021.1l0.8,0.2l-1.4,2.5
			c-0.2-0.2-0.3-0.5-0.5-0.7L297.8,1021.1z M252.8,853.3l-2,2.1l-8-10.1L252.8,853.3z M250.4,855.8l-2,2.1l-6.2-12.5L250.4,855.8z
			 M248,858.3l-1.8,1.9l-4.5-14.5L248,858.3z M64.3,1067v0.9l0,0v-1.5c0,0.1,0.1,0.2,0.2,0.2C64.3,1066.7,64.3,1066.9,64.3,1067z
			 M79.9,1067.3v1h-0.1v-1.3c0-0.2-0.1-0.3-0.2-0.4c0.1-0.1,0.1-0.2,0.2-0.3c0,0.2,0.1,0.4,0.3,0.6
			C80,1067.1,79.9,1067.2,79.9,1067.3z M81.5,1067.1c0-0.1-0.1-0.1-0.1-0.2c0,0,0.1-0.1,0.1-0.2V1067.1z M81.6,1066.2
			c0-0.1,0-0.1,0-0.2C81.6,1066.1,81.6,1066.1,81.6,1066.2C81.6,1066.1,81.6,1066.2,81.6,1066.2z M96,1066.6c-1,0.2-2.4,0.4-4.1,0.6
			v-0.7c0-0.2-0.1-0.3-0.2-0.4c0.2-0.2,0.3-0.4,0.3-0.7c0-0.6-0.5-1-1-1c-0.6,0-1,0.5-1,1c0,0.3,0.1,0.5,0.3,0.7
			c-0.1,0.1-0.2,0.3-0.2,0.4v0.9c-0.1,0-0.3,0-0.4,0v-0.2c0-0.2-0.1-0.3-0.2-0.4c0.2-0.2,0.3-0.4,0.3-0.7c0-0.6-0.5-1-1-1
			s-1,0.5-1,1c0,0.3,0.1,0.5,0.3,0.7c-0.1,0.1-0.2,0.3-0.2,0.4v0.4c-0.1,0-0.2,0-0.3,0v-1.1c0-0.2-0.1-0.3-0.2-0.5
			c0.2-0.2,0.3-0.5,0.3-0.8c0-0.6-0.5-1.1-1.1-1.1s-1.1,0.5-1.1,1.1c0,0.3,0.1,0.6,0.3,0.8c-0.1,0.1-0.2,0.3-0.2,0.5v1.3
			c-0.1,0-0.3,0-0.4,0v-0.8c0-0.2-0.1-0.3-0.2-0.4c0.2-0.2,0.3-0.4,0.3-0.7c0-0.6-0.5-1-1-1s-1,0.5-1,1c0,0.3,0.1,0.5,0.3,0.7
			c-0.1,0.1-0.2,0.3-0.2,0.4v0.9c-0.1,0-0.3,0-0.4,0v-1.6c0-0.2-0.1-0.3-0.2-0.4c0.2-0.2,0.3-0.4,0.3-0.7c0-0.6-0.5-1-1-1
			c-0.6,0-1,0.5-1,1c0,0.1,0,0.2,0.1,0.3c-0.2-0.2-0.4-0.3-0.7-0.3s-0.6,0.2-0.8,0.5c0-0.5-0.5-1-1-1c-0.6,0-1,0.5-1,1
			c0,0.3,0.1,0.5,0.3,0.7c-0.1,0.1-0.2,0.3-0.2,0.4v0.1v1.2h-0.1v-0.3c0-0.1-0.1-0.3-0.1-0.4c0.2-0.2,0.3-0.4,0.3-0.6
			c0-0.5-0.4-0.8-0.8-0.8s-0.8,0.4-0.8,0.8c0,0.2,0.1,0.4,0.3,0.6c-0.1,0.1-0.1,0.2-0.1,0.4v0.3c-0.2,0-0.5,0-0.7,0v-1.1
			c0-0.2-0.1-0.3-0.2-0.4c0.2-0.2,0.3-0.4,0.3-0.7c0-0.6-0.5-1-1-1s-1,0.5-1,1c0,0.3,0.1,0.5,0.3,0.7c-0.1,0.1-0.2,0.3-0.2,0.4v1.1
			c-0.3,0-0.5,0-0.8,0v-0.5c0-0.1-0.1-0.3-0.1-0.4c0.2-0.1,0.2-0.4,0.2-0.6c0-0.5-0.4-0.8-0.8-0.8c-0.1,0-0.2,0-0.3,0.1
			c-0.1-0.4-0.5-0.7-0.9-0.7c-0.6,0-1,0.5-1,1c0,0.3,0.1,0.5,0.3,0.7c-0.1,0.1-0.2,0.3-0.2,0.4v0.7c-0.1,0-0.2,0-0.3,0v-1.5
			c0-0.2-0.1-0.3-0.2-0.4c0.2-0.2,0.3-0.4,0.3-0.7c0-0.6-0.5-1-1-1c-0.6,0-1,0.5-1,1c0,0.3,0.1,0.5,0.3,0.7
			c-0.1,0.1-0.2,0.3-0.2,0.4v1.4c-0.1,0-0.2,0-0.3,0v-0.6c0-0.2-0.1-0.3-0.2-0.4c0.2-0.2,0.3-0.4,0.3-0.7c0-0.6-0.5-1-1-1
			c-0.6,0-1,0.5-1,1c0,0.3,0.1,0.5,0.3,0.7c-0.1,0.1-0.2,0.3-0.2,0.4v0.5c-0.2,0-0.3,0-0.5,0v-1c0-0.1-0.1-0.3-0.2-0.4
			c0.2-0.2,0.3-0.4,0.3-0.6c0-0.5-0.4-0.9-0.9-0.9s-0.9,0.4-0.9,0.8c0,0,0-0.1-0.1-0.1c0.2-0.2,0.3-0.4,0.3-0.7c0-0.6-0.5-1-1-1
			c-0.1,0-0.3,0-0.4,0.1v-33.9l33,18.5v18H96z M165,986.1c0.5,0.9-0.2,0.7-0.7,0.3s-3.1-2.3-3.7-2.6c-2.5-1.5-12.9-11.2-13.5-11.6
			c-0.3-0.2-0.3-0.3-0.2-0.5c3.6,1.7,11.6,6.5,18.7,11c-0.4,0.1-0.8,0.2-1.1,0.6C163.5,984.3,164.5,985.2,165,986.1z M187.8,986.6
			L187.8,986.6l-4.7-2.6l0,0l-0.5-0.3l-4.7-2.6l0,0l-0.5-0.3l0,0l-5.4-3l0,0l-0.5-0.3l0,0l-0.4-0.2l0,0l-0.5-0.3l-2.3,4.1v0.1
			c-0.2,0.3-0.8,1.5-0.9,1.6c-6.3-3.9-16.4-10.1-20.7-12.1c0-0.1,0-0.1-0.1-0.2c-0.4-1-1.9-1.2-2.7,0c-0.1,0.1-0.1,0.2-0.1,0.3
			c-1.5,1.6-2.5,5.6-2.7,6.6c0,0.2,0,0.3,0.2,0.4h0.1c0.2,0,0.4-0.1,0.5-0.3c0.4-1.8,1.2-4.1,2-5.5c0.1,0.1,0.2,0.2,0.2,0.2
			s-0.2,0.8-0.4,1.2c0.5,0.3,7,5.5,9.3,7.2s9.9,9.5,9.9,9.5l-2.2,4l-3.4-1.9l-0.6,1.2l0.7,0.4l-1.9,3.4
			c-10.2-5.7-45.8-25.5-47.6-26.5c-2.1-1.2-1.3-2.5-1.3-2.5l2.3-4.1c0,0-0.2-0.1-0.5-0.3l2.2-3.9l0.1-0.2v-0.1l-2.2-1.2
			c0.4-0.5,0.8-0.2,0.8-0.2s0.6-1.1,1.1-2c-2.5-1.4-3.7,0.7-3.7,0.7l-0.2,0.3l-2.1-1.2l2.1-3.7l0.8,0.4l0.6-1.1l-3.4-1.9l0.3-0.5
			l-1-0.6l0.7-1.2l0.2,0.1l0.9-1.7l-0.1-0.1l0.8-1.4l4.9-4.7l0.5-0.9l-0.5-0.3l0.4-0.7l-1.2-0.7l-0.2,0.4l-3-1.7l-0.7,1.3l-0.4-0.2
			l-0.4,0.7l-0.5-0.3l-2.3,4.2l0.3,0.2l-0.3,0.5l0.2,0.1l-1,1.7l-0.2-0.1l-0.9,1.6l0.2,0.1l-0.7,1.2l-1-0.6l-0.3,0.5l-3.4-1.9
			l-0.6,1.1l0.8,0.4l-2.1,3.7l-22.1-12.3c-0.3-0.4-0.7-0.7-1.3-1.1c0,0.1-0.1,0.2-0.1,0.3L54.6,928c0.1-0.1,1.2-2.9-2-5.3
			l163.9-15.1l-28.7,78.7L187.8,986.6z M203.1,1139.5v0.9l0,0v-1.5c0,0.1,0.1,0.2,0.2,0.2C203.2,1139.2,203.1,1139.4,203.1,1139.5z
			 M218.8,1139.8v1h-0.1v-1.3c0-0.2-0.1-0.3-0.2-0.4c0.1-0.1,0.1-0.2,0.2-0.3c0,0.2,0.1,0.4,0.3,0.6
			C218.9,1139.5,218.8,1139.7,218.8,1139.8z M220.4,1139.6c0-0.1-0.1-0.1-0.1-0.2c0,0,0.1-0.1,0.1-0.2V1139.6z M220.5,1138.7
			c0-0.1,0-0.1,0-0.2C220.5,1138.5,220.5,1138.6,220.5,1138.7C220.5,1138.6,220.5,1138.7,220.5,1138.7z M234.9,1139.1
			c-1,0.2-2.4,0.4-4.1,0.6v-0.7c0-0.2-0.1-0.3-0.2-0.4c0.2-0.2,0.3-0.4,0.3-0.7c0-0.6-0.5-1-1-1c-0.6,0-1,0.5-1,1
			c0,0.3,0.1,0.5,0.3,0.7c-0.1,0.1-0.2,0.3-0.2,0.4v0.9c-0.1,0-0.3,0-0.4,0v-0.1c0-0.2-0.1-0.3-0.2-0.4c0.2-0.2,0.3-0.4,0.3-0.7
			c0-0.6-0.5-1-1-1s-1,0.5-1,1c0,0.3,0.1,0.5,0.3,0.7c-0.1,0.1-0.2,0.3-0.2,0.4v0.4c-0.1,0-0.2,0-0.3,0v-1.1c0-0.2-0.1-0.3-0.2-0.5
			c0.2-0.2,0.3-0.5,0.3-0.8c0-0.6-0.5-1.1-1.1-1.1s-1.1,0.5-1.1,1.1c0,0.3,0.1,0.6,0.3,0.8c-0.1,0.1-0.2,0.3-0.2,0.5v1.3
			c-0.1,0-0.3,0-0.4,0v-0.8c0-0.2-0.1-0.3-0.2-0.4c0.2-0.2,0.3-0.4,0.3-0.7c0-0.6-0.5-1-1-1s-1,0.5-1,1c0,0.3,0.1,0.5,0.3,0.7
			c-0.1,0.1-0.2,0.3-0.2,0.4v0.9c-0.1,0-0.3,0-0.4,0v-1.6c0-0.2-0.1-0.3-0.2-0.4c0.2-0.2,0.3-0.4,0.3-0.7c0-0.6-0.5-1-1-1
			c-0.6,0-1,0.5-1,1c0,0.1,0,0.2,0.1,0.3c-0.2-0.2-0.4-0.3-0.7-0.3c-0.3,0-0.6,0.2-0.8,0.5c0-0.5-0.5-1-1-1c-0.6,0-1,0.5-1,1
			c0,0.3,0.1,0.5,0.3,0.7c-0.1,0.1-0.2,0.3-0.2,0.4v0.1v1.2h-0.1v-0.3c0-0.1-0.1-0.3-0.1-0.4c0.2-0.2,0.3-0.4,0.3-0.6
			c0-0.5-0.4-0.8-0.8-0.8s-0.8,0.4-0.8,0.8c0,0.2,0.1,0.4,0.3,0.6c-0.1,0.1-0.1,0.2-0.1,0.4v0.3c-0.2,0-0.5,0-0.7,0v-0.9
			c0-0.2-0.1-0.3-0.2-0.4c0.2-0.2,0.3-0.4,0.3-0.7c0-0.6-0.5-1-1-1s-1,0.5-1,1c0,0.3,0.1,0.5,0.3,0.7c-0.1,0.1-0.2,0.3-0.2,0.4v1.1
			c-0.3,0-0.5,0-0.8,0v-0.5c0-0.1-0.1-0.3-0.1-0.4c0.2-0.1,0.2-0.4,0.2-0.6c0-0.5-0.4-0.8-0.8-0.8c-0.1,0-0.2,0-0.3,0.1
			c-0.1-0.4-0.5-0.7-0.9-0.7c-0.6,0-1,0.5-1,1c0,0.3,0.1,0.5,0.3,0.7c-0.1,0.1-0.2,0.3-0.2,0.4v0.7c-0.1,0-0.2,0-0.3,0v-1.5
			c0-0.2-0.1-0.3-0.2-0.4c0.2-0.2,0.3-0.4,0.3-0.7c0-0.6-0.5-1-1-1c-0.6,0-1,0.5-1,1c0,0.3,0.1,0.5,0.3,0.7
			c-0.1,0.1-0.2,0.3-0.2,0.4v1.4c-0.1,0-0.2,0-0.3,0v-0.6c0-0.2-0.1-0.3-0.2-0.4c0.2-0.2,0.3-0.4,0.3-0.7c0-0.6-0.5-1-1-1
			c-0.6,0-1,0.5-1,1c0,0.3,0.1,0.5,0.3,0.7c-0.1,0.1-0.2,0.3-0.2,0.4v0.5c-0.2,0-0.3,0-0.5,0v-1c0-0.1-0.1-0.3-0.2-0.4
			c0.2-0.2,0.3-0.4,0.3-0.6c0-0.5-0.4-0.9-0.9-0.9s-0.9,0.4-0.9,0.8c0,0,0-0.1-0.1-0.1c0.2-0.2,0.3-0.4,0.3-0.7c0-0.6-0.5-1-1-1
			c-0.1,0-0.3,0-0.4,0.1v-28.7l33,18.5v12.5H234.9z M234.6,999.8l-0.7,1.3c0,0-17.2-15.6-17.6-16c-0.1-0.1-0.1-0.2-0.1-0.3
			c5.1,3,12.2,7.3,17.7,10.8c-0.5,0.2-1.1,0.7-1.4,1.5C231.8,998.7,234.6,999.8,234.6,999.8z M237.4,1007.3l0.4-0.7l3,1.7l-2.2,3.9
			l-2.9-1.6l0.9-1.6l2,1.1l0.9-1.6L237.4,1007.3z M242.1,1016.8l-3.8-2.1l3.3-5.9l3.8,2.1L242.1,1016.8z M267.1,999.4l-0.7,1.2
			l0.5,0.3l-4.2,7.5l-3-1.7l4.4-7.9l0.9,0.5c0,0,0.6-1,0.7-1.3s-1.7-1-1.7-1l-5.1,9.2l-2.9-1.4c0,0,3-5.3,3.2-5.7
			c0.2-0.3,0.1-1.8-1.2-2.6c-1.4-0.8-2.9,0.8-2.9,0.8l-5.3,9.4l-9.5-5.3c0.4-1.2,0.7-2.3,0.5-2.8c-0.5-1-4.6-2.7-5.4-3.1
			c-0.1,0-0.1,0-0.2-0.1c-3.8-2.4-13.5-8.5-20-12.1h-0.1c-1.9-1-3.5-1.9-4.6-2.4c-0.5-0.7-2.1-0.8-2.4,0.2c-1.5,1.6-2.5,5.6-2.7,6.6
			c0,0.2,0,0.3,0.2,0.4h0.1c0.2,0,0.4-0.1,0.5-0.3c0.4-1.8,1.2-4.2,2-5.6c0.4,0.9,1.7,0.7,1.7,0.7l2.9,2.7c-0.9,1.8-1.4,4.1-1.6,4.8
			c0,0.2,0,0.3,0.2,0.4h0.1c0.2,0,0.4-0.1,0.5-0.3c0.3-1.4,0.9-3.1,1.5-4.4l19,17.5l-1.8,3.3l-0.7-0.4l-0.3,0.6l-3.6-2l-0.6,1.1
			l0.8,0.4l-0.4,0.8l-8.5-4.7l0,0l-0.8-0.5l-0.5-0.3l0,0l-3.2-1.8l0,0l-0.5-0.3l-0.7-0.4l0,0l-0.5-0.3l0,0l-4.8-2.7l0,0l-0.5-0.3
			l0,0l-4.6-2.6c0.1-0.1,0.1-0.2,0.1-0.2s-1.7-1-2-1.1c-0.1-0.1-0.2,0-0.3,0.1l-0.7-0.4c0.1-0.1,0.1-0.3,0.3-0.5
			c0.2-0.4-0.3-0.6-0.3-0.6s1.4-2.6,2.7-4.9c1.3-2.3-1.5-4.1-1.5-4.1s-0.8,1.5-1.2,2.2c0.6,0.3,0.3,0.9,0.3,0.9s-2.2,3.9-2.6,4.7
			c-0.6-0.3-0.9,0.2-0.9,0.2l-0.1,0.1l-0.6-0.3l0,0l-0.5-0.3l0,0l-0.3-0.2l0,0l-0.5-0.3l0,0l-1.2-0.6l48.7-143.3
			c0.1,0.3,0.1,0.6,0.1,0.6l0.3-0.3l4.5,14.7l-0.4,0.4l0.4,0.5l0.3-0.3c2.1,1.5-4.2,70.7,31.2,138.5l-7.3-4l-0.1,0.2l0,0l-2.1,3.7
			L267.1,999.4z M210.7,981.9c0.8,0.4,1.9,1,3.2,1.7c-0.3,0.2-0.5,0.6-0.6,0.7c-0.1,0.2-2.4-1.9-2.6-2.1
			C210.7,982.2,210.7,982.1,210.7,981.9z M269.4,1000.7l-1.3-0.7l0.2-0.4l1.3,0.7L269.4,1000.7z M268.6,999.4l0.5-0.9l1.3,0.7
			l-0.5,0.9L268.6,999.4z M272.6,1002.5l-2.7-1.5l0.2-0.4l2.7,1.5L272.6,1002.5z M270.3,1000.3l0.5-0.9l2.7,1.5l-0.5,0.9
			L270.3,1000.3z M275.7,1004.2l-2.7-1.5l0.2-0.4l2.7,1.5L275.7,1004.2z M273.5,1002.1l0.5-0.9l2.7,1.5l-0.5,0.9L273.5,1002.1z
			 M276.2,1004.5l0.2-0.4l2.8,1.6l-0.2,0.4L276.2,1004.5z M290.3,1026L290.3,1026l-4-2.2l1-1.7l-8.3-4.6l4-7.1
			c2.7,4.5,5.5,9,8.6,13.4L290.3,1026z M293.1,1021l-1.1,1.9c-2.9-4.3-5.6-8.6-8.2-12.9l0.6-1l-0.6-0.3l1.4-2.6
			c2.6,4.6,5.4,9.2,8.5,13.7L293.1,1021z M294.6,1028.4l-0.7-0.4l0.3-0.5c0.2,0.2,0.3,0.5,0.5,0.7L294.6,1028.4z M294.7,1026.7
			l1.7-3c0.2,0.2,0.3,0.5,0.5,0.7l-1.7,3C295,1027.2,294.8,1027,294.7,1026.7z M296.7,1029.5c-0.3-0.3-0.5-0.7-0.8-1l1.7-3
			c1.9,2.6,3.8,5.2,5.9,7.8L296.7,1029.5z M304.9,1034.1c-2.4-3.1-4.8-6.2-7-9.3l1.7-3c3.9,5.6,8.2,11,12.8,16.4L304.9,1034.1z
			 M557.7,1163.5l-7.1,3.6h-0.1l-0.6-7.7L557.7,1163.5z M557.3,1164.8l-0.1,0.3l-2.4,1.9h-1.9L557.3,1164.8z M550.2,1154.8
			c0,0,1-0.3,1.7-0.6l-2,3.7l-1.2-0.7l-0.3,0.6l-0.6-0.4l-0.5,0.9l-0.5-0.3l-0.4,0.8l-0.7-0.4l-0.6,1l-0.7-0.4l-0.5,0.9l-0.8-0.4
			l-0.4,0.7l-0.7-0.4l-0.5,0.9l-0.8-0.5l-0.4,0.8l-0.7-0.4l-0.5,0.9l-0.7-0.4l-0.5,0.9l-0.5-0.3l-0.4,0.7l-2.4-1.3L550.2,1154.8z
			 M549.2,1160.3l0.4,6.8h-5l-1.3-0.7L549.2,1160.3z M542.2,1165.7l-4.3-2.4l10.3-4.1L542.2,1165.7z M505.6,1084.6
			c0.1,0,0.2,0.1,0.1,0.2l-1.3,4c0,0.1-0.1,0.1-0.1,0.1h-0.1l-3-1c0.6-1.6,1.1-3.1,1.5-4.3L505.6,1084.6z M504,1077.1
			c0.1,0.2,0.2,0.6-0.1,1.3c-0.1,0.3-0.7,1.9-1.5,4.3l-0.3-0.1L504,1077.1z M501.8,1083.3l0.3,0.1c-0.5,1.3-1,2.7-1.5,4.3l-0.3-0.1
			L501.8,1083.3z M500,1088.4l0.3,0.1c-4,11.4-10.4,29.4-13.6,38.4l-0.2-0.1L500,1088.4z"/>
	</g>
</g>
</svg>
