<?xml version="1.0" encoding="utf-8"?>
<!-- Generator: Adobe Illustrator 19.0.0, SVG Export Plug-In . SVG Version: 6.00 Build 0)  -->
<svg version="1.1" id="Layer_1" xmlns="http://www.w3.org/2000/svg"  x="0px" y="0px"
	 viewBox="0 0 414.5 420.4" style="enable-background:new 0 0 414.5 420.4;" xml:space="preserve">
<style type="text/css">
	.st0{fill:#293475;}
	.st1{fill:#FFFFFF;}
	.st2{fill:#CF202D;}
	.st3{fill:#010101;}
</style>
<g>
	<g>
		<path class="st0" d="M265.9,46.2c32.1,11.2,60,31.1,80.7,57"/>
		<path class="st0" d="M66.6,103.1c20.7-25.8,48.6-45.8,80.7-57"/>
		<path class="st0" d="M346.6,318.9c-20.7,25.8-48.6,45.8-80.7,57"/>
		<path class="st0" d="M147.3,375.9c-32.1-11.2-60-31.1-80.7-57"/>
		<path class="st0" d="M265.9,375.9c32.1-11.2,60-31.1,80.7-57l-80.7-39.7V375.9z"/>
		<path class="st0" d="M66.6,318.9c20.7,25.8,48.6,45.8,80.7,57v-96.6L66.6,318.9z"/>
		<path class="st0" d="M346.6,103.1c-20.7-25.8-48.6-45.8-80.7-57v96.6L346.6,103.1z"/>
		<path class="st0" d="M147.3,46.2c-32.1,11.2-60,31.1-80.7,57l80.7,39.7V46.2z"/>
		<path class="st1" d="M265.9,269.3v10l80.7,39.7c7-8.7,13.1-18.2,18.3-28.1l-43.7-21.5H265.9z"/>
		<path class="st1" d="M374.3,152.7c-2.3-6.5-5-12.7-8.1-18.8L328,152.7H374.3z"/>
		<path class="st1" d="M265.9,152.7h9.1l79.4-39c-2.5-3.6-5.1-7.1-7.8-10.6l-80.7,39.7V152.7z"/>
		<path class="st1" d="M147.3,152.7v-10l-80.7-39.7c-7.1,8.9-13.3,18.4-18.6,28.6l42.8,21H147.3z"/>
		<path class="st1" d="M147.3,269.3H137l-78.6,38.6c2.6,3.8,5.3,7.4,8.1,11l80.7-39.7V269.3z"/>
		<path class="st2" d="M88,152.7h2.8l-42.8-21c-0.2,0.4-0.4,0.7-0.6,1.1L88,152.7z"/>
		<path class="st2" d="M47.4,132.8c-3.3,6.4-6.2,13.1-8.6,19.9H88L47.4,132.8z"/>
		<path class="st2" d="M325.2,152.7h2.8l38.3-18.8c-0.2-0.4-0.4-0.7-0.6-1.1L325.2,152.7z"/>
		<path class="st2" d="M325.2,152.7l40.5-19.9c-3.4-6.6-7.2-13-11.3-19.1l-79.4,39H325.2z"/>
		<path class="st2" d="M325.2,269.3h-4l43.7,21.5c0.3-0.5,0.5-1,0.8-1.6L325.2,269.3z"/>
		<path class="st2" d="M325.2,269.3l40.5,19.9c3.3-6.4,6.1-13,8.6-19.9l-0.1,0H325.2z"/>
		<path class="st2" d="M88,269.3l-40.5,19.9c3.3,6.5,7,12.7,11,18.7l78.6-38.6H88z"/>
		<path class="st2" d="M88,269.3h-4l-37.3,18.4c0.3,0.5,0.5,1,0.8,1.6L88,269.3z"/>
		<path class="st1" d="M147.3,46.2v96.6v10H90.8H88H38.8c-0.1,0.2-0.1,0.3-0.2,0.5l-0.9-0.5l-3,12.9c-0.9,3.4-1.8,6.9-2.5,10.4h23.6
			h29.3h50.2h2.8H171v-21.6V39.7C162.9,41.3,155,43.5,147.3,46.2z"/>
		<path class="st1" d="M378.4,165.7c-1.2-4.4-2.6-8.7-4.1-12.9H328h-2.8h-50.2h-9.1v-10V46.2c-7.7-2.7-15.6-4.8-23.7-6.5v114.8v14.4
			v7.2h35.6h2.8h76.8h23.6C380.2,172.6,379.3,169.1,378.4,165.7z"/>
		<path class="st1" d="M357.3,246h-30.5h-49.1h-4h-31.6v21.6v114.8c8.1-1.6,16-3.8,23.7-6.5v-96.6v-10h55.3h4h49.1h0.1
			c1.5-4.2,2.9-8.5,4.1-12.9c0.9-3.4,1.8-6.9,2.5-10.4H357.3z"/>
		<path class="st1" d="M135.4,246h-4H55.9H32.2c0.7,3.5,1.6,7,2.5,10.4c1.2,4.4,2.6,8.7,4.1,12.9c2.3,6.3,4.9,12.4,7.8,18.4
			L84,269.3h4H137h10.2v10v96.6c7.7,2.7,15.6,4.8,23.7,6.5V267.6v-15V246H135.4z"/>
		<path class="st2" d="M380.9,176.1h-23.6h-76.8h-2.8h-35.6v-7.2v-14.4V39.7c-11.5-2.3-23.4-3.5-35.6-3.5h0c0,0,0,0,0,0l0,0
			c0,0,0,0,0,0c-12.2,0-24.1,1.2-35.6,3.5v114.8v21.6h-32.8h-2.8H85.2H55.9H32.2c-2.3,11.3-3.6,23-3.6,35v0c0,12,1.2,23.7,3.6,35
			h23.6h75.6h4H171v6.6v15v114.8c11.5,2.3,23.4,3.5,35.6,3.5l0,0c0,0,0,0,0,0c12.2,0,24.1-1.2,35.6-3.5V267.6V246h31.6h4h49.1h30.5
			h23.6c2.3-11.3,3.6-23,3.6-35v0C384.5,199,383.2,187.4,380.9,176.1z"/>
	</g>
	<path class="st3" d="M206.6,394.6c-103.4,0-187.5-82.7-187.5-184.3S103.2,26.1,206.6,26.1s187.5,82.7,187.5,184.3
		S310,394.6,206.6,394.6z M206.6,40.8c-95.1,0-172.5,76-172.5,169.5s77.4,169.5,172.5,169.5s172.5-76,172.5-169.5
		S301.7,40.8,206.6,40.8z"/>
</g>
</svg>
