<?xml version="1.0" encoding="utf-8"?>
<!-- Generator: Adobe Illustrator 19.0.0, SVG Export Plug-In . SVG Version: 6.00 Build 0)  -->
<svg version="1.1" id="Layer_1" xmlns="http://www.w3.org/2000/svg"  x="0px" y="0px"
	 viewBox="0 0 412.8 395.6" style="enable-background:new 0 0 412.8 395.6;" xml:space="preserve">
<style type="text/css">
	.st0{fill:#2C71B9;}
	.st1{fill:#010101;}
	.st2{fill:#FFFFFF;}
</style>
<g>
	<path id="XMLID_14_" class="st0" d="M36.6,138.7h339.5c-24.7-69.9-91.4-120-169.7-120S61.4,68.8,36.6,138.7z"/>
	<path class="st1" d="M26.4,198.7c0,21,3.6,41.2,10.3,60h339.5c6.6-18.8,10.3-39,10.3-60s-3.6-41.2-10.3-60H36.6
		C30,157.4,26.4,177.6,26.4,198.7z"/>
	<path class="st2" d="M376.1,258.7H36.6c24.7,69.9,91.4,120,169.7,120S351.4,328.6,376.1,258.7z"/>
	<path id="XMLID_15_" class="st1" d="M206.4,386.2c-103.4,0-187.5-84.1-187.5-187.5S103,11.2,206.4,11.2s187.5,84.1,187.5,187.5
		S309.8,386.2,206.4,386.2z M206.4,26.2c-95.1,0-172.5,77.4-172.5,172.5c0,95.1,77.4,172.5,172.5,172.5
		c95.1,0,172.5-77.4,172.5-172.5C378.9,103.6,301.5,26.2,206.4,26.2z"/>
</g>
</svg>
