<?xml version="1.0" encoding="utf-8"?>
<!-- Generator: Adobe Illustrator 19.0.0, SVG Export Plug-In . SVG Version: 6.00 Build 0)  -->
<svg version="1.1" id="Layer_1" xmlns="http://www.w3.org/2000/svg"  x="0px" y="0px"
	 viewBox="0 0 331 220" style="enable-background:new 0 0 331 220;" xml:space="preserve">
<style type="text/css">
	.st0{fill:#FFFFFF;}
	.st1{fill:#1E1E1E;}
</style>
<g id="XMLID_95_">
	<g id="XMLID_323_">
		<g id="XMLID_120_">
			<path id="XMLID_130_" class="st0" d="M147.9,19.6c-7.8,27.4-12.6,47.6-14.5,60.6c-1.9,13-1.6,21.6,0.8,25.9
				c0.6,1,0.7,2.1,0.4,3.2c-0.3,1.1-0.9,2-2,2.5c-0.8,0.4-1.5,0.6-2.2,0.6c-1.6,0-2.8-0.7-3.6-2.2c-2.9-4.9-3.8-12.8-2.8-23.8
				c1-11,4.2-26.9,9.7-47.6c-4,6.7-8,14-12.1,22c-9,17.7-14.7,30.8-17.3,39.2c-0.6,1.8-1.8,2.8-3.7,3c-2,0.2-3.4-0.6-4.2-2.4
				c-1.2-2.6-1.8-6.7-1.9-12.5c0-5.8,0.3-12.9,1-21.3c0.9-13.8,1.2-23,1.1-27.8c0-1.4-0.1-3-0.2-4.9l-1.7,3.6
				c-1,2.2-1.5,3.3-1.6,3.5c-2.4,5.6-4.4,10.3-6,14.2c-6.6,15.9-11.8,28.1-15.8,36.5c-2.9,6-5.6,11.1-8,15.2c-3,4.8-5.7,7.8-8.2,9
				c-0.5,0.2-1,0.4-1.7,0.4c-1.8,0-3.2-0.8-4-2.5c-0.5-1-0.5-2.1-0.1-3.2c0.4-1.1,1.2-1.9,2.2-2.5c0.6,0,2.2-2,4.7-6.1
				c2.8-5,5.3-9.8,7.6-14.4c3.3-7,8.4-18.9,15.5-35.6c2.2-5.6,4.3-10.4,6.1-14.4c0.6-1.6,1.2-2.8,1.6-3.5c1.1-2.5,2.4-5.4,3.8-8.9
				l0.8-3.1c-0.4-0.1-1.4-0.1-3.1-0.1c-3,0.2-6,1.6-9,4.1c-3.2,2.6-5.2,5.2-5.9,8c-0.8,3,0.2,5.4,3,7.4c1,0.7,1.5,1.7,1.7,2.8
				c0.2,1.2,0,2.2-0.7,3.2c-0.7,1-1.7,1.5-2.8,1.7c-1.2,0.2-2.2-0.1-3.2-0.8c-6.2-4.3-8.2-9.9-6.2-16.7c1.2-4.6,4.1-8.7,8.8-12.5
				c4.5-3.6,9.1-5.5,13.8-5.8c0.8-0.1,2-0.1,3.6-0.1h0.4c3,0.2,5.6,1.4,7.6,3.6c3.4,3.8,5.3,11.1,5.5,21.7c0.2,5-0.2,14.5-1.1,28.6
				c-0.2,2.1-0.4,6.1-0.8,12c4.1-9,7.7-16.5,10.8-22.6c10.8-21,19.8-34.9,26.9-41.5c1.5-1.5,3.2-1.7,5.2-0.6
				c0.8,0.5,1.4,1.2,1.7,2.1C148.2,17.8,148.2,18.7,147.9,19.6z"/>
			<path id="XMLID_119_" class="st1" d="M92.1,13.6c3,0.2,5.6,1.4,7.6,3.6c3.4,3.8,5.3,11.1,5.5,21.7c0.2,5-0.2,14.5-1.1,28.6
				c-0.2,2.1-0.4,6.1-0.8,12c4.1-9,7.7-16.5,10.8-22.6c10.8-21,19.8-34.9,26.9-41.5c0.9-0.9,1.8-1.3,2.8-1.3c0.7,0,1.5,0.2,2.3,0.7
				c0.8,0.5,1.4,1.2,1.7,2.1c0.4,0.9,0.4,1.8,0.1,2.7c-7.8,27.4-12.6,47.6-14.5,60.6c-1.9,13-1.6,21.6,0.8,25.9
				c0.6,1,0.7,2.1,0.4,3.2c-0.3,1.1-0.9,2-2,2.5c-0.8,0.4-1.5,0.6-2.2,0.6c-1.6,0-2.8-0.7-3.6-2.2c-2.9-4.9-3.8-12.8-2.8-23.8
				c1-11,4.2-26.9,9.7-47.6c-4,6.7-8,14-12.1,22c-9,17.7-14.7,30.8-17.3,39.2c-0.6,1.8-1.8,2.8-3.7,3c-0.2,0-0.3,0-0.5,0
				c-1.7,0-3-0.8-3.7-2.4c-1.2-2.6-1.8-6.7-1.9-12.5c0-5.8,0.3-12.9,1-21.3c0.9-13.8,1.2-23,1.1-27.8c0-1.4-0.1-3-0.2-4.9l-1.7,3.6
				c-1,2.2-1.5,3.3-1.6,3.5c-2.4,5.6-4.4,10.3-6,14.2c-6.6,15.9-11.8,28.1-15.8,36.5c-2.9,6-5.6,11.1-8,15.2c-3,4.8-5.7,7.8-8.2,9
				c-0.5,0.2-1,0.4-1.7,0.4c-1.8,0-3.2-0.8-4-2.5c-0.5-1-0.5-2.1-0.1-3.2c0.4-1.1,1.2-1.9,2.2-2.5c0.6,0,2.2-2,4.7-6.1
				c2.8-5,5.3-9.8,7.6-14.4c3.3-7,8.4-18.9,15.5-35.6c2.2-5.6,4.3-10.4,6.1-14.4c0.6-1.6,1.2-2.8,1.6-3.5c1.1-2.5,2.4-5.4,3.8-8.9
				l0.8-3.1c-0.4-0.1-1.4-0.1-3.1-0.1c-3,0.2-6,1.6-9,4.1c-3.2,2.6-5.2,5.2-5.9,8c-0.8,3,0.2,5.4,3,7.4c1,0.7,1.5,1.7,1.7,2.8
				c0.2,1.2,0,2.2-0.7,3.2c-0.7,1-1.7,1.5-2.8,1.7c-0.3,0-0.5,0.1-0.7,0.1c-0.9,0-1.7-0.3-2.4-0.8c-6.2-4.3-8.2-9.9-6.2-16.7
				c1.2-4.6,4.1-8.7,8.8-12.5c4.5-3.6,9.1-5.5,13.8-5.8c0.8-0.1,2-0.1,3.6-0.1H92.1 M92.1,2.6h-0.4c-1.8,0-3.3,0-4.4,0.1
				c-7,0.4-13.7,3.2-19.9,8.2C61,16.1,56.8,22.2,55,29c-3.2,11.1,0.5,21.5,10.2,28.4C60.3,69,56.5,77.6,53.9,83
				c-2.1,4.3-4.5,8.9-7.1,13.5C46,98,45.4,98.9,45,99.5c-2.6,1.8-4.6,4.2-5.8,7.1c-1.6,3.9-1.5,8.1,0.3,11.9c0,0,0,0.1,0.1,0.1
				c2.6,5.5,7.8,8.8,13.9,8.8c2.3,0,4.5-0.5,6.5-1.5c4.5-2.2,8.5-6.4,12.7-13.1c0,0,0.1-0.1,0.1-0.1c2.6-4.4,5.5-9.9,8.5-16.1
				c0.8-1.6,1.5-3.3,2.4-5.1c0.3,5.9,1.2,10.4,2.8,13.8c2.5,5.5,7.6,8.8,13.7,8.8c0.4,0,0.9,0,1.4-0.1c5.4-0.4,9.9-3.5,12.3-8.1
				c0.8,3.8,2,7,3.6,9.8c2.7,4.8,7.6,7.7,13.1,7.7c2.4,0,4.7-0.6,7.1-1.8c0.1-0.1,0.2-0.1,0.3-0.2c3.8-2,6.4-5.4,7.4-9.5
				c1-3.8,0.5-7.7-1.4-11.1c0-0.1-0.1-0.1-0.1-0.2c-0.1-0.3-1.7-4.4,0.5-18.9c1.8-12.5,6.6-32.3,14.1-59c1.1-3.3,1-6.7-0.3-10
				c-1.2-3.2-3.4-5.8-6.3-7.5c0,0-0.1,0-0.1-0.1c-2.5-1.5-5.2-2.2-7.9-2.2c-3.8,0-7.5,1.6-10.4,4.4c-5.2,4.9-11.1,12.7-17.6,23.6
				c-1-9.6-3.6-16.4-7.9-21.2c-3.9-4.4-9.2-6.9-15.2-7.2C92.5,2.6,92.3,2.6,92.1,2.6L92.1,2.6z"/>
		</g>
		<g id="XMLID_86_">
			<path id="XMLID_114_" class="st0" d="M146.6,106c-3.4-3.7-4.1-9.1-2.2-16.2c1.8-6.6,5.3-12.4,10.7-17.5c0.9-0.9,1.9-1.3,3.1-1.2
				c1-2.6,2.6-4.9,4.8-6.7c4.9-4.4,9.6-5.9,14.3-4.4c4.3,1.5,7,5,8,10.6c0.9,4.8,0.1,10-2.3,15.5c-0.3,0.8-0.6,1.4-0.8,1.8
				c3-0.9,5.6-2.8,7.8-5.8c0.7-0.9,1.7-1.4,2.8-1.5c1.2-0.1,2.2,0.2,3.2,0.9c0.9,0.7,1.4,1.7,1.6,2.8c0.2,1.2-0.2,2.2-1,3.2
				c-3,3.8-6.5,6.6-10.7,8.2c-3,1.2-6.3,1.6-9.8,1.2c-1.4,1.6-3.2,3.3-5.4,5.2c-4.9,3.9-9.3,6.3-13.3,7.2c-1.4,0.2-2.4,0.2-2.9,0.2
				C151.2,109.4,148.6,108.2,146.6,106z M152.6,92c-1,4-0.9,6.8,0.4,8.4c0.8,0.4,1.7,0.5,2.8,0.4c2.6-0.6,5.8-2.4,9.6-5.4
				c0.2-0.2,0.6-0.4,1-0.8c0.4-0.4,0.7-0.7,0.9-0.8c-4.9-3-8-6.9-9.5-11.8C155.3,85,153.6,88.4,152.6,92z M168.7,70.6
				c-2.8,2.6-3.7,5.4-2.8,8.5c0.9,3.4,3.2,6,7,7.9c3.5-5.4,4.9-10.5,4.1-15.1c-0.4-2.2-1.2-3.6-2.4-4c-0.2-0.1-0.4-0.1-0.7-0.1
				C172.4,67.8,170.7,68.8,168.7,70.6z"/>
			<path id="XMLID_65_" class="st1" d="M173.8,59.4c1.2,0,2.3,0.2,3.5,0.5c4.3,1.5,7,5,8,10.6c0.9,4.8,0.1,10-2.3,15.5
				c-0.3,0.8-0.6,1.4-0.8,1.8c3-0.9,5.6-2.8,7.8-5.8c0.7-0.9,1.7-1.4,2.8-1.5c0.2,0,0.3,0,0.5,0c1,0,1.9,0.3,2.7,0.9
				c0.9,0.7,1.4,1.7,1.6,2.8c0.2,1.2-0.2,2.2-1,3.2c-3,3.8-6.5,6.6-10.7,8.2c-2.3,0.9-4.7,1.4-7.2,1.4c-0.9,0-1.7-0.1-2.6-0.2
				c-1.4,1.6-3.2,3.3-5.4,5.2c-4.9,3.9-9.3,6.3-13.3,7.2c-1.4,0.2-2.4,0.2-2.9,0.2c-3.3,0-5.9-1.1-7.9-3.4
				c-3.4-3.7-4.1-9.1-2.2-16.2c1.8-6.6,5.3-12.4,10.7-17.5c0.8-0.8,1.7-1.2,2.8-1.2c0.1,0,0.2,0,0.3,0c1-2.6,2.6-4.9,4.8-6.7
				C166.7,61,170.3,59.4,173.8,59.4 M172.8,87c3.5-5.4,4.9-10.5,4.1-15.1c-0.4-2.2-1.2-3.6-2.4-4c-0.2-0.1-0.4-0.1-0.7-0.1
				c-1.4,0-3.1,0.9-5.2,2.8c-2.8,2.6-3.7,5.4-2.8,8.5C166.8,82.5,169.1,85.1,172.8,87 M154.8,100.8c0.3,0,0.6,0,0.9-0.1
				c2.6-0.6,5.8-2.4,9.6-5.4c0.2-0.2,0.6-0.4,1-0.8c0.4-0.4,0.7-0.7,0.9-0.8c-4.9-3-8-6.9-9.5-11.8c-2.4,3.1-4.1,6.5-5.2,10.1
				c-1,4-0.9,6.8,0.4,8.4C153.5,100.6,154.1,100.8,154.8,100.8 M173.8,48.4c-6.3,0-12.4,2.6-18.1,7.7c-2,1.7-3.8,3.7-5.2,5.9
				c-1.1,0.6-2.2,1.4-3.1,2.4c-6.8,6.5-11.4,14.1-13.6,22.6c-3.7,13.6,0.5,21.9,4.6,26.4c4.1,4.6,9.7,7,16.1,7
				c0.9,0,2.1-0.1,4.1-0.3c0.4,0,0.8-0.1,1.2-0.2c5.7-1.3,11.6-4.3,17.8-9.4c0.1-0.1,0.2-0.1,0.2-0.2c1-0.8,1.9-1.6,2.7-2.4
				c3.2-0.2,6.4-0.9,9.4-2c6-2.3,11.1-6.2,15.3-11.6c2.7-3.3,3.8-7.4,3.2-11.5c-0.6-4-2.5-7.4-5.5-9.8c-0.1-0.1-0.2-0.2-0.4-0.3
				c-1.9-1.4-4-2.4-6.3-2.8c-0.1-0.4-0.1-0.9-0.2-1.3c0,0,0,0,0-0.1c-1.8-9.4-7.2-16.1-15.2-18.9c-0.1,0-0.3-0.1-0.4-0.1
				C178.4,48.7,176.1,48.4,173.8,48.4L173.8,48.4z"/>
		</g>
		<g id="XMLID_82_">
			<path id="XMLID_85_" class="st0" d="M198,108.2c-2.6-1.7-4.3-4.7-5.2-9c-0.6-2.6-0.7-6.1-0.5-10.3c0.1-1.2,0.2-2.5,0.2-3.8
				c0.1-1.3,0.2-2.5,0.4-3.5c0.2-1,0.3-2,0.4-2.8c0.1-0.8,0.2-1.4,0.3-1.9l0.1-0.8c0.2-1.1,0.9-2,1.9-2.6c1-0.6,2.1-0.9,3.2-0.7
				c1.1,0.2,2,0.9,2.7,1.9c0.7,1,0.9,2.1,0.7,3.2l-0.1,0.6c-0.1,0.5-0.2,1.1-0.3,1.9c-0.1,0.8-0.2,1.6-0.4,2.5
				c-0.1,0.9-0.2,2-0.3,3.2c-0.1,1.2-0.2,2.4-0.2,3.5c-0.2,3-0.1,5.4,0.2,7.4c0.3,2,0.6,3.1,0.8,3.5c0.2,0.4,0.4,0.6,0.6,0.7
				c0.1,0.1,0.3,0.1,0.7,0c0.4-0.1,1-0.4,2-0.8c1-0.5,2-1.2,3.2-2c4.2-3.2,8.2-8.3,12-15.4c-0.5-3.9-0.1-7.6,1.2-11
				c1.2-3.7,3.1-6.3,5.6-7.9c2.3-1.4,4.5-1.2,6.5,0.4c2.4,2.2,2.5,5.5,0.2,10.1c-1.8,4-3.3,7.3-4.6,9.8c0.5,1.9,1.2,3.4,2.2,4.5
				c1,1.1,1.9,1.7,2.9,1.9c2.2,0.2,4.3-1.7,6.2-5.6c0.5-1,1.3-1.8,2.4-2.2c1.1-0.4,2.2-0.3,3.2,0.2c1,0.6,1.8,1.4,2.2,2.5
				c0.4,1.1,0.3,2.2-0.2,3.2c-1.6,3.4-3.7,6-6.2,7.9c-2.8,1.9-5.6,2.7-8.5,2.3c-3.1-0.4-5.8-1.9-8.2-4.6c-0.2-0.2-0.6-0.7-1.1-1.3
				c-3.3,5-6.8,8.9-10.7,11.9c-2.9,2.2-5.5,3.7-7.9,4.3c-1,0.3-1.9,0.5-2.9,0.5C201.2,109.5,199.6,109,198,108.2z"/>
			<path id="XMLID_81_" class="st1" d="M230.4,62.7c1.2,0,2.3,0.4,3.4,1.3c2.4,2.2,2.5,5.5,0.2,10.1c-1.8,4-3.3,7.3-4.6,9.8
				c0.5,1.9,1.2,3.4,2.2,4.5c1,1.1,1.9,1.7,2.9,1.9c0.1,0,0.2,0,0.3,0c2.1,0,4.1-1.9,6-5.6c0.5-1,1.3-1.8,2.4-2.2
				c0.5-0.2,0.9-0.2,1.4-0.2c0.6,0,1.3,0.2,1.9,0.5c1,0.6,1.8,1.4,2.2,2.5c0.4,1.1,0.3,2.2-0.2,3.2c-1.6,3.4-3.7,6-6.2,7.9
				c-2.3,1.6-4.7,2.4-7,2.4c-0.5,0-1,0-1.5-0.1c-3.1-0.4-5.8-1.9-8.2-4.6c-0.2-0.2-0.6-0.7-1.1-1.3c-3.3,5-6.8,8.9-10.7,11.9
				c-2.9,2.2-5.5,3.7-7.9,4.3c-1,0.3-1.9,0.5-2.9,0.5c-1.6,0-3.2-0.4-4.8-1.3c-2.6-1.7-4.3-4.7-5.2-9c-0.6-2.6-0.7-6.1-0.5-10.3
				c0.1-1.2,0.2-2.5,0.2-3.8c0.1-1.3,0.2-2.5,0.4-3.5c0.2-1,0.3-2,0.4-2.8c0.1-0.8,0.2-1.4,0.3-1.9l0.1-0.8c0.2-1.1,0.9-2,1.9-2.6
				c0.8-0.5,1.6-0.8,2.5-0.8c0.2,0,0.4,0,0.7,0c1.1,0.2,2,0.9,2.7,1.9c0.7,1,0.9,2.1,0.7,3.2l-0.1,0.6c-0.1,0.5-0.2,1.1-0.3,1.9
				c-0.1,0.8-0.2,1.6-0.4,2.5c-0.1,0.9-0.2,2-0.3,3.2c-0.1,1.2-0.2,2.4-0.2,3.5c-0.2,3-0.1,5.4,0.2,7.4c0.3,2,0.6,3.1,0.8,3.5
				c0.2,0.4,0.4,0.6,0.6,0.7c0,0,0.1,0.1,0.2,0.1s0.3,0,0.4-0.1c0.4-0.1,1-0.4,2-0.8c1-0.5,2-1.2,3.2-2c4.2-3.2,8.2-8.3,12-15.4
				c-0.5-3.9-0.1-7.6,1.2-11c1.2-3.7,3.1-6.3,5.6-7.9C228.4,63,229.4,62.7,230.4,62.7 M230.4,51.7c-3,0-5.9,0.8-8.7,2.4
				c-0.1,0.1-0.2,0.1-0.3,0.2c-4.7,3-8.2,7.5-10.2,13.6c-0.1,0.3-0.2,0.6-0.3,0.9c-0.1-0.2-0.2-0.3-0.3-0.5
				c-2.3-3.3-5.6-5.6-9.5-6.4c-0.3-0.1-0.5-0.1-0.8-0.1c-0.7-0.1-1.5-0.2-2.2-0.2c-3,0-5.9,0.9-8.4,2.5c-3.5,2.2-5.8,5.6-6.7,9.6
				c-0.1,0.2-0.1,0.5-0.1,0.8l-0.1,0.7c-0.1,0.5-0.2,1.2-0.3,2c-0.1,0.8-0.3,1.7-0.4,2.7c-0.2,1.4-0.4,2.9-0.5,4.6
				c-0.1,1.3-0.2,2.5-0.2,3.7c0,0,0,0.1,0,0.1c-0.3,5.2-0.1,9.5,0.7,13.2c1.5,7.3,4.8,12.6,9.9,16c0.2,0.2,0.5,0.3,0.7,0.4
				c3.2,1.8,6.6,2.7,10.1,2.7c2,0,4-0.3,6-0.9c3.8-1.1,7.5-3.1,11.5-6.2c2-1.6,4-3.3,5.9-5.3c1.9,0.8,3.8,1.3,5.8,1.6
				c1,0.1,2,0.2,2.9,0.2c4.6,0,9.1-1.5,13.3-4.3c0.1-0.1,0.3-0.2,0.4-0.3c3.9-2.9,7.1-6.9,9.5-11.8c1.9-3.7,2.2-7.9,0.8-11.9
				c-1.3-3.7-3.8-6.6-7.3-8.5c-1.7-0.9-3.4-1.5-5.2-1.7c1.3-8.3-3-13.4-5.3-15.5c-0.2-0.1-0.3-0.3-0.5-0.4
				C237.6,53,234.1,51.7,230.4,51.7L230.4,51.7z"/>
		</g>
		<g id="XMLID_71_">
			<path id="XMLID_77_" class="st0" d="M246.2,106.6c-2.6-1.3-4.6-3.1-5.9-5.5c-4.1-7.8,0.4-20.8,13.3-39.1c0.6-1,1.6-1.5,2.8-1.7
				c1.2-0.2,2.3,0.1,3.2,0.8c1,0.6,1.5,1.5,1.7,2.7c0.2,1.2-0.1,2.2-0.7,3.2c-2.9,4.1-5.3,7.8-7.2,11.2c-1.9,3.4-3.3,6.2-4.1,8.3
				c-0.8,2.1-1.4,4-1.6,5.6c-0.2,1.6-0.3,2.8-0.2,3.5c0.1,0.7,0.2,1.3,0.5,1.7c0.7,1.4,2.2,2,4.6,2c6.2,0,11.6-5.5,16.2-16.6
				c0.5-1,1.3-1.8,2.4-2.2c1.1-0.4,2.2-0.4,3.2,0.1c1,0.4,1.8,1.1,2.2,2.2c0.4,1.1,0.5,2.2,0.1,3.3c-3.1,7.3-6.8,12.8-11,16.6
				c-4.1,3.4-8.4,5.2-13.1,5.2C250.2,107.8,248.2,107.4,246.2,106.6z M262.2,50.4c-1.2-0.8-1.8-2-1.8-3.5c0-0.9,0.2-1.7,0.7-2.5
				l0.2-0.2l0.4-0.6c0.7-1,1.7-1.5,2.8-1.7c1.2-0.2,2.2,0,3.2,0.7c1,0.6,1.5,1.5,1.7,2.7c0.2,1.2,0,2.2-0.7,3.2l-0.5,0.7l-0.1,0.2
				c-0.8,1.2-2,1.8-3.6,1.8C263.8,51.2,263,50.9,262.2,50.4z"/>
			<path id="XMLID_70_" class="st1" d="M265.4,41.8c0.8,0,1.6,0.2,2.4,0.7c1,0.6,1.5,1.5,1.7,2.7c0.2,1.2,0,2.2-0.7,3.2l-0.5,0.7
				l-0.1,0.2c-0.8,1.2-2,1.8-3.6,1.8c-0.9,0-1.7-0.2-2.4-0.7c-1.2-0.8-1.8-2-1.8-3.5c0-0.9,0.2-1.7,0.7-2.5l0.2-0.2l0.4-0.6
				c0.7-1,1.7-1.5,2.8-1.7C264.9,41.8,265.1,41.8,265.4,41.8 M257.1,60.2c0.9,0,1.7,0.3,2.5,0.8c1,0.6,1.5,1.5,1.7,2.7
				c0.2,1.2-0.1,2.2-0.7,3.2c-2.9,4.1-5.3,7.8-7.2,11.2c-1.9,3.4-3.3,6.2-4.1,8.3c-0.8,2.1-1.4,4-1.6,5.6c-0.2,1.6-0.3,2.8-0.2,3.5
				c0.1,0.7,0.2,1.3,0.5,1.7c0.7,1.4,2.2,2,4.6,2c6.2,0,11.6-5.5,16.2-16.6c0.5-1,1.3-1.8,2.4-2.2c0.5-0.2,1.1-0.3,1.6-0.3
				c0.6,0,1.1,0.1,1.7,0.4c1,0.4,1.8,1.1,2.2,2.2c0.4,1.1,0.5,2.2,0.1,3.3c-3.1,7.3-6.8,12.8-11,16.6c-4.1,3.4-8.4,5.2-13.1,5.2
				c-2.2,0-4.2-0.4-6.2-1.2c-2.6-1.3-4.6-3.1-5.9-5.5c-4.1-7.8,0.4-20.8,13.3-39.1c0.6-1,1.6-1.5,2.8-1.7
				C256.6,60.2,256.9,60.2,257.1,60.2 M265.4,30.8c-0.9,0-1.8,0.1-2.7,0.2c-3.9,0.7-7.4,2.8-9.8,6c-0.2,0.2-0.3,0.4-0.4,0.6
				c-0.3,0.4-0.6,0.8-0.8,1.2c-1.5,2.5-2.3,5.3-2.3,8.2c0,1.4,0.2,2.7,0.5,3.9c-2.1,1.1-4,2.7-5.4,4.8c-10,14.2-22.3,34.8-14,50.5
				c0,0,0,0,0,0.1c2.4,4.5,6,7.9,10.8,10.2c0.2,0.1,0.5,0.2,0.7,0.3c3.3,1.3,6.8,2,10.3,2c7.3,0,14.1-2.6,20.2-7.7
				c0.1-0.1,0.1-0.1,0.2-0.2c5.4-4.8,10.1-11.7,13.9-20.5c0.1-0.2,0.2-0.4,0.2-0.6c1.3-3.7,1.2-7.5-0.2-11.1
				c-1.5-3.8-4.4-6.7-8.1-8.2c-1.9-0.8-3.9-1.2-6-1.2c-0.3,0-0.7,0-1,0c0.7-2.2,1-4.6,0.6-7c-0.1-0.6-0.2-1.2-0.3-1.7
				c2.2-1.1,4.1-2.8,5.6-5c0.2-0.2,0.3-0.5,0.5-0.7l0.2-0.2c2.2-3.3,3-7.2,2.3-11.1c-0.7-4.1-3-7.7-6.5-10
				C271.3,31.7,268.4,30.8,265.4,30.8L265.4,30.8z"/>
		</g>
		<g id="XMLID_14_">
			<path id="XMLID_69_" class="st0" d="M274.1,107.7c-3.2-1.5-5.5-3.7-7-6.8c-1.8-3.4-2.2-7.5-1.1-12.2c1.1-4.9,3.8-10.2,7.9-15.8
				c5.3-7.3,10.8-11.8,16.6-13.7c4.6-1.4,8.6-1,11.9,1.2c1.8,1.2,3.1,2.9,3.8,5.2c0.8,2,1,4.3,0.5,6.8c-0.8,4-3.6,7.9-8.5,11.8
				c-4.8,3.8-12.9,6.8-24.3,9c-0.2,1.4,0.1,2.7,0.7,3.8c0.7,1.4,2,2.5,3.7,3.3c1.8,0.8,3.5,1.1,5.3,1.1c4,0,8.3-1.5,13-4.4
				c4.7-2.9,8.3-7.3,10.7-13c0.5-1.1,1.3-1.9,2.3-2.3c1.1-0.4,2.2-0.4,3.3,0.1c1,0.4,1.8,1.1,2.2,2.2c0.4,1.1,0.5,2.2,0.1,3.3
				c-3.2,7.5-8.1,13.3-14.8,17.4c-5.5,3.5-11.2,5.3-16.9,5.3C280.4,110,277.2,109.2,274.1,107.7z M292.8,67.4
				c-3.9,1.3-7.9,4.8-12,10.4c-1.4,1.9-2.7,3.9-3.8,6c6.6-1.6,11.7-3.6,15.2-6c3.5-2.4,5.5-4.8,6-7.2c0.3-1.6,0.1-2.6-0.6-3.1
				c-0.5-0.3-1.2-0.5-2.3-0.5C294.6,67,293.8,67.1,292.8,67.4z"/>
			<path id="XMLID_13_" class="st1" d="M295.5,58.4c2.5,0,4.8,0.7,6.8,2c1.8,1.2,3.1,2.9,3.8,5.2c0.8,2,1,4.3,0.5,6.8
				c-0.8,4-3.6,7.9-8.5,11.8c-4.8,3.8-12.9,6.8-24.3,9c-0.2,1.4,0.1,2.7,0.7,3.8c0.7,1.4,2,2.5,3.7,3.3c1.8,0.8,3.5,1.1,5.3,1.1
				c4,0,8.3-1.5,13-4.4c4.7-2.9,8.3-7.3,10.7-13c0.5-1.1,1.3-1.9,2.3-2.3c0.5-0.2,1-0.3,1.6-0.3c0.6,0,1.2,0.1,1.7,0.4
				c1,0.4,1.8,1.1,2.2,2.2c0.4,1.1,0.5,2.2,0.1,3.3c-3.2,7.5-8.1,13.3-14.8,17.4c-5.5,3.5-11.2,5.3-16.9,5.3c-3.2,0-6.4-0.7-9.5-2.2
				c-3.2-1.5-5.5-3.7-7-6.8c-1.8-3.4-2.2-7.5-1.1-12.2c1.1-4.9,3.8-10.2,7.9-15.8c5.3-7.3,10.8-11.8,16.6-13.7
				C292.2,58.7,293.9,58.4,295.5,58.4 M277,83.8c6.6-1.6,11.7-3.6,15.2-6c3.5-2.4,5.5-4.8,6-7.2c0.3-1.6,0.1-2.6-0.6-3.1
				c-0.5-0.3-1.2-0.5-2.3-0.5c-0.7,0-1.6,0.1-2.5,0.4c-3.9,1.3-7.9,4.8-12,10.4C279.4,79.7,278.1,81.7,277,83.8 M295.5,47.4
				C295.5,47.4,295.5,47.4,295.5,47.4c-2.6,0-5.4,0.4-8.2,1.2c-0.1,0-0.2,0.1-0.3,0.1c-8,2.6-15.5,8.5-22.1,17.7
				c-5.1,6.9-8.2,13.4-9.7,19.8c-1.7,7.3-1,14,2,19.8c2.6,5.2,6.8,9.2,12.1,11.7c4.6,2.2,9.4,3.3,14.2,3.3c7.8,0,15.5-2.3,22.8-7
				c8.6-5.3,15-12.8,19-22.4c0.1-0.2,0.2-0.4,0.2-0.6c1.3-3.7,1.2-7.5-0.2-11.1c-1.5-3.6-4.2-6.4-7.6-8c0.3-3.5-0.1-6.9-1.3-10
				c-1.5-4.5-4.3-8.1-8.2-10.7C304.5,48.7,300.2,47.4,295.5,47.4L295.5,47.4z"/>
		</g>
	</g>
	<g id="XMLID_15_">
		<g id="XMLID_318_">
			<path id="XMLID_90_" class="st0" d="M147.9,19.6c-7.8,27.4-12.6,47.6-14.5,60.6c-1.9,13-1.6,21.6,0.8,25.9c0.6,1,0.7,2.1,0.4,3.2
				c-0.3,1.1-0.9,2-2,2.5c-0.8,0.4-1.5,0.6-2.2,0.6c-1.6,0-2.8-0.7-3.6-2.2c-2.9-4.9-3.8-12.8-2.8-23.8c1-11,4.2-26.9,9.7-47.6
				c-4,6.7-8,14-12.1,22c-9,17.7-14.7,30.8-17.3,39.2c-0.6,1.8-1.8,2.8-3.7,3c-2,0.2-3.4-0.6-4.2-2.4c-1.2-2.6-1.8-6.7-1.9-12.5
				c0-5.8,0.3-12.9,1-21.3c0.9-13.8,1.2-23,1.1-27.8c0-1.4-0.1-3-0.2-4.9l-1.7,3.6c-1,2.2-1.5,3.3-1.6,3.5c-2.4,5.6-4.4,10.3-6,14.2
				c-6.6,15.9-11.8,28.1-15.8,36.5c-2.9,6-5.6,11.1-8,15.2c-3,4.8-5.7,7.8-8.2,9c-0.5,0.2-1,0.4-1.7,0.4c-1.8,0-3.2-0.8-4-2.5
				c-0.5-1-0.5-2.1-0.1-3.2c0.4-1.1,1.2-1.9,2.2-2.5c0.6,0,2.2-2,4.7-6.1c2.8-5,5.3-9.8,7.6-14.4c3.3-7,8.4-18.9,15.5-35.6
				c2.2-5.6,4.3-10.4,6.1-14.4c0.6-1.6,1.2-2.8,1.6-3.5c1.1-2.5,2.4-5.4,3.8-8.9l0.8-3.1c-0.4-0.1-1.4-0.1-3.1-0.1
				c-3,0.2-6,1.6-9,4.1c-3.2,2.6-5.2,5.2-5.9,8c-0.8,3,0.2,5.4,3,7.4c1,0.7,1.5,1.7,1.7,2.8c0.2,1.2,0,2.2-0.7,3.2
				c-0.7,1-1.7,1.5-2.8,1.7c-1.2,0.2-2.2-0.1-3.2-0.8c-6.2-4.3-8.2-9.9-6.2-16.7c1.2-4.6,4.1-8.7,8.8-12.5c4.5-3.6,9.1-5.5,13.8-5.8
				c0.8-0.1,2-0.1,3.6-0.1h0.4c3,0.2,5.6,1.4,7.6,3.6c3.4,3.8,5.3,11.1,5.5,21.7c0.2,5-0.2,14.5-1.1,28.6c-0.2,2.1-0.4,6.1-0.8,12
				c4.1-9,7.7-16.5,10.8-22.6c10.8-21,19.8-34.9,26.9-41.5c1.5-1.5,3.2-1.7,5.2-0.6c0.8,0.5,1.4,1.2,1.7,2.1
				C148.2,17.8,148.2,18.7,147.9,19.6z"/>
		</g>
		<g id="XMLID_309_">
			<path id="XMLID_127_" class="st0" d="M146.6,106c-3.4-3.7-4.1-9.1-2.2-16.2c1.8-6.6,5.3-12.4,10.7-17.5c0.9-0.9,1.9-1.3,3.1-1.2
				c1-2.6,2.6-4.9,4.8-6.7c4.9-4.4,9.6-5.9,14.3-4.4c4.3,1.5,7,5,8,10.6c0.9,4.8,0.1,10-2.3,15.5c-0.3,0.8-0.6,1.4-0.8,1.8
				c3-0.9,5.6-2.8,7.8-5.8c0.7-0.9,1.7-1.4,2.8-1.5c1.2-0.1,2.2,0.2,3.2,0.9c0.9,0.7,1.4,1.7,1.6,2.8c0.2,1.2-0.2,2.2-1,3.2
				c-3,3.8-6.5,6.6-10.7,8.2c-3,1.2-6.3,1.6-9.8,1.2c-1.4,1.6-3.2,3.3-5.4,5.2c-4.9,3.9-9.3,6.3-13.3,7.2c-1.4,0.2-2.4,0.2-2.9,0.2
				C151.2,109.4,148.6,108.2,146.6,106z M152.6,92c-1,4-0.9,6.8,0.4,8.4c0.8,0.4,1.7,0.5,2.8,0.4c2.6-0.6,5.8-2.4,9.6-5.4
				c0.2-0.2,0.6-0.4,1-0.8c0.4-0.4,0.7-0.7,0.9-0.8c-4.9-3-8-6.9-9.5-11.8C155.3,85,153.6,88.4,152.6,92z M168.7,70.6
				c-2.8,2.6-3.7,5.4-2.8,8.5c0.9,3.4,3.2,6,7,7.9c3.5-5.4,4.9-10.5,4.1-15.1c-0.4-2.2-1.2-3.6-2.4-4c-0.2-0.1-0.4-0.1-0.7-0.1
				C172.4,67.8,170.7,68.8,168.7,70.6z"/>
		</g>
		<g id="XMLID_304_">
			<path id="XMLID_87_" class="st0" d="M198,108.2c-2.6-1.7-4.3-4.7-5.2-9c-0.6-2.6-0.7-6.1-0.5-10.3c0.1-1.2,0.2-2.5,0.2-3.8
				c0.1-1.3,0.2-2.5,0.4-3.5c0.2-1,0.3-2,0.4-2.8c0.1-0.8,0.2-1.4,0.3-1.9l0.1-0.8c0.2-1.1,0.9-2,1.9-2.6c1-0.6,2.1-0.9,3.2-0.7
				c1.1,0.2,2,0.9,2.7,1.9c0.7,1,0.9,2.1,0.7,3.2l-0.1,0.6c-0.1,0.5-0.2,1.1-0.3,1.9c-0.1,0.8-0.2,1.6-0.4,2.5
				c-0.1,0.9-0.2,2-0.3,3.2c-0.1,1.2-0.2,2.4-0.2,3.5c-0.2,3-0.1,5.4,0.2,7.4c0.3,2,0.6,3.1,0.8,3.5c0.2,0.4,0.4,0.6,0.6,0.7
				c0.1,0.1,0.3,0.1,0.7,0c0.4-0.1,1-0.4,2-0.8c1-0.5,2-1.2,3.2-2c4.2-3.2,8.2-8.3,12-15.4c-0.5-3.9-0.1-7.6,1.2-11
				c1.2-3.7,3.1-6.3,5.6-7.9c2.3-1.4,4.5-1.2,6.5,0.4c2.4,2.2,2.5,5.5,0.2,10.1c-1.8,4-3.3,7.3-4.6,9.8c0.5,1.9,1.2,3.4,2.2,4.5
				c1,1.1,1.9,1.7,2.9,1.9c2.2,0.2,4.3-1.7,6.2-5.6c0.5-1,1.3-1.8,2.4-2.2c1.1-0.4,2.2-0.3,3.2,0.2c1,0.6,1.8,1.4,2.2,2.5
				c0.4,1.1,0.3,2.2-0.2,3.2c-1.6,3.4-3.7,6-6.2,7.9c-2.8,1.9-5.6,2.7-8.5,2.3c-3.1-0.4-5.8-1.9-8.2-4.6c-0.2-0.2-0.6-0.7-1.1-1.3
				c-3.3,5-6.8,8.9-10.7,11.9c-2.9,2.2-5.5,3.7-7.9,4.3c-1,0.3-1.9,0.5-2.9,0.5C201.2,109.5,199.6,109,198,108.2z"/>
		</g>
		<g id="XMLID_297_">
			<path id="XMLID_101_" class="st0" d="M246.2,106.6c-2.6-1.3-4.6-3.1-5.9-5.5c-4.1-7.8,0.4-20.8,13.3-39.1c0.6-1,1.6-1.5,2.8-1.7
				c1.2-0.2,2.3,0.1,3.2,0.8c1,0.6,1.5,1.5,1.7,2.7c0.2,1.2-0.1,2.2-0.7,3.2c-2.9,4.1-5.3,7.8-7.2,11.2c-1.9,3.4-3.3,6.2-4.1,8.3
				c-0.8,2.1-1.4,4-1.6,5.6c-0.2,1.6-0.3,2.8-0.2,3.5c0.1,0.7,0.2,1.3,0.5,1.7c0.7,1.4,2.2,2,4.6,2c6.2,0,11.6-5.5,16.2-16.6
				c0.5-1,1.3-1.8,2.4-2.2c1.1-0.4,2.2-0.4,3.2,0.1c1,0.4,1.8,1.1,2.2,2.2c0.4,1.1,0.5,2.2,0.1,3.3c-3.1,7.3-6.8,12.8-11,16.6
				c-4.1,3.4-8.4,5.2-13.1,5.2C250.2,107.8,248.2,107.4,246.2,106.6z M262.2,50.4c-1.2-0.8-1.8-2-1.8-3.5c0-0.9,0.2-1.7,0.7-2.5
				l0.2-0.2l0.4-0.6c0.7-1,1.7-1.5,2.8-1.7c1.2-0.2,2.2,0,3.2,0.7c1,0.6,1.5,1.5,1.7,2.7c0.2,1.2,0,2.2-0.7,3.2l-0.5,0.7l-0.1,0.2
				c-0.8,1.2-2,1.8-3.6,1.8C263.8,51.2,263,50.9,262.2,50.4z"/>
		</g>
		<g id="XMLID_16_">
			<path id="XMLID_93_" class="st0" d="M274.1,107.7c-3.2-1.5-5.5-3.7-7-6.8c-1.8-3.4-2.2-7.5-1.1-12.2c1.1-4.9,3.8-10.2,7.9-15.8
				c5.3-7.3,10.8-11.8,16.6-13.7c4.6-1.4,8.6-1,11.9,1.2c1.8,1.2,3.1,2.9,3.8,5.2c0.8,2,1,4.3,0.5,6.8c-0.8,4-3.6,7.9-8.5,11.8
				c-4.8,3.8-12.9,6.8-24.3,9c-0.2,1.4,0.1,2.7,0.7,3.8c0.7,1.4,2,2.5,3.7,3.3c1.8,0.8,3.5,1.1,5.3,1.1c4,0,8.3-1.5,13-4.4
				c4.7-2.9,8.3-7.3,10.7-13c0.5-1.1,1.3-1.9,2.3-2.3c1.1-0.4,2.2-0.4,3.3,0.1c1,0.4,1.8,1.1,2.2,2.2c0.4,1.1,0.5,2.2,0.1,3.3
				c-3.2,7.5-8.1,13.3-14.8,17.4c-5.5,3.5-11.2,5.3-16.9,5.3C280.4,110,277.2,109.2,274.1,107.7z M292.8,67.4
				c-3.9,1.3-7.9,4.8-12,10.4c-1.4,1.9-2.7,3.9-3.8,6c6.6-1.6,11.7-3.6,15.2-6c3.5-2.4,5.5-4.8,6-7.2c0.3-1.6,0.1-2.6-0.6-3.1
				c-0.5-0.3-1.2-0.5-2.3-0.5C294.6,67,293.8,67.1,292.8,67.4z"/>
		</g>
	</g>
</g>
<g id="XMLID_94_">
	<g id="XMLID_129_">
		<g id="XMLID_11_">
			<path id="XMLID_64_" class="st0" d="M16.8,182.3c-2-1.1-2.7-2.8-2-5l24.8-79.6c0.3-1.1,1-1.9,2-2.5c1-0.5,2.1-0.6,3.2-0.3
				c1.1,0.3,2,1,2.5,2c0.6,1,0.6,2.1,0.2,3.2L24,176c5.7,1.5,12.3,0.5,19.9-3.1c7.5-3.5,14.5-9.2,21-16.9
				c6.5-7.8,10.8-17.2,13.1-28.3c2.6-12.9,1.1-22.3-4.6-28.2c-3.1-3.3-7.2-5.4-12.2-6.3c-5-0.9-9.6-1.1-13.7-0.4
				c-3.9,0.6-8,2.2-12.4,4.8c-4.7,2.7-7.8,5.7-9.4,9c-1.3,2.5-1.3,4.9,0,7.3c0.6,1.1,0.7,2.2,0.3,3.3c-0.4,1.1-1.1,1.9-2.1,2.5
				c-1,0.6-2.1,0.7-3.2,0.3c-1.1-0.4-2-1.1-2.5-2.1c-2.6-5-2.7-10-0.1-15.1c2.3-4.6,6.6-8.8,12.7-12.5c5.1-3.1,10.2-5.1,15.4-5.9
				c5.1-0.8,10.3-0.7,15.6,0.2c7.5,1.4,13.5,4.4,17.9,9c3.6,3.8,6,8.6,7.2,14.3c1.3,6.1,1.1,13.2-0.6,21.5c-1.2,6.1-3.2,12-5.9,17.8
				c-2.5,5.3-5.6,10.2-9.2,14.6c-6.7,8.4-14.6,14.7-23.6,18.8c-5.3,2.6-10.7,4-16.2,4.4c-0.5,0.1-1.2,0.1-2.3,0.1
				C24.4,185.2,20.3,184.2,16.8,182.3z"/>
			<path id="XMLID_10_" class="st1" d="M53.3,83.8c2.8,0,5.7,0.3,8.6,0.8c7.5,1.4,13.5,4.4,17.9,9c3.6,3.8,6,8.6,7.2,14.3
				c1.3,6.1,1.1,13.2-0.6,21.5c-1.2,6.1-3.2,12-5.9,17.8c-2.5,5.3-5.6,10.2-9.2,14.6c-6.7,8.4-14.6,14.7-23.6,18.8
				c-5.3,2.6-10.7,4-16.2,4.4c-0.5,0.1-1.2,0.1-2.3,0.1c-4.7,0-8.8-1-12.2-2.9c-2-1.1-2.7-2.8-2-5l24.8-79.6c0.3-1.1,1-1.9,2-2.5
				c0.6-0.3,1.3-0.5,2-0.5c0.4,0,0.8,0.1,1.3,0.2c1.1,0.3,2,1,2.5,2c0.6,1,0.6,2.1,0.2,3.2L24,176c1.7,0.5,3.5,0.7,5.3,0.7
				c4.4,0,9.3-1.3,14.6-3.8c7.5-3.5,14.5-9.2,21-16.9c6.5-7.8,10.8-17.2,13.1-28.3c2.6-12.9,1.1-22.3-4.6-28.2
				c-3.1-3.3-7.2-5.4-12.2-6.3c-2.9-0.5-5.8-0.8-8.4-0.8c-1.8,0-3.6,0.1-5.3,0.4c-3.9,0.6-8,2.2-12.4,4.8c-4.7,2.7-7.8,5.7-9.4,9
				c-1.3,2.5-1.3,4.9,0,7.3c0.6,1.1,0.7,2.2,0.3,3.3c-0.4,1.1-1.1,1.9-2.1,2.5c-0.6,0.3-1.3,0.5-1.9,0.5c-0.4,0-0.9-0.1-1.3-0.2
				c-1.1-0.4-2-1.1-2.5-2.1c-2.6-5-2.7-10-0.1-15.1c2.3-4.6,6.6-8.8,12.7-12.5c5.1-3.1,10.2-5.1,15.4-5.9
				C48.6,84,50.9,83.8,53.3,83.8 M53.3,72.8c-2.9,0-5.9,0.2-8.7,0.7c-6.5,1-13,3.5-19.3,7.3c-7.9,4.8-13.6,10.5-16.9,17
				c-4.2,8.3-4.1,17.1,0.2,25.2c1.9,3.6,5.1,6.2,8.9,7.4c0.1,0,0.3,0.1,0.4,0.1L4.3,174c0,0.1-0.1,0.2-0.1,0.3
				c-2,7.1,0.8,14.1,7.2,17.7c5.1,2.8,11,4.3,17.6,4.3c1.4,0,2.5-0.1,3.5-0.2c6.7-0.5,13.4-2.4,19.7-5.4
				c10.5-4.9,19.8-12.2,27.5-21.9c4.2-5.1,7.8-10.8,10.6-16.9c3.1-6.5,5.3-13.4,6.7-20.3c2-9.7,2.2-18.4,0.6-25.9
				c-1.6-7.7-5-14.2-9.9-19.5c0,0,0,0,0,0c-6-6.4-14.1-10.5-23.9-12.3C60.3,73.1,56.8,72.8,53.3,72.8L53.3,72.8z M39.7,162.8
				l18.4-59c0.4,0.1,0.8,0.1,1.2,0.2c2.7,0.5,4.7,1.5,6.2,3.1c3.8,3.9,3,12.2,1.8,18.4c-1.9,9.4-5.4,17.1-10.7,23.5
				C51.2,155.3,45.6,159.9,39.7,162.8L39.7,162.8z"/>
		</g>
		<g id="XMLID_9_">
			<path id="XMLID_60_" class="st0" d="M92.3,175.6c-2.6-1.3-4.6-3.1-5.9-5.5c-4.1-7.8,0.4-20.8,13.3-39.1c0.6-1,1.6-1.5,2.8-1.7
				c1.2-0.2,2.3,0.1,3.2,0.8c1,0.6,1.5,1.5,1.7,2.7c0.2,1.2-0.1,2.2-0.7,3.2c-2.9,4.1-5.3,7.8-7.2,11.2c-1.9,3.4-3.3,6.2-4.1,8.3
				c-0.8,2.1-1.4,4-1.6,5.6c-0.2,1.6-0.3,2.8-0.2,3.5c0.1,0.7,0.2,1.3,0.5,1.7c0.7,1.4,2.2,2,4.6,2c6.2,0,11.6-5.5,16.2-16.6
				c0.5-1,1.3-1.8,2.4-2.2c1.1-0.4,2.2-0.4,3.2,0.1c1,0.4,1.8,1.1,2.2,2.2c0.4,1.1,0.5,2.2,0.1,3.3c-3.1,7.3-6.8,12.8-11,16.6
				c-4.1,3.4-8.4,5.2-13.1,5.2C96.4,176.8,94.3,176.4,92.3,175.6z M108.4,119.4c-1.2-0.8-1.8-2-1.8-3.5c0-0.9,0.2-1.7,0.7-2.5
				l0.2-0.2l0.4-0.6c0.7-1,1.7-1.5,2.8-1.7c1.2-0.2,2.2,0,3.2,0.7c1,0.6,1.5,1.5,1.7,2.7c0.2,1.2,0,2.2-0.7,3.2l-0.5,0.7l-0.1,0.2
				c-0.8,1.2-2,1.8-3.6,1.8C109.9,120.1,109.1,119.9,108.4,119.4z"/>
			<path id="XMLID_8_" class="st1" d="M111.6,110.7c0.8,0,1.6,0.2,2.4,0.7c1,0.6,1.5,1.5,1.7,2.7c0.2,1.2,0,2.2-0.7,3.2l-0.5,0.7
				l-0.1,0.2c-0.8,1.2-2,1.8-3.6,1.8c-0.9,0-1.7-0.2-2.4-0.7c-1.2-0.8-1.8-2-1.8-3.5c0-0.9,0.2-1.7,0.7-2.5l0.2-0.2l0.4-0.6
				c0.7-1,1.7-1.5,2.8-1.7C111,110.8,111.3,110.7,111.6,110.7 M103.3,129.1c0.9,0,1.7,0.3,2.5,0.8c1,0.6,1.5,1.5,1.7,2.7
				c0.2,1.2-0.1,2.2-0.7,3.2c-2.9,4.1-5.3,7.8-7.2,11.2c-1.9,3.4-3.3,6.2-4.1,8.3c-0.8,2.1-1.4,4-1.6,5.6c-0.2,1.6-0.3,2.8-0.2,3.5
				c0.1,0.7,0.2,1.3,0.5,1.7c0.7,1.4,2.2,2,4.6,2c6.2,0,11.6-5.5,16.2-16.6c0.5-1,1.3-1.8,2.4-2.2c0.5-0.2,1.1-0.3,1.6-0.3
				c0.6,0,1.1,0.1,1.7,0.4c1,0.4,1.8,1.1,2.2,2.2c0.4,1.1,0.5,2.2,0.1,3.3c-3.1,7.3-6.8,12.8-11,16.6c-4.1,3.4-8.4,5.2-13.1,5.2
				c-2.2,0-4.2-0.4-6.2-1.2c-2.6-1.3-4.6-3.1-5.9-5.5c-4.1-7.8,0.4-20.8,13.3-39.1c0.6-1,1.6-1.5,2.8-1.7
				C102.8,129.1,103,129.1,103.3,129.1 M111.6,99.7c-0.9,0-1.8,0.1-2.7,0.2c-3.9,0.7-7.4,2.8-9.8,6c-0.2,0.2-0.3,0.4-0.4,0.6
				c-0.3,0.4-0.5,0.7-0.8,1.1c-1.5,2.5-2.3,5.3-2.3,8.2c0,1.4,0.2,2.7,0.5,4c-2.1,1.1-4,2.7-5.4,4.8c-10,14.2-22.3,34.8-14,50.5
				c0,0,0,0,0,0.1c2.4,4.5,6,7.9,10.8,10.2c0.2,0.1,0.5,0.2,0.7,0.3c3.3,1.3,6.8,2,10.3,2c7.3,0,14.1-2.6,20.2-7.7
				c0.1-0.1,0.1-0.1,0.2-0.2c5.4-4.8,10.1-11.7,13.9-20.5c0.1-0.2,0.2-0.4,0.2-0.6c1.3-3.7,1.2-7.5-0.2-11.1
				c-1.6-3.8-4.4-6.7-8.1-8.2c-1.9-0.8-3.9-1.2-6-1.2c-0.3,0-0.7,0-1,0c0.7-2.2,1-4.6,0.6-7c-0.1-0.6-0.2-1.2-0.3-1.7
				c2.2-1.1,4.1-2.8,5.6-5c0.2-0.2,0.3-0.5,0.5-0.7l0.2-0.2c2.2-3.3,3-7.2,2.3-11.1c-0.7-4.1-3-7.7-6.5-10
				C117.5,100.6,114.6,99.7,111.6,99.7L111.6,99.7z"/>
		</g>
		<g id="XMLID_37_">
			<path id="XMLID_52_" class="st0" d="M115.4,175.7c-2.6-2.8-3.6-6.2-3.1-10.1c0.5-5,3.1-10.7,7.9-17.3c4.2-5.5,8.6-9.9,13-13.1
				c3.7-2.6,7.5-4.3,11.6-4.9c4-0.6,7.5,0,10.3,1.7c3.8,2.4,5.2,6,4.2,10.9c-0.2,1-0.7,1.9-1.5,2.5c-0.8,0.6-1.8,0.9-2.8,0.8
				c1,0.5,1.8,1.2,2.4,2.2c1.1,2.5-0.1,6-3.7,10.7c-0.4,0.6-1.2,1.6-2.5,3c-0.1,0.2-0.3,0.8-0.7,1.7c-0.4,0.9-0.6,1.6-0.8,2.1
				c-0.5,2-0.6,3.2-0.5,3.7c0.1,0.1,0.5,0.1,1.3,0.1c5.9,0,11.9-5.8,18-17.3c0.6-1,1.4-1.7,2.5-2.1c1.1-0.4,2.2-0.3,3.2,0.3
				c1,0.6,1.7,1.4,2.1,2.5c0.4,1.1,0.3,2.2-0.3,3.2c-3.8,7.1-7.7,12.5-11.9,16.2c-4.1,3.8-8.6,5.6-13.7,5.6c-4,0-6.8-1.3-8.5-3.8
				c-0.4-0.9-0.7-1.7-1-2.4c-5.9,4.7-11.2,7.2-15.8,7.4h-0.6C120.8,179.6,117.8,178.3,115.4,175.7z M138.2,142.2
				c-3.8,2.7-7.5,6.5-11.3,11.5c-3.8,4.9-5.9,9.1-6.2,12.7c-0.1,1.5,0.2,2.7,1,3.6c0.8,0.9,1.8,1.3,3.1,1.2
				c4.8-0.2,11.1-4.7,19-13.4c0.2-0.2,0.3-0.6,0.5-1c0.2-0.4,0.3-0.8,0.4-1l0.7-1.6c1-2.2,1.9-3.8,2.8-4.9c1.5-2,3.2-3,4.9-3h0.4
				c-2.2-0.9-3-2.5-2.6-4.8c0.2-1.2,0.1-1.9-0.5-2c-0.6-0.4-1.5-0.6-2.6-0.6C144.5,138.7,141.4,139.9,138.2,142.2z"/>
			<path id="XMLID_17_" class="st1" d="M147.7,130.2c2.8,0,5.2,0.7,7.3,2c3.8,2.4,5.2,6,4.2,10.9c-0.2,1-0.7,1.9-1.5,2.5
				c-0.7,0.6-1.6,0.9-2.5,0.9c-0.1,0-0.2,0-0.3,0c1,0.5,1.8,1.2,2.4,2.2c1.1,2.5-0.1,6-3.7,10.7c-0.4,0.6-1.2,1.6-2.5,3
				c-0.1,0.2-0.3,0.8-0.7,1.7c-0.4,0.9-0.6,1.6-0.8,2.1c-0.5,2-0.6,3.2-0.5,3.7c0.1,0.1,0.5,0.1,1.3,0.1c5.9,0,11.9-5.8,18-17.3
				c0.6-1,1.4-1.7,2.5-2.1c0.4-0.1,0.9-0.2,1.3-0.2c0.7,0,1.3,0.2,1.9,0.5c1,0.6,1.7,1.4,2.1,2.5c0.4,1.1,0.3,2.2-0.3,3.2
				c-3.8,7.1-7.7,12.5-11.9,16.2c-4.1,3.8-8.6,5.6-13.7,5.6c-4,0-6.8-1.3-8.5-3.8c-0.4-0.9-0.7-1.7-1-2.4
				c-5.9,4.7-11.2,7.2-15.8,7.4h-0.6c-3.7,0-6.7-1.3-9.1-4c-2.6-2.8-3.6-6.2-3.1-10.1c0.5-5,3.1-10.7,7.9-17.3
				c4.2-5.5,8.6-9.9,13-13.1c3.7-2.6,7.5-4.3,11.6-4.9C145.7,130.2,146.7,130.2,147.7,130.2 M124.4,171.1c0.1,0,0.2,0,0.3,0
				c4.8-0.2,11.1-4.7,19-13.4c0.2-0.2,0.3-0.6,0.5-1c0.2-0.4,0.3-0.8,0.4-1l0.7-1.6c1-2.2,1.9-3.8,2.8-4.9c1.5-2,3.2-3,4.9-3h0.4
				c-2.2-0.9-3-2.5-2.6-4.8c0.2-1.2,0.1-1.9-0.5-2c-0.6-0.4-1.5-0.6-2.6-0.6c-3.1,0-6.3,1.2-9.5,3.5c-3.8,2.7-7.5,6.5-11.3,11.5
				c-3.8,4.9-5.9,9.1-6.2,12.7c-0.1,1.5,0.2,2.7,1,3.6C122.3,170.7,123.3,171.1,124.4,171.1 M147.7,119.2c-1.5,0-3,0.1-4.6,0.3
				c-5.8,0.9-11.3,3.1-16.4,6.8c0,0,0,0-0.1,0c-5.2,3.8-10.4,8.9-15.2,15.3c-0.1,0.1-0.1,0.1-0.2,0.2c-6,8.2-9.3,15.6-10,22.6
				c-0.8,7.1,1.2,13.5,5.9,18.7c4.5,4.9,10.4,7.5,17.2,7.5h0.6c0.2,0,0.4,0,0.6,0c4.4-0.2,8.8-1.5,13.4-4c2.8,1.6,6.5,2.8,11.3,2.8
				c7.7,0,15-2.9,21-8.5c5.2-4.6,9.8-10.9,14.2-19.2c1.9-3.6,2.3-7.8,1.1-11.8c-1.2-3.8-3.8-6.9-7.3-8.8c-2.3-1.2-4.7-1.8-7.2-1.8
				c-0.6,0-1.2,0-1.8,0.1c-0.2-6.9-3.6-12.8-9.6-16.6c0,0,0,0-0.1,0C156.9,120.4,152.5,119.2,147.7,119.2L147.7,119.2z"/>
		</g>
		<g id="XMLID_25_">
			<path id="XMLID_38_" class="st0" d="M183.6,173.8c-1.4-2-1.9-4.6-1.4-7.9c0.4-3,1.6-6.7,3.7-10.9c2.3-4.7,3.3-8,3-9.7
				c-0.4-1.8-2.1-3.8-5.2-5.8c-1,2.1-2.2,4.7-3.6,7.9c-1.4,3.2-2.7,5.9-3.7,8c-1,2.2-1.5,3.3-1.6,3.5c-0.6,1-1.4,1.8-2.5,2.2
				c-1.1,0.4-2.2,0.4-3.2-0.1s-1.8-1.3-2.2-2.4c-0.4-1.1-0.4-2.2,0.1-3.2c1.9-3.8,5.2-10.9,9.8-21.4c-0.4-0.6-0.7-1.3-1-1.9
				c-0.9-2.3-0.7-4.6,0.5-6.7c0.8-1.5,2-2.6,3.5-3.2c1.5-0.6,3-0.6,4.3,0.1c2.3,1,3.4,3.1,3.2,6.2c0,0.6-0.2,1.6-0.5,3
				c6.1,3.7,9.5,7.8,10.3,12.2c0.6,3.5-0.6,8.5-3.7,15c-2.5,5.1-3.4,8.6-2.9,10.3c0.2,0.2,0.7,0.2,1.6,0.1h0.2
				c3.1-0.2,6.6-1.8,10.5-4.9c3.9-3.1,7.2-6.9,9.9-11.4c0.6-1,1.4-1.7,2.6-2c1.2-0.3,2.3-0.1,3.3,0.5c1,0.6,1.7,1.4,2,2.6
				c0.3,1.2,0.1,2.2-0.5,3.2c-3.1,5.3-7.1,9.8-12,13.7c-5.1,4.2-10.2,6.4-15.2,6.8h-0.1h-1.1C188,177.6,185.3,176.3,183.6,173.8z"/>
			<path id="XMLID_24_" class="st1" d="M182.1,121.7c0.7,0,1.5,0.2,2.2,0.5c2.3,1,3.4,3.1,3.2,6.2c0,0.6-0.2,1.6-0.5,3
				c6.1,3.7,9.5,7.8,10.3,12.2c0.6,3.5-0.6,8.5-3.7,15c-2.5,5.1-3.4,8.6-2.9,10.3c0.1,0.1,0.4,0.2,0.8,0.2c0.2,0,0.5,0,0.8,0h0.2
				c3.1-0.2,6.6-1.8,10.5-4.9c3.9-3.1,7.2-6.9,9.9-11.4c0.6-1,1.4-1.7,2.6-2c0.4-0.1,0.7-0.1,1-0.1c0.8,0,1.5,0.2,2.3,0.7
				c1,0.6,1.7,1.4,2,2.6c0.3,1.2,0.1,2.2-0.5,3.2c-3.1,5.3-7.1,9.8-12,13.7c-5.1,4.2-10.2,6.4-15.2,6.8h-0.1h-1.1
				c-3.8,0-6.5-1.3-8.2-3.8c-1.4-2-1.9-4.6-1.4-7.9c0.4-3,1.6-6.7,3.7-10.9c2.3-4.7,3.3-8,3-9.7c-0.4-1.8-2.1-3.8-5.2-5.8
				c-1,2.1-2.2,4.7-3.6,7.9c-1.4,3.2-2.7,5.9-3.7,8c-1,2.2-1.5,3.3-1.6,3.5c-0.6,1-1.4,1.8-2.5,2.2c-0.5,0.2-1,0.3-1.5,0.3
				c-0.6,0-1.2-0.1-1.7-0.4c-1-0.5-1.8-1.3-2.2-2.4c-0.4-1.1-0.4-2.2,0.1-3.2c1.9-3.8,5.2-10.9,9.8-21.4c-0.4-0.6-0.7-1.3-1-1.9
				c-0.9-2.3-0.7-4.6,0.5-6.7c0.8-1.5,2-2.6,3.5-3.2C180.7,121.8,181.4,121.7,182.1,121.7 M182.1,110.7c-2.1,0-4.2,0.4-6.2,1.2
				c-3.9,1.6-7.1,4.4-9.1,8.2c-2.3,4.3-2.9,9-1.8,13.6c-3.6,8-6.1,13.5-7.7,16.6c-0.1,0.1-0.1,0.3-0.2,0.4
				c-1.7,3.6-1.9,7.7-0.5,11.5c1.4,3.9,4.2,7,7.9,8.7c2,0.9,4.2,1.4,6.4,1.4c0.2,0,0.4,0,0.5,0c0.6,3.3,1.9,5.9,3.2,7.7
				c3.7,5.6,9.8,8.6,17.2,8.6h1.1h0.1c0.3,0,0.6,0,0.9,0c7.3-0.6,14.4-3.7,21.2-9.2c5.8-4.6,10.7-10.2,14.5-16.5
				c2.2-3.4,2.8-7.5,1.9-11.5c-1-4.1-3.5-7.5-7.2-9.5c-2.4-1.4-5.1-2.1-7.8-2.1c-1.2,0-2.4,0.1-3.6,0.4c-1.7,0.4-3.3,1.1-4.7,2
				c0-0.1,0-0.3-0.1-0.4c-1-5.8-4.3-11.1-9.7-15.6c-0.6-6.3-4-11.3-9.6-13.9C186.7,111.2,184.4,110.7,182.1,110.7L182.1,110.7z"/>
		</g>
		<g id="XMLID_19_">
			<path id="XMLID_23_" class="st0" d="M210.5,205.1c-2.4-1.8-3.4-4.4-3-7.8c0.3-3.2,2-6.6,5-10.1c3-3.6,6.6-6.4,10.7-8.5
				c0.3-0.2,1.1-0.5,2.4-1.1c1.3-0.6,2.3-1,3.1-1.3c0.3-0.2,1.2-0.5,2.6-1.1c1.4-0.6,2.5-1.1,3.2-1.5c0.7-1.8,1.6-4.4,2.8-7.9
				l-2,1.4c-4.7,3.2-9.8,4.8-15.1,4.8c-3.4,0-5.8-1.6-7.3-4.8c-1.8-3.8-1.8-8.6-0.2-14.5c1.6-6.1,4.5-11.8,8.8-17.2
				c0.7-0.9,1.7-1.4,2.9-1.6c1.2-0.2,2.2,0.2,3.1,1c0.9,0.7,1.4,1.7,1.6,2.8c0.2,1.2-0.2,2.2-1,3.2c-3.8,4.7-6.3,9.8-7.4,15.1
				c-0.7,3.7-0.7,6.2,0,7.4c7-0.2,13.9-5,20.8-14.4c0.2-0.9,0.3-2.1,0.5-3.7c0.7-5.5,2.6-8.6,5.5-9.4c2.2-0.6,3.9,0.1,5.2,1.9
				c1.1,1.7,1.4,3.9,0.7,6.7c-0.6,2.4-1.8,4.9-3.6,7.6l-0.2,0.2c-1,5.4-2.3,10.4-3.7,15.1c6.5-4.2,11.1-9.3,13.8-15.5
				c0.5-1,1.3-1.8,2.4-2.2c1.1-0.4,2.2-0.4,3.2,0.1c1,0.5,1.8,1.3,2.2,2.4c0.4,1.1,0.4,2.2-0.1,3.2c-4.4,9.9-13,18-25.9,24.4
				c-1.4,3.3-2.9,6.3-4.6,9.1c-1,1.6-2,3.2-3.1,4.7s-2.5,3.3-4.1,5.3c-1.7,2-3.5,3.6-5.6,5c-2,1.4-4.1,2.3-6.1,2.7
				c-0.4,0.2-1,0.2-1.9,0.2C213.8,207,212,206.4,210.5,205.1z M221.9,194.7c2.3-2.3,4.6-5.3,7-9.2l-1.9,0.8
				c-3.4,1.7-6.3,4.1-8.8,7.2c-1.5,2-2.3,3.6-2.3,4.9h0.4C217.7,198.2,219.6,197,221.9,194.7z"/>
			<path id="XMLID_18_" class="st1" d="M224.8,133.9c1,0,1.8,0.3,2.5,1c0.9,0.7,1.4,1.7,1.6,2.8c0.2,1.2-0.2,2.2-1,3.2
				c-3.8,4.7-6.3,9.8-7.4,15.1c-0.7,3.7-0.7,6.2,0,7.4c7-0.2,13.9-5,20.8-14.4c0.2-0.9,0.3-2.1,0.5-3.7c0.7-5.5,2.6-8.6,5.5-9.4
				c0.5-0.1,1-0.2,1.4-0.2c1.5,0,2.7,0.7,3.7,2.1c1.1,1.7,1.4,3.9,0.7,6.7c-0.6,2.4-1.8,4.9-3.6,7.6l-0.2,0.2
				c-1,5.4-2.3,10.4-3.7,15.1c6.5-4.2,11.1-9.3,13.8-15.5c0.5-1,1.3-1.8,2.4-2.2c0.5-0.2,1.1-0.3,1.6-0.3c0.6,0,1.1,0.1,1.7,0.4
				c1,0.5,1.8,1.3,2.2,2.4c0.4,1.1,0.4,2.2-0.1,3.2c-4.4,9.9-13,18-25.9,24.4c-1.4,3.3-2.9,6.3-4.6,9.1c-1,1.6-2,3.2-3.1,4.7
				s-2.5,3.3-4.1,5.3c-1.7,2-3.5,3.6-5.6,5c-2,1.4-4.1,2.3-6.1,2.7c-0.4,0.2-1,0.2-1.9,0.2c-2.1,0-3.9-0.6-5.4-1.9
				c-2.4-1.8-3.4-4.4-3-7.8c0.3-3.2,2-6.6,5-10.1c3-3.6,6.6-6.4,10.7-8.5c0.3-0.2,1.1-0.5,2.4-1.1c1.3-0.6,2.3-1,3.1-1.3
				c0.3-0.2,1.2-0.5,2.6-1.1c1.4-0.6,2.5-1.1,3.2-1.5c0.7-1.8,1.6-4.4,2.8-7.9l-2,1.4c-4.7,3.2-9.8,4.8-15.1,4.8
				c-3.4,0-5.8-1.6-7.3-4.8c-1.8-3.8-1.8-8.6-0.2-14.5c1.6-6.1,4.5-11.8,8.8-17.2c0.7-0.9,1.7-1.4,2.9-1.6
				C224.4,133.9,224.6,133.9,224.8,133.9 M228.9,185.5l-1.9,0.8c-3.4,1.7-6.3,4.1-8.8,7.2c-1.5,2-2.3,3.6-2.3,4.9h0.4
				c1.4-0.2,3.3-1.5,5.6-3.8S226.5,189.4,228.9,185.5 M224.8,122.9c-0.7,0-1.4,0-2,0.1c-4,0.5-7.4,2.4-9.9,5.5c0,0-0.1,0.1-0.1,0.1
				c-5.2,6.5-8.8,13.6-10.8,21.1c-2.3,8.5-2,15.9,0.9,22c0,0,0,0,0,0.1c1,2.1,2.2,3.9,3.7,5.5c-0.9,0.9-1.7,1.8-2.5,2.7
				c-4.4,5.2-6.9,10.6-7.5,16c-0.8,7.1,1.7,13.4,7,17.6c3.5,2.8,7.7,4.3,12.3,4.3c1.8,0,3.4-0.2,4.8-0.6c3.2-0.7,6.4-2.2,9.4-4.3
				c2.8-1.9,5.4-4.3,7.7-7c1.9-2.3,3.5-4.3,4.8-6.2c1.2-1.7,2.4-3.5,3.4-5.3c1.3-2.1,2.5-4.4,3.6-6.8c13.2-7.2,22.4-16.6,27.5-27.8
				c1.7-3.7,1.8-7.9,0.3-11.8c-1.5-3.8-4.3-6.7-7.9-8.4c-1.7-0.8-3.5-1.3-5.4-1.4c-0.5-2.9-1.6-5.1-2.6-6.7c0-0.1-0.1-0.1-0.1-0.2
				c-3-4.3-7.7-6.8-12.7-6.8c-1.4,0-2.7,0.2-4.1,0.5c-2.1,0.5-4.9,1.7-7.4,4.1c-0.7-1.1-1.6-2-2.7-2.9
				C231.8,124.1,228.4,122.9,224.8,122.9L224.8,122.9z"/>
		</g>
	</g>
	<g id="XMLID_96_">
		<g id="XMLID_124_">
			<path id="XMLID_45_" class="st0" d="M16.8,182.3c-2-1.1-2.7-2.8-2-5l24.8-79.6c0.3-1.1,1-1.9,2-2.5c1-0.5,2.1-0.6,3.2-0.3
				c1.1,0.3,2,1,2.5,2c0.6,1,0.6,2.1,0.2,3.2L24,176c5.7,1.5,12.3,0.5,19.9-3.1c7.5-3.5,14.5-9.2,21-16.9
				c6.5-7.8,10.8-17.2,13.1-28.3c2.6-12.9,1.1-22.3-4.6-28.2c-3.1-3.3-7.2-5.4-12.2-6.3c-5-0.9-9.6-1.1-13.7-0.4
				c-3.9,0.6-8,2.2-12.4,4.8c-4.7,2.7-7.8,5.7-9.4,9c-1.3,2.5-1.3,4.9,0,7.3c0.6,1.1,0.7,2.2,0.3,3.3c-0.4,1.1-1.1,1.9-2.1,2.5
				c-1,0.6-2.1,0.7-3.2,0.3c-1.1-0.4-2-1.1-2.5-2.1c-2.6-5-2.7-10-0.1-15.1c2.3-4.6,6.6-8.8,12.7-12.5c5.1-3.1,10.2-5.1,15.4-5.9
				c5.1-0.8,10.3-0.7,15.6,0.2c7.5,1.4,13.5,4.4,17.9,9c3.6,3.8,6,8.6,7.2,14.3c1.3,6.1,1.1,13.2-0.6,21.5c-1.2,6.1-3.2,12-5.9,17.8
				c-2.5,5.3-5.6,10.2-9.2,14.6c-6.7,8.4-14.6,14.7-23.6,18.8c-5.3,2.6-10.7,4-16.2,4.4c-0.5,0.1-1.2,0.1-2.3,0.1
				C24.4,185.2,20.3,184.2,16.8,182.3z"/>
		</g>
		<g id="XMLID_117_">
			<path id="XMLID_53_" class="st0" d="M92.3,175.6c-2.6-1.3-4.6-3.1-5.9-5.5c-4.1-7.8,0.4-20.8,13.3-39.1c0.6-1,1.6-1.5,2.8-1.7
				c1.2-0.2,2.3,0.1,3.2,0.8c1,0.6,1.5,1.5,1.7,2.7c0.2,1.2-0.1,2.2-0.7,3.2c-2.9,4.1-5.3,7.8-7.2,11.2c-1.9,3.4-3.3,6.2-4.1,8.3
				c-0.8,2.1-1.4,4-1.6,5.6c-0.2,1.6-0.3,2.8-0.2,3.5c0.1,0.7,0.2,1.3,0.5,1.7c0.7,1.4,2.2,2,4.6,2c6.2,0,11.6-5.5,16.2-16.6
				c0.5-1,1.3-1.8,2.4-2.2c1.1-0.4,2.2-0.4,3.2,0.1c1,0.4,1.8,1.1,2.2,2.2c0.4,1.1,0.5,2.2,0.1,3.3c-3.1,7.3-6.8,12.8-11,16.6
				c-4.1,3.4-8.4,5.2-13.1,5.2C96.4,176.8,94.3,176.4,92.3,175.6z M108.4,119.4c-1.2-0.8-1.8-2-1.8-3.5c0-0.9,0.2-1.7,0.7-2.5
				l0.2-0.2l0.4-0.6c0.7-1,1.7-1.5,2.8-1.7c1.2-0.2,2.2,0,3.2,0.7c1,0.6,1.5,1.5,1.7,2.7c0.2,1.2,0,2.2-0.7,3.2l-0.5,0.7l-0.1,0.2
				c-0.8,1.2-2,1.8-3.6,1.8C109.9,120.1,109.1,119.9,108.4,119.4z"/>
		</g>
		<g id="XMLID_109_">
			<path id="XMLID_49_" class="st0" d="M115.4,175.7c-2.6-2.8-3.6-6.2-3.1-10.1c0.5-5,3.1-10.7,7.9-17.3c4.2-5.5,8.6-9.9,13-13.1
				c3.7-2.6,7.5-4.3,11.6-4.9c4-0.6,7.5,0,10.3,1.7c3.8,2.4,5.2,6,4.2,10.9c-0.2,1-0.7,1.9-1.5,2.5c-0.8,0.6-1.8,0.9-2.8,0.8
				c1,0.5,1.8,1.2,2.4,2.2c1.1,2.5-0.1,6-3.7,10.7c-0.4,0.6-1.2,1.6-2.5,3c-0.1,0.2-0.3,0.8-0.7,1.7c-0.4,0.9-0.6,1.6-0.8,2.1
				c-0.5,2-0.6,3.2-0.5,3.7c0.1,0.1,0.5,0.1,1.3,0.1c5.9,0,11.9-5.8,18-17.3c0.6-1,1.4-1.7,2.5-2.1c1.1-0.4,2.2-0.3,3.2,0.3
				c1,0.6,1.7,1.4,2.1,2.5c0.4,1.1,0.3,2.2-0.3,3.2c-3.8,7.1-7.7,12.5-11.9,16.2c-4.1,3.8-8.6,5.6-13.7,5.6c-4,0-6.8-1.3-8.5-3.8
				c-0.4-0.9-0.7-1.7-1-2.4c-5.9,4.7-11.2,7.2-15.8,7.4h-0.6C120.8,179.6,117.8,178.3,115.4,175.7z M138.2,142.2
				c-3.8,2.7-7.5,6.5-11.3,11.5c-3.8,4.9-5.9,9.1-6.2,12.7c-0.1,1.5,0.2,2.7,1,3.6c0.8,0.9,1.8,1.3,3.1,1.2
				c4.8-0.2,11.1-4.7,19-13.4c0.2-0.2,0.3-0.6,0.5-1c0.2-0.4,0.3-0.8,0.4-1l0.7-1.6c1-2.2,1.9-3.8,2.8-4.9c1.5-2,3.2-3,4.9-3h0.4
				c-2.2-0.9-3-2.5-2.6-4.8c0.2-1.2,0.1-1.9-0.5-2c-0.6-0.4-1.5-0.6-2.6-0.6C144.5,138.7,141.4,139.9,138.2,142.2z"/>
		</g>
		<g id="XMLID_104_">
			<path id="XMLID_35_" class="st0" d="M183.6,173.8c-1.4-2-1.9-4.6-1.4-7.9c0.4-3,1.6-6.7,3.7-10.9c2.3-4.7,3.3-8,3-9.7
				c-0.4-1.8-2.1-3.8-5.2-5.8c-1,2.1-2.2,4.7-3.6,7.9c-1.4,3.2-2.7,5.9-3.7,8c-1,2.2-1.5,3.3-1.6,3.5c-0.6,1-1.4,1.8-2.5,2.2
				c-1.1,0.4-2.2,0.4-3.2-0.1s-1.8-1.3-2.2-2.4c-0.4-1.1-0.4-2.2,0.1-3.2c1.9-3.8,5.2-10.9,9.8-21.4c-0.4-0.6-0.7-1.3-1-1.9
				c-0.9-2.3-0.7-4.6,0.5-6.7c0.8-1.5,2-2.6,3.5-3.2c1.5-0.6,3-0.6,4.3,0.1c2.3,1,3.4,3.1,3.2,6.2c0,0.6-0.2,1.6-0.5,3
				c6.1,3.7,9.5,7.8,10.3,12.2c0.6,3.5-0.6,8.5-3.7,15c-2.5,5.1-3.4,8.6-2.9,10.3c0.2,0.2,0.7,0.2,1.6,0.1h0.2
				c3.1-0.2,6.6-1.8,10.5-4.9c3.9-3.1,7.2-6.9,9.9-11.4c0.6-1,1.4-1.7,2.6-2c1.2-0.3,2.3-0.1,3.3,0.5c1,0.6,1.7,1.4,2,2.6
				c0.3,1.2,0.1,2.2-0.5,3.2c-3.1,5.3-7.1,9.8-12,13.7c-5.1,4.2-10.2,6.4-15.2,6.8h-0.1h-1.1C188,177.6,185.3,176.3,183.6,173.8z"/>
		</g>
		<g id="XMLID_97_">
			<path id="XMLID_42_" class="st0" d="M210.5,205.1c-2.4-1.8-3.4-4.4-3-7.8c0.3-3.2,2-6.6,5-10.1c3-3.6,6.6-6.4,10.7-8.5
				c0.3-0.2,1.1-0.5,2.4-1.1c1.3-0.6,2.3-1,3.1-1.3c0.3-0.2,1.2-0.5,2.6-1.1c1.4-0.6,2.5-1.1,3.2-1.5c0.7-1.8,1.6-4.4,2.8-7.9
				l-2,1.4c-4.7,3.2-9.8,4.8-15.1,4.8c-3.4,0-5.8-1.6-7.3-4.8c-1.8-3.8-1.8-8.6-0.2-14.5c1.6-6.1,4.5-11.8,8.8-17.2
				c0.7-0.9,1.7-1.4,2.9-1.6c1.2-0.2,2.2,0.2,3.1,1c0.9,0.7,1.4,1.7,1.6,2.8c0.2,1.2-0.2,2.2-1,3.2c-3.8,4.7-6.3,9.8-7.4,15.1
				c-0.7,3.7-0.7,6.2,0,7.4c7-0.2,13.9-5,20.8-14.4c0.2-0.9,0.3-2.1,0.5-3.7c0.7-5.5,2.6-8.6,5.5-9.4c2.2-0.6,3.9,0.1,5.2,1.9
				c1.1,1.7,1.4,3.9,0.7,6.7c-0.6,2.4-1.8,4.9-3.6,7.6l-0.2,0.2c-1,5.4-2.3,10.4-3.7,15.1c6.5-4.2,11.1-9.3,13.8-15.5
				c0.5-1,1.3-1.8,2.4-2.2c1.1-0.4,2.2-0.4,3.2,0.1c1,0.5,1.8,1.3,2.2,2.4c0.4,1.1,0.4,2.2-0.1,3.2c-4.4,9.9-13,18-25.9,24.4
				c-1.4,3.3-2.9,6.3-4.6,9.1c-1,1.6-2,3.2-3.1,4.7s-2.5,3.3-4.1,5.3c-1.7,2-3.5,3.6-5.6,5c-2,1.4-4.1,2.3-6.1,2.7
				c-0.4,0.2-1,0.2-1.9,0.2C213.8,207,212,206.4,210.5,205.1z M221.9,194.7c2.3-2.3,4.6-5.3,7-9.2l-1.9,0.8
				c-3.4,1.7-6.3,4.1-8.8,7.2c-1.5,2-2.3,3.6-2.3,4.9h0.4C217.7,198.2,219.6,197,221.9,194.7z"/>
		</g>
	</g>
</g>
</svg>
