<?xml version="1.0" encoding="utf-8"?>
<!-- Generator: Adobe Illustrator 19.0.0, SVG Export Plug-In . SVG Version: 6.00 Build 0)  -->
<svg version="1.1" id="Layer_1" xmlns="http://www.w3.org/2000/svg"  x="0px" y="0px"
	 viewBox="0 0 118 318.3" style="enable-background:new 0 0 118 318.3;" xml:space="preserve">
<style type="text/css">
	.st0{fill:#141414;}
	.st1{fill:#AFA169;}
</style>
<g id="XMLID_52_">
	<path id="XMLID_56_" class="st0" d="M98,243.6c0,0,7,4.1,5.3,7.2c-0.8,1.7-2.1,1.9-2.7,2c0,1-0.2,36.1-0.2,36.1
		c0.9,0.3,17.1,2.6,17,6.5c0,0.5-0.3,1.5-1.5,2s-0.9,2.6,0.7,2.6c1.5,0.1,1.3,2.8,1.3,2.8s-0.1,7.2-0.1,7.4
		c-0.8,0.5-13.6,8.8-59.7,8.1h1.7c-46.1,0.7-58.9-7.6-59.7-8.1c0-0.2-0.1-7.4-0.1-7.4s-0.3-2.7,1.3-2.8c1.5-0.1,1.8-2.1,0.7-2.6
		s-1.5-1.5-1.5-2c-0.1-3.8,16.1-6.2,17-6.5c0,0-0.2-35.1-0.2-36.1c-0.6-0.1-1.9-0.3-2.7-2c-1.6-3.1,5.3-7.2,5.3-7.2"/>
	<path id="XMLID_53_" class="st1" d="M99.1,244.4c0,0-0.2-1-1-1.1c-0.3-1.2-0.2-6.9-0.2-7.1s2.3-2.7,0.4-3.8
		c-1.9-1.1-10.5-2.9-23.8-2.5c-1.6-1.9-3.4-3-3.8-5.8s-3.3-5,0.9-21c4.2-16,4.4-16.8,2.5-28.2c-1.9-11.5,0.8-20.1,2.4-24.5
		c1.6-4.4,2.8-21.9,1.6-34.2s-2.7-14.8,2.6-17.5c5.3-2.8,7.3-13.5,8-18.2c0.7-4.7,2.4-15.3,3.4-19.3s-0.6-11.5-6.5-15
		c-5.9-3.4-14-7.4-14.6-8s-5.5-1.8-3.9-9.2s3.3-12.6,2.7-16.8S68.5,0.3,59.2,0l-0.5,0c-9.3,0.3-10,8-10.6,12.2s1.1,9.3,2.7,16.8
		c1.6,7.4-3.2,8.6-3.9,9.2s-8.8,4.6-14.6,8c-5.9,3.4-7.5,11-6.5,15s2.8,14.6,3.4,19.3c0.7,4.7,2.7,15.5,8,18.2
		c5.3,2.8,3.7,5.2,2.6,17.5c-1.1,12.3,0,29.8,1.6,34.2c1.6,4.4,4.3,13.1,2.4,24.5c-1.9,11.5-1.8,12.2,2.5,28.2s1.4,18.2,0.9,21
		c-0.4,2.8-2.2,3.9-3.8,5.8c-13.3-0.4-21.9,1.4-23.8,2.5s0.4,3.7,0.4,3.8s0.1,5.9-0.2,7.1c-0.9,0.1-1,1.1-1,1.1s-2,5.2,40.4,4.5
		S99.1,244.4,99.1,244.4z"/>
</g>
</svg>
