<?xml version="1.0" encoding="utf-8"?>
<!-- Generator: Adobe Illustrator 19.0.0, SVG Export Plug-In . SVG Version: 6.00 Build 0)  -->
<svg version="1.1" id="Layer_1" xmlns="http://www.w3.org/2000/svg"  x="0px" y="0px"
	 viewBox="-166 505.8 1202.6 1038.2" style="enable-background:new -166 505.8 1202.6 1038.2;" xml:space="preserve">
<style type="text/css">
	.st0{display:none;fill:#3A3A3A;}
	.st1{display:none;fill:#FFFFFF;enable-background:new    ;}
	.st2{font-family:'Lato-Light';}
	.st3{font-size:150px;}
	.st4{fill:#424F56;}
</style>
<path id="XMLID_873_" class="st0" d="M-166,1167.1c108.9,224.8,340,379,606.4,376.9c262.8-2,488.9-155.5,596.3-377L-166,1167.1z"/>
<text id="XMLID_55_" transform="matrix(1 0 0 1 304.8185 1418.3218)" class="st1 st2 st3">404</text>
<g id="XMLID_23_">
	<path id="XMLID_97_" class="st4" d="M755.5,1167c-1.6-2.6-3.1-6.2-3.6-11.7c-0.9-11.6-0.9-47.4-0.4-53.2c0.3-2.8,0.6-22.7,0.8-43.2
		l73.7-0.4c1.7,0,3-0.5,3-1.2v-8.8c0-0.5-1-1-2.3-1.1c-0.4-1-4.3-0.7-5.4-0.8c-0.9-0.8-3.8-1.8-5.6-2c-2-1.8-4.2-1.9-5.5-1.9
		c-4.4-5.1-8.9-2.6-8.9-2.6s-18.2,0.1-48.8,0.2c0.1-15,0.2-27.2,0.2-28.5c0-0.7,0-3.9,0-8.6l73.3-0.4c1.7,0,3-1.4,3-3.1v-23.2
		c0-1.7-1.4-3.1-3.1-3.1l-73.4,0.4c0-2,0-4,0-5.9l73.4-0.4c1.7,0,3-1.4,3-3.1v-23.2c0-1.7-1.4-3.1-3.1-3.1l-73.5,0.4
		c0-2.9,0-4.6,0-4.7s0-0.9,0.1-2.4l73.5-0.4c1.7,0,3-1.4,3-3.1v-23.2c0-1.7-1.4-3.1-3.1-3.1L753,902c0-6.9-0.1-13.5-0.5-17.8
		c-0.4-3.7-1.1-11.6-5.2-11.7c-4-0.2-20.3-0.5-23.8-0.5s-5.9,0.1-6.8,10c-0.2,2.6-0.5,10.3-0.7,20.2l-49.5,0.3
		c-2.2-3.7-3.4-9.1-4-11.3c-0.7-2.8-5.1-9.6-5.8-11.4c0.4-9-2.7-11.7-3.8-13.4c-1.1-1.7-4.1-10.3-4.6-12.3c-0.6-2-1.7-12.1-4.6-14.4
		c-10-7.9-39.7-15.4-45.9-17.9s-16.6-17.2-17.5-19.9c-0.8-2.7,1.7-5.5,11.4-19.6c9.7-14.1,6.2-28.7,3.2-34.1
		c-3-5.4-9.6-12.7-22.8-16.6c-13.2-3.9-23.4-2.5-24.8-2.7c-1.4-0.2-6.2-1.3-9.9,0.4s-0.8,6.6-2,7c-1.1,0.4-6.2,7-6.2,7.5
		c0,0.4-1.8,7.2-3.2,8.5s-4.3,3.4-2.4,7.9c1.9,4.5-4.2,7.6-5.4,8.2c-1.1,0.6-3.4,2.8-5.4,5.3s1.7,3.8,3.3,5.5
		c1.6,1.8-0.3,3.6-0.8,4.4c-0.6,0.8,0.1,2.4,0.7,3.2c-0.3,0.6-0.7,1.8,0.1,3.2s-0.4,2.8-1.5,6.5s6.3,10.7,13.4,10.9
		c7,0.3,10.8,2,12.3,5.9c1.4,3.9,0.1,6.2-9.5,8.3s-32.5,9-39.1,11.8s-5.1,9.4-6.2,10.9c-1.1,1.5-3.6,3.6-4.5,6.2
		c-0.9,2.6-5.8,15.4-8.5,18.4c-2.6,3-6.4,23.1-8.8,24.2c-1.9,0.9-5.7,7.2-7.4,10.3l-292.5,1.7c-0.3-11.5-0.6-20.6-0.8-23.5
		c-0.8-9.9-3.3-10-6.8-10s-19.7,0.3-23.8,0.5c-4,0.2-4.8,8.1-5.2,11.7c-0.5,5.1-0.5,13.2-0.5,21.4l-66.3,0.4c-1.7,0-3,1.4-3,3.1
		v23.2c0,1.7,1.4,3.1,3.1,3.1l67-0.4c0,1.4,0,3.8,0,7l-67,0.4c-1.7,0-3,1.4-3,3.1v23.2c0,1.7,1.4,3.1,3.1,3.1l66.8-0.4
		c0,2,0,4,0,5.9l-66.8,0.4c-1.7,0-3,1.4-3,3.1v23.2c0,1.7,1.4,3.1,3.1,3.1l66.7-0.4c0,2.7,0,4.4,0,4.9c0,1.4,0.1,14.7,0.3,30.7
		c-16.9,0-27,0.1-28.3,0.1c-11.6-0.1-13.1,0.3-14,0.7c-0.9,0.4-6.3,2.9-15.5,6c-3.4,1.2-5.3,2.1-6.4,2.8c-0.7,0.2-1.2,0.5-1.2,0.9
		v0.2c-0.2,0.4,0,0.6,0,0.6l0,0v8c0,0.6,1.4,1.2,3,1.2l62.6-0.4c0.2,19.2,0.5,37,0.7,39.7c0.6,5.8,0.6,41.6-0.4,53.2
		c-0.4,5.5-2,9.1-3.6,11.7l-290.6,0.5c108.9,224.8,340,379,606.4,376.9c262.8-2,488.9-155.5,596.3-377H755.5z M637.4,1017.4
		c0.1-2.6-0.2-8.9-0.4-13.6l16.8-0.1c0,1.4-0.1,3.2-0.1,5.8c-0.1,6.4,4.5,9.8,4.4,10.7c-0.1,0.9,0.3,5.5,1.5,9.3s1.4,8.5,1.3,9.5
		c0,0.5,0,1.1,0.2,1.5c-3.8,0-7.6,0-11.4,0c-2-2-3.6-2.7-5.8-3.7c-3-1.4-7.2,0.7-8,0C638.3,1032.5,637.3,1021.8,637.4,1017.4z
		 M487.5,939.4c0.4-0.6,1.4-3.8,2.3-6.3h1.5c0.1,1.8,0.1,4.3,0.1,7h-4.3C487.3,939.8,487.4,939.5,487.5,939.4z M446.4,1032.5
		c0.1-0.8,1.8-8,4.4-12.3c2-3.3,4.7-10.7,6.5-15.4l21.5-0.1c0.4,4.9,1.2,13.4,0.2,14.9c-1.3,1.9-1.5,6.2-1.7,9.2s-3.4,9.1-7.5,10.6
		c-7.6-0.3-10.8,1.4-11.5,1.9c-2.4,0-4.8,0-7.2,0c0-0.9-1.2-1.9-2.2-2.6c-1.9-1.2-5.8-5.4-5.6-5.4S446.3,1033.3,446.4,1032.5z
		 M164.5,935l280.8-1.6c-0.5,2.5-1.1,4.9-1.8,7.1l-278.8,1.6C164.6,939.7,164.6,937.4,164.5,935z M441.6,1041.3
		c-7,0-13.9,0-20.8,0.1c0.2-4.7,3.9-6.5,8.4-7.1c4.8-0.6,8.9,2.3,10.2,3.8C440.1,1038.8,440.5,1040.2,441.6,1041.3z M165.1,971.3
		l266.9-1.5c-0.7,2-1.3,3.9-1.9,5.9l-264.9,1.5C165.2,975.7,165.1,973.7,165.1,971.3z M165.3,1006.6l255.8-1.5c-1,4-3.1,12.3-5,17
		c-3.9,2-7,8.3-8,9.2c-0.9,0.9-8.6,4.5-10.7,5.7c-2.1,1.2-6.8,3-9.1,1.7c-1.6-0.9-2.4,1.3-2.8,2.9c-85.8,0.3-166.3,0.6-220,0.7
		C165.4,1031.7,165.3,1018.3,165.3,1006.6z M414,1041.4c-3.5,0-7,0-10.5,0c-0.1-0.8-0.1-1.7,0.3-1.7c0.7,0,2.9-0.8,4.6-1.8
		c2.3,0.3,3.4-1,3.4-1s3-2.1,3.6-0.4C415.8,1037.9,414.6,1040.3,414,1041.4z M482.5,1125.2c-0.3,3-1.1,7.9-0.8,10
		c-0.6,1.4-1.5,5.2-0.7,7.6c-0.6,0.6-3,5.8-2.4,8.7c-2.3,5.4-2.8,11-1.2,13.1c0.8,1.1,1.3,1.4,1.6,2.3h-33.8
		c-0.1-1.1-0.3-1.8-0.3-1.8s0-68.6,0-71.8s0.8-14.3-1.6-18.1c-2.4-3.8-8.8-4.2-10.2-4.2c-1.6-1-6.3-1-8.9-0.7
		c-4-1.1-4.6,0.4-5.4,0.2c-1-0.7-2.9-0.9-4.1-1.1c-0.6-0.3-2.4-2.1-4.8-1.1s-2.2-0.9-3-1.2s-6.9-0.9-7.3,0c-1.8,3-2.7,1.9-7.9,1.5
		s-5,1.7-4.3,3.5c3.1,3.5,0.2,3.3-5.7,3.3s-14.3,1.8-23.5,3.9c-9.2,2.2-8.1,7.3-8.6,8.8c-0.6,1.5,0.2,34.7,0.6,40.4
		c0.3,4.4,0,24.5,0.1,38.3H175.9c-0.5-4-1.5-6.6-4.7-7.4c-3.9-1-2.7-12.8-3.3-21c-2-30.1,0.9-51.6,4.1-61.2s14-10.5,14.7-10.8
		c0.4-0.2,0.5-2.6,0.4-4.4l290.5-1.6c-1.4,8.3,1.5,34.4,1.4,39.6C478.9,1105.8,482.8,1122.2,482.5,1125.2z M471,975.5
		c0.4-1.4,1.2-3.7,2-5.9l11.3-0.1c-0.5,1.9-1,3.9-1.5,5.9L471,975.5z M633.5,1149.3c-1.2,2.8-7.9,8.5-7.9,12.8c0,2.2,2.1,3.9,4.4,5
		H512.2c-0.1-1.4,0.3-4.9-1-8.5c-1.5-4.2-2.7-6.6-3.1-8.6c0.8,1.8,6.1,5.6,3.1-1.4s-5.7-9.3-5.6-9.6c1.3-4.3-0.6-6.8-0.1-8
		c1.3-4.2-1.2-4.4-1.4-5.6c5.1-17.1,8.3-32.3,8.6-34.9c6-13.3,7-25.5,7-30.1h3.5c14.8,6.2,37.2,12.3,37.6,11.9
		c0.5-1.5,2.7-7.9,4.1-12.2l14.9-0.1c0.8,2.2,1.7,4.5,2.4,5.5c5.6,6.6,7.1,9.6,8.6,16.5s8.8,25.9,8.8,31s3.8,7.7,7.9,7.7
		c4.3,2.4,18.9,4.2,21,5.6c2.1,1.4,0.6,4.4,1.5,5c2.3,1.5,2.8,5.2,3.9,8.4C637.8,1147,634.7,1146.5,633.5,1149.3z M712.2,1138.6
		c-0.6,8.2,0.7,20-3.3,21c-3.2,0.8-4.2,3.4-4.7,7.4h-33.5c-0.4-0.8-0.8-1.6-1.2-1.8c0.8-1.5,2.1-4.9,0.1-8.6s-8.2-16.5-10.7-17.5
		c-0.1-1.7-0.1-4.9-3.5-8.9c-3.4-3.9-9.3-26.2-15.5-42.3c-4.1-10.6-7.3-21.9-9-28.4l62.2-0.4c-0.2,2.4-0.2,7.1,0.3,7.3
		c0.7,0.3,11.6,1.2,14.7,10.8C711.3,1087,714.2,1108.5,712.2,1138.6z M714.6,1036.8c-4.5,0-5.1-2.4-6.4-2.6c-1.4-0.2-2.3-1.6-3.9-2
		s-5.9-0.3-7-0.2c-2.5-5.7-8-12.4-9.7-15c0-1.6-0.5-7.1-1.2-13.5l28.5-0.2C714.8,1014,714.7,1026.4,714.6,1036.8z M715,974l-32,0.2
		c-0.2-1.6-0.4-3.7-0.7-5.9l32.7-0.2C715,970.3,715,972.3,715,974z M715.5,938.8l-37.7,0.2c-0.4-1.6-1-4.1-1.6-7l39.4-0.2
		C715.6,934.1,715.6,936.5,715.5,938.8z"/>
</g>
</svg>
