<?xml version="1.0" encoding="utf-8"?>
<!-- Generator: Adobe Illustrator 19.0.0, SVG Export Plug-In . SVG Version: 6.00 Build 0)  -->
<svg version="1.1" id="Layer_1" xmlns="http://www.w3.org/2000/svg"  x="0px" y="0px"
	 viewBox="-166 505.8 1202.6 1038.2" style="enable-background:new -166 505.8 1202.6 1038.2;" xml:space="preserve">
<style type="text/css">
	.st0{fill:#424F56;}
	.st1{display:none;fill:#3A3A3A;}
	.st2{display:none;fill:#FFFFFF;enable-background:new    ;}
	.st3{font-family:'Lato-Light';}
	.st4{font-size:150px;}
</style>
<g id="XMLID_17_">
	<path id="XMLID_25_" class="st0" d="M671.1,1167c15.6-10.3,25.8-27.9,25.8-47.9c0-6.7-1.1-13.1-3.2-19H875v-18.2h2.2
		c4,0,7.2-3.2,7.2-7.2v-7c0-4-3.2-7.2-7.2-7.2H875v-85.7c0-64.1-51.9-116-116-116H448.4c0.5-0.9-1.5-1.8-2.6-2.5
		c-1.2-0.7-2-0.9-2.8-1.1c-0.4-2.8-2.5-7.2-3.2-8c-0.7-0.7-1.6-2.4-2.7-4.2c-1.2-2.5-3.7-5.9-4.7-7.4c-1.1-1.5-10.2-13.9-10.9-14.8
		s-0.3-1.1,0.4-1.4c0.8-0.5,1.4-2.1,2.1-4.1c0.6-2.1,0.1-2.8-0.3-3.2c-0.4-0.4-2.8-7.3-5.3-7.4c-2.4-0.1-4.7-0.3-5.5-0.4
		c-3.2-1.1-5.7-1.4-7.2-1.3s-1.7-0.4-2.7-0.7c-4.9-0.8-8.9-5.4-9.8-6.5s-2.4-4-3.4-4.3s-4-2.3-6.1-3.6c-2.1-1.3,2.5-0.7,4.9-1.4
		s1.9-2.2,1.7-2.8s0-1.1,0.1-1.4c0.2-1.4-0.5-1.9-0.3-2.2c0.8-0.6,0.6-1.6,0.4-2.3c-0.2-0.7,0.3-1,0.8-1.1c1.9-0.9-0.1-2.7-1.2-4.1
		c-1.1-1.3-0.7-2-0.4-2.7c0.7-1.2-0.8-3.2-1-3.6s-0.9-1.3-0.2-1.6c0.6-0.2,1.3-1.1,1.4-1.9c0.2-0.9,0.4-3.9-0.1-5.2s-2-2.6-3.2-2.9
		s-2.6,0.9-4.1,2c-1.4,1.1-2.7,0-4.3-1.2c-1.6-1.1-2.6-1-3.1-0.8c-1-0.2-1.9,0.4-2.4,0.9c-0.9-0.3-2.5-0.7-3.9,0.1
		c-1.4,0.8-1.7,1.8-2.3,2.4c-3.2-0.6-4.2,1.5-4.5,2s-0.8,2.3-1.7,3.3s-1.2,1.6-1.3,2.9s1,1.8,0.4,1.8s-1.2-0.9-1.2-0.5
		c0,0.3,0.6,0.7,1,1.1c0.4,0.4-0.6,0.7-1,1.2c-0.4,0.6-0.9,2.6-1,2.8c-0.1,0.2-0.4,1.8-0.6,2.2s-0.3,1.1,0,1.2
		c0.4,0.2-0.6,2.1-0.8,2.6c-0.2,0.4-0.4,1.8,0.1,2.7c0.5,0.9,0.9,0.5,0.7,0.2s-0.1-0.9,0-1.2c0.1-0.4,0.7-0.4,0.7-0.4
		s-0.6,1.7,0.2,1.3c0.8-0.3,0.7,1.8,0.5,2.1c-0.2,0.2-1,0-0.7,0.2c0.4,0.3,1.7,0,2.1,0s0.7,1,0.9,1c0.4,0,1.2,0.3,0.7,0.5
		c-0.4,0.2-0.7,0.5-0.8,1.1c-1.1-0.6-2.6,1.7-3.1,2.2c-1.2,1.4-2.7,2-3.8,3.2c-1.1,1.2-5.2,5.6-6,6.3c-0.8,0.7-2.4,2-2.3,2.7
		c0.4,1.6-1.4,4-1.7,4.6c-0.4,0.6-2.1,4.2-2.2,6.3c-0.2,2-0.9,3.5-1.3,4.3c-0.4,0.7-0.3,3.7-0.4,4.5c-0.9,1.2-1.1,4-0.4,4.9
		c0.7,0.9,0.1,1.2,0,1.2s-0.5,0.5-0.4,0.7c0.1,0.2,0.1,1.1,0,1.3c0,0.2-0.4,0.4-0.3,0.8c0.2,0.4,0,0.6-0.4,0.6s-4.5-2.2-4.9-2.3
		c-1.1-0.8-3.6-2.1-4.1-2.1c-1.3-0.8-4.3-2.9-7.7-3.6c-3.4-0.7-6.7,1.5-7.1,1.9c-0.5,0.4-1.2-0.3-1.9-0.4c-1.8-0.3-6-0.9-6.8-1.3
		c-2.2-0.9-5.1-1.2-6.4-1.1c-1.3,0.1-5.7,1.6-7.2,4.3c-1.6,2.8-1.6,7.3-1.2,8.8c0.4,1.4,0.8,3.3,0.8,4.4s0.6,1,0.7,1.7
		c0.3,0.8,1.5,1.6,1.8,2.2c-1.6,1.6-2.7,3.1-2.8,3.4c-1.1,0.8-2.1,1.8-2.7,2.6c-1.5,1-3.3,1.6-4.3,2.6s-2.2,1.8-3.1,3.6
		c-1.6,2.9-2.9,4.7-3.2,5.1c-46.1,5.7-81.7,45-81.7,92.6v27.3H98.3c-13.3,0-24.1,10.8-24.1,24.1v14.1c0,0-29.5,5.5-29.5,17.5
		c0,3.9,0,10.3,0,17.2h-3.5c-4,0-7.2,3.2-7.2,7.2v7c0,4,3.2,7.2,7.2,7.2h3.5c0,5.9,0,9.9,0,9.9s2.9,4.1,15.1,4.9
		c-5.6,8.9-8.9,19.4-8.9,30.6c0,20,10.3,37.7,25.9,47.9l-242.8,0c108.9,224.8,340,379,606.4,376.9c262.8-2,488.9-155.5,596.3-377
		H671.1z M773,926c0-4.2,3.4-7.6,7.6-7.6h18.3c25.6,0,46.4,31.8,46.4,57.4v3.4c0,4.2-3.4,7.6-7.6,7.6h-57c-4.2,0-7.6-3.4-7.6-7.6
		V926H773z M684,925.1c0-4.2,3.4-7.7,7.7-7.7h49.2c4.2,0,7.7,3.4,7.7,7.7v54.2c0,4.2-3.4,7.7-7.7,7.7h-49.2c-4.2,0-7.7-3.4-7.7-7.7
		V925.1z M660.3,924.8v52.7c0,5.3-4.3,9.7-9.7,9.7h-30.3v-72h30.3C656,915.1,660.3,919.5,660.3,924.8z M572.3,924.8
		c0-5.3,4.3-9.7,9.7-9.7h34.3v72H582c-5.3,0-9.7-4.3-9.7-9.7V924.8z M563,924.8v52.7c0,5.3-4.3,9.7-9.7,9.7H523v-72h30.3
		C558.6,915.1,563,919.5,563,924.8z M475,924.8c0-5.3,4.3-9.7,9.7-9.7H519v72h-34.3c-5.3,0-9.7-4.3-9.7-9.7V924.8z M465.6,924.8
		v52.7c0,5.3-4.3,9.7-9.7,9.7h-30.3v-72H456C461.3,915.1,465.6,919.5,465.6,924.8z M333.1,895.4v3h-10.6v-1.6l4.7-5.4
		c1.1-1.3,1.9-2.4,2.3-3.1c0.4-0.8,0.6-1.5,0.6-2.2s-0.2-1.2-0.6-1.6c-0.4-0.4-0.9-0.7-1.5-0.7s-1.1,0.3-1.6,0.8s-0.6,1.2-0.7,2.1
		h-2.8c0.1-1.9,0.6-3.3,1.6-4.4c1-1.1,2.2-1.6,3.7-1.6c0.9,0,1.7,0.2,2.5,0.7s1.3,1.1,1.7,1.9c0.4,0.8,0.6,1.7,0.6,2.5
		c0,1-0.3,2.1-0.8,3.3c-0.5,1.2-1.5,2.6-2.8,4.2l-1.7,2L333.1,895.4L333.1,895.4z M309.6,894.9v-3l6.3-11.1h2.8v11.1h1.3v3h-1.3v3.5
		H316v-3.5H309.6z M300.5,884.3l1.5-3.1h3.9v17.2h-2.6v-14.2L300.5,884.3L300.5,884.3z M280.3,924.8c0-5.3,4.3-9.7,9.7-9.7h32.3v72
		H290c-5.3,0-9.7-4.3-9.7-9.7V924.8z M326.3,915.1h32.3c5.3,0,9.7,4.3,9.7,9.7v52.7c0,5.3-4.3,9.7-9.7,9.7h-32.3V915.1z
		 M377.6,924.8c0-5.3,4.3-9.7,9.7-9.7h34.3v72h-34.3c-5.3,0-9.7-4.3-9.7-9.7V924.8z M394.2,858.8c-0.6-0.8-1.6-1.9-2.6-2.7
		c-0.2-0.2,0.4-0.9,1.7,0c0.2,0.4,1.3-0.3,1.9,0.7c0.6,1,2.6,1.2,2.8,1.3c0.1,0,0.8,0.4,1.4,0.8L394.2,858.8L394.2,858.8z
		 M376.5,824.6c0,0,1.5-3.7,2.2-6.2s3-7.4,3.4-8.1c0.4-0.7,1.6-3.9,2.6-3.9c1,0.1,2.7,1.8,6.1,3.2c3.4,1.3,6.7,2.8,7.8,3.1
		c1.1,0.3,3,1.3,3.4,1.4s1.3,0.4,0.2,0.9c-1.2,0.6-10.2,6.6-12.8,8.3c-0.9,0.7-1.6,1.3-2.6,1.3s-7,5.4-7.2,5.7
		c-0.2,0.3-0.3,3.1-3,2.7c-0.4-1.3,0.5-3.5-0.7-5.2C375.2,826.6,376.5,824.6,376.5,824.6z M209.3,975.1V975l9.6-51.2
		c0.6-3.7,3.8-6.4,7.5-6.4h39.9c4.2,0,7.6,3.4,7.6,7.6v51.2c0,4.2-3.4,7.6-7.6,7.6h-49.5c-2.2,0-4.3-1-5.8-2.7
		C209.6,979.5,209,977.3,209.3,975.1z M139.3,1167.1c15.6-10.2,25.9-27.9,25.9-47.9c0-6.4-1.1-12.6-3-18.4c6,1.7,15.5,2.9,33.5,2.9
		c0-2.1,0-7.2,0-12.5l61,9h328.8c-2.1,5.9-3.2,12.3-3.2,19c0,20,10.3,37.7,25.8,47.9H139.3z"/>
	<polygon id="XMLID_97_" class="st0" points="316.2,886.1 312.2,891.9 316.2,891.9 	"/>
</g>
<path id="XMLID_873_" class="st1" d="M-166,1167.1c108.9,224.8,340,379,606.4,376.9c262.8-2,488.9-155.5,596.3-377L-166,1167.1z"/>
<text id="XMLID_55_" transform="matrix(1 0 0 1 304.8185 1418.3218)" class="st2 st3 st4">404</text>
</svg>
