<?xml version="1.0" encoding="utf-8"?>
<!-- Generator: Adobe Illustrator 19.0.0, SVG Export Plug-In . SVG Version: 6.00 Build 0)  -->
<svg version="1.1" id="Layer_1" xmlns="http://www.w3.org/2000/svg"  x="0px" y="0px"
	 viewBox="-166 505.8 1202.6 1038.2" style="enable-background:new -166 505.8 1202.6 1038.2;" xml:space="preserve">
<style type="text/css">
	.st0{display:none;fill:#3A3A3A;}
	.st1{display:none;fill:#FFFFFF;enable-background:new    ;}
	.st2{font-family:'Lato-Light';}
	.st3{font-size:150px;}
	.st4{fill:#424F56;}
</style>
<path id="XMLID_873_" class="st0" d="M-166,1167.1c108.9,224.8,340,379,606.4,376.9c262.8-2,488.9-155.5,596.3-377L-166,1167.1z"/>
<text id="XMLID_55_" transform="matrix(1 0 0 1 304.8185 1418.3218)" class="st1 st2 st3">404</text>
<g id="XMLID_1_">
	<path id="XMLID_108_" class="st4" d="M1034.6,655h-53.4c-1.1,0-2,0.9-2,2v35.6c0,1.1-0.9,2-2,2h-53.4c-1.1,0-2,0.9-2,2v35.6
		c0,1.1-0.9,2-2,2h-53.4c-1.1,0-2,0.9-2,2v35.6c0,1.1-0.9,2-2,2H809c-1.1,0-2,0.9-2,2v35.6c0,1.1-0.9,2-2,2h-53.4c-1.1,0-2,0.9-2,2
		V851c0,1.1-0.9,2-2,2h-53.4c-1.1,0-2,0.9-2,2v35.6c0,1.1-0.9,2-2,2h-53.4c-1.1,0-2,0.9-2,2v35.6c0,1.1-0.9,2-2,2h-53.4
		c-1.1,0-2,0.9-2,2v35.6c0,1.1-0.9,2-2,2H522c-1.1,0-2,0.9-2,2v35.6c0,1.1-0.9,2-2,2h-53.4c-1.1,0-2,0.9-2,2v35.6c0,1.1-0.9,2-2,2
		h-53.4c-1.1,0-2,0.9-2,2v35.6c0,1.1-0.9,2-2,2h-53.4c-1.1,0-2,0.9-2,2v36c0,1.1-0.9,2-2,2h-53.4c-1.1,0-2,0.9-2,2v33.7h-88.2
		c0.6-0.5,1.5-1.1,1.3-1.8c-0.3-1.1-3.3-1.8-4.9-2.9c5.7-3.1,3.1-5.7,2.6-12.2c-2.2-6.8-1.4-26.7,0.3-37.8c0.5-3.5,0.9-7.8,1.2-12.2
		c0.1,0.1,0.3,0.1,0.4,0.1c0.6,0,1-0.4,1-1v-32.7c0-0.6-0.4-1-1-1s-1,0.4-1,1v5.6c-1.2-11.4-3-34.4-3-35.7c-0.1-1.5,2.7-2.2,3.1-1.1
		c0.4,1.1,2.9-0.6,3.9-0.5c1,0.1,2.7,0.8,3.2-1c3.5,1.5,2.8-8.3,2.9-11.4c0.1-3.1-2.8-6.4-5.5-10.8c-8.5-12.4-5.2-18.4-7.6-21.9
		s-1.2-6.3-1.2-8.6s1.5-5.4,1.8-6.2c1.9-3.4,0.8-5.2,0.2-7.6c0.2,0.3,0.5,0.5,0.9,0.5c0.6,0,1-0.4,1-1v-33.3c0-0.5-0.4-0.9-0.9-1
		c-0.4-2.7-1.1-5.4-1.6-7.6c0.3-9.8-1.3-14.3-3.8-20c-2.5-5.7-3.8-5.9-2.7-8c1.1-2.3,8.3-2,11.7-2c2.8,0,2.8-1,3.4-2.2v32.7
		c0,0.6,0.4,1,1,1s1-0.4,1-1v-33.3c0-0.5-0.4-0.9-0.8-1c2.4-2.7,3.4-4.9,3.6-6.1c2.9,0.2,4.8-0.1,4.5-2.6s0-3.9,1.2-5.2
		c2.6-3.1,4.8-6.3,5.7-6.6c2.5-2.5,2.1-5.9,1.7-8.1c-0.4-2.2-1.6-5.8-2.2-5.9c-1-3.3-3.5-5.5-5.2-5.7c-1-0.1-2.1-1.4-3-2.4v-32.3
		c0-0.6-0.4-1-1-1s-1,0.4-1,1v30.2c-1.7-1.9-4.7-3.4-5.7-3.4c-4.8-3.5-8.7-2-10.7-2.2c-0.1,0-0.2-0.1-0.3-0.1v-31.2c0-0.6-0.4-1-1-1
		s-1,0.4-1,1v31.1c-1.9,0.2-3.9,1.3-4.5,1.8c-2.4-0.1-4.4,3.3-5.8,4.6s-5.7,5.9-6.9,7.7c-1.2,1.9,1.6,5,1.4,5.9
		c-0.2,0.9-2,2.5-1.1,5.2c0.8,2.7-0.1,5.2-0.3,8.8c-0.2,3.7-4.1,2.3-5.3,1.6c-1.2-0.7-4.4-0.8-3.8,1.3s0.6,3.5,0,4.8
		c-0.3,0-0.6,0.1-0.9,0.1v-33c0-0.6-0.4-1-1-1s-1,0.4-1,1V882c0,0.1,0,0.2,0.1,0.3c-1.1,0.6-2.2,1.7-3.8,3.8
		c-2.9,4-6.9,5.7-10.3,8.3s-11.8,17.9-11.5,23.2c0.3,5.3-0.3,13-1.1,15.5s-4.3,8.4-5.1,14.3c-0.8,5.9-2.8,5.1-4.6,5.7
		c-2.8,1.5-1.3,14.7-0.3,17.7c1,2.9,4.8,6.9,7.2,10.2c2.5,3.3,4.9,15.4,5.6,19.7c-1.1,5.9-0.2,10.8-0.2,13.8
		c0.3,7.5,7.2,14.7,10.2,21c2.9,6.2,1.8,6.7,4.3,15.1s1.6,14.4,0.8,17c-0.8,2.6-0.2,5.9,0,8.7c-1.6,2-1,4.6-1.8,7
		c-8.1,5.8-12.3,10.3-14.5,13.5v-31c0-0.6-0.4-1-1-1s-1,0.4-1,1v33.3c0,0.3,0.1,0.5,0.3,0.7c-0.2,0.5-0.4,0.9-0.5,1.4
		c-1.8,1.9-5.2,7.2-7.8,11.4v-26.8c0-0.6-0.4-1-1-1s-1,0.4-1,1v30c-0.3,0.5-0.6,1-0.9,1.4c-2.1,3.4-5.7,8.8-7.7,10.8s-4.4,4.3-7,6.6
		c-3.1,1.6-5.2,7.7-7.5,8.7c-0.1,0-0.3,0-0.5,0c0.3-0.2,0.5-0.5,0.5-0.8v-33.3c0-0.6-0.4-1-1-1s-1,0.4-1,1v33.3c0,0.5,0.4,0.9,0.8,1
		c-3.6,1.1-10,8.4-10,8.4c-3.2,5.5,0.7,11,2.9,12.2c1.4,0.7,2.8,1.5,4.4,3.1l-267.5-0.1c108.9,224.8,340,379,606.4,376.9
		c262.8-2,488.9-155.5,596.3-377l0,0V657C1036.6,655.9,1035.7,655,1034.6,655z M199.8,941.7V966c-0.1-0.4-0.1-0.7-0.2-1.1
		C199.1,956.7,198.9,947.1,199.8,941.7z M172.8,1165.5c-0.3,0.4-0.8,0.9-1.2,1.5h-43.3c-0.6-1.4-0.6-4.5,0.4-4.9
		c3.4,0.1,8.2-7.8,12.8-13.1v3.4c0,0.6,0.4,1,1,1s1-0.4,1-1v-5.6c5.2-5.4,16.9-20.1,20.3-25.8c3.5-5.8,2.8,8.1,3.7,14.7
		c0.9,6.7,0.2,16.1,2.4,19.7C175.5,1162.7,173.7,1164.4,172.8,1165.5z"/>
	<path id="XMLID_119_" class="st4" d="M28.1,663.6c-2.2,3.5-3.4,7.4-3.4,11.4c0,17.4,22.7,31.6,51,32.1v21.7c0,0.6,0.4,1,1,1
		s1-0.4,1-1v-21.7c13.5-0.1,25.8-3.3,35-8.5c6,7.8,16.6,14,29.7,17.3v24.2c0,0.6,0.4,1,1,1s1-0.4,1-1v-23.7c6,1.3,12.4,2.1,19.1,2.1
		c14.8,0,28.2-3.5,38.2-9.2c7.7,5.5,18.8,9.1,31.4,9.7v26.5c0,0.6,0.4,1,1,1s1-0.4,1-1V719c0.5,0,1,0,1.5,0
		c25.2,0,45.7-12.4,46-27.8c1.7,0.1,3.5,0.2,5.3,0.2c30.9,0,56-15.3,56-34.3c0-16.7-19.5-30.6-45.4-33.7
		c-7.3-18.6-34.5-32.4-67-32.4c-14.6,0-28.2,2.8-39.3,7.6c-4.8-4.4-12.9-7.2-22.1-7.2c-9.6,0-18.1,3.1-22.7,7.8
		c-10.4-4.2-22.8-6.6-36.1-6.6c-31.5,0-57.8,13.5-64.4,31.5c-1.5-0.1-3.1-0.2-4.6-0.2c-18.8,0-34,9.3-34,20.8
		C8.2,653.1,16.3,660.3,28.1,663.6z"/>
	<path id="XMLID_120_" class="st4" d="M91,762.1v-33.3c0-0.6-0.4-1-1-1s-1,0.4-1,1v33.3c0,0.6,0.4,1,1,1S91,762.7,91,762.1z"/>
	<path id="XMLID_121_" class="st4" d="M61.6,818.8v-33.3c0-0.6-0.4-1-1-1s-1,0.4-1,1v33.3c0,0.6,0.4,1,1,1S61.6,819.3,61.6,818.8z"
		/>
	<path id="XMLID_122_" class="st4" d="M84.5,818.8v-33.3c0-0.6-0.4-1-1-1s-1,0.4-1,1v33.3c0,0.6,0.4,1,1,1S84.5,819.3,84.5,818.8z"
		/>
	<path id="XMLID_123_" class="st4" d="M77,822.8v33.3c0,0.6,0.4,1,1,1s1-0.4,1-1v-33.3c0-0.6-0.4-1-1-1S77,822.2,77,822.8z"/>
	<path id="XMLID_124_" class="st4" d="M91.3,890.5c0.6,0,1-0.4,1-1v-33.3c0-0.6-0.4-1-1-1s-1,0.4-1,1v33.3
		C90.3,890,90.7,890.5,91.3,890.5z"/>
	<path id="XMLID_125_" class="st4" d="M62,947.1c0.6,0,1-0.4,1-1v-33.3c0-0.6-0.4-1-1-1s-1,0.4-1,1v33.3
		C61,946.7,61.4,947.1,62,947.1z"/>
	<path id="XMLID_126_" class="st4" d="M84.8,947.1c0.6,0,1-0.4,1-1v-33.3c0-0.6-0.4-1-1-1s-1,0.4-1,1v33.3
		C83.8,946.7,84.3,947.1,84.8,947.1z"/>
	<path id="XMLID_127_" class="st4" d="M125.6,768.8c0-0.6-0.4-1-1-1s-1,0.4-1,1v33.3c0,0.6,0.4,1,1,1s1-0.4,1-1V768.8z"/>
	<path id="XMLID_128_" class="st4" d="M120.3,846.1v-33.3c0-0.6-0.4-1-1-1s-1,0.4-1,1v33.3c0,0.6,0.4,1,1,1S120.3,846.7,120.3,846.1
		z"/>
	<path id="XMLID_129_" class="st4" d="M137,750.8v33.3c0,0.6,0.4,1,1,1s1-0.4,1-1v-33.3c0-0.6-0.4-1-1-1S137,750.2,137,750.8z"/>
	<path id="XMLID_130_" class="st4" d="M131.6,846.1v33.3c0,0.6,0.4,1,1,1s1-0.4,1-1v-33.3c0-0.6-0.4-1-1-1S131.6,845.6,131.6,846.1z
		"/>
	<path id="XMLID_131_" class="st4" d="M102.3,886.1v33.3c0,0.6,0.4,1,1,1s1-0.4,1-1v-33.3c0-0.6-0.4-1-1-1S102.3,885.6,102.3,886.1z
		"/>
	<path id="XMLID_132_" class="st4" d="M165.2,742.1v33.3c0,0.6,0.4,1,1,1s1-0.4,1-1v-33.3c0-0.6-0.4-1-1-1S165.2,741.6,165.2,742.1z
		"/>
	<path id="XMLID_133_" class="st4" d="M178.5,775.5v33.3c0,0.6,0.4,1,1,1s1-0.4,1-1v-33.3c0-0.6-0.4-1-1-1S178.5,774.9,178.5,775.5z
		"/>
	<path id="XMLID_134_" class="st4" d="M203.6,752.1v33.3c0,0.6,0.4,1,1,1s1-0.4,1-1v-33.3c0-0.6-0.4-1-1-1S203.6,751.6,203.6,752.1z
		"/>
	<path id="XMLID_135_" class="st4" d="M228.5,768.8c0-0.6-0.4-1-1-1s-1,0.4-1,1v33.3c0,0.6,0.4,1,1,1s1-0.4,1-1V768.8z"/>
	<path id="XMLID_136_" class="st4" d="M269.6,785.5v-33.3c0-0.6-0.4-1-1-1s-1,0.4-1,1v33.3c0,0.6,0.4,1,1,1S269.6,786,269.6,785.5z"
		/>
	<path id="XMLID_137_" class="st4" d="M218.6,1084.7c-0.6,0-1,0.4-1,1v33.3c0,0.6,0.4,1,1,1s1-0.4,1-1v-33.3
		C219.6,1085.2,219.2,1084.7,218.6,1084.7z"/>
	<path id="XMLID_138_" class="st4" d="M247,1075.8v33.3c0,0.6,0.4,1,1,1s1-0.4,1-1v-33.3c0-0.6-0.4-1-1-1S247,1075.2,247,1075.8z"/>
	<path id="XMLID_139_" class="st4" d="M81.1,1126.7c0.6,0,1-0.4,1-1v-33.3c0-0.6-0.4-1-1-1s-1,0.4-1,1v33.3
		C80.1,1126.3,80.6,1126.7,81.1,1126.7z"/>
	<path id="XMLID_140_" class="st4" d="M39,1109.1v33.3c0,0.6,0.4,1,1,1s1-0.4,1-1v-33.3c0-0.6-0.4-1-1-1S39,1108.5,39,1109.1z"/>
	<path id="XMLID_141_" class="st4" d="M280.1,823.8c0.6,0,1-0.4,1-1v-33.3c0-0.6-0.4-1-1-1s-1,0.4-1,1v33.3
		C279.1,823.3,279.5,823.8,280.1,823.8z"/>
	<path id="XMLID_142_" class="st4" d="M251.7,862.8v-33.3c0-0.6-0.4-1-1-1s-1,0.4-1,1v33.3c0,0.6,0.4,1,1,1S251.7,863.3,251.7,862.8
		z"/>
	<path id="XMLID_143_" class="st4" d="M274.6,879.5v-33.3c0-0.6-0.4-1-1-1s-1,0.4-1,1v33.3c0,0.6,0.4,1,1,1S274.6,880,274.6,879.5z"
		/>
	<path id="XMLID_144_" class="st4" d="M242.5,862.8v33.3c0,0.6,0.4,1,1,1s1-0.4,1-1v-33.3c0-0.6-0.4-1-1-1S242.5,862.2,242.5,862.8z
		"/>
	<path id="XMLID_145_" class="st4" d="M219.8,908.1c0-0.6-0.4-1-1-1s-1,0.4-1,1v33.3c0,0.6,0.4,1,1,1s1-0.4,1-1V908.1z"/>
	<path id="XMLID_146_" class="st4" d="M236,919.5v33.3c0,0.6,0.4,1,1,1s1-0.4,1-1v-33.3c0-0.6-0.4-1-1-1S236,918.9,236,919.5z"/>
	<path id="XMLID_147_" class="st4" d="M278.1,901.8c-0.6,0-1,0.4-1,1v33.3c0,0.6,0.4,1,1,1s1-0.4,1-1v-33.3
		C279.1,902.2,278.7,901.8,278.1,901.8z"/>
	<path id="XMLID_148_" class="st4" d="M124.6,918.5c-0.6,0-1,0.4-1,1v33.3c0,0.6,0.4,1,1,1s1-0.4,1-1v-33.3
		C125.6,918.9,125.2,918.5,124.6,918.5z"/>
	<path id="XMLID_149_" class="st4" d="M94.3,959.5v33.3c0,0.6,0.4,1,1,1s1-0.4,1-1v-33.3c0-0.6-0.4-1-1-1S94.3,958.9,94.3,959.5z"/>
	<path id="XMLID_150_" class="st4" d="M117.1,976.1v33.3c0,0.6,0.4,1,1,1s1-0.4,1-1v-33.3c0-0.6-0.4-1-1-1S117.1,975.6,117.1,976.1z
		"/>
	<path id="XMLID_151_" class="st4" d="M213.1,966.1v33.3c0,0.6,0.4,1,1,1s1-0.4,1-1v-33.3c0-0.6-0.4-1-1-1S213.1,965.6,213.1,966.1z
		"/>
	<path id="XMLID_152_" class="st4" d="M255.8,945.4v33.3c0,0.6,0.4,1,1,1s1-0.4,1-1v-33.3c0-0.6-0.4-1-1-1S255.8,944.9,255.8,945.4z
		"/>
	<path id="XMLID_153_" class="st4" d="M229.2,848.8v33.3c0,0.6,0.4,1,1,1s1-0.4,1-1v-33.3c0-0.6-0.4-1-1-1S229.2,848.2,229.2,848.8z
		"/>
	<path id="XMLID_154_" class="st4" d="M227.5,984.4c-0.6,0-1,0.4-1,1v33.3c0,0.6,0.4,1,1,1s1-0.4,1-1v-33.3
		C228.5,984.9,228,984.4,227.5,984.4z"/>
	<path id="XMLID_155_" class="st4" d="M249.3,1002.1v33.3c0,0.6,0.4,1,1,1s1-0.4,1-1v-33.3c0-0.6-0.4-1-1-1
		S249.3,1001.5,249.3,1002.1z"/>
	<path id="XMLID_156_" class="st4" d="M290.5,985.4v33.3c0,0.6,0.4,1,1,1s1-0.4,1-1v-33.3c0-0.6-0.4-1-1-1S290.5,984.9,290.5,985.4z
		"/>
	<path id="XMLID_157_" class="st4" d="M149.2,815.5v33.3c0,0.6,0.4,1,1,1s1-0.4,1-1v-33.3c0-0.6-0.4-1-1-1S149.2,814.9,149.2,815.5z
		"/>
	<path id="XMLID_158_" class="st4" d="M48.6,1035.7v33.3c0,0.6,0.4,1,1,1s1-0.4,1-1v-33.3c0-0.6-0.4-1-1-1S48.6,1035.2,48.6,1035.7z
		"/>
	<path id="XMLID_159_" class="st4" d="M71.4,1035.8v33.3c0,0.6,0.4,1,1,1s1-0.4,1-1v-33.3c0-0.6-0.4-1-1-1S71.4,1035.2,71.4,1035.8z
		"/>
	<path id="XMLID_160_" class="st4" d="M65.9,1073.1v33.3c0,0.6,0.4,1,1,1s1-0.4,1-1v-33.3c0-0.6-0.4-1-1-1S65.9,1072.6,65.9,1073.1z
		"/>
	<path id="XMLID_161_" class="st4" d="M112.6,1019.1v33.3c0,0.6,0.4,1,1,1s1-0.4,1-1v-33.3c0-0.6-0.4-1-1-1
		S112.6,1018.6,112.6,1019.1z"/>
	<path id="XMLID_162_" class="st4" d="M107.2,1063.1v33.3c0,0.6,0.4,1,1,1s1-0.4,1-1v-33.3c0-0.6-0.4-1-1-1
		S107.2,1062.6,107.2,1063.1z"/>
	<path id="XMLID_163_" class="st4" d="M136.8,1042.4v-33.3c0-0.6-0.4-1-1-1s-1,0.4-1,1v33.3c0,0.6,0.4,1,1,1
		S136.8,1043,136.8,1042.4z"/>
	<path id="XMLID_164_" class="st4" d="M81.8,1032.8v-33.3c0-0.6-0.4-1-1-1s-1,0.4-1,1v33.3c0,0.6,0.4,1,1,1S81.8,1033.3,81.8,1032.8
		z"/>
	<path id="XMLID_165_" class="st4" d="M216.4,1018.1c-0.6,0-1,0.4-1,1v33.3c0,0.6,0.4,1,1,1s1-0.4,1-1v-33.3
		C217.4,1018.6,217,1018.1,216.4,1018.1z"/>
	<path id="XMLID_166_" class="st4" d="M272.6,969.9c-0.6,0-1,0.4-1,1v33.3c0,0.6,0.4,1,1,1s1-0.4,1-1v-33.3
		C273.6,970.4,273.2,969.9,272.6,969.9z"/>
	<path id="XMLID_167_" class="st4" d="M269,1074.1c0.6,0,1-0.4,1-1v-33.3c0-0.6-0.4-1-1-1s-1,0.4-1,1v33.3
		C268,1073.7,268.4,1074.1,269,1074.1z"/>
	<path id="XMLID_168_" class="st4" d="M238.7,1049.1v33.3c0,0.6,0.4,1,1,1s1-0.4,1-1v-33.3c0-0.6-0.4-1-1-1
		S238.7,1048.6,238.7,1049.1z"/>
</g>
</svg>
