<svg version="1.1"
	 xmlns="http://www.w3.org/2000/svg" xmlns:xlink="http://www.w3.org/1999/xlink" xmlns:a="http://ns.adobe.com/AdobeSVGViewerExtensions/3.0/"
	 x="0px" y="0px" width="107.9px" height="249.7px" viewBox="0 0 107.9 249.7" style="enable-background:new 0 0 107.9 249.7;"
	 xml:space="preserve">
<style type="text/css">
	.st0{fill:#FFF;}
</style>
<defs>
</defs>
<path id="XMLID_15_" class="st0" d="M103.7,246.8c-8.2-3.2-13.3-6-19.6-10.1c9.6-18.7-0.1-32.1-2.6-35.7c-8.5,17.7-4.9,28-2,32.6
	c-7.1-4.9-13.5-10.1-19.1-15.4c14.4-15.8,8.3-31.4,6.8-35.5c-14.6,17.2-11.2,29.1-9.4,32.9c-4.1-4.2-7.7-8.4-10.6-12.5
	c-2-2.8-3.8-5.6-5.5-8.3c17.8-12.2,15.4-28.8,14.8-33.2c-18.9,14-17.5,26.7-16.6,30.4c-4.7-7.9-8.1-15.5-10.7-22.7
	c19.6-8.3,20.7-24.9,21-29.4c-19.6,9-22.2,20.5-22.4,25.3c-2.5-8.1-4-15.8-4.8-23.2c21.4-3.7,26.1-20,27.4-24.3
	c-24,5.2-27.2,18.4-27.6,21.4c-0.6-7.7-0.5-15.1-0.1-22.3c0.1-0.9,0.1-1.9,0.2-2.8c21.6-0.2,28.9-15.3,30.9-19.3
	c-22.6,1.1-28.9,11.6-30.5,15.6c1-9.1,3.1-17.6,5.7-25.4c20.8,4.6,31.3-8.3,34.1-11.7c-20-3.8-29,3-32.4,6.9
	c2.9-7.4,6.4-14.2,10.1-20.3c19.7,7.8,32.1-3.2,35.5-6.2c-17.8-6.5-27.7-2.3-32.2,1c4.1-6.2,8.4-11.5,12.4-15.9
	c18.6,10.4,32.4,1,36.1-1.5c-16.1-8.4-26.3-6.1-31.4-3.6c4.8-4.9,8.8-8.2,10.9-9.9c4.3-0.9,25.4-5.9,35.8-22.7
	c-24.6,0.4-29.8,2-38.2,20.7c-2.1,1.7-5.5,4.5-9.5,8.5c2.5-5.5,4.2-15.2-1.7-30.1c-2.9,3.5-14,16.5-4.8,36.7c0.1,0,0.1,0.1,0.2,0.1
	c-3.6,4.1-7.5,8.9-11.3,14.4c2.1-5.5,3.3-15.3-4.9-30.1c-2.4,3.8-11.7,18.2,0,37c0.1,0,0.2,0.1,0.3,0.1c-2.9,4.8-5.7,10.1-8.2,15.7
	c0.7-5.9-0.7-15-9.9-26.8c-1.8,4.2-8.6,19.8,5.9,36.5c0.1,0,0.2,0,0.2,0.1c-1.9,5.6-3.5,11.6-4.7,17.9c-1.1-5.8-5-13.7-15.6-22.2
	c-0.8,4.4-3.8,21.2,14.1,34.1c-0.1,1-0.1,1.9-0.2,2.9c-0.2,4.1-0.4,8.3-0.3,12.5c-2.3-5.4-7.5-12-18.7-18.3
	c0,4.5-0.2,21.4,19.4,31.1c0.5,5.3,1.4,10.7,2.8,16.3c-3.3-4.9-9.8-10.6-22.7-14.4c1,4.4,4.5,21.2,26,26.3c0.1,0,0.1,0,0.2-0.1
	c1.6,4.6,3.6,9.3,6,14.1c-4.4-3.8-11.7-7.5-24.1-8.5c1.8,4.1,8.7,19.8,30.7,20.5c1.7,2.8,3.6,5.7,5.7,8.6c1.3,1.8,2.7,3.7,4.2,5.5
	c-5.1-2.7-13.1-4.7-25.4-2.9c2.7,3.6,13,17.3,34.7,12.9c0,0,0.1-0.1,0.1-0.1c4.7,4.5,10.1,8.9,15.8,13.2c-5.5-2.2-14.7-3.3-28.6,2.6
	c3.6,2.8,16.9,13.5,36.8,3.8c0.1-0.2,0.2-0.3,0.3-0.5c6.4,4.2,11.7,7.1,20.1,10.4c0.1,0,0.2,0.1,0.3,0.1c0.7,0.1,1.4-0.3,1.7-0.9
	C104.8,247.9,104.4,247.1,103.7,246.8z"/>
</svg>
