<svg version="1.1" id="Layer_1" xmlns="http://www.w3.org/2000/svg" xmlns:xlink="http://www.w3.org/1999/xlink" x="0px" y="0px"
	 viewBox="126 1139.3 360.1 97.4" xml:space="preserve">
<style type="text/css">
	.st0{fill:#FFFFFF;}
</style>
	<path id="XMLID_44_" class="st0" d="M195.2,1181h-30.3c-0.8,0-1.4,0.6-1.4,1.4v14.8c0,0.8,0.6,1.4,1.4,1.4h11.8v18.4
		c0,0-2.7,0.9-10,0.9c-8.6,0-20.7-3.2-20.7-29.7c0-26.6,12.6-30.1,24.4-30.1c10.2,0,14.6,1.8,17.4,2.7c0.9,0.3,1.7-0.6,1.7-1.4
		l3.4-14.3c0-0.4-0.1-0.8-0.5-1.1c-1.1-0.8-8.1-4.7-25.6-4.7c-20.2,0-40.9,8.6-40.9,49.9c0,41.3,23.7,47.5,43.7,47.5
		c16.6,0,26.6-7.1,26.6-7.1c0.4-0.2,0.5-0.8,0.5-1.1v-46.2C196.6,1181.7,196,1181,195.2,1181z"/>
	<path id="XMLID_41_" class="st0" d="M351.2,1144.3c0-0.8-0.6-1.4-1.4-1.4h-17c-0.8,0-1.4,0.6-1.4,1.4v32.9h-26.6v-32.9
		c0-0.8-0.6-1.4-1.4-1.4h-17c-0.8,0-1.4,0.6-1.4,1.4v89.2c0,0.8,0.6,1.4,1.4,1.4h17c0.8,0,1.4-0.6,1.4-1.4v-38.1h26.6v38.1
		c0,0.8,0.6,1.4,1.4,1.4h17.1c0.8,0,1.4-0.6,1.4-1.4L351.2,1144.3L351.2,1144.3z"/>
	<path id="XMLID_40_" class="st0" d="M227.4,1156c0-6.1-4.9-11.1-11-11.1s-11,5-11,11.1c0,6.1,4.9,11.1,11,11.1
		C222.4,1167.1,227.4,1162.1,227.4,1156z"/>
	<path id="XMLID_39_" class="st0" d="M226.1,1214.7c0-2.3,0-41.2,0-41.2c0-0.8-0.6-1.4-1.4-1.4h-17c-0.8,0-1.5,0.8-1.5,1.6
		c0,0,0,49.5,0,59c0,1.7,1.1,2.2,2.5,2.2c0,0,7.3,0,15.3,0c1.7,0,2.1-0.8,2.1-2.3C226.1,1229.5,226.1,1217.1,226.1,1214.7z"/>
	<path id="XMLID_22_" class="st0" d="M416,1172.2h-16.9c-0.8,0-1.4,0.6-1.4,1.4v43.7c0,0-4.3,3.1-10.4,3.1c-6.1,0-7.7-2.8-7.7-8.7
		c0-6,0-38.1,0-38.1c0-0.8-0.6-1.4-1.4-1.4H361c-0.8,0-1.4,0.6-1.4,1.4c0,0,0,23.3,0,41c0,17.7,9.9,22.1,23.5,22.1
		c11.2,0,20.1-6.2,20.1-6.2s0.4,3.2,0.6,3.6c0.2,0.4,0.7,0.8,1.2,0.8h10.9c0.8,0,1.4-0.6,1.4-1.4v-59.9
		C417.4,1172.9,416.7,1172.2,416,1172.2z"/>
	<path id="XMLID_6_" class="st0" d="M462.2,1170.2c-9.6,0-16.1,4.3-16.1,4.3v-30.2c0-0.8-0.6-1.4-1.4-1.4h-17.1
		c-0.8,0-1.4,0.6-1.4,1.4v89.2c0,0.8,0.6,1.4,1.4,1.4h11.9c0.5,0,0.9-0.3,1.2-0.8s0.7-4.1,0.7-4.1s7,6.6,20.2,6.6
		c15.5,0,24.4-7.9,24.4-35.4C486,1173.8,471.8,1170.2,462.2,1170.2z M455.5,1220.5c-5.9-0.2-9.8-2.8-9.8-2.8v-28.2
		c0,0,3.9-2.4,8.7-2.8c6.1-0.5,12,1.3,12,15.8C466.4,1217.7,463.7,1220.7,455.5,1220.5z"/>
	<path id="XMLID_3_" class="st0" d="M275.1,1172.1h-12.8v-16.9c0-0.6-0.3-1-1.1-1h-17.4c-0.7,0-1,0.3-1,0.9v17.5
		c0,0-8.7,2.1-9.3,2.3c-0.6,0.2-1,0.7-1,1.4v11c0,0.8,0.6,1.4,1.4,1.4h8.9c0,0,0,11.5,0,26.4c0,19.6,13.7,21.5,23,21.5
		c4.2,0,9.3-1.4,10.1-1.7c0.5-0.2,0.8-0.7,0.8-1.3v-12.1c0-0.8-0.7-1.4-1.4-1.4s-2.7,0.3-4.6,0.3c-6.3,0-8.4-2.9-8.4-6.7
		c0-3.8,0-25.1,0-25.1h12.8c0.8,0,1.4-0.6,1.4-1.4v-13.7C276.5,1172.7,275.9,1172.1,275.1,1172.1z"/>
</svg>
