<?xml version="1.0" encoding="utf-8"?>
<!-- Generator: Adobe Illustrator 19.0.0, SVG Export Plug-In . SVG Version: 6.00 Build 0)  -->
<svg version="1.1" id="Layer_1" xmlns="http://www.w3.org/2000/svg" xmlns:xlink="http://www.w3.org/1999/xlink" x="0px" y="0px"
	 viewBox="0 0 262 162" style="enable-background:new 0 0 262 162;" xml:space="preserve">
<path id="XMLID_2_" d="M181,162h-25c-3.3,0-6-2.7-6-6V81c0-3.3,2.7-6,6-6s6,2.7,6,6v69h19c21.4,0,39.3-7.4,51.8-21.4
	C243.9,116.1,250,99.2,250,81c0-33.2-21.6-69-69-69h-22.5L85.2,85.2c-2.3,2.3-6.1,2.3-8.5,0L12,20.5V156c0,3.3-2.7,6-6,6s-6-2.7-6-6
	V6c0-2.4,1.5-4.6,3.7-5.5C5.9-0.5,8.5,0,10.2,1.8L81,72.5l70.8-70.8c1.1-1.1,2.7-1.8,4.2-1.8h25c24.9,0,45.9,8.8,60.7,25.5
	C254.8,40.2,262,59.9,262,81s-7.2,40.8-20.3,55.5C226.9,153.2,205.9,162,181,162z"/>
</svg>
