<?xml version="1.0" encoding="utf-8"?>
<!-- Generator: Adobe Illustrator 19.0.0, SVG Export Plug-In . SVG Version: 6.00 Build 0)  -->
<svg version="1.1" id="Layer_1" xmlns="http://www.w3.org/2000/svg" xmlns:xlink="http://www.w3.org/1999/xlink" x="0px" y="0px"
	 viewBox="0 0 216 58" style="enable-background:new 0 0 216 58;" xml:space="preserve">
<style type="text/css">
	.st0{fill:#232323;}
</style>
<g id="XMLID_556_">
	<g id="XMLID_626_">
		<path id="XMLID_29_" class="st0" d="M40.4,10.3c-3.1,10.8-5,18.7-5.7,23.9c-0.8,5.1-0.6,8.5,0.3,10.2c0.2,0.4,0.3,0.8,0.2,1.3
			c-0.1,0.4-0.4,0.8-0.8,1c-0.3,0.2-0.6,0.2-0.9,0.2c-0.6,0-1.1-0.3-1.4-0.9c-1.1-1.9-1.5-5-1.1-9.4c0.4-4.3,1.7-10.6,3.8-18.7
			c-1.6,2.6-3.2,5.5-4.8,8.6c-3.5,7-5.8,12.1-6.8,15.4c-0.2,0.7-0.7,1.1-1.5,1.2c-0.8,0.1-1.3-0.3-1.7-0.9c-0.5-1-0.7-2.7-0.7-4.9
			c0-2.3,0.1-5.1,0.4-8.4c0.3-5.4,0.5-9.1,0.4-11c0-0.5,0-1.2-0.1-1.9l-0.7,1.4c-0.4,0.9-0.6,1.3-0.6,1.4c-0.9,2.2-1.7,4.1-2.4,5.6
			c-2.6,6.3-4.7,11.1-6.2,14.4c-1.1,2.4-2.2,4.4-3.2,6c-1.2,1.9-2.2,3.1-3.2,3.5c-0.2,0.1-0.4,0.1-0.7,0.1c-0.7,0-1.2-0.3-1.6-1
			c-0.2-0.4-0.2-0.8,0-1.3c0.2-0.4,0.5-0.7,0.9-1c0.3,0,0.9-0.8,1.8-2.4c1.1-2,2.1-3.8,3-5.7c1.3-2.8,3.3-7.4,6.1-14
			c0.9-2.2,1.7-4.1,2.4-5.7c0.3-0.6,0.5-1.1,0.6-1.4c0.4-1,0.9-2.1,1.5-3.5l0.3-1.2c-0.2,0-0.6,0-1.2,0c-1.2,0.1-2.4,0.6-3.5,1.6
			c-1.3,1-2,2.1-2.3,3.2c-0.3,1.2,0.1,2.1,1.2,2.9c0.4,0.3,0.6,0.7,0.7,1.1c0.1,0.5,0,0.9-0.3,1.3c-0.3,0.4-0.7,0.6-1.1,0.7
			c-0.5,0.1-0.9,0-1.3-0.3C8,20,7.2,17.8,8,15.2c0.5-1.8,1.6-3.4,3.4-4.9C13.2,8.8,15,8.1,16.9,8c0.3,0,0.8,0,1.4,0h0.1
			c1.2,0.1,2.2,0.5,3,1.4c1.4,1.5,2.1,4.4,2.2,8.6c0.1,2-0.1,5.7-0.4,11.2c-0.1,0.8-0.2,2.4-0.3,4.7c1.6-3.5,3-6.5,4.3-8.9
			c4.3-8.3,7.8-13.7,10.6-16.3C38.3,8,39,8,39.7,8.4c0.3,0.2,0.5,0.5,0.7,0.8C40.5,9.6,40.5,10,40.4,10.3z"/>
	</g>
	<g id="XMLID_617_">
		<path id="XMLID_45_" class="st0" d="M39.9,44.3c-1.3-1.4-1.6-3.6-0.9-6.4c0.7-2.6,2.1-4.9,4.2-6.9c0.3-0.3,0.8-0.5,1.2-0.5
			c0.4-1,1-1.9,1.9-2.6c1.9-1.7,3.8-2.3,5.6-1.7c1.7,0.6,2.8,2,3.2,4.2c0.3,1.9,0,3.9-0.9,6.1c-0.1,0.3-0.2,0.6-0.3,0.7
			c1.2-0.3,2.2-1.1,3.1-2.3c0.3-0.3,0.7-0.5,1.1-0.6c0.5,0,0.9,0.1,1.3,0.4c0.3,0.3,0.6,0.7,0.6,1.1c0.1,0.5-0.1,0.9-0.4,1.3
			c-1.2,1.5-2.6,2.6-4.2,3.2c-1.2,0.5-2.5,0.6-3.9,0.5c-0.6,0.6-1.3,1.3-2.1,2c-1.9,1.5-3.7,2.5-5.2,2.8c-0.6,0.1-0.9,0.1-1.1,0.1
			C41.7,45.6,40.7,45.2,39.9,44.3z M42.3,38.8c-0.4,1.6-0.4,2.7,0.1,3.3c0.3,0.2,0.7,0.2,1.1,0.1c1-0.2,2.3-0.9,3.8-2.1
			c0.1-0.1,0.2-0.2,0.4-0.3c0.2-0.2,0.3-0.3,0.4-0.3c-1.9-1.2-3.2-2.7-3.7-4.6C43.3,36.1,42.7,37.4,42.3,38.8z M48.6,30.4
			c-1.1,1-1.5,2.1-1.1,3.4c0.3,1.3,1.3,2.4,2.7,3.1c1.4-2.1,1.9-4.1,1.6-6c-0.2-0.9-0.5-1.4-0.9-1.6c-0.1,0-0.2,0-0.3,0
			C50.1,29.3,49.4,29.7,48.6,30.4z"/>
	</g>
	<g id="XMLID_612_">
		<path id="XMLID_20_" class="st0" d="M60.2,45.2c-1-0.7-1.7-1.8-2-3.5c-0.2-1-0.3-2.4-0.2-4.1c0-0.5,0.1-1,0.1-1.5
			c0-0.5,0.1-1,0.1-1.4c0.1-0.4,0.1-0.8,0.2-1.1c0-0.3,0.1-0.6,0.1-0.8l0-0.3c0.1-0.4,0.3-0.8,0.7-1c0.4-0.3,0.8-0.3,1.3-0.3
			c0.4,0.1,0.8,0.3,1.1,0.7c0.3,0.4,0.4,0.8,0.3,1.3l0,0.2c0,0.2-0.1,0.4-0.1,0.7c0,0.3-0.1,0.6-0.1,1c0,0.4-0.1,0.8-0.1,1.3
			c0,0.5-0.1,0.9-0.1,1.4c-0.1,1.2,0,2.1,0.1,2.9c0.1,0.8,0.2,1.2,0.3,1.4c0.1,0.1,0.2,0.2,0.2,0.3c0,0,0.1,0,0.3,0
			c0.1,0,0.4-0.1,0.8-0.3c0.4-0.2,0.8-0.5,1.3-0.8c1.6-1.3,3.2-3.3,4.7-6c-0.2-1.5,0-3,0.5-4.3c0.5-1.4,1.2-2.5,2.2-3.1
			c0.9-0.5,1.8-0.5,2.6,0.1c0.9,0.9,1,2.2,0.1,4c-0.7,1.6-1.3,2.9-1.8,3.9c0.2,0.8,0.5,1.3,0.9,1.8c0.4,0.4,0.8,0.7,1.1,0.7
			c0.9,0.1,1.7-0.7,2.5-2.2c0.2-0.4,0.5-0.7,0.9-0.9c0.4-0.2,0.9-0.1,1.3,0.1c0.4,0.2,0.7,0.6,0.9,1c0.2,0.4,0.1,0.9-0.1,1.3
			c-0.6,1.3-1.4,2.4-2.5,3.1c-1.1,0.8-2.2,1.1-3.4,0.9c-1.2-0.2-2.3-0.8-3.2-1.8c-0.1-0.1-0.2-0.3-0.4-0.5c-1.3,2-2.7,3.5-4.2,4.7
			c-1.1,0.9-2.2,1.4-3.1,1.7c-0.4,0.1-0.8,0.2-1.1,0.2C61.4,45.7,60.8,45.5,60.2,45.2z"/>
	</g>
	<g id="XMLID_600_">
		<path id="XMLID_30_" class="st0" d="M79.1,44.6c-1-0.5-1.8-1.2-2.3-2.2c-1.6-3.1,0.1-8.2,5.2-15.4c0.3-0.4,0.6-0.6,1.1-0.7
			c0.5-0.1,0.9,0,1.3,0.3c0.4,0.3,0.6,0.6,0.7,1.1c0.1,0.5,0,0.9-0.3,1.3c-1.1,1.6-2.1,3.1-2.8,4.4c-0.8,1.3-1.3,2.4-1.6,3.3
			c-0.3,0.8-0.5,1.6-0.6,2.2c-0.1,0.6-0.1,1.1-0.1,1.4c0,0.3,0.1,0.5,0.2,0.7c0.3,0.5,0.9,0.8,1.8,0.8c2.5,0,4.6-2.2,6.4-6.5
			c0.2-0.4,0.5-0.7,0.9-0.9c0.4-0.2,0.9-0.2,1.3,0c0.4,0.2,0.7,0.4,0.9,0.9c0.2,0.4,0.2,0.9,0,1.3c-1.2,2.9-2.7,5-4.3,6.5
			c-1.6,1.4-3.3,2-5.1,2C80.7,45,79.9,44.9,79.1,44.6z M85.4,22.4c-0.5-0.3-0.7-0.8-0.7-1.4c0-0.3,0.1-0.7,0.3-1l0.1-0.1l0.1-0.2
			c0.3-0.4,0.7-0.6,1.1-0.7c0.5-0.1,0.9,0,1.3,0.3c0.4,0.3,0.6,0.6,0.7,1.1c0.1,0.5,0,0.9-0.3,1.3l-0.2,0.3l0,0.1
			c-0.3,0.5-0.8,0.7-1.4,0.7C86,22.7,85.7,22.6,85.4,22.4z"/>
	</g>
	<g id="XMLID_558_">
		<path id="XMLID_26_" class="st0" d="M90.1,45c-1.2-0.6-2.2-1.5-2.8-2.7c-0.7-1.4-0.9-3-0.4-4.8c0.4-1.9,1.5-4,3.1-6.2
			c2.1-2.9,4.3-4.7,6.5-5.4c1.8-0.5,3.4-0.4,4.7,0.5c0.7,0.5,1.2,1.2,1.5,2c0.3,0.8,0.4,1.7,0.2,2.7c-0.3,1.6-1.4,3.1-3.3,4.6
			c-1.9,1.5-5.1,2.7-9.6,3.5c-0.1,0.6,0,1.1,0.3,1.5c0.3,0.6,0.8,1,1.5,1.3c0.7,0.3,1.4,0.4,2.1,0.4c1.6,0,3.3-0.6,5.1-1.7
			c1.8-1.1,3.3-2.9,4.2-5.1c0.2-0.4,0.5-0.7,0.9-0.9c0.4-0.2,0.9-0.2,1.3,0c0.4,0.2,0.7,0.4,0.9,0.9c0.2,0.4,0.2,0.9,0,1.3
			c-1.3,3-3.2,5.2-5.8,6.9c-2.2,1.4-4.4,2.1-6.7,2.1C92.6,45.9,91.3,45.6,90.1,45z M97.5,29.1c-1.5,0.5-3.1,1.9-4.7,4.1
			c-0.6,0.8-1.1,1.5-1.5,2.4c2.6-0.6,4.6-1.4,6-2.4c1.4-0.9,2.2-1.9,2.4-2.8c0.1-0.6,0-1-0.2-1.2C99.2,29,98.9,29,98.5,29
			C98.2,29,97.9,29,97.5,29.1z"/>
	</g>
</g>
<g id="XMLID_61_">
	<path id="XMLID_63_" class="st0" d="M163,30.1c0.3-0.2,0.7-0.3,1-0.3h0.1c-0.9-0.3-1.2-1-1-1.9c0-0.1,0-0.2,0-0.3
		c0-0.1,0-0.2,0-0.3c0-0.1-0.1-0.2-0.2-0.2c-0.1-0.1-0.3-0.1-0.4-0.2c-0.2,0-0.4-0.1-0.6-0.1c-0.9,0-1.9,0.3-2.8,0.8
		c-0.3,0.2-0.6,0.4-0.9,0.6c-0.7,0.5-1.5,1.2-2.2,1.9c0,0,0,0,0,0c-0.7,0.8-1.5,1.6-2.2,2.6c-0.4,0.5-0.7,1-1,1.4
		c-0.1,0.2-0.3,0.4-0.4,0.7c-0.2,0.4-0.4,0.8-0.6,1.2c-0.2,0.6-0.4,1.2-0.4,1.7c0,0.4,0,0.8,0.2,1.1c0.1,0.1,0.1,0.2,0.2,0.3
		c0.1,0.1,0.2,0.2,0.2,0.2c0,0,0.1,0,0.1,0.1c0.1,0,0.1,0.1,0.2,0.1c0,0,0.1,0,0.1,0c0.1,0,0.1,0,0.2,0c0,0,0.1,0,0.1,0
		c0.1,0,0.2,0,0.3,0c0.2,0,0.5-0.1,0.8-0.1c0.5-0.1,1-0.4,1.6-0.7c0.3-0.2,0.6-0.4,0.9-0.6c1.2-0.9,2.6-2.2,4.2-3.9
		c0.1-0.1,0.1-0.2,0.2-0.4c0.1-0.2,0.1-0.3,0.2-0.4l0.3-0.6c0.2-0.4,0.4-0.8,0.6-1.1c0.2-0.3,0.4-0.6,0.5-0.8
		C162.4,30.6,162.7,30.3,163,30.1z"/>
	<path id="XMLID_546_" class="st0" d="M192.1,46.2c-0.6,0.4-1.2,0.9-1.7,1.4c-0.3,0.3-0.5,0.6-0.8,0.9c0,0.1-0.1,0.1-0.1,0.2
		c-0.2,0.3-0.4,0.6-0.6,0.9c-0.1,0.3-0.2,0.6-0.2,0.9h0.1c0.1,0,0.3-0.1,0.5-0.1c0.3-0.1,0.7-0.4,1.1-0.7c0.2-0.2,0.4-0.4,0.6-0.6
		c0.4-0.4,0.9-1,1.4-1.6c0.5-0.6,0.9-1.3,1.4-2l-0.8,0.3C192.8,45.8,192.4,46,192.1,46.2z"/>
	<path id="XMLID_819_" class="st0" d="M213,30.6c-0.6-1.5-1.7-2.6-3.1-3.3c-0.7-0.3-1.4-0.5-2.1-0.5c-0.2-1.1-0.6-2-1-2.7
		c0,0,0,0,0-0.1c-1.2-1.7-3-2.7-5-2.7c-0.5,0-1.1,0.1-1.6,0.2c-0.8,0.2-1.9,0.7-2.9,1.6c-0.3-0.4-0.6-0.8-1-1.1
		c-1.1-0.9-2.4-1.4-3.8-1.4c-0.3,0-0.5,0-0.8,0.1c-1.6,0.2-2.9,1-3.9,2.2c0,0,0,0,0,0.1c-0.9,1.1-1.6,2.2-2.3,3.4
		c-0.6-1.6-1.8-3.1-3.4-4.5c-0.2-2.5-1.6-4.5-3.8-5.5c-0.8-0.4-1.7-0.6-2.7-0.6c-0.8,0-1.6,0.2-2.4,0.5c-1.5,0.6-2.8,1.7-3.6,3.2
		c-0.4,0.7-0.7,1.5-0.8,2.3c-0.4-0.4-0.9-0.9-1.5-1.2c-1.5-1-3.3-1.5-5.2-1.5c-0.6,0-1.2,0-1.8,0.1c-2.3,0.3-4.4,1.2-6.4,2.7
		c-1.1,0.8-2.2,1.8-3.2,2.8c0-0.3,0-0.6-0.1-0.9c0-0.2-0.1-0.5-0.1-0.7c0.9-0.4,1.6-1.1,2.2-2c0.1-0.1,0.1-0.2,0.2-0.3l0.1-0.1
		c0.9-1.3,1.2-2.8,0.9-4.4c-0.3-1.6-1.2-3-2.5-3.9c-1-0.7-2.2-1-3.3-1c-0.3,0-0.7,0-1.1,0.1c-1.5,0.3-2.9,1.1-3.8,2.4
		c-0.1,0.1-0.1,0.2-0.2,0.3c-0.1,0.1-0.2,0.2-0.3,0.4c0-0.3-0.1-0.5-0.1-0.8c-0.6-3-2-5.6-3.9-7.7c-2.4-2.5-5.6-4.1-9.4-4.8
		c-1.4-0.3-2.8-0.4-4.1-0.4c-1.1,0-2.3,0.1-3.4,0.3c-2.6,0.4-5.1,1.4-7.6,2.9c-3.1,1.9-5.3,4.1-6.6,6.7c-1.6,3.3-1.6,6.7,0.1,9.9
		c0.8,1.4,2,2.4,3.5,2.9c0.1,0,0.1,0,0.2,0.1l-5.3,17.1c0,0,0,0.1,0,0.1c-0.8,2.8,0.3,5.5,2.8,7c2,1.1,4.3,1.7,6.9,1.7
		c0.5,0,1,0,1.4-0.1c2.6-0.2,5.3-0.9,7.8-2.1c3.5-1.6,6.6-3.9,9.3-6.8c0.1,0.3,0.2,0.5,0.3,0.8c1,1.8,2.4,3.1,4.3,4.1
		c0.1,0,0.2,0.1,0.3,0.1c1.3,0.5,2.7,0.8,4.1,0.8c1.5,0,3-0.3,4.4-0.9c1.6,1.3,3.6,2,5.8,2h0.2c0.1,0,0.1,0,0.2,0
		c1.7-0.1,3.5-0.6,5.3-1.6c1.1,0.6,2.6,1.1,4.5,1.1c3,0,5.9-1.2,8.3-3.3c0.3-0.3,0.6-0.6,0.9-0.9c0.1,0.2,0.2,0.3,0.3,0.5
		c1.5,2.2,3.9,3.4,6.8,3.4h0.4c0.1,0,0.3,0,0.4,0c0.7-0.1,1.4-0.2,2-0.3c-0.5,1.1-0.9,2.2-1,3.3c-0.3,2.8,0.7,5.3,2.8,6.9
		c1.4,1.1,3,1.7,4.8,1.7c0.7,0,1.3-0.1,1.9-0.2c1.3-0.3,2.5-0.9,3.7-1.7c1.1-0.8,2.1-1.7,3-2.7c0.8-0.9,1.4-1.7,1.9-2.4
		c0.5-0.7,0.9-1.4,1.4-2.1c0.5-0.8,1-1.7,1.4-2.7c5.2-2.8,8.8-6.5,10.8-11C213.5,33.8,213.6,32.2,213,30.6z M146,16.9L146,16.9
		l0.2-0.3c0.1-0.2,0.3-0.3,0.5-0.5c0.2-0.1,0.4-0.2,0.6-0.2c0.1,0,0.2,0,0.3,0c0,0,0,0,0,0c0.1,0,0.3,0,0.4,0.1c0,0,0.1,0,0.1,0
		c0.1,0,0.3,0.1,0.4,0.2c0.2,0.1,0.3,0.3,0.5,0.5s0.2,0.4,0.2,0.6c0,0.2,0,0.4,0,0.7c0,0.2-0.1,0.4-0.3,0.6l-0.1,0.1l-0.1,0.1l0,0.1
		c-0.3,0.5-0.8,0.7-1.4,0.7c-0.2,0-0.3,0-0.5-0.1c-0.2,0-0.3-0.1-0.4-0.2c-0.5-0.3-0.7-0.8-0.7-1.4C145.7,17.5,145.8,17.2,146,16.9z
		 M133.1,34.1c-0.4,0.6-0.9,1.2-1.4,1.8c-2.5,3.1-5.4,5.5-8.6,7.1c-0.2,0.1-0.4,0.2-0.7,0.3c-0.3,0.1-0.6,0.3-0.9,0.4
		c-1.8,0.8-3.6,1.2-5.5,1.4c0,0,0,0,0,0c-0.2,0-0.5,0-0.9,0c-0.9,0-1.8-0.1-2.6-0.3c-0.4-0.1-0.8-0.2-1.2-0.4
		c-0.4-0.1-0.7-0.3-1.1-0.5c-0.6-0.3-0.9-0.8-0.9-1.4c0-0.2,0-0.4,0.1-0.6l9.8-31.3c0.1-0.3,0.3-0.6,0.5-0.8
		c0.1-0.1,0.2-0.1,0.3-0.2c0.1-0.1,0.2-0.1,0.4-0.1c0,0,0.1,0,0.1,0c0.1,0,0.2,0,0.3,0c0,0,0,0,0.1,0c0,0,0,0,0.1,0
		c0.1,0,0.3,0,0.4,0.1c0.2,0.1,0.4,0.2,0.6,0.3c0.2,0.1,0.3,0.3,0.4,0.5c0.1,0.1,0.1,0.2,0.1,0.3c0,0.1,0.1,0.2,0.1,0.3
		c0,0.1,0,0.2,0,0.3c0,0.1,0,0.2-0.1,0.3l-9.3,29.9c0,0,0,0,0,0c0.3,0.1,0.6,0.1,0.9,0.2c0.1,0,0.2,0,0.3,0c0.2,0,0.4,0,0.7,0
		c0.1,0,0.2,0,0.3,0c0.3,0,0.6,0,0.9-0.1c0.1,0,0.2,0,0.3,0c0.4-0.1,0.8-0.1,1.2-0.2c0.1,0,0.2-0.1,0.3-0.1c0.3-0.1,0.7-0.2,1.1-0.3
		c0.1,0,0.2-0.1,0.4-0.1c0.5-0.2,0.9-0.4,1.4-0.6c0.7-0.3,1.5-0.7,2.2-1.2s1.4-1,2.1-1.5c1.4-1.1,2.7-2.4,4-4
		c1.3-1.5,2.3-3.2,3.2-5.1c0.4-0.9,0.8-1.9,1.1-2.9s0.6-2.1,0.8-3.2c0.5-2.5,0.6-4.7,0.3-6.6c-0.1-0.9-0.4-1.8-0.8-2.5
		c-0.4-0.8-0.8-1.4-1.4-2c-0.3-0.3-0.6-0.6-1-0.9c-1.1-0.8-2.3-1.3-3.8-1.6c-0.5-0.1-1.1-0.2-1.6-0.2c-0.2,0-0.3,0-0.5,0
		c-0.3,0-0.7,0-1-0.1c-0.3,0-0.5,0-0.8,0c-0.1,0-0.3,0-0.4,0c-0.4,0-0.8,0.1-1.2,0.1c-0.4,0.1-0.8,0.1-1.2,0.3s-0.8,0.2-1.2,0.4
		c-0.8,0.3-1.6,0.7-2.5,1.2c-0.5,0.3-0.9,0.5-1.3,0.8c-1.2,0.8-2,1.8-2.4,2.7c-0.5,1-0.5,1.9,0,2.9c0.2,0.3,0.2,0.7,0.2,1
		c0,0.1,0,0.2-0.1,0.3c-0.1,0.4-0.4,0.7-0.8,1c0,0,0,0,0,0c-0.1,0.1-0.2,0.1-0.3,0.1c0,0-0.1,0-0.1,0c-0.1,0-0.2,0-0.2,0
		c0,0,0,0-0.1,0c0,0,0,0-0.1,0c-0.1,0-0.3,0-0.5-0.1c-0.2-0.1-0.4-0.2-0.6-0.3c-0.2-0.1-0.3-0.3-0.4-0.5c-0.3-0.5-0.5-1-0.6-1.5
		c-0.4-1.5-0.2-3,0.5-4.5c0.6-1.2,1.6-2.4,2.9-3.5c0.6-0.5,1.3-1,2.1-1.4c0.3-0.2,0.6-0.4,1-0.5c0.7-0.4,1.4-0.7,2.1-1
		c0.6-0.2,1.2-0.4,1.8-0.5c0.4-0.1,0.8-0.2,1.2-0.3c0.5-0.1,1-0.1,1.5-0.2c0.2,0,0.3,0,0.5,0c0.3,0,0.6,0,0.8,0c0,0,0.1,0,0.1,0
		c0.4,0,0.7,0,1.1,0c0.2,0,0.4,0,0.5,0c0.5,0.1,1.1,0.1,1.6,0.2c1.5,0.3,2.8,0.7,4,1.3c0.6,0.3,1.1,0.6,1.6,1c0.5,0.4,1,0.8,1.4,1.2
		c0.6,0.6,1,1.3,1.4,2c0.6,1.1,1.1,2.3,1.4,3.6c0.1,0.6,0.2,1.2,0.3,1.9c0.2,2,0,4.1-0.5,6.6c-0.1,0.4-0.2,0.7-0.3,1.1
		c-0.3,1.4-0.8,2.8-1.3,4.2c-0.2,0.6-0.5,1.1-0.7,1.7C134.8,31.6,134,32.9,133.1,34.1z M126.6,13.1c0.2,0,0.3,0.1,0.5,0.1
		c1.1,0.2,1.8,0.6,2.4,1.2c1.5,1.5,1.2,4.8,0.7,7.2c-0.7,3.7-2.1,6.7-4.2,9.2c-2.1,2.5-4.3,4.3-6.6,5.4L126.6,13.1z M209,33.2
		c0,0.1-0.1,0.2-0.1,0.3c-0.4,1-1,1.9-1.6,2.8c-1.9,2.7-4.8,4.9-8.6,6.8c-0.5,1.3-1.1,2.5-1.8,3.6c-0.2,0.3-0.4,0.6-0.6,0.9
		c-0.2,0.3-0.4,0.6-0.6,0.9c-0.1,0.2-0.2,0.3-0.4,0.5c-0.4,0.5-0.8,1-1.3,1.6c-0.7,0.8-1.4,1.4-2.2,2c-0.4,0.3-0.8,0.5-1.2,0.7
		s-0.8,0.3-1.2,0.4c-0.1,0-0.2,0.1-0.3,0.1c-0.1,0-0.3,0-0.4,0c-0.7,0-1.3-0.2-1.8-0.5c-0.1-0.1-0.2-0.1-0.3-0.2
		c-0.2-0.2-0.4-0.4-0.6-0.6c-0.3-0.4-0.5-0.9-0.6-1.5c0-0.3,0-0.6,0-0.9c0.1-0.6,0.3-1.3,0.6-1.9c0.3-0.7,0.8-1.3,1.4-2
		c0.6-0.7,1.2-1.3,1.9-1.9s1.5-1,2.3-1.4c0.1,0,0.2-0.1,0.3-0.2c0.2-0.1,0.4-0.2,0.6-0.3c0.5-0.2,0.9-0.4,1.2-0.5
		c0.1-0.1,0.5-0.2,1-0.4c0.6-0.2,1-0.4,1.3-0.6c0.1-0.3,0.3-0.8,0.5-1.3s0.4-1.1,0.6-1.8l-0.8,0.6c-0.2,0.2-0.5,0.3-0.7,0.4
		c-0.5,0.3-1,0.5-1.4,0.7c-0.9,0.3-1.7,0.6-2.6,0.7c-0.4,0-0.8,0.1-1.2,0.1c-0.3,0-0.6,0-0.8-0.1c-0.1,0-0.1,0-0.2-0.1
		c-0.4-0.1-0.7-0.3-1-0.6c-0.2-0.2-0.4-0.4-0.6-0.7c-0.1-0.1-0.2-0.3-0.2-0.4c0,0,0-0.1-0.1-0.1c-0.5,0.5-1.1,1.1-1.7,1.6
		c-0.5,0.4-1,0.8-1.5,1.1c-0.1,0-0.1,0.1-0.2,0.1c-1.2,0.7-2.4,1.2-3.6,1.4c-0.2,0-0.5,0.1-0.7,0.1h0h-0.4c-1.5,0-2.6-0.5-3.2-1.5
		c-0.1-0.2-0.3-0.4-0.4-0.6c-0.2-0.5-0.3-1-0.3-1.6c0,0,0,0,0,0c0-0.3,0-0.6,0.1-0.9c0-0.3,0.1-0.6,0.2-0.9c0.2-0.7,0.4-1.4,0.7-2.1
		c0.2-0.4,0.3-0.8,0.6-1.2c0.2-0.4,0.4-0.8,0.5-1.1c0,0,0.1-0.1,0.1-0.2c0.2-0.4,0.3-0.7,0.4-1.1c0.2-0.6,0.3-1.1,0.2-1.5
		c-0.1-0.5-0.5-1.1-1.2-1.7c-0.2-0.2-0.5-0.4-0.8-0.6c-0.1,0.2-0.2,0.4-0.3,0.7c-0.1,0.2-0.2,0.5-0.4,0.8c-0.2,0.5-0.5,1.1-0.8,1.7
		c-0.1,0.3-0.3,0.6-0.4,0.9c-0.3,0.6-0.5,1.1-0.7,1.6c-0.1,0.2-0.2,0.5-0.3,0.7c-0.1,0.1-0.1,0.2-0.1,0.3c0,0.1,0,0.1-0.1,0.2
		c0,0,0,0.1,0,0.1c0,0,0,0,0,0c-0.1,0.2-0.1,0.3-0.2,0.4c-0.1,0.2-0.2,0.4-0.2,0.4c-0.1,0.1-0.2,0.2-0.2,0.3c-0.3,0.6-0.7,1.2-1,1.7
		c-0.4,0.6-0.8,1.1-1.2,1.6c-0.2,0.2-0.4,0.5-0.6,0.7c-0.2,0.2-0.4,0.4-0.6,0.6c-0.2,0.2-0.4,0.4-0.6,0.6c-0.6,0.6-1.2,1-1.9,1.4
		c-1.1,0.6-2.3,0.9-3.5,0.9c-1.6,0-2.7-0.5-3.4-1.5c-0.2-0.3-0.3-0.7-0.4-0.9c-0.6,0.5-1.2,0.9-1.7,1.2c-1.7,1.1-3.2,1.6-4.5,1.7
		h-0.2c-0.6,0-1.2-0.1-1.8-0.3c-0.1,0-0.2,0-0.2-0.1c-0.6-0.3-1.1-0.6-1.6-1.2c-0.3-0.3-0.5-0.6-0.6-0.9c-0.2-0.3-0.3-0.6-0.4-1
		c0,0,0-0.1,0-0.1c-0.1,0.1-0.2,0.2-0.4,0.4c-0.4,0.3-0.8,0.6-1.2,0.9s-0.8,0.5-1.3,0.6c-0.3,0.1-0.6,0.2-1,0.3
		c-0.6,0.1-1.1,0.2-1.7,0.2c-0.4,0-0.8,0-1.3-0.1s-0.8-0.2-1.2-0.4c-0.3-0.1-0.5-0.3-0.7-0.4c-0.7-0.5-1.2-1-1.6-1.8
		c-0.5-0.9-0.7-2.1-0.5-3.4c0.1-1.1,0.5-2.3,1-3.7c0.3-0.7,0.6-1.4,1-2.1c0.2-0.4,0.4-0.7,0.6-1.1c0.5-0.9,1.1-1.8,1.7-2.8
		c0.5-0.7,1-1.5,1.5-2.2c0.1-0.2,0.3-0.3,0.5-0.5c0.2-0.1,0.4-0.2,0.6-0.2c0.1,0,0.2,0,0.3,0c0,0,0,0,0,0c0.2,0,0.3,0,0.4,0.1
		c0,0,0.1,0,0.1,0c0.1,0.1,0.3,0.1,0.4,0.2c0.1,0.1,0.2,0.1,0.3,0.2c0.2,0.2,0.4,0.5,0.4,0.9c0,0.1,0,0.2,0,0.3c0,0.1,0,0.2,0,0.3
		c0,0.1-0.1,0.2-0.1,0.3c0,0.1-0.1,0.2-0.2,0.3c-0.6,0.8-1.1,1.6-1.6,2.3c-0.5,0.7-0.9,1.4-1.3,2.1c-0.2,0.3-0.4,0.7-0.5,1
		c-0.3,0.6-0.6,1.1-0.8,1.6c-0.1,0.2-0.2,0.5-0.3,0.7c-0.3,0.8-0.5,1.6-0.6,2.2c-0.1,0.6-0.1,1.1-0.1,1.4c0,0.3,0.1,0.5,0.2,0.7
		c0.3,0.5,0.9,0.8,1.8,0.8c0.3,0,0.7-0.1,1-0.1c0.6-0.1,1.1-0.4,1.6-0.8c0.6-0.4,1.1-1,1.6-1.6c0.8-1,1.5-2.3,2.2-4
		c0.2-0.4,0.5-0.7,0.9-0.9c0.1,0,0.2-0.1,0.3-0.1c0,0,0.1,0,0.1,0c0.1,0,0.1,0,0.2,0c0,0,0,0,0,0c0.1,0,0.1,0,0.2,0c0,0,0.1,0,0.1,0
		c0.1-0.1,0.2-0.2,0.3-0.4c0.4-0.5,0.8-1.1,1.3-1.5c0.5-0.5,0.9-1,1.4-1.5c0.8-0.8,1.6-1.5,2.4-2.1c0.4-0.3,0.7-0.5,1.1-0.7
		c0.7-0.4,1.5-0.7,2.3-1c0.4-0.1,0.8-0.2,1.2-0.3c0.4-0.1,0.8-0.1,1.2-0.1c0,0,0,0,0,0c0.3,0,0.6,0,0.9,0.1c0.1,0,0.2,0,0.3,0.1
		c0.2,0,0.4,0.1,0.6,0.2c0.1,0,0.2,0.1,0.2,0.1c0.3,0.1,0.5,0.2,0.8,0.4c0.4,0.2,0.7,0.5,0.9,0.8c0.3,0.3,0.4,0.6,0.6,1
		c0.1,0.4,0.2,0.7,0.2,1.2c0,0.4,0,0.9-0.1,1.3c0,0.2-0.1,0.4-0.2,0.6c-0.1,0.2-0.2,0.3-0.4,0.4c-0.2,0.1-0.3,0.2-0.5,0.3
		c-0.1,0-0.1,0-0.2,0c-0.1,0-0.2,0-0.3,0c0,0-0.1,0-0.1,0c0.4,0.2,0.7,0.5,0.9,0.9c0.1,0.1,0.1,0.3,0.1,0.5c0,0.1,0,0.2,0,0.4
		c0,0.4-0.1,1-0.4,1.5c-0.1,0.2-0.2,0.4-0.3,0.6c-0.2,0.4-0.5,0.8-0.9,1.3c-0.1,0.1-0.2,0.3-0.4,0.5c-0.2,0.2-0.4,0.4-0.6,0.7
		c0,0,0,0.1-0.1,0.2s-0.1,0.3-0.2,0.4c-0.1,0.2-0.1,0.3-0.2,0.5c-0.1,0.1-0.1,0.3-0.1,0.3c-0.1,0.4-0.2,0.7-0.2,1c0,0.2,0,0.4,0,0.5
		c0,0,0.2,0,0.5,0c1.1,0,2.2-0.5,3.3-1.5c0.4-0.3,0.7-0.7,1.1-1.2c0.6-0.7,1.2-1.6,1.8-2.6c0.3-0.5,0.6-1,0.8-1.5
		c0.6-1.2,1.4-3,2.4-5.3c0.3-0.7,0.6-1.4,1-2.2c-0.2-0.3-0.3-0.5-0.4-0.8c-0.1-0.2-0.1-0.5-0.2-0.7c-0.1-0.4,0-0.9,0.1-1.3
		c0.1-0.2,0.2-0.4,0.3-0.6c0.3-0.6,0.8-1,1.4-1.3c0.1-0.1,0.3-0.1,0.4-0.1c0,0,0.1,0,0.1,0c0.1,0,0.2,0,0.3,0c0,0,0,0,0,0
		c0.1,0,0.2,0,0.3,0c0,0,0.1,0,0.1,0c0.1,0,0.3,0.1,0.4,0.1c0.7,0.3,1.1,0.8,1.2,1.6c0,0.3,0.1,0.5,0,0.8c0,0.2-0.1,0.6-0.2,1.2
		c0.6,0.4,1.1,0.7,1.6,1.1c0.2,0.2,0.5,0.4,0.7,0.6c0.4,0.4,0.7,0.8,1,1.2c0.4,0.6,0.7,1.3,0.8,1.9c0.1,0.7,0.1,1.5-0.2,2.5
		c-0.2,1-0.7,2.1-1.3,3.4c-0.7,1.5-1.1,2.7-1.2,3.4c0,0.1,0,0.2,0,0.4s0,0.2,0.1,0.3c0,0,0,0,0,0c0,0,0.1,0,0.2,0.1c0,0,0,0,0.1,0
		c0.1,0,0.2,0,0.4,0h0.1c1-0.1,2.1-0.5,3.3-1.3c0.3-0.2,0.5-0.4,0.8-0.6c1.4-1.1,2.6-2.5,3.7-4.1c0-0.1,0.1-0.3,0.1-0.4
		c0.5-1.8,1.2-3.5,2.2-5.1c0.4-0.6,0.8-1.1,1.2-1.7c0.3-0.3,0.7-0.6,1.1-0.6c0.1,0,0.2,0,0.2,0c0,0,0,0,0,0c0.2,0,0.3,0,0.5,0.1
		c0,0,0.1,0,0.1,0c0.1,0.1,0.3,0.1,0.4,0.3c0,0,0,0,0,0c0.2,0.1,0.3,0.3,0.4,0.5c0.1,0.2,0.2,0.4,0.2,0.6c0,0.1,0,0.2,0,0.3
		c0,0.3-0.2,0.6-0.4,0.9c-0.2,0.3-0.4,0.6-0.6,0.9c-0.5,0.7-0.9,1.3-1.2,2c-0.2,0.5-0.5,1-0.6,1.5c-0.1,0.3-0.2,0.7-0.3,1
		c0,0,0,0,0,0.1c0,0.1,0,0.2,0,0.3c0,0.2-0.1,0.4-0.2,0.5c0,0.2-0.1,0.4-0.1,0.6c0,0.3-0.1,0.6-0.1,0.8c0,0.5,0.1,0.9,0.2,1.1
		c1.4,0,2.8-0.6,4.2-1.5c1.3-0.9,2.6-2.3,4-4.1c0.1-0.3,0.1-0.8,0.2-1.5c0.1-0.8,0.3-1.5,0.5-2c0.4-0.9,0.9-1.5,1.7-1.6
		c0.2-0.1,0.4-0.1,0.6-0.1c0,0,0,0,0,0c0,0,0.1,0,0.1,0c0.1,0,0.3,0,0.4,0.1c0,0,0.1,0,0.1,0.1c0.1,0,0.2,0.1,0.3,0.2
		c0,0,0.1,0.1,0.1,0.1c0.1,0.1,0.3,0.2,0.4,0.4c0,0,0,0,0,0c0.1,0.2,0.2,0.3,0.3,0.5s0.1,0.4,0.1,0.6c0,0.2,0,0.5,0,0.7
		c0,0,0,0.1,0,0.1c0,0.2-0.1,0.4-0.1,0.7c-0.1,0.4-0.3,0.8-0.5,1.2c-0.1,0.3-0.3,0.6-0.5,1c-0.1,0.3-0.3,0.5-0.5,0.8l0,0l0,0
		c-0.4,2.1-0.9,4.1-1.5,6c1.9-1.2,3.4-2.7,4.5-4.3c0.4-0.6,0.7-1.1,0.9-1.7c0.1-0.2,0.2-0.4,0.4-0.5c0.2-0.1,0.3-0.3,0.6-0.3
		c0,0,0,0,0,0c0.1,0,0.2-0.1,0.3-0.1c0,0,0.1,0,0.1,0c0.1,0,0.1,0,0.2,0c0,0,0,0,0,0c0.1,0,0.1,0,0.2,0c0,0,0.1,0,0.1,0
		c0.1,0,0.2,0.1,0.3,0.1c0.2,0.1,0.4,0.2,0.5,0.4c0.1,0.2,0.3,0.3,0.3,0.6c0.1,0.2,0.1,0.4,0.1,0.6C209.1,33,209.1,33.1,209,33.2z"
		/>
</g>
</svg>
