<?xml version="1.0" encoding="utf-8"?>
<!-- Generator: Adobe Illustrator 19.0.0, SVG Export Plug-In . SVG Version: 6.00 Build 0)  -->
<svg version="1.1" id="Layer_1" xmlns="http://www.w3.org/2000/svg" xmlns:xlink="http://www.w3.org/1999/xlink" x="0px" y="0px"
	 viewBox="-361 139 118 318.3" style="enable-background:new -361 139 118 318.3;" xml:space="preserve">
<style type="text/css">
	.st0{fill:#AFA169;}
</style>
<g>
	<path class="st0" d="M-301.9,144c4,0.2,4.9,1.9,5.7,7.4l0.1,0.5c0.3,2.3-0.5,5.8-1.5,10.2c-0.4,1.5-0.7,3.1-1.1,4.9
		c-1,4.5-0.8,10.7,5.8,14.3c0.8,0.6,2.1,1.3,6,3.3c2.8,1.5,6.2,3.3,9.1,4.9c3.7,2.2,4.7,7.4,4.2,9.5c-1.1,4.5-2.9,15.8-3.5,19.8
		c-1.5,9.9-4.1,13.8-5.4,14.5c-7.4,3.8-6.8,9.3-5.9,16.9c0.2,1.6,0.4,3.4,0.6,5.5c1.2,12.2-0.1,28.7-1.3,32
		c-1.2,3.3-4.9,13.4-2.6,27c1.7,10.4,1.7,10.4-2.4,26.1c-3.5,13.3-2.5,18.2-1.2,22.2c0.1,0.3,0.2,0.7,0.2,0.8c0.5,3.7,2.5,5.8,4,7.3
		c0.3,0.4,0.7,0.7,0.9,1c1,1.1,2.4,1.8,3.8,1.8c0.1,0,0.1,0,0.2,0c1.2,0,2.4-0.1,3.6-0.1c7,0,11.8,0.6,14.7,1.2c0,0.1,0,0.1,0,0.2
		l0,0.1c-0.1,6.5,0.2,7.6,0.4,8.2c0.3,1.1,0.9,2.1,1.8,2.7c0.3,0.4,0.7,0.8,1.2,1.2c0.4,0.3,0.7,0.5,1,0.7c-1,0.9-1.6,2.2-1.6,3.7
		c0,0.8-0.1,23.9-0.2,36.1c0,2.2,1.4,4.1,3.4,4.8c0.5,0.2,0.9,0.2,2.1,0.5c4.9,0.9,7.8,1.7,9.7,2.3c-0.4,1.1-0.5,2.3-0.3,3.5
		c0.3,1.7,1.3,3.1,2.6,4c0,1.1,0,2.3,0,3.3c-5,2.1-18.7,6.2-49.3,6.2c-1.5,0-3,0-4.5,0c0,0,0,0-0.1,0c0,0,0,0-0.1,0
		c-1.5,0-3,0-4.5,0c-30.4,0-44.3-4.2-49.3-6.3c0-1,0-2.2,0-3.3c1.3-1,2.2-2.4,2.5-4.1c0.2-1.1,0.1-2.2-0.2-3.3
		c1.8-0.6,4.8-1.4,9.7-2.3c1.2-0.2,1.6-0.3,2-0.5c2.1-0.7,3.4-2.6,3.4-4.8c-0.1-12.1-0.2-35.3-0.2-36.1c0-1.4-0.6-2.7-1.6-3.7
		c0.3-0.2,0.6-0.5,1-0.7c0.5-0.3,0.9-0.7,1.2-1.2c0.9-0.7,1.5-1.6,1.8-2.7c0.1-0.6,0.4-1.8,0.3-8.3l0,0c0-0.1,0-0.1,0-0.2
		c2.9-0.6,7.7-1.2,14.7-1.2c1.2,0,2.4,0,3.6,0.1c0.1,0,0.1,0,0.2,0c1.5,0,2.9-0.6,3.8-1.8c0.3-0.3,0.6-0.7,0.9-1
		c1.4-1.5,3.4-3.5,4-7.1c0-0.1,0.2-0.5,0.2-0.7c1.4-3.9,2.4-8.9-1.2-22.4c-4.2-15.5-4.2-15.5-2.4-26.1c2.3-13.6-1.4-23.7-2.6-27
		c-1.1-3.1-2.4-19.6-1.3-32c0.2-2.3,0.4-4.2,0.6-5.9c0.8-7.3,1.4-12.6-5.9-16.5c0,0,0,0-0.1,0c-1.3-0.6-3.8-4.4-5.3-14.4
		c-0.6-4.7-2.4-15.5-3.5-19.8c-0.5-2.2,0.4-7.3,4.2-9.5c3.1-1.8,6.8-3.8,9.8-5.4c3.3-1.7,4.4-2.4,5.1-2.8l0,0
		c6.7-3.6,6.9-9.8,5.9-14.3c-0.4-1.9-0.8-3.6-1.2-5.1c-1-4.3-1.8-7.7-1.5-9.9l0.1-0.5c0.8-5.5,1.6-7.2,5.7-7.4H-301.9 M-301.8,139
		h-0.5c-9.3,0.3-10,8-10.6,12.2c-0.6,4.2,1.1,9.3,2.7,16.8c1.6,7.4-3.2,8.6-3.9,9.2c-0.7,0.6-8.8,4.6-14.6,8c-5.9,3.4-7.5,11-6.5,15
		c1,4,2.8,14.6,3.4,19.3c0.7,4.7,2.7,15.5,8,18.2c5.3,2.8,3.7,5.2,2.6,17.5c-1.1,12.3,0,29.8,1.6,34.2c1.6,4.4,4.3,13.1,2.4,24.5
		c-1.9,11.5-1.8,12.2,2.5,28.2c4.3,16,1.4,18.2,0.9,21c-0.4,2.8-2.2,3.9-3.8,5.8c-1.3,0-2.5-0.1-3.7-0.1c-11.2,0-18.3,1.6-20.1,2.6
		c-1.9,1.1,0.4,3.7,0.4,3.8c0,0.1,0.1,5.9-0.2,7.1c-0.7,0.1-0.9,0.8-1,1c-1.9,1.3-5.4,4.2-4.2,6.5c0.8,1.7,2.1,1.9,2.7,2
		c0,1,0.2,36.1,0.2,36.1c-0.9,0.3-17.1,2.7-17,6.5c0,0.5,0.4,1.5,1.5,2s0.8,2.5-0.7,2.6c-1.6,0.1-1.3,2.8-1.3,2.8s0.1,7.2,0.1,7.4
		c0.8,0.5,12.6,8.1,54.3,8.1c1.5,0,3,0,4.6,0c1.6,0,3.1,0,4.6,0c41.7,0,53.5-7.7,54.3-8.1c0-0.2,0.1-7.4,0.1-7.4s0.2-2.7-1.3-2.8
		c-1.6,0-1.9-2.1-0.7-2.6s1.5-1.5,1.5-2c0.1-3.9-16.1-6.2-17-6.5c0,0,0.2-35.1,0.2-36.1c0.6-0.1,1.9-0.3,2.7-2
		c1.3-2.3-2.3-5.2-4.2-6.5c-0.1-0.3-0.3-0.9-1-1c-0.3-1.2-0.2-6.9-0.2-7.1c0-0.2,2.3-2.7,0.4-3.8c-1.7-1-8.9-2.6-20.1-2.6
		c-1.2,0-2.4,0-3.7,0.1c-1.6-1.9-3.4-3-3.8-5.8c-0.4-2.8-3.3-5,0.9-21c4.2-16,4.4-16.8,2.5-28.2c-1.9-11.5,0.8-20.1,2.4-24.5
		c1.6-4.4,2.8-21.9,1.6-34.2c-1.2-12.3-2.7-14.8,2.6-17.5c5.3-2.8,7.3-13.5,8-18.2c0.7-4.7,2.4-15.3,3.4-19.3c1-4-0.6-11.5-6.5-15
		c-5.9-3.4-14-7.4-14.6-8c-0.6-0.6-5.5-1.8-3.9-9.2c1.6-7.4,3.3-12.6,2.7-16.8C-291.8,147-292.5,139.3-301.8,139L-301.8,139z"/>
</g>
</svg>
