<?xml version="1.0" encoding="utf-8"?>
<!-- Generator: Adobe Illustrator 19.0.0, SVG Export Plug-In . SVG Version: 6.00 Build 0)  -->
<svg version="1.1" id="Layer_1" xmlns="http://www.w3.org/2000/svg" xmlns:xlink="http://www.w3.org/1999/xlink" x="0px" y="0px"
	 viewBox="-49 141 512 512" style="enable-background:new -49 141 512 512;" xml:space="preserve">
<style type="text/css">
	.st0{fill:#FFFFFF;}
	.st1{fill:#1D1D1D;}
</style>
<path id="XMLID_26_" class="st0" d="M7.3,553C-6,553-17.3,546-23,534.1c-3.9-7.9-4.3-16.9-1.2-25.5c2.6-7,7.5-13,14.2-17.3
	c1.1-1.5,3.3-4.6,6.8-10.3c6.8-12.2,13.5-24.9,20.6-39c8.1-17.1,20.5-46.1,35.1-80.3c-2.1-0.9-4.2-2.1-6.3-3.5
	c-24.7-17.1-33.8-41.9-25.7-69.9c4.6-17.3,15-32.3,31.9-46c15.8-12.7,32.7-19.7,50.2-20.9c3.4-0.4,7-0.4,12-0.4h1.1
	c0.3,0,0.9,0,1.2,0c14.2,0.9,26.6,6.8,35.8,17c13.4,15,20.2,39.4,20.9,74.5c0.1,3.7,0.2,8.1,0.1,13.5c25.2-46,46.5-77,64.9-94.2
	c6.4-6.2,14.2-9.5,22.5-9.5c5.7,0,11.4,1.5,16.9,4.6c0.2,0.1,0.6,0.3,0.8,0.5c0.3,0.2,0.5,0.3,0.8,0.5c6.6-2.2,13.2-3.8,19.8-4.8
	c7.5-1.2,15.3-1.8,23-1.8c9,0,18.3,0.8,27.7,2.4c25.8,4.8,46.6,15.4,62,31.5c12.8,13.5,21.4,30.5,25.6,50.4
	c4.3,20.1,3.7,42.7-1.7,69c-3.6,18.4-9.6,36.3-18.2,54.8c-7.7,16.4-17.4,31.7-28.6,45.5c-20.7,26-45.6,45.8-73.8,58.7
	c-16.5,8-34,12.8-52.1,14.3c-2.6,0.4-5.2,0.4-8.3,0.4c0,0-1.7,0-2.4,0c-14.1,0-27.2-2.9-39.1-8.5c-7.8-2.5-14.4-7.9-18.5-15.4
	c-9.2-15.8-13-38.3-11.3-68.3c-6,14-10.5,26-13.5,35.6c0,0.1-0.1,0.2-0.1,0.3c-4.3,13-14.6,21.3-28.2,22.8c-1.4,0.1-2.6,0.2-3.8,0.2
	c-13.1,0-24.1-7.2-29.4-19.3c-4.6-10-6.8-23.5-7.2-43.5c0-12.3,0.4-25.7,1.3-40.2c-11.3,26.5-19.6,45.3-26.4,59.7
	c-8.2,17-16.1,31.9-23.3,44.3c-0.1,0.1-0.2,0.3-0.2,0.4c-11,17.5-21.1,28.1-31.9,33.3c0,0-0.8,0.4-1,0.5
	C17.7,551.2,13.3,553,7.3,553z M252,484.1c0.8,0.5,2.2,0.6,3.3,0.6c9.5,0,25.9-7.8,32.1-10.7c18-8.4,35.5-22.5,51.9-42
	c15.9-19.1,26.5-42.1,32.3-70.3c4-19.9,6-46.5-7.5-60.5c-5.6-6-13.3-9.8-22.8-11.6c-7.3-1.3-14-2-20-2c-4,0-7.8,0.3-11.3,0.9
	c-8,1.2-16.4,4.4-25.9,9.8c-16.1,58.8-26.5,104-30.9,134.5c-3.8,26.3-3.7,41.6-2.5,50.4C251.1,483.5,251.5,483.8,252,484.1z"/>
<path id="XMLID_18_" class="st1" d="M116,246.5l0.2,0c10,0.7,18.7,4.8,25.2,12c10.6,11.9,16.3,33.7,16.9,64.6
	c0.5,13.6-0.4,39.4-3.1,81.1l0,0.1l0,0.1c-0.1,1-0.2,2.2-0.3,3.5c6.3-13.4,12.3-25.6,17.8-36.5c30.6-59.5,56.4-99.3,76.8-118.2
	c3.5-3.5,7.5-5.2,11.8-5.2c3,0,6.2,0.9,9.4,2.7l0.1,0.1l0.1,0.1c2.2,1.4,4,3.1,5.3,5.1c8.6-3.6,17.2-6,25.7-7.3
	c6.7-1.1,13.7-1.6,20.7-1.6c8.1,0,16.6,0.7,25.1,2.2c22.3,4.2,40.3,13.2,53.4,27c10.8,11.4,18.1,25.8,21.7,42.9
	c3.8,18,3.3,38.5-1.7,62.8c-3.4,17.3-9,34.1-17,51.4c-7.2,15.2-16.1,29.4-26.6,42.2c-19.4,24.3-42.4,42.6-68.4,54.5
	c-14.9,7.3-30.8,11.6-47.3,12.9c-1.8,0.3-3.8,0.3-6.5,0.3c-0.2,0-0.3,0-0.5,0c-0.6,0-1.3,0-1.9,0c-12.2,0-23.5-2.5-33.5-7.6
	c-4.5-1.1-8.2-4-10.6-8.5c-8.7-14.8-11.5-37.8-8.6-70.2c2.2-23.9,7.9-55.6,17.2-94.3c-4.4,8.1-8.8,16.5-13.3,25.4
	c-24.2,47.5-40.9,85.4-48.4,109.5c-2.4,7.2-7.7,11.5-15.2,12.3c-0.7,0.1-1.5,0.1-2.2,0.1c-7,0-12.4-3.6-15.3-10.1
	c-3.7-8-5.6-19.9-5.9-37.5c0-17.5,1-37.8,2.8-60.3c1.8-28.1,2.9-51.4,3.1-67.3c-6.4,15-11.6,27.3-15.9,37.7
	c-21.2,51.1-34.6,81.9-44.6,103c-8,16.6-15.6,31.1-22.7,43.2l0,0.1l0,0.1c-9.1,14.6-17.5,23.6-25.4,27.4l-0.2,0.1l-0.2,0.1
	c-1.6,0.6-3.8,1.5-6.9,1.5c-7.4,0-13.2-3.6-16.3-10.1c-2.1-4.1-2.2-8.8-0.5-13.4c1.5-4.1,4.4-7.4,8.6-9.9l1.3-0.8
	c1.1-1.2,4.1-4.7,10-14.4c7-12.5,13.9-25.7,21.2-40.1c9.6-20.4,25.4-57.3,43.5-99.9c0.5-1.2,0.9-2.4,1.4-3.5
	c-2.2,1.7-4.9,2.8-7.9,3.3c-1,0.2-2,0.2-2.9,0.2c-3.6,0-6.9-1.1-10.2-3.4c-19.1-13.3-25.9-31.6-19.7-53.1
	c3.7-14.1,12.4-26.5,26.7-38.1c13.3-10.7,27.4-16.6,41.8-17.5c2.6-0.3,6-0.3,10.7-0.3h1.1H116 M255.3,510.2c11.4,0,26-6.2,38.8-12.2
	c20-9.3,39.2-24.8,57.1-46.1c17.6-21.2,29.3-46.4,35.7-77.1c6.9-34.3,3-59.3-11.5-74.4c-7.8-8.3-18.3-13.7-31.2-16
	c-8.2-1.5-15.8-2.2-22.8-2.2c-4.9,0-9.5,0.4-13.9,1.1c-10.2,1.6-21,5.8-32.9,12.8l-0.2,0.1l-0.2,0.1c-0.8,0.4-1.9,0.9-3.1,1.5
	c-17.2,62.5-28.4,110.6-33.1,142.8c-4.2,28.5-4.5,49.5-1.1,62.3c2,1.2,4.2,2.6,6.7,4.2C246.7,509.2,250.6,510.2,255.3,510.2
	 M83,339.1c3.4-8,6.5-15,9.1-20.8c1.9-5,3.7-8.5,4.7-10.2l1.1-2.4c2.8-6.3,5.9-13.5,9.3-21.8l0.4-1.6c-0.4,0-0.9,0-1.3,0
	c-7,0.5-14.4,4-22,10.3c-8.3,6.7-13.1,13.1-14.7,19.6c-1.6,6.1,0.3,10.5,6.2,14.8c3.8,2.6,6.2,6.6,7.1,11.6
	C82.9,338.6,82.9,338.9,83,339.1 M116,215.5h-0.2h-1.1c-5.2,0-9.3,0-13.4,0.4c-20.6,1.5-40.2,9.7-58.4,24.2c0,0-0.1,0.1-0.1,0.1
	c-19.2,15.5-31.6,33.6-37,53.8c-9.4,32.6,0.6,62.8,27.5,83.6C21,406.4,10.6,430.4,3.6,445.2c-6.9,13.7-13.4,26.1-20,38
	c-2,3.3-3.5,5.5-4.4,6.9c-8.3,6-14.4,14-17.8,23.3c-4.6,12.6-3.9,25.9,1.8,37.5c8.3,17.3,24.7,27.6,44.1,27.6c9,0,15.6-2.6,18.4-3.7
	l0.2-0.1c0.6-0.3,1.3-0.5,1.9-0.8l0.2-0.1c13.6-6.5,25.8-18.9,38.3-38.9c0.2-0.2,0.3-0.6,0.5-0.8c7-12,14.5-26.1,22.2-41.9
	c1.4,7.7,3.4,14.3,6.1,20.2c7.8,17.4,24.5,28.3,43.5,28.3c1.7,0,3.5-0.1,5.3-0.3c0.1,0,0.1,0,0.2,0c12.2-1.3,22.8-6.6,30.6-15
	c2,6.1,4.5,11.7,7.5,16.9c5.9,10.7,15.1,18.4,26.3,22.2c13.7,6.4,28.7,9.6,44.8,9.6c0.7,0,1.5,0,2.2,0l0.2,0c2.8,0,6.2,0,10-0.5
	c19.8-1.6,39-6.9,57-15.7c30.3-13.9,56.9-35.1,79.2-63c12-14.7,22.3-31,30.5-48.4c0,0,0-0.1,0.1-0.1c9.1-19.6,15.4-38.7,19.3-58.4
	c5.8-28.4,6.3-53.1,1.6-75.3c-4.8-22.7-14.7-42.2-29.5-57.8c0,0-0.1-0.1-0.1-0.1c-17.7-18.5-41.3-30.6-70.1-36
	c-0.2,0-0.3-0.1-0.5-0.1c-10.2-1.7-20.4-2.6-30.3-2.6c-8.6,0-17.1,0.7-25.5,2c-5.2,0.8-10.5,1.9-15.7,3.4
	c-6.5-2.9-13.3-4.4-20.1-4.4c-12.3,0-24,4.9-33.2,13.8c-12.9,12-26.9,30.1-42.4,54.6c-3.9-20.2-10.9-35.9-21.2-47.5
	c-0.1-0.1-0.1-0.1-0.2-0.2c-11.8-13-28.2-20.9-46-22.1l-0.2,0C117.4,215.5,116.7,215.5,116,215.5L116,215.5z M297.3,318.8
	c5.5-2.7,10.4-4.3,14.8-5c0.2,0,0.3-0.1,0.5-0.1c2.6-0.5,5.6-0.7,8.7-0.7c5.1,0,10.9,0.6,17.3,1.7c6.3,1.1,10.9,3.3,14.1,6.8
	c0.1,0.1,0.2,0.2,0.3,0.3c6.8,7,8,24,3.5,46.7c-5.3,25.6-14.8,46.3-29,63.4c-15,17.7-30.6,30.5-46.5,37.9c-0.1,0-0.1,0.1-0.2,0.1
	c-6.6,3.1-11.5,5.2-15.3,6.6c0.2-7.5,1-17.8,3-31.5C272.7,416.3,282.4,373.9,297.3,318.8L297.3,318.8z"/>
</svg>
