<?xml version="1.0" encoding="utf-8"?>
<!-- Generator: Adobe Illustrator 19.0.0, SVG Export Plug-In . SVG Version: 6.00 Build 0)  -->
<svg version="1.1" id="Layer_1" xmlns="http://www.w3.org/2000/svg" xmlns:xlink="http://www.w3.org/1999/xlink" x="0px" y="0px"
	 viewBox="-166 505.8 1202.6 1038.2" style="enable-background:new -166 505.8 1202.6 1038.2;" xml:space="preserve">
<style type="text/css">
	.st0{display:none;fill:#3A3A3A;}
	.st1{display:none;fill:#FFFFFF;enable-background:new    ;}
	.st2{font-family:'Lato-Light';}
	.st3{font-size:150px;}
	.st4{fill:#424F56;}
</style>
<path id="XMLID_873_" class="st0" d="M-166,1167.1c108.9,224.8,340,379,606.4,376.9c262.8-2,488.9-155.5,596.3-377L-166,1167.1z"/>
<text id="XMLID_55_" transform="matrix(1 0 0 1 304.8185 1418.3218)" class="st1 st2 st3">404</text>
<g id="XMLID_1_">
	<path id="XMLID_19_" class="st4" d="M792.7,1167c-0.1-1.3,0.1-3,0.7-5c0.2-0.9,0.5-2,0.6-2.6c0.3-2,0.7-2.8,2-4.4
		c1.1-1.3,1.5-1.6,1.8-1.3c0.7,0.6,1.6,0.1,1.4-0.7c-0.1-0.5-0.1-0.7,0.3-0.7c0.2,0,0.7-0.4,0.9-0.9c0.3-0.8,0.3-1-0.3-1.4
		c-0.9-0.7-0.9-1.4,0.2-1.9c0.5-0.2,0.9-0.7,0.9-0.9c0-0.8,2.9-3.7,6.1-6.1c4-2.9,6.5-5.1,9.9-8.5c2.3-2.3,3.9-3.5,6.9-5.2
		c5.1-2.9,6.2-4,8.2-7.5c2.4-4.2,3.4-5.4,4.8-5.4c1,0,1.6-0.5,4.6-3.5c5.7-5.9,12.6-12.6,13-12.7c0.7-0.1,10.2,3.1,11.9,4
		c0.4,0.2,1.1,0.4,1.5,0.4c1.7,0,10.6,5,11.9,6.8c0.5,0.6,0,4-1,7.3c-1,3.4-1.1,5-0.9,18.8c0,3.3,0,6.2-0.2,6.4
		c-0.1,0.2-0.3,1-0.3,1.8c0,1-0.2,1.5-1,2.1l-0.9,0.8l0.6,2.4c0.5,2.3,0.5,2.6,0,4.6c-0.4,1.4-0.5,2.8-0.4,4c0.1,1,0.3,2.9,0.4,4.3
		c0.1,1.3,0.4,2.5,0.6,2.7c0.6,0.4,2.6,0.3,2.8,0c0.1-0.2,1.4-0.4,2.9-0.6c3-0.3,3.6-0.6,3.6-1.8c0-1,1.5-1.4,4.6-1
		c2.9,0.3,2.6,0.3,4.6,0.1c2.5-0.2,3.5-0.5,6.1-1.8c2.7-1.3,4.4-2.6,4.4-3.1c0-0.2-0.4-0.9-0.9-1.4c-0.5-0.6-0.9-1.1-0.9-1.2
		c0-0.1-0.5-0.4-1-0.6c-0.9-0.3-3.4-0.2-6.6,0.4c-0.9,0.2-1.5,0-2.4-0.5c-0.7-0.4-2.2-1.1-3.4-1.7c-2.6-1.2-4.3-3.2-4.3-5.3
		c0-0.7,0.1-1.3,0.3-1.3c0.2,0,0.3-0.2,0.3-0.4c0-0.2-0.2-0.3-0.5-0.2s-0.7,0-0.9-0.3c-0.6-0.7-0.2-8,0.7-12
		c1.2-5.3,2.1-10.4,2.1-12c0-0.9,0.2-2.5,0.6-3.7c0.3-1.1,0.7-2.8,0.9-3.8c0.2-0.9,0.7-2.4,1.1-3.1c0.9-1.8,0.8-4-0.1-5.8
		c-0.4-0.8-0.9-1.4-1.1-1.4s-1.1-0.8-2.1-1.8s-2.5-2.5-3.4-3.2c-2.1-1.9-6.3-6.7-6.7-7.4c-0.2-0.5-5.9-6-7.5-7.3
		c-0.3-0.2-1.2-0.6-1.9-0.8c-1-0.3-1.4-0.6-1.7-1.4c-0.2-0.6-0.9-1.2-1.5-1.5c-1-0.5-1.1-0.7-1.2-2.7c-0.2-2-0.1-2.3,1-4.1
		c2.1-3.4,3.5-4.9,4.5-4.9c0.5,0,1.8-0.5,2.8-1c1-0.6,2.2-1,2.5-1s3-0.5,5.9-1.2c3-0.7,6.8-1.3,8.9-1.4c3.3-0.2,3.7-0.3,4.5-1.1
		c0.7-0.8,0.9-1.1,0.8-2.8c-0.1-1-0.4-2.4-0.7-3c-0.6-1.1-0.8-1.1-2.2-1c-2.3,0.2-2.7-0.5-1.8-3.3c0.1-0.4,0.1-0.8-0.1-0.8
		c-0.3,0-3.1,5.2-3.4,6.5c-0.3,0.9-2,1.5-4.8,1.5c-1.8,0-2.1-0.1-3.1-1.2c-1.4-1.5-2.1-1.7-4.6-1.1c-2.5,0.6-2.9,0.3-2.9-1.7
		c0-3.9,1.3-7.7,3.2-9.7c0.6-0.6,0.6-1,0.4-2.4c-0.1-1-0.3-3.6-0.3-5.8c-0.1-4.3-0.3-5.6-1.4-7c-0.6-0.7-0.7-1.6-0.8-3.7
		c0-1.5-0.2-3.2-0.3-3.8c-0.2-1-0.1-1.1,1.3-1.7c1.7-0.7,1.6-0.6,2.2-4.9c0.3-2.8,0.6-3.5,1.4-3.7c1.1-0.3,1-0.5-0.2-2.5
		c-0.6-0.9-1-1.7-0.9-1.9c0.1-0.1,1.2-0.8,2.4-1.5c1.2-0.7,2.3-1.5,2.3-1.8c0-0.2-1.1-0.9-2.5-1.4c-2.6-1-3-1.5-4.9-5
		c-1-2-3.2-3.7-5.2-4.2c-1.5-0.4-1.9-0.3-4.4,0.5c-2.5,0.8-6.3,3.1-8.4,4.8c-0.7,0.6-0.8,1-0.8,4.8c0,4.4,0.1,4.2-2.7,7.3
		c-0.9,1-1,1.5-0.3,2.1c0.5,0.4,0.9,0.4,2.4,0c1.7-0.4,1.8-0.4,2.4,0.3c0.7,0.9,0.8,2.1,0.2,3.2c-0.2,0.4-0.4,1.6-0.4,2.6v1.8
		l-2.7,1.1c-1.7,0.7-3.2,1.6-4.1,2.4c-0.8,0.7-1.8,1.5-2.2,1.7c-0.8,0.3-2.8,2.9-4.8,6.1c-0.6,0.9-1.5,2.5-2.2,3.4
		c-1.5,2.3-4.1,8.1-4.6,10.5c-0.3,1.6-0.3,1.9,0.1,2.7c0.3,0.5,1,1,1.5,1.2s0.8,0.6,0.8,1c0,0.9,1,2.2,1.8,2.2
		c0.4,0,1.1-0.3,1.7-0.7c1.3-1,2.3-0.8,2.4,0.5c0.2,1.5-2.5,5.2-4.1,5.7s-2.1,1-3.5,4c-2.8,5.6-2.9,6.1-3.5,11.4
		c-0.6,4.9-0.6,5.3,0,7.4c0.3,1.2,0.6,2.5,0.6,2.8s0.2,0.8,0.5,1.1c0.7,0.8,1,4.8,0.3,5.3c-0.3,0.2-0.5,0.8-0.5,1.2
		s-0.5,1.3-1.1,1.9c-1.1,1.2-8.3,15.4-8.3,16.4c0,0.8-2.6,4.5-4.8,6.8c-1.2,1.2-3.5,2.9-5.8,4.3c-5,3-8.8,6.8-12.5,12.4
		c-2.9,4.4-6,8.5-6.5,8.5c-0.1,0-0.9,0.6-1.7,1.4c-1.9,1.8-3.7,2.6-6.4,2.8c-1.3,0.1-2.8,0.6-3.8,1.1c-0.9,0.5-2.4,1.1-3.2,1.4
		c-1.5,0.5-1.6,0.5-1.5,1.9c0,0.8,0.3,1.9,0.6,2.5c0.3,0.6,0.6,1.5,0.7,2.1c0.2,0.8,0.6,1.2,1.5,1.7c1.5,0.7,1.8,1.5,2,5.2
		c0.1,1.4,0.3,2.8,0.5,3c0.2,0.2,0.3,0.6,0.3,0.7c0,0.3,0,0.7,0.2,1H694c-0.5-1.7-0.9-3.9-0.6-4.9c0.3-1.4,0.2-1.8-1.1-2.3
		c-0.9-0.3-0.9-0.4-0.5-1.3c1.3-2.4,10.8-14.3,11.4-14.3c0.2,0,0.9,0.7,1.5,1.6c0.6,0.9,1.5,1.7,1.9,1.9c1,0.4,2.3,2,2.3,2.8
		s3.7,6.9,4.9,8c2.6,2.4,3.5,3.1,4.8,3.4c1.1,0.3,1.5,0.3,2.3-0.2c1.1-0.7,1.1-2,0-4.7c-0.7-1.6-0.9-2.9-1-5.5
		c-0.1-2.1,0-3.4,0.2-3.6c0.2-0.1,0.3-0.7,0.1-1.2c-0.1-0.8,0-1.4,1-2.6c1.4-1.7,1.4-2.6,0-2.6c-1.2,0-1-0.7,0.5-2.1
		c1.7-1.7,5.1-3.7,14.4-8.3c4.2-2.2,8.9-4.7,10.3-5.7c1.5-1,2.8-1.9,2.9-1.9c0.1,0,1.2-0.6,2.5-1.4c2.6-1.6,4.1-3.2,4.7-5
		c0.8-2.4-1.3-7.8-5-12.8c-2.2-3-11.3-12.2-14.1-14.3c-2.3-1.7-4.2-3.6-4.2-4.3c0-0.3,0.6-1.2,1.2-2c1.1-1.3,1.2-1.7,1-2.8
		c-0.2-1.5-1.1-3-1.5-2.7c-0.4,0.2-0.2-2.1,0.2-3.6c0.2-0.7,0.2-2.1,0.1-3.3c-0.2-1.5-0.2-2.1,0.1-2.2c0.9-0.3,2-1.8,2-2.6
		c0-0.5,0.2-1,0.5-1.3c0.3-0.2,0.6-0.7,0.6-1.1c0.1-0.8,1.1-1.6,1.5-1.2c0.1,0.1-0.1,0.8-0.5,1.6c-0.7,1.3-0.7,1.5-0.2,3.2
		c0.3,1,0.7,1.9,0.9,2c0.6,0.4,2.4-0.2,3.6-1.3c1-0.9,1.2-1.2,1.2-2.7c0-0.9,0.1-1.7,0.3-1.7s1.1,0.2,2,0.5c2.3,0.7,2.6,0.7,2.6-0.3
		c0-1.3,0.6-2.6,1.2-2.6c0.8,0,4.2-1.5,8.9-3.9c2.2-1.1,4.4-2,4.9-2c0.4,0,1.8-0.7,2.9-1.6c2.7-2.1,2.8-3.1,0.6-5.4
		c-0.9-0.9-1.8-1.6-2.1-1.6s-0.6-0.1-0.7-0.3c-0.4-0.7-1.2-0.3-1.9,0.8c-0.4,0.6-1,1.4-1.4,1.8s-0.7,1.1-0.8,1.7
		c-0.1,1-0.2,1.1-3.7,2c-3.3,0.9-3.8,1-5.4,0.6c-1-0.2-2-0.7-2.3-0.9c-0.3-0.3-0.7-0.5-1.4-0.3c-0.9,0.2-0.9,0.2-1.1-1.7
		c-0.1-1.1-0.7-3.1-1.6-5c-0.8-1.7-1.4-3.5-1.4-3.9c0-0.5-0.2-1.1-0.5-1.5c-0.3-0.5-0.4-1.2-0.3-2.8c0.2-2.6-0.5-4.5-2.5-6.7
		l-1.3-1.4l1.2-1.9c1.1-1.8,1.3-1.9,3.3-2.3c2.3-0.5,3.3-1.2,3-2.2c-0.1-0.4,0-1,0.2-1.4c0.2-0.5,0.2-0.8,0-1.1s-0.3-0.5,0-0.7
		c0.2-0.1,0.3-0.6,0.3-1c0-0.5,0.3-1.1,0.9-1.4c0.5-0.3,0.9-0.8,0.9-1c0-0.3-0.4-0.9-0.9-1.5c-0.5-0.6-0.9-1.5-0.9-2.1
		s-0.1-1.1-0.3-1.2s-0.4-1-0.6-1.9c-0.1-0.9-0.7-2.8-1.2-4.1c-1.2-2.9-2.7-4.1-5.8-4.6c-3.7-0.7-7.9,0.6-10.4,3.1
		c-1.5,1.5-3.6,5.1-3.6,6.1c0,0.2-0.7,0.3-2.3,0.2c-1.2-0.1-3,0-3.9,0.1l-1.7,0.3l1.6,0.2c0.9,0.1,2.3,0.2,3.1,0.1
		c1.4-0.2,1.5-0.1,1.4,0.5c-0.1,0.5-0.5,0.7-1.6,0.9c-1.1,0.1-1.8,0.5-2.7,1.5c-0.7,0.7-1.4,1.3-1.6,1.3c-0.2,0-0.6,0.3-0.8,0.8
		c-0.5,1-5.8,3.7-7.2,3.7c-0.6,0-1.3-0.2-1.7-0.6c-1-0.9-4.5-0.1-6.2,1.5l-1.3,1.1l0.9,0.1c0.9,0.1,0.9,0.2,1,2.2
		c0.1,2.2,0.7,3.3,1.9,3.3c0.3,0,0.6,0.2,0.6,0.6s0.2,0.5,0.7,0.4c0.6-0.2,0.7-0.1,0.5,0.7l-0.2,0.9l0.6-0.8
		c0.3-0.4,0.8-0.8,1.2-0.8c0.3,0,0.9-0.3,1.2-0.8c0.3-0.4,0.6-0.7,0.8-0.5c0.1,0.1-0.1,0.7-0.5,1.3c-0.6,0.8-0.7,1.5-0.7,2.5
		l0.1,1.5l1.1-1.8c0.6-1,1.3-1.9,1.5-2c0.8-0.5,0.6,0.2-0.4,1.9c-1,1.8-1.4,3.2-0.7,3.2c0.2,0,0.9-1.1,1.7-2.4
		c2.2-3.7,4-4.5,2.6-1.2c-0.7,1.5-0.7,1.6-0.2,1.6s1.7-2.7,1.7-3.7c0-0.5,0.3-0.9,0.6-1c1.2-0.4,2.7-1.3,3.2-1.9
		c0.7-0.9,1.1-0.8,1.1,0.4c0,0.6,0.2,1.2,0.5,1.4c0.3,0.2,0.5,0.7,0.4,0.9c-0.1,0.3,0.1,0.5,0.6,0.5c0.8,0,0.8,0-0.1,0.7
		s-1.7,0.4-1.7-0.5c0-0.2-0.2-0.6-0.5-0.9c-0.4-0.3-0.5-0.3-0.5,0.1c0,0.8,0.8,2.4,1.2,2.4c0.5,0,2.8,2.4,2.4,2.5
		c-0.2,0-1.6,0-3.1,0c-3-0.1-6.5,0.5-7.6,1.3c-0.4,0.2-0.9,0.5-1.2,0.5c-1,0-3.2,3.1-4.9,6.8c-2.7,5.8-3.7,8.5-3.7,9.5
		c0,0.5-0.2,1.1-0.5,1.4c-0.3,0.2-0.6,1-0.7,1.7c-0.1,0.7-0.5,1.9-0.9,2.7c-0.7,1.4-0.7,1.4,0.1,4c0.7,2.3,0.9,2.7,2.4,3.8
		c1.4,1,1.8,1.6,2.5,3.5c0.5,1.2,1.1,3.1,1.6,4.2l0.8,1.9l-1.2,1.6c-0.7,0.9-1.4,2.3-1.6,3.1c-0.6,2-0.3,7.6,0.5,11.1
		c1,4.8,1.1,5.4,0.2,5.7c-0.9,0.3-0.9,0.9,0,1.1c0.7,0.2,0.8,0.3,0.5,3.5c-0.1,1.8-0.4,4.9-0.6,6.8c-0.2,1.9-0.2,5.6-0.1,8.3
		c0.2,3.8,0.1,5.4-0.3,7.2c-0.8,3.2-1.2,3.9-4.3,6.7c-3.2,2.8-4.6,4.5-6.5,7.7c-1.4,2.3-5.3,9.9-8.1,15.7c-0.8,1.6-1.8,3.3-2.2,3.7
		s-1.1,1.5-1.6,2.4c-0.7,1.3-1.1,1.6-1.8,1.7c-1.1,0-1.9,0.9-3.4,3.8c-0.6,1.1-1.6,2.6-2.3,3.3c-0.2,0.2-0.3,0.4-0.5,0.6h-62.8
		c-1.8-0.8-4.1-2.6-4.3-3.3c-0.2-0.6-0.5-0.8-1.2-0.8c-1.4,0-2-1.1-2.2-4.1c-0.1-1.3-0.3-2.7-0.6-3.1c-0.4-0.6-0.4-1.4,0-4.2
		c0.2-1.9,0.7-4.3,1-5.2c0.7-2.3,2.4-10.7,3.1-14.9c0.3-1.8,1-4.5,1.5-5.9c1.2-3.2,2.1-7.4,2-9c-0.1-0.6-0.5-2-1-3.1
		c-1.3-2.9-2.7-7.8-2.5-8.5c0.2-0.6-1.1-4.7-2.9-9.3c-0.5-1.2-0.8-2.6-0.7-3.6c0-1-0.1-2.3-0.3-2.9c-0.3-1-0.2-1.4,0.5-2.8
		c0.5-0.9,0.9-2,0.9-2.5s0.2-1.5,0.5-2.4c0.2-0.9,0.7-3.3,1.1-5.3c0.5-3.2,0.6-4.2,0.2-6.8c-0.2-1.7-0.5-4-0.6-5.2l-0.2-2.2h1.8
		c1,0,2.2-0.2,2.7-0.4c0.5-0.2,2-0.5,3.4-0.7c2.8-0.3,3.5-0.9,3.9-2.8c0.1-0.8,0.5-1.8,0.7-2.2c0.4-0.6,0.4-0.9,0.1-1.5
		c-0.2-0.4-0.4-1.1-0.4-1.6c0-0.9-0.9-1.6-2.1-1.6c-0.6,0-0.7-0.2-0.6-0.9c0.1-1.1-0.8-1.5-1.7-0.7c-0.7,0.7-1.2,0.7-1.2,0.1
		c0.1-1.4,1-4.1,2-5.6c1.3-1.9,2.7-6.1,3-8.7c0.3-2.4-0.2-4.1-1.7-6.2c-0.7-1-1.2-2.2-1.2-2.7s0-1.6,0.1-2.6l0.1-1.7l2.2-0.1
		c2-0.1,2.2-0.2,2.5-1.1c0.2-0.6,0.2-1,0.1-1c-0.1,0,0.1-0.4,0.6-0.8c0.6-0.6,0.7-1,0.6-1.7c-0.2-0.6-0.1-1,0.3-1.2
		c0.3-0.1,0.6-0.7,0.7-1.1c0.1-0.6,0.3-0.9,0.9-1c1.4-0.2,1.6-0.9,1-2.7c-0.3-0.9-0.7-3.1-0.7-4.7c-0.1-1.8-0.4-3.6-0.7-4.3
		c-0.3-0.7-0.6-1.7-0.5-2.2c0.1-1.3-0.9-3-1.9-3.4c-0.5-0.2-1.5-0.3-2.2-0.3c-1.4,0-3.1-0.6-3.1-1.1c0-0.6-1.8-1-2.7-0.7
		c-0.7,0.3-1.5,0.2-3.7-0.5c-3.9-1.2-9-1-10.8,0.4c-0.6,0.5-0.6,0.5,0.1,0.2c0.4-0.2,1-0.4,1.2-0.3c0.3,0,0.3,0.1-0.1,0.2
		c-0.3,0.1-1.2,0.7-2,1.2c-1.5,1-1.9,1.6-0.9,1.6c0.7,0,0.5,0.7-0.3,1.2c-0.4,0.2-0.7,0.3-0.8,0c-0.1-0.4-3.4-0.5-3.8-0.1
		c-0.5,0.5,0.2,1,1.3,1c1.6,0,2.7,0.3,2.7,0.9c0,0.3-0.2,0.5-0.6,0.5c-0.5,0-0.5,0.1-0.1,0.5c0.2,0.3,0.7,0.5,0.9,0.4
		s0.4,0.1,0.4,0.6c0,0.9-1.3,1.2-1.9,0.4c-0.6-0.7-1-0.7-1,0.1c0,0.8-0.7,1.5-1.6,1.5c-0.5,0-0.9,0.1-1,0.3
		c-0.2,0.4,1.8,2.6,2.2,2.3c0.3-0.3,1.5,0.5,1.5,0.9c0,0.3-0.5,0.3-1.6,0.2c-0.8-0.1-2.1-0.1-2.8,0l-1.3,0.2l0.9,0.6
		c0.7,0.5,0.8,0.7,0.5,1.2c-0.2,0.3-0.2,0.7-0.1,0.8c0.1,0.1,0.1,0.4-0.1,0.6c-0.5,0.6-0.7,2.3-0.3,2.3c0.2,0,0.8-0.3,1.2-0.8
		l0.9-0.8l-0.8,1c-0.5,0.6-0.8,1.5-0.8,2.2c0,1,0.1,1.2,0.7,1c0.5-0.1,0.7,0,0.7,0.3s0.1,0.5,0.3,0.5s0.3,0.2,0.3,0.5
		s-0.3,0.5-0.9,0.5c-0.5,0-1.5,0.2-2.3,0.5s-2.6,0.7-4,0.9c-2,0.3-2.7,0.6-3.4,1.3c-2.5,2.7-6.2,6.2-7.8,7.5c-2.7,2-9.4,8.6-9.4,9.3
		c0,0.3,0.9,1.5,2.1,2.5l2.1,1.9l-1.1,2.3c-1.2,2.5-1.2,3.6,0.4,4.5c1.2,0.7,9.4,4.5,10.4,5c0.8,0.3,1,0.7,1.1,2
		c0.4,3.3,0.2,7.9-0.5,10.2c-0.4,1.2-0.8,3.9-1.1,5.9c-0.2,2-0.5,4.4-0.6,5.3c-0.2,2.4,0.7,6.5,3.4,14.5c1.5,4.4,1.6,5.1,1,6.9
		c-0.3,0.9-0.3,1.5,0,2.5c0.3,1.1,0.3,1.9,0.1,3.9c-0.2,1.4-0.5,3.6-0.6,5c-0.2,2.4-0.2,2.5,0.7,2.9c0.5,0.2,0.9,0.7,0.9,1
		c0,0.9-1.4,4.2-1.7,4.2c-0.1,0-1.4-0.6-2.8-1.2c-4.7-2.3-5.8-2.6-13.1-2.9c-8.5-0.4-11.8-0.7-12.5-1.1c-0.3-0.2-1.9-0.4-3.5-0.5
		l-3-0.2l-1.9-1.8c-2.4-2.4-5.1-3.9-7.1-3.9c-1.4,0-1.7,0.1-2.6,1.2c-2,2.4-2.7,4-3.3,7.6c-0.5,3.3-0.8,3.9-1.3,3.1
		c-0.3-0.5-0.9-0.4-0.9,0.1c0,0.2,0.3,0.7,0.8,1l0.7,0.5l-1.2,3.6c-1.5,4.5-2.1,7.9-1.7,9.6c0.5,1.8,1.7,2.9,3,2.9s2.8-1.6,4.1-4.1
		c0.4-0.9,1-1.8,1.3-2.2c0.3-0.3,0.9-1.1,1.5-1.7c0.5-0.6,1.2-1.1,1.6-1.1c0.3,0,0.8-0.2,1.1-0.5c0.2-0.3,1-0.5,1.6-0.5
		c0.9,0,1.2-0.2,1.7-1c0.3-0.5,1.1-1.4,1.8-2c1.2-1,1.5-1,3.5-0.9c1.4,0.1,2.2,0,2.4-0.2c0.7-1,5.6,0.1,13.4,3.1
		c2.6,1,6,2.1,7.6,2.5c1.6,0.3,4.3,1.1,5.9,1.7c3.5,1.3,7.8,1.8,9.8,1.3c1.9-0.5,3.8-2.5,4.6-4.9c0.3-1,0.8-2.3,1.1-2.8
		c0.3-0.6,0.9-2.2,1.5-3.7c1.2-3.4,1.9-4.9,2.2-4.9c0.1,0,0.7,0.9,1.3,2c1.7,3.2,1.5,4.5-1.8,13.2c-0.7,1.8-0.7,2.7-0.8,13
		c0,11-0.3,14.8-1,15.7c-0.2,0.2-0.2,1-0.1,1.9c0.1,0.8,0.1,2.1,0,2.9c-0.2,1.3-0.3,1.5-1,1.5c-0.8,0-1,0.2-1.7,2.3h-99.2
		c2.4-0.7,4.9-1.6,5.9-2.2c1.1-0.7,1.4-1,1.3-1.8c0-0.5-0.4-1.3-0.8-1.8c-0.7-0.8-0.9-0.8-4.9-0.6l-4.1,0.2l-1.6-1.6
		c-0.9-0.9-1.5-1.7-1.4-1.9c0.1-0.2-0.4-0.6-1.1-0.9c-1-0.5-1.4-0.9-1.8-2.2c-0.5-1.5-1.1-2.2-2.1-2.3c-0.7-0.1-0.8-0.3-1-2.2
		c-0.2-1.8,0.1-4.6,1.1-9.4c1-4.9,1.8-10.9,2.1-14c0.3-4.4,1.1-7.7,2.3-10c1.2-2.4,1.4-4.4,0.4-6.8c-1.5-3.8-2.3-6.2-2.3-7.5
		c0-0.8-0.3-1.8-0.5-2.3s-0.5-1.6-0.6-2.6c-0.2-2.1-2-6.8-4.2-10.3c-0.5-0.7-0.8-1.5-0.8-1.8c0-0.5-2-2.9-3.7-4.5
		c-0.9-0.9-1.5-2-1.5-2.9c0-0.4-0.2-0.9-0.5-1.1s-0.4-0.8-0.3-1.3c0.1-0.5-0.1-2.2-0.5-3.6c-0.5-1.9-0.6-2.9-0.4-3.4
		c0.5-1,0.4-3.7-0.1-4.1c-0.2-0.2-0.7-1.1-1.1-2c-0.5-1.2-0.5-1.8-0.2-2.4c0.2-0.5,0.4-1.1,0.4-1.4s0.4-1.1,0.9-1.7
		c1.1-1.5,2.7-5.2,3.5-8.1c0.3-1.2,0.7-2.5,0.9-2.8c0.5-0.9,5.8-2.6,8.1-2.5c1.5,0,2.5-0.2,3.9-0.8c1-0.5,2.2-0.8,2.6-0.7
		c0.5,0.1,1.4-0.1,1.9-0.5c1-0.6,1.1-0.9,1.1-2.2c0-2.8-0.4-4.1-1.2-4.5c-0.5-0.1-0.8-0.5-0.8-0.6c0-0.9-1.4-1.1-3.6-0.5
		c-2.9,0.8-4.5,1.7-5.4,2.9c-0.6,0.8-1,1-2.5,1.1l-1.8,0.1l0.2-1.2c0.6-3.1,0.6-4,0-5.6c-0.4-1-0.6-2.9-0.7-5.6l-0.1-4l1.5-1.7
		c0.8-1,1.6-2.1,1.7-2.6c0.1-0.5,0.5-1,1-1.2c3.9-1.8,3.6-1.5,3.7-3.6c0-1-0.1-2.1-0.3-2.3c-0.2-0.3-0.1-0.6,0.2-1
		c0.3-0.3,0.6-0.9,0.6-1.4s0.2-0.9,0.7-1c0.4-0.1,0.7-0.4,0.7-0.7c0-0.6-1-2.2-2-3.3c-0.5-0.6-0.5-0.9,0-1.4c0.3-0.3,0-1.1-0.9-3
		c-0.7-1.5-1.4-2.6-1.5-2.6c-0.2,0-0.4-0.9-0.5-1.9c-0.2-2.4-1-3.3-3.7-4.3c-1.1-0.4-2.2-1-2.5-1.2s-1.1-0.7-1.7-1
		c-0.7-0.3-1.7-0.5-2.4-0.3c-0.7,0.1-1.9,0.3-2.9,0.4c-1.3,0.2-1.6,0.3-1.3,0.7c0.3,0.3,0.2,0.5-0.3,0.7c-0.4,0.1-0.7,0.4-0.7,0.6
		c0,0.3,0.6,0.3,1.8-0.2c0.3-0.1,0.6-0.1,0.6,0.1c0,0.2-0.6,0.6-1.2,0.8c-0.8,0.2-1.9,1.2-3,2.4c-1.2,1.4-2.5,2.4-4.4,3.3
		c-1.5,0.8-2.7,1.4-2.8,1.5s0.2,0.5,0.7,1s0.6,0.7,0.2,0.5c-0.7-0.6-0.8-0.5-1.1,0.7c-0.1,0.5,0,1,0.2,1.1c0.2,0.1,0.3,0.7,0.3,1.1
		c0,0.5,0,1.1,0,1.3s0.1,0.5,0.2,0.7c0,0.2,0.1,0.7,0.1,1c0,0.4,0.6,1,1.1,1.4c0.6,0.3,1,0.8,1,1c0,0.2,0,0.9,0.2,1.4
		c0.1,0.6,0.1,1.3-0.1,1.8c-0.5,1-0.1,1.4,0.7,0.7c0.6-0.5,0.7-0.5,1.8,0.1l1.1,0.6l-1.2,0.2c-0.7,0.1-1.2,0.3-1.2,0.6
		c0,0.2-0.1,0.5-0.2,0.6c-0.1,0.1-0.2,0.9,0,1.7c0.2,1.5,0.2,1.5-1.4,2.2c-0.9,0.4-1.7,0.8-1.8,0.8c-0.6,0-5.6,2.6-6.6,3.4
		c-0.7,0.5-2,1.9-2.9,3.1c-1.5,1.9-1.7,2.3-1.7,3.8c0,1-0.2,2.4-0.7,3.5c-0.4,1-0.9,2.7-1.1,3.6c-0.2,1.2-1.1,2.9-2.7,5.3
		c-1.3,1.9-2.4,3.7-2.4,4c0,0.3-0.2,0.9-0.5,1.6c-0.3,1-0.3,1.2,0,1.4c0.3,0.1,0.4,0.7,0.2,1.9c-0.1,1.4,0,2.1,0.5,3.2
		c0.9,1.7,0.9,1.9,0,3.4s-1.3,4-1.5,8.5c-0.1,3-0.3,3.8-0.9,4.6c-1,1.4-1.8,7.4-1.4,9.3c0.2,0.7,0.3,1.5,0.2,1.7
		c-0.1,0.3-0.2,0.9-0.3,1.5c-0.1,0.5-0.8,1.6-1.5,2.3c-0.8,0.8-1.3,1.8-1.4,2.7c-0.1,0.7-0.4,1.6-0.6,1.8c-1.4,1.7-4,11.8-3.5,13.5
		c0.1,0.3-0.3,2-0.9,3.7c-1.6,4.3-2.6,5.3-6.7,6.4c-8,2-12.1,3.9-15.3,6.8c-0.8,0.7-3.2,2.7-5.4,4.5c-2.2,1.8-4.4,3.6-4.9,4.1
		s-1.4,1.2-1.9,1.7c-0.6,0.5-1.3,1.1-1.6,1.4c-0.7,0.6-1.9,0.8-4.4,0.8c-2.4-0.1-7.6,1-8.4,1.7c-0.2,0.1-0.5,1.2-0.8,2.3
		c-0.5,1.8-0.4,2.1,0.1,2.5c0.3,0.3,0.4,0.5,0.2,0.5s-0.4,0.3-0.4,0.7s0.1,0.7,0.3,0.7s0.2,0.5,0.1,1.1c-0.2,0.9-0.1,1.1,0.5,1.2
		c0.6,0.1,0.7,0.3,0.4,0.8c-0.2,0.4-0.2,0.7-0.1,0.8c0.5,0.3,0.5,2.7,0,3.2c-0.2,0.2-0.2,0.7-0.1,0.9c0.1,0.2,0.2,1,0.2,1.8
		c0,0.7,0.1,1.3,0.3,1.3s0.3,0.5,0.3,1.2s0.1,1.3,0.3,1.4s0.2,0.5,0.1,0.8c-0.1,0.3,0.1,0.8,0.4,1.1c0.3,0.3,0.6,0.8,0.6,1.3
		c0,0.4,0.3,1,0.8,1.3c0.4,0.3,0.7,0.6,0.5,0.6c-0.1,0-0.1,0.3,0,0.6c0.2,0.3,0.2,0.8,0.1,1.2l0.4,0.3c0.3-0.3,1-0.2,1,0.3
		c0,0.1,0.6,0.4,1.2,0.5c0.9,0.1,1.5,0,2.2-0.4c1.6-1.1,1.7-1.4,1.5-6.1l-0.1-4.4l0.9-0.6c0.5-0.3,0.9-0.9,0.9-1.4
		c0-0.4,0.2-1,0.5-1.2c0.3-0.2,0.7-0.9,0.9-1.4c0.2-0.6,0.7-1,0.9-1c0.8,0,3.5-3,3.7-4.1c0.1-0.6,0.3-1.5,0.4-2
		c0.1-0.6,1-1.6,2.8-3.1c2.8-2.3,3.7-2.8,11.3-6.3c2.7-1.2,5.1-2.4,5.4-2.7c2.2-1.8,7.9-3.6,12.3-4c2.1-0.2,4.1-0.4,4.4-0.5
		c0.3-0.1,1.3-1.2,2.2-2.4c0.9-1.2,1.8-2.2,1.9-2.3c0.1-0.1,1.4-1.7,2.7-3.5c1.4-1.8,2.7-3.5,2.9-3.6c0.3-0.1,1.8-2.4,3.4-4.9
		c2-3.2,3.1-4.6,3.5-4.6c0.3,0,1.6-0.8,2.9-1.7l2.3-1.7l1.6,2.3c2.3,3.4,7.3,8,10.1,9.5c1.8,0.9,6,6.4,6,7.8c0,0.4-0.6,3-1.2,5.9
		c-2.1,9.2-2.2,10.2-0.8,18.4c0.5,3,0.2,13-0.5,13.5c-0.3,0.2-0.5,1.1-0.4,3.1c0.1,1.5-0.1,3.5-0.2,4.5c-0.2,1.1-0.2,2.4,0,3.5
		c0.1,0.5,0.2,1.3,0.3,2H274.8c-0.4-0.4-0.7-0.7-1.1-1.1c-0.6-5.2,0.3-8.8-9.1-14s-16.9-7.9-31-17.4c-14-9.5-20.4-17.9-21.5-21.3
		c-1.1-3.4,7-12.5,10-14.9c2.9-2.5,10.7-7.9,10.9-8c0.1,3.2,0.3,6-1.7,8.9c-0.6,1.7-0.9,3.4-0.3,4.4s-0.8,1.4-0.8,1.7
		s0.7,1.8,2.5-1.7s2-5.2,3.6-6.9c0-1.6-0.3-9.1,1.1-10.3c1.5-1.2,3.8-3.3,4.1-1.9c0.2,1.4,1,6.9,0.8,7.8c-0.2,0.9,0,1.1-0.5,3.3
		c-0.5,2.3-0.8,5.7,0.4,6.4c1.1,0.7-0.4,1.1-0.4,1.3c0,0.2,1.5,1.1,2-1.8s0.5-6.7,2.2-7.8c1.7-1.1-0.8-3.7-0.9-4.7
		c-0.2-1-0.5-7.2-0.8-7.6c-0.3-0.5,2.4-2.8,3.7-3.7c1.3-0.9,3.9-1.4,7.6-6c3.7-4.6,3.8-4.4,3.7-8.6s0.1-5.9-6.8-9.7
		s-14.7-12.8-19.2-15.2c-1.1-4.1-4.5-17.3-4.8-18.9c-0.2-1.6-0.3-7.2-1.9-11.3c-0.7-1.8-3.2-3.7-1.8-6.5c1.4-2.7,5.4-6.2,6-8
		s1.7-1.8,2.3-2.2c0.6-0.3,1.2-2.4,2.4-3c1.2-0.6,2.2-1.7,2.5-2.8c0.6-0.2,2.9-1.4,2.6-2.6c0.7-0.1,2-1.6,2.1-2.5
		c1.2-0.2,3.2-1.9,2.3-3.3c0.8,0.1,1.9-1.3,2-2.8c0.4,0,1.6-1,1.1-3.1c0.8-0.3,2.2-1.3,1.6-3.6c0.7-0.3,3.7-3.4,0.6-3.5
		c0.3-0.7,1.1-2.3,3.2-2.2c2,0.1,4.1-1,4.9-2.7c0.8-1.7,5.7-7.2,4.3-14.7c1.1-1.1,5.5-3.8,7.9-5.2c9.2-5.2,13.8-0.9,13.8-0.9
		c4,5.1,12.1,16.6,14.9,18s3,4.1,3.4,4.6c0.3,0.5,1.1,2.7,3.2,1c2-1.7,3.7-1.7,4.1-2c0.4-0.3,1.5-2.2,1.7-2.6
		c0.1-0.5,1.9-2.1,1.9-2.1s-0.7-0.5-0.8-0.9c0.1-0.5,0.5-1.4-0.6-0.9c-0.5-0.4-0.5-0.4-0.1-1c0.4-0.6,0.2-1.4-1.2-0.9
		c-0.4,0.1-1.1,0-0.5-0.7s0.4-1.7-0.4-1.4c-0.8,0.3-3.7,0.6-6.3-0.3c-2.6-0.9-5.5-2.9-6.5-6.2c-0.5-1.5-0.5-3.8-0.4-5.9
		c1.4,0.9,2.6,1.7,3.5,2.3c5.8,3.7,19.8,14.3,21.3,15.8c1.5,1.6,4.2,3.7,5.6,5.2s3.5,1.5,4.2,0.9c0.9-0.7,2.8-0.8,2.6-1
		c-1-0.5-1.1-0.3-3-0.8c-3.3-0.8-0.1-3.3,0.5-3.6c4.3-2,2.7,4.1,3.2,4.3c0.6,0.1,0.7-2.4,1.1-4.7c0.5-2.3-1.2-3.9-2.3-4.1
		c-3.5-0.1-5.5-1.9-6.8-2.9c-4.9-3.4-17.9-11.4-28.8-17.9c0.7-1.7,1.9-4,4.4-1.5c1.8,1.7,8.5,1.7,10.3,3.3c1.8,1.6,3.9,3.9,3.6,6.2
		c0.8-0.2,1.7-0.9,1.9-1.2c-0.1,0.9,0.1,4.1,0.9,4c0.8-0.1,1.6-1.3,1.6-1.3s1.5,0.9,0.6,1.4s0.8,0.7,0.8,0.7s-0.8,1.2,0,0.7
		c0.7-0.5,1.3-1.9,1-3.2c1.4-0.2,2.5-1.9,1.9-3.4s-1.9-3.1-2-3.8c-0.1-0.8-1.1-15.5-12.4-21.7c-34.7-19-51-25.5-69.6-26.1
		c-13-0.4-28.1-2.5-51.7,8.8c-7.4,3.6-14,10.6-11.8,21.1c0.6,2.6,6.5,7.2,14.8,7.8c1.8,0.2,4.2-0.7,5.2-1.6c1.1-0.1,8,0,8.2,0
		c-0.7,1-2.3,5.6-2.7,12.8c-0.6,0.3-2.5,0.8-6.7,7.2c-0.9,1.8-2.2,3.1-2.7,3.6c-0.6,0.6-2.4,2-2.9,2.7c-0.5,0.7-4.4,1.7-11.9,6.2
		c-1.6,1-4.1,3.7-8.3,5.7c-4.2,1.9-3.8,3-6.3,2.6c-0.5,0.1-1.2-0.2-3.1,2.6c-0.8,0.5-7,5.1-8.8,3.5c0,0-0.7-0.1-1.4-1.7
		c-0.7-1.6-3.2-1.1-2.8,0.2c0.3,1.3,0.3,2.3,1.8,3.8s1.9,8,2.2,13.2c0.2,5.2,3.2,11.1,4.4,14.6c-1.4,0-10,1.1-9.1,7.9
		c-1.2,1-5.6,5.7-4.5,7.8c0.2,0.8,3.8,4.5,1.6,3.8c-0.3,0-0.8,0.5-0.7,1.4c-0.6,0-4.3-0.5-4,1.9c0.1,0.4,2.1,1.9,0.6,2.6
		s-3.5,1.6-7.6,1.5c-0.4,0.1-1.7,1.5,0.8,3.1c0.3,0.2,0,2.7-4.1,2.2s-4.6,0.5-3.7,3.1s-2.3,2.5-4.9,2.4s-2.7,0.3-2.5,2.6
		c0.1,2.3-2.9,2-5,2c-2,0-2.3,0.3-1.6,3c0.7,2.7-4.9,1.8-6.2,1.8c-1.4,0-2.4-0.1-1.9,2.9c0.5,2.9-5.1,1.1-5.9,1.1s-1.4,1.1-1.6,2.8
		c-0.2,1.8-3.6,0.9-5.2,0c-1.7-0.9-2.6,0.7-2.5,2.2s-3.2,2.4-5.1,0.2c-1.9-2.3-3.2,0.1-3.8,1.1c-0.7,1-3.6,1.3-5.8,0.3
		s-3.5-0.9-5,1.3c-1.4,2.3-4.3,0.3-5.1-0.3c-0.8-0.6-1.7,0.2-3.4,1.1c-1.7,1-4.2,1-6.7-0.2c-1.2-1-2.2-1.6-3.5,0.1
		c-0.7,0.3-3.2,2.2-6.3-0.6c-1.2-1.2-2.9-1.6-4.4-0.1s-4.5,0.3-5.6-1.2s-2.8,1-4.1,1.1c-1.4,0.1-4-1.7-4.5-2.4
		c-0.5-0.7-1.5-0.8-3.1,0.3s-4.5-1.2-5.2-2.2s-1.5-1.4-2.8-0.1s-3.5,0.3-4.4-1.5c-0.9-1.8-1.4-3.2-3.7-1c-0.9,0.7-2.7-1.6-2.9-3.6
		c-0.3-1.9-1.8-2.3-3.1-1.5c-0.1-0.7-0.2-3.2-1.9-2.4c-0.1-1.1-0.2-2.8-2.2-2.7c0.1-1.1,0.6-3.8-1.6-3.8c0.2-1.5,0.3-2.5-1.3-2.5
		c-0.2-0.8,0.3-4.2-1.5-4c-0.7-1.1-0.7-1.9-2-1.9s0-5.6-2.7-6.3s-2.8-2.6-2.8-3.9c0-1.3-0.3-2.2-2-1.7s-2.3-2.7-2.1-3.8
		s-1.1-2.3-2.3-2.6c-1.2-0.3-1.8-2.3-1.7-3.7c0.1-1.4-1.3-2.1-2.9-2.1s-3-3.5-2.9-5.2c0.2-1.7-1.6-1.3-2.6-1.3
		c-1.1,0-2.6-2.6-2.4-4.2c0.2-1.6-1.4-1.7-3.5-1.6c-2,0.2-2.4-3.2-2.4-3.9s-1.8-0.9-3.5-0.9s-2.9-3.9-3.5-4.1s-2-0.4-3.4,0.4
		c-0.8,0.3-2-2.6-2.4-4c-0.4-1.4-2-0.7-3.1-0.8c-1.1-0.2-1.7-3.8-2-3.9c-0.2-0.2,0.2-1.6-3.8-1.3c-2.1-0.5-0.1-4.8-2.6-4.9
		c-2.6-0.2-3-0.5-3.8-2.3c-0.8-1.9,0.4-4.1-3.5-3.8c-3.8,0.3-3.1-4.5-3.4-5.1c-0.3-0.7-3.8,0.2-4.8-3c-1.1-3.2-1.7-4.3-3.7-4.3
		s-2.2-2.9-2.3-4.5c-0.2-1.6-0.9-2-3.2-1.9c-2.3,0.1-2.4-5.6-2.3-5.9s-1.7-0.5-2.6,0s-2.4-3.7-2.8-4.5s-1.1-1.1-2.3-0.6
		c-1.3,0.5-2.4-2.1-3.1-3.4s-2-2.6-2.9-2.4c-0.9,0.2-2-1.7-0.3-1.7c1.7,0,5.1,0.9,2.2-1.6s-9.4-6.5-16.9-13.3
		c-7.5-6.8-18-17.7-18.6-18.2c-0.6-0.6-15.5-14.5-5.1-1.4c10.4,13.1,30.5,35.3,22.3,32.8c-0.2,1.4,5.5,3.5,8,4.2
		c2.5,0.7,7.5,7.6,8.9,8.7c-0.1,0.8-0.2,2.5,1.2,2.6c1.4,0.1,0.5,1.4,0.9,1.7c0.4,0.2,1.7-0.7,1.7,1c0.1,0.6,0.9,0.9,1.6,0.9
		s2.5,1.5,3.4,3.9c-0.2,0.3-0.6,1.8,1.1,1.9c1.7,0.1,2.7,2.1,2.7,3.3c0,1.2,2.2-0.5,2.2,2c0.1,2.5,1.8,0.8,1.9,2.8
		c-0.2,1.2,2,0.8,2.7,2.9c0.7,2.2,1.5,1.3,2.4,3.6c0.3,0.9,2.6,0.3,3.3,2.9c0.1,0.5,0.7,2.3,2.2,3.6c1.5,1.3,3.2,1.1,3.5,3.5
		c0.4,2.4,2,4.5,3,4.5s2.6-0.2,2.1,2c-0.5,2.1,2.9,3.1,3.8,3.3c0.9,0.2,1.5,0.2,1.7,1.6s2.5,2.2,3.1,2.7s2.3,0,2.8,1.7
		s1.5,0.5,3,2.3c0.8,1.1,2.9,0.7,3.5,2.6c0.7,2,4,2.5,4.5,2.5s0.9,0.3,1.1,1.4s2.7,2.7,3,2.9c0.3,0.2,2.1-0.2,2.3,1.7
		c0.2,1.8,2.6,2.9,3.3,3c0.8,0.2,1.5-0.2,1.7,2.1c0,1.1,2.3,3.7,3.9,4c1.6,0.3,0.6,1.6,0.8,2.6s1.2,2.6,2.7,3.2
		c1.5,0.6,1.1,1.4,0.7,2s1.4,2.5,2.2,2.7s2.1,1.4,1.8,2.7c-0.3,1.4,1.8,3.9,2.3,4.5s1.9,0.2,1.4,1.7c-0.5,1.4,1.4,4.2,1.7,4.6
		c0.4,0.4,1.9,0.9,0.6,2c-1.3,1.1,1.9,5.7,2.6,6c0.8,0.3,1.4,0.7,0.8,1.6c-0.6,0.9,1.3,4.6,2.3,5.1c1.1,0.5,1.9,1.1,2,2
		c0.1,1,3.8,4.8,5.6,5.1c1.7,0.3,1.6,1.4,2.1,1.9s5.3,3.8,5.9,4.2c0.6,0.4,2.2,0,3.4,1.4s5.2,1.5,6,2.1s4.8,0,5.9,1.3
		c1.1,1.3,5.4,1.6,6.4,1.4c1.1-0.2,1.5-1,2.9,0.3s5.9,1.3,6.8,1c0.9-0.3,2-0.7,3.1,0.4s5.4,0.6,5.7,0.6s1.5-1.2,3.2,0.3
		s6.8,0.3,6.9,0.3c0.2,0,1-2.8,3.5-0.5c0.9,0.8,5.8,0.1,7,0s1.1-2.1,3.9-0.8c0.8,0.2,5.4-0.8,5.9-0.9c0.5-0.1,1.4-2.1,5.4-0.9
		c1.2,0.3,5.2-0.6,5.7-0.6s0.7-1.7,3.4-0.9c0.8,0.1,5.9-1.1,6.2-1.4c0.3-0.3,2.1-1.5,4.5-1.1c2.4,0.5,4.8-2.1,5-2.3s0.9-1.3,3.1-1.1
		s4.5-2.4,4.6-2.4c0.2,0,1.7-0.2,2.3-1.5c0.5-1.3,1.4,0.2,2.6-0.6s3.7-3.2,5-2.6c0.8,0,1.1-1.7,2.2-1.4s2.6-1.9,3.9-1.8
		c1.3,0.1,1.6-0.5,1.6-0.9c0-0.4,3-2.4,4.3-2.4s2.3-0.5,2.6-0.8c0.4-0.3,0.1-1.8,1.4-2s5.5-2.3,5.4-3.5c-0.2-1.1,0.5-0.8,2.5-1
		s2.6-1.7,3.5-0.4c0.8,1.3,2.9,2.4,5.4,2.3c0.2,1,2.4,19,3.5,20.8s2,8.8,2,10.2c0,1.4,3.8,11.4,0.3,12.1s-8-5.5-10.1-6.5
		c-2-0.9-9.8-1.4-14.8-1.4s-14.9-4.4-19.9-7.7s-9.8-8.3-15.4,0.3c-1.5,3-2.4,15.2-4.9,25.9c-2.5,10.7-7,27.6-10.4,33.5
		c-2.7,3.2-4.9,5.7-3.6,10.9c1.4,5.2,1.6,8,6.9,10.8c1.4,1.1,0.9,2,1.2,3.5s5.9,4.8,7,7.4c0.7,1.5,0.2,3.5,0.5,4.9l-263.2-0.9
		c108.9,224.8,340,379,606.4,376.9c262.8-2,488.9-155.5,596.3-377H792.7z M703.5,1025c-0.1-0.1,0-0.5,0.2-0.8
		c0.2-0.3,0.3-0.5,0.3-0.3c0,0.1,0.1,0.5,0.1,0.8C704.2,1025.3,703.8,1025.5,703.5,1025z M707,1020.8c-0.1,0.2-0.3,0.3-0.5,0.3
		s-0.4-0.1-0.5-0.3s0.1-0.4,0.5-0.4S707.1,1020.6,707,1020.8z M723.8,1015.2c0.2-0.3,1-0.7,1.7-0.8c1.1-0.2,1.3-0.1,1.5,0.6
		c0.1,0.4,0.2,1.2,0.2,1.7c0,0.6,0.5,1.4,1.6,2.4c1.5,1.4,1.6,1.5,1.6,3.7l0.1,2.3l-1.7,0.5c-1,0.3-1.9,0.7-2.2,0.8
		c-0.5,0.5-0.9-0.2-0.7-1c0.1-0.3-0.1-1.2-0.5-2C723.9,1020,723.1,1016.1,723.8,1015.2z M723.2,1026.9c-0.1-0.7-0.1-1.4,0-1.7
		c0.1-0.3,0.2-0.3,0.2,0c0,0.3,0.3,0.8,0.6,1.1c0.3,0.3,0.5,0.9,0.4,1.2C724,1028.5,723.4,1028.1,723.2,1026.9z M713.4,1131.8
		c1.8-1.8,3.6-3.7,4-4.3c0.8-1.2,1.9-4.6,2.8-8.8c0.4-1.6,0.8-3.4,1-3.9c0.3-0.8,1.7-7.6,2.3-10.8c0.2-1.4,0.8-1.6,1.7-0.6
		c1.3,1.5,10.1,6.9,15.6,9.7c0.6,0.3,1.1,0.7,1.1,0.9c0.1,0.4-3.3,2.5-5.9,3.8c-2.1,1-3.4,2-6.2,4.6c-4.4,4.2-11,9.6-14.2,11.6
		c-2.4,1.5-2.6,1.6-4.1,1.4l-1.6-0.2L713.4,1131.8z M591,1005.7c-0.3-0.3-0.3-0.6,0-0.7c0.2-0.1,0.5,0,0.6,0.3
		C591.9,1006.1,591.5,1006.3,591,1005.7z M198.7,1011.6c0.5-0.9,2.2-4.2,1.7-4.8c3.7-0.7,2.4-1.8,2.7-2.9c0.3-1.1,2.5-1.5,2.7-2.8
		c0.2-1.3,2-0.2,3.3-1.4s1.7,0.2,0.8,1.7c-0.9,1.5-0.6,5.5,0.7,7.6c1.2,2,1.1,4.8,1.6,7.4c0.5,2.6,5.1,10.8,3.1,9.6
		c-5.7-3.7-17.2-8.5-17.2-8.5C195.9,1015.7,198.3,1012.5,198.7,1011.6z M167.3,977.1c0.1-1.4,9.1-4.3,9.4-4.2s-0.1,1.2-0.6,1.8
		s-0.6,2-0.6,2.7s-2.8,2.6-2.8,4.3s-3.3,0.7-3.3,1.9c0,1.2-0.6,2.7-0.6,2.7S167.2,978.5,167.3,977.1z M128,1167.1
		c0.5-1.1-1-1.6-3.2-0.8c-0.9-1.2-2.3-3.3-4.9-3.1c-0.7-0.3-2.5-2.6-3.8-2.6c-0.5-0.7-2.4-3.5-4-4c-0.2-1.7-3.5-2.8-4.1-3.1
		c-0.6-0.2-4.1-5.4-6.6-5.1c0-1.4-0.5-4-1.2-6.1c0.9-2.2,1.3-7.9,1.4-15.4c0.2-7.5,2.1-16,3.5-20.1s4.2-23.9,16.5-18.6
		c12.2,5.3,30.9,14.2,36.7,17.1s8.3,3,12.1,1.4c3.8-1.7,5.7-2,6.6-9.7c0.9-7.7,2.6-15.5,3.2-14.9c0.6,0.6,1.5,4.4,2.4,2
		c0.9-2.4,1.5-10,1.8-13.3s1.5-11.6,1.5-12.2l4.2-4.2c0.8-1.1,1.1-0.9,1.9-2.8c1.1,0.1,2.9-0.8,4.1,0.2s11.6,5.2,19,5.1
		c3.2,0.6,12,3.3,11.4,5.2c-0.6,1.9-0.9,6-0.8,6.9c-0.9,0.2-10.8,6.3-12.6,15.1c-1.1,1.2-5.7,8.6-15.2,18.6
		c-2.3,1.3-13.5,4.1-12.2,10.4c0.9,3.6,6.6,9.1,16.6,14.6c10.1,5.5,27.8,21.2,35.9,30.5c3.5,3.9,5.2,5.9,7.3,9L128,1167.1z
		 M481.4,1153c-0.2-0.5-0.2-0.6,0.1-0.6c0.4,0,1.3,1.4,1.3,2C482.8,1154.7,481.8,1153.7,481.4,1153z M601.2,997.1
		c-0.7,0.7-2.2,0.7-2.9,0.1l-0.8-0.6l0.9-0.5c0.5-0.2,1.5-0.7,2.2-0.9c1.7-0.5,4.5-0.6,4.9-0.1c0.2,0.4-2.3,1.7-3.2,1.7
		C601.8,996.8,601.4,997,601.2,997.1z"/>
</g>
</svg>
