<?xml version="1.0" encoding="utf-8"?>
<!-- Generator: Adobe Illustrator 19.0.0, SVG Export Plug-In . SVG Version: 6.00 Build 0)  -->
<svg version="1.1" id="Layer_1" xmlns="http://www.w3.org/2000/svg" xmlns:xlink="http://www.w3.org/1999/xlink" x="0px" y="0px"
	 viewBox="-166 505.8 1202.6 1038.2" style="enable-background:new -166 505.8 1202.6 1038.2;" xml:space="preserve">
<style type="text/css">
	.st0{display:none;fill:#3A3A3A;}
	.st1{display:none;fill:#FFFFFF;enable-background:new    ;}
	.st2{font-family:'Lato-Light';}
	.st3{font-size:150px;}
	.st4{fill:#424F56;}
</style>
<path id="XMLID_873_" class="st0" d="M-166,1167.1c108.9,224.8,340,379,606.4,376.9c262.8-2,488.9-155.5,596.3-377L-166,1167.1z"/>
<text id="XMLID_55_" transform="matrix(1 0 0 1 304.8185 1418.3218)" class="st1 st2 st3">404</text>
<g id="XMLID_1_">
	<g id="XMLID_2362_">
		<path id="XMLID_2364_" class="st4" d="M570.2,1167c-0.1-0.1-0.3-0.3-0.4-0.4c-4.8-6.7-3.5-3-11-20.4
			c-7.6-17.5-41.7-19.8-59.5-40.1c-10.6-12.1-11.4-30.1-8.6-44.2c-0.1,2.3-0.2,4.5-0.3,6.8c-0.1,1.2,0.8,2.3,2.1,2.4
			c0.1,0,0.1,0,0.2,0c1.2,0,2.1-0.9,2.2-2.1c0.3-4.1,0.4-8.1,0.4-12.2c0.5-0.6,0.6-1.4,0.3-2.2c-0.1-0.3-0.2-0.6-0.3-1
			c0-1.9,0-3.8-0.1-5.8c0.9-1.8,1.8-3.4,2.7-4.6c0.9,3.5,1.8,7.1,2.7,10.7c0.2,1,1.2,1.7,2.2,1.7c0.1,0,0.1,0,0.2,0
			c0,0.1,0,0.2,0,0.3c0.1,0.6,0.4,1.1,0.8,1.4c-1,3.5-2.5,7-4.7,10.4c-0.7,1-0.3,2.4,0.7,3.1c0.4,0.2,0.8,0.3,1.2,0.3
			c0.7,0,1.5-0.4,1.9-1.1c1.7-2.7,3-5.4,4-8.1c0.1,0.6,0.2,1.2,0.4,1.8c-0.3,4.3-0.8,8.7-1.6,13c-0.2,1.2,0.6,2.4,1.8,2.6
			c0.1,0,0.3,0,0.4,0c1.1,0,2-0.8,2.2-1.8c0.7-4,1.2-8,1.5-12.1c0.3-0.5,0.4-1,0.2-1.6c0-0.1-0.1-0.3-0.1-0.4
			c0.7-10.3,0.1-20.7-1.2-31c0.2-0.1,0.4-0.2,0.6-0.4c2.9,10.6,5.7,21.5,7.4,32.8c0,0.1,0.1,0.2,0.1,0.3c-0.1,1.3-0.3,2.6-0.6,3.9
			c-1.1,2-2.4,4-3.9,5.9c-0.8,1-0.6,2.4,0.3,3.1c0.4,0.3,0.9,0.5,1.4,0.5c0.7,0,1.3-0.3,1.7-0.8c1-1.2,1.9-2.5,2.7-3.8
			c0.7-0.2,1.2-0.7,1.5-1.5c0.2-0.6,0.3-1.2,0.5-1.8c0.9-1.7,1.7-3.5,2.4-5.4c-0.1,1.2-0.2,2.4-0.4,3.6c-0.2,1.2,0.7,2.3,1.9,2.5
			c0.1,0,0.2,0,0.3,0c1.1,0,2.1-0.8,2.2-1.9c1-7.7,1.2-15.3,0.8-22.9c0.5,7.4,0.8,15,1.2,23c0.1,1.2,1,2.1,2.2,2.1h0.1
			c1.2-0.1,2.2-1.1,2.1-2.3c-0.1-1.4-0.1-2.7-0.2-4c0.4,0.6,1,1,1.7,1c0.1,0,0.1,0,0.2,0c0.5,0,1-0.2,1.4-0.5
			c-0.7,3.1-1.6,6.2-2.9,9.3c-0.5,1.1,0.1,2.4,1.2,2.9c0.3,0.1,0.6,0.2,0.9,0.2c0.9,0,1.7-0.5,2.1-1.4c2.5-6.1,3.9-12.2,4.3-18.2
			c0.1-0.3,0.1-0.5,0.1-0.8c0.2-3.6,0.1-7.1-0.2-10.7c0.4,0.5,0.9,0.8,1.6,0.9c0.3,6.5,0.2,13-0.2,19.5c-0.1,1.2,0.8,2.3,2.1,2.4
			c0.1,0,0.1,0,0.2,0c1.2,0,2.1-0.9,2.2-2.1c0.1-0.9,0.1-1.7,0.1-2.6c0.6,5.6,1.2,11.3,1.9,17c0.1,1.1,1.1,1.9,2.2,1.9
			c0.1,0,0.2,0,0.3,0c1.2-0.2,2.1-1.3,1.9-2.5c-1-8.1-1.9-16.2-2.6-24.2c0.2,1,1,1.8,2.1,1.9h0.1c1.2,0,2.2-0.9,2.2-2.1
			c0.3-8.1,0.1-16.2-0.5-24.3c0.2,0.3,0.3,0.5,0.4,0.8c0.4,0.7,1.2,1.1,1.9,1.1c0.1,0,0.2,0,0.3,0c0.3,0.8,1.1,1.4,2,1.4
			c0.1,0,0.2,0,0.3,0c1.2-0.2,2.1-1.3,1.9-2.5c0-0.3-0.1-0.7-0.2-1c4.6,0.7,9.5,1,14.2,0.6c0.2,0.9,0.4,1.7,0.7,2.6
			c0.3,1,1.2,1.7,2.2,1.7c0.2,0,0.4,0,0.6-0.1c1.2-0.3,1.9-1.5,1.6-2.7c-0.2-0.7-0.3-1.3-0.5-2c4.8-0.8,9.1-2.4,12.2-4.8
			c0.6,4,1.5,7.9,3,11.7c0.3,0.9,1.2,1.4,2.1,1.4c0.3,0,0.5,0,0.8-0.2c1.1-0.4,1.7-1.7,1.3-2.9c-1.5-3.9-2.5-7.8-2.9-11.9
			c0.2-0.2,0.4-0.4,0.5-0.6c1.6-3,3-6.3,4-9.7c0.3-1.1,0.6-2.2,0.9-3.3c0.7-1.6,1.5-3.1,2.4-4.4c0,1,0.1,2,0.1,3.1
			c-0.3,7.1-0.8,14.4-1.5,22c-0.1,1.1,0.6,2.1,1.6,2.4c0,1.1,0,2.2-0.1,3.3c0,1.2,0.9,2.3,2.1,2.3h0.1c1.2,0,2.2-0.9,2.2-2.1
			c0.3-9.2,0.2-18.5-0.1-27.8c0.1-2.4,0.1-4.7,0.2-7.1c0.7-0.3,1.5-0.4,2.4-0.5c0.7,7.4,1.6,14.8,2.7,22.2c0,6.4-0.1,12.7-0.2,18.8
			c0,1.2,1,2.2,2.2,2.3l0,0c0.6,0,1.2-0.3,1.6-0.7c0.3,1.5,0.6,3.1,1,4.6c0.2,1,1.1,1.8,2.2,1.8c0.2,0,0.3,0,0.5-0.1
			c0.7-0.1,1.2-0.6,1.5-1.1c1.3,8.4,2.8,16.9,4.6,25.3c0.2,1,1.1,1.8,2.2,1.8c0.2,0,0.3,0,0.5,0c1.2-0.3,2-1.4,1.7-2.6
			c-5.1-24.2-8.1-48.4-8.9-72.3c2,0,3.9,0,5.9,0c-0.3,7.1-0.2,14.3,0.1,21.3c-2.1,11.4-2.7,23.1,0.9,35.1c0,0.9,0,1.8,0,2.7
			c0,0.5,0.1,0.9,0.4,1.3c0,0.9,0.6,1.7,1.5,2c0.2,0.1,0.5,0.1,0.8,0.1c0.9,0,1.8-0.6,2.1-1.5c1.4-4,2.5-8,3.3-12.1
			c-0.1,6.3-0.3,12.5-0.8,18.8c-0.1,1.2,0.8,2.3,2,2.4c0.1,0,0.1,0,0.2,0c1.2,0,2.1-0.9,2.2-2.1c0.1-0.7,0.1-1.3,0.1-2
			c0.4,0.7,1.1,1.2,2,1.2c0.1,0,0.1,0,0.2,0c1.2-0.1,2.1-1.2,2.1-2.4c-1.1-14.5-1.4-28.8-1.7-42.7c-0.2-7.6-0.3-15.3-0.6-23.1h0.1
			c0.5,5.5,1.1,11,1.6,16.4c0.6,5.4,1.1,10.8,1.6,16.2c-0.3,12.1-0.2,24.1,0.5,36.3c0,0.6,0.3,1.1,0.7,1.5c0,0.5,0,0.9-0.1,1.4
			c-0.1,1.2,0.9,2.3,2.1,2.4h0.1c1.2,0,2.2-0.9,2.2-2.1c0.8-13.1,0-26.5-1.2-39.6c0.4-12.8,1.3-25.6,2.8-38.6
			c0.3-0.2,0.6-0.5,0.9-0.7c2.2,23.2,4.7,45.8,7.2,67.1c0.1,1.1,1.1,2,2.2,2c0.1,0,0.2,0,0.3,0c1.2-0.1,2.1-1.3,2-2.5
			c-2.6-22.1-5.2-45.7-7.5-69.7c1.9-1.5,3.8-3,5.5-4.3c0,2.6,0,5.2,0,7.8c0.2,18.5,1.8,36.7,3.5,53.6c0.1,0.7,0.2,1.5,0.3,2.3
			c-0.6,1.2-1.1,2.4-1.7,3.6c-0.6,1.1-0.1,2.4,1,3c0.3,0.2,0.7,0.2,1,0.2c0.2,0,0.4,0,0.6-0.1c0.7,5.8,1.6,11.7,2.5,17.7
			c0.2,1.1,1.1,1.9,2.2,1.9c0.1,0,0.2,0,0.3,0c1.2-0.2,2.1-1.3,1.9-2.5c-1.2-7.9-2.3-15.7-3.2-23.1c0.7-1.5,1.3-3.1,1.9-4.6
			c0.3,2.7,1,5.3,2,7.7c0.3,0.7,0.9,1.1,1.5,1.3c-0.9,1.9-1.9,3.7-3,5.6c-0.6,1.1-0.3,2.4,0.7,3.1c0.4,0.2,0.8,0.3,1.2,0.3
			c0.8,0,1.5-0.4,1.9-1.1c11.9-19.4,11.1-39.7,7.6-59.9c0.3-1.9,0.7-3.8,1-5.7c1.2,13.8,2,27.4,1,41.2c-0.7,5.2-1.7,10.5-3.2,15.8
			c-0.3,1.2,0.4,2.4,1.6,2.7c0.2,0.1,0.4,0.1,0.6,0.1c1,0,1.9-0.6,2.1-1.6c0-0.2,0.1-0.3,0.1-0.5c0.8-0.3,1.4-0.9,1.5-1.7
			c0.8-5,1.4-10,1.7-14.9c0.6-5,1-10.1,1.1-15.1c0.7,8.6,1.3,17.4,1.8,26.2c-0.8,1.4-1.7,2.8-2.6,4.2c-0.7,1-0.4,2.4,0.6,3.1
			c0.4,0.3,0.8,0.4,1.3,0.4c0.4,0,0.7-0.1,1.1-0.3c0.1,2.9,0.2,5.7,0.2,8.5c0,1.2,1,2.2,2.2,2.2l0,0c1.2,0,2.2-1,2.2-2.2
			c0-4.9-0.2-9.9-0.4-14.9c1-1.8,1.9-3.7,2.6-5.6c0.1,0.5,0.3,1,0.7,1.4c-0.1,0.7-0.3,1.3-0.4,2c0,0.2,0,0.3,0,0.5
			c-0.7,1.1-1.4,2.3-2.2,3.4c-0.7,1-0.4,2.4,0.6,3.1c0.4,0.3,0.8,0.4,1.3,0.4c0.7,0,1.4-0.3,1.8-1c4.6-6.7,7.7-13.5,9.3-20.4
			c-0.4,3.6-0.9,7.1-1.3,10.1c-0.2,1.2,0.7,2.4,1.9,2.5c0.1,0,0.2,0,0.3,0c0.2,0,0.3-0.1,0.5-0.1c-0.8,3.2-1.9,6.4-3.1,9.6
			c-0.4,1.1,0.1,2.4,1.3,2.9c0.3,0.1,0.5,0.2,0.8,0.2c0.9,0,1.7-0.5,2.1-1.4c3-7.8,4.9-15.6,5.8-23.4c0.3,0.3,0.6,0.5,1,0.7
			c0.2,0.1,0.5,0.1,0.7,0.1c0.9,0,1.8-0.6,2.1-1.5c4.7-13.8,4.7-28,3.7-42.1c0.3-1.5,0.5-3,0.8-4.5c0.2-1.3,0.5-2.6,0.7-3.9
			c1,12.7,1.7,25.8-0.6,38.9c-0.2,1.2,0.6,2.4,1.8,2.6c0.1,0,0.3,0,0.4,0c1.1,0,2-0.8,2.2-1.8c0.2-1.2,0.4-2.4,0.6-3.5
			c0.3,0.1,0.6,0.2,0.9,0.2c0.1,0,0.3,0,0.4,0c1.2-0.2,2-1.4,1.8-2.6c-2.3-12.9-1.1-25.6,0.2-39.1c0.2-1.7,0.3-3.3,0.5-5
			c0.3,2.1,0.5,4.2,0.8,6.3c1,7.9,2,16,2.3,24c-0.2,3.3-0.2,6.5-0.1,9.8c-0.1,1.9-0.3,3.9-0.5,5.8c-0.1,0.9,0.3,1.8,1.1,2.2v0.1
			c0.1,1.1,1.1,2,2.2,2c0.1,0,0.2,0,0.3,0c1.2-0.2,2.1-1.3,1.9-2.5c-0.3-2.5-0.5-5.1-0.6-7.6c0.2-3.3,0.2-6.5,0.1-9.8
			c0.4-7.5,1.3-14.9,2.2-22.3c0.6-4.8,1.2-9.6,1.7-14.5c0.3,3.2,0.6,6.4,0.9,9.6c0.5,5.6,1,11,1.3,16.4c-0.3,5.5-0.5,11.1-0.3,16.8
			c-0.2,2-0.5,3.9-0.8,5.9c-0.2,1.1,0.4,2.1,1.4,2.5c0.2,2.3,0.6,4.7,1,7c0.2,1.1,1.1,1.8,2.2,1.8c0.1,0,0.3,0,0.4,0
			c1.2-0.2,2-1.4,1.8-2.6c-0.9-4.8-1.3-9.6-1.5-14.4c0.6-5.7,0.6-11.3,0.3-17c0.2-3.3,0.5-6.7,0.7-10c0.2,0.9,0.3,1.9,0.5,2.8
			c2,10.8,4,21.9,3.8,33c0,1.2,1,2.2,2.2,2.3l0,0c1.2,0,2.2-1,2.2-2.2c0.2-11.5-1.9-22.9-3.9-33.9c-1.2-6.6-2.4-13.4-3.1-20.2
			c1-0.1,1.7-0.2,1.9-0.5c0.4-0.5-0.5-1.1-2.1-1.7c0-0.3,0-0.7-0.1-1c0.2-5.3,0.1-10.7-0.3-16.1c0-2.9,0-6,0.1-9.2
			c0-1.2,0.1-2.4,0.1-3.6c5.1-1.4,9.8-2.4,10.9-3.5c1.1-1.1-4.2-1.8-10.7-1.8c0.6-12.6,1.6-25.3,2.8-37.6c4.2-3.3,7.1-6.5,9.9-6.5
			c3.4,0,0-2.3-9.2-1.1c0.5-5.3,1.1-10.6,1.7-15.8v-0.2c0.1-5.4,0-10.5-0.1-14.8c-0.1-3.8-0.3-7.6-0.4-11.3c2.1-0.1,3.9-1.9,3.9-4.1
			c0-2.3-1.8-4.1-4.1-4.1c-0.7,0-1.4,0.2-2,0.6c-0.7-1.2-2-2-3.5-2c-1.4,0-2.6,0.7-3.3,1.7c-0.7-0.7-1.7-1.2-2.9-1.2s-2.2,0.5-3,1.3
			c-0.2,0-0.3-0.1-0.5-0.1c-1.6,0-3,0.9-3.6,2.3c-0.4,0.1-0.8,0.2-1.2,0.3c-0.7-1.1-2-1.8-3.4-1.8c-1.8,0-3.3,1.2-3.9,2.8
			c-0.1,0.2-0.3,0.4-0.3,0.7c-0.7-0.8-1.8-1.4-3.1-1.4c-1.5,0-2.8,0.8-3.5,2c-0.4,0-0.9,0-1.4,0.1c-0.7-0.5-1.5-0.9-2.5-0.9
			c-0.4,0-0.7,0.1-1,0.2c-0.7-0.8-1.8-1.4-3-1.4c-0.9,0-1.7,0.3-2.4,0.8c-0.5-5.7-0.8-11.3-0.4-17.1c0.2-4.7,0.4-9.4,0.5-14
			c0.6-23.5-0.5-47.2-3.2-70.4c-0.1-4.3-0.7-8.7-1.2-13l-0.3-2.2c-0.6-4.4-1.1-9.1-0.8-13.7c0.8-0.3,1.2-0.6,1.2-0.9
			c-0.3-1.3-0.4-3.1-1.2-4.7c0.3-0.5,0.4-1.2,0.4-1.8c0-1.8-1.1-3.3-2.7-3.8c-0.4-0.9-1.5-1.5-2.5-1.2c-0.9,0.2-1.5,0.9-1.7,1.7
			c-0.7-0.5-1.5-0.8-2.4-0.8c-1,0-1.9,0.4-2.6,0.9c-0.7-0.6-1.6-0.9-2.6-0.9c-1.6,0-3,1-3.7,2.4c-0.4-0.1-0.7-0.2-1.1-0.2
			c-1.1,0-2,0.4-2.8,1.1c-0.6-0.3-1.3-0.5-2-0.5c-1.5,0-2.8,0.8-3.5,2c-0.6-0.4-1.4-0.7-2.2-0.7c-1.4,0-2.7,0.7-3.4,1.9
			c-0.4,0.1-0.9,0.2-1.3,0.2c-1.5,0.2-2.9,0.7-4.3,1.2c-0.4-0.1-0.8-0.2-1.3-0.2c-1.7,0-3.1,1-3.7,2.4c-0.4-0.1-0.7-0.2-1.1-0.2
			c-1.6,0-2.9,0.9-3.6,2.2c-0.2,0-0.4,0.1-0.5,0.2c-0.3,0.2-0.6,0.4-0.8,0.7c-0.2,0-0.5-0.1-0.7-0.1c-1.6,0-3,0.9-3.6,2.3
			c-0.1,0-0.3,0-0.4,0c-1.6,0-3,0.9-3.7,2.3c-0.6-0.3-1.2-0.5-1.8-0.5c-1.9,0-3.5,1.3-4,3.1c-0.2,0.1-0.3,0.2-0.5,0.2
			c-0.2-0.1-0.4-0.3-0.6-0.3c-1.1-0.4-2.3,0-2.8,1.1c-0.6-1.6-2.1-2.7-3.8-2.7c-0.8,0-1.5,0.2-2.1,0.6c-0.7-0.6-1.6-0.9-2.6-0.9
			c-0.1,0-0.3,0-0.4,0l0,0c0.3-0.5,0.4-1.1,0.4-1.8c0-2.3-1.8-4.1-4.1-4.1c-0.2,0-0.3,0-0.5,0c0-0.1,0-0.2,0-0.3
			c0.1-1.1-0.6-2.1-1.6-2.4c-0.5-0.4-1.1-0.7-1.8-0.9c0.1-0.3,0.1-0.7,0.1-1c0-2.3-1.8-4.1-4.1-4.1c0,0,0,0-0.1,0
			c-0.3-2-2-3.5-4-3.5c0-2.3-1.8-4.1-4.1-4.1c-0.2,0-0.4,0-0.6,0.1c0.4-0.6,0.6-1.3,0.6-2.1c0-2-1.4-3.6-3.2-4
			c0.1-0.4,0.2-0.9,0.2-1.3c0-2.2-1.7-3.9-3.8-4.1c-0.7-1-1.9-1.6-3.2-1.6c-0.9,0-1.8,0.3-2.5,0.8c-0.5-0.2-1-0.3-1.6-0.3
			c-0.9,0-1.8,0.3-2.5,0.8c-0.5-0.4-1.1-0.6-1.8-0.5c-1.2,0.2-2.1,1.3-1.9,2.5c0.6,4.4,1.7,8.5,2.9,12.6c1.5,5.5,3,10.7,3.1,16.5
			v0.2c0.4,3.4,0.6,7.1,0.8,10.7c0.1,3,0.2,6.1,0.3,9.4c0.3,4.7,0.6,9.3,0.9,13.9c0.3,4.6,0.5,9.2,0.8,13.8
			c0.5,8.6,0.8,17.4,0.9,26.1c-1,1.3-2.4,2.4-4,3.3c0.7-8.9,1.1-17.8,0.7-26.9c0-11-0.5-21.1-1.5-30.9c-0.1-3.1-0.1-6.1-0.2-8.9
			c-0.3-13.6-3.2-26.9-8.3-39.1c1.3-0.7,2.1-2,2.1-3.6c0-1.4-0.7-2.7-1.8-3.4c-0.5-1.6-2.1-2.8-3.9-2.8c-0.5,0-0.9,0.1-1.3,0.2
			c-0.7-0.5-1.7-0.7-2.5-0.2c0,0-0.1,0-0.1,0.1c-0.5-0.6-1.3-0.9-2.1-0.7c-0.5-0.6-1.2-0.9-2-0.8c-1,0.1-1.7,0.9-1.9,1.8
			c-0.7-0.7-1.8-1.2-2.9-1.2c0-1.2-0.5-2.2-1.3-3c-0.2-0.5-0.3-1.1-0.5-1.6c-0.4-1.2-1.6-1.8-2.8-1.5c-0.3,0.1-0.6,0.3-0.9,0.5
			c-0.4-0.3-0.8-0.5-1.3-0.6c-0.2,0-0.4,0-0.6,0c-0.7-1-1.9-1.6-3.2-1.6c-1.1,0-2.2,0.5-2.9,1.2c-1.1,0.1-2.1,0.7-2.8,1.5
			c-0.5-0.3-1.1-0.4-1.8-0.4c-1.4,0-2.7,0.7-3.4,1.8c-1.3,0.1-2.5,0.7-3.2,1.8c-0.6-0.4-1.3-0.6-2.1-0.6c-2.3,0-4.1,1.8-4.1,4.1
			c0,0.1,0,0.1,0,0.2c-3.2,7-7.4,13.8-12,19.9c-0.2-0.2-0.4-0.4-0.6-0.6c-0.7-2.6-1.5-5.1-2.3-7.5c-0.2-1.2-0.4-2.5-0.7-3.7
			c-2.1-11-5.1-22.9-9.2-36.8c-0.1-0.4-0.4-0.8-0.7-1.1c1.5-1.1,2.4-1.7,2.4-1.7s-1.4-0.2-3.5-0.4c-0.1-2.2-1.9-3.9-4.1-3.9
			c-1.2,0-2.3,0.6-3.1,1.4c-0.1,0-0.1,0-0.2,0c-0.9,0-1.7,0.3-2.4,0.8c-0.1,0-0.2,0-0.3,0c-1.7,0-3.2,1.1-3.8,2.6
			c-0.2-0.1-0.5-0.2-0.7-0.2c-0.3,0-0.6,0-0.9,0.1c-0.6-0.3-1.3-0.6-2-0.6c-1.6,0-3,1-3.7,2.3c-1.9,0.1-3.5,1.6-3.8,3.4
			c0,0,0,0-0.1,0c-1.8,0-3.4,1.2-3.9,2.9c-0.1,0-0.1,0-0.2,0c-1.6,0-3.1,1-3.7,2.4c-0.4-0.1-0.8-0.2-1.2-0.2c-1,0-1.8,0.4-2.6,0.9
			c-0.1,0-0.1,0-0.2,0c-0.8,0.2-1.4,0.9-1.5,1.6c-1,0.1-1.8,0.5-2.5,1.2c-0.6-0.4-1.4-0.7-2.3-0.7c-1.1,0-2,0.4-2.8,1.1
			c-0.7-0.8-1.8-1.3-3-1.3c-1.3,0-2.5,0.6-3.2,1.6c-0.1-0.3-0.3-0.6-0.5-0.8c-0.2-1.6-1.3-3-2.9-3.5c0-0.1,0-0.1,0-0.2
			c0-2.3-1.8-4.1-4.1-4.1c-0.6,0-1.2,0.2-1.8,0.4c-0.3-1.2-1.1-2.3-2.2-2.8c0-0.1,0-0.2,0-0.3c-0.1-1.2-1.1-2.2-2.3-2.1
			c-0.4,0-0.7,0.1-1,0.3c-0.6-1.4-2.1-2.5-3.7-2.5c-1.2,0-2.2,0.5-3,1.3c-0.3-0.2-0.7-0.3-1.1-0.3c-0.7,0-1.2,0.2-1.6,0.6
			c-0.4-0.1-0.7-0.2-1.1-0.2c-0.6,0-1.1,0.1-1.6,0.3c-0.4-1.9-2-3.3-4-3.3c-0.3,0-0.6,0-0.9,0.1c-0.7-0.6-1.6-0.9-2.6-0.9
			c-1.3,0-2.4,0.6-3.2,1.5c-0.6,0.1-1.2,0.2-1.7,0.5c-0.7-1.1-2-1.7-3.3-1.7c-0.9,0-1.8,0.3-2.5,0.9c-0.7-1.1-2-1.9-3.4-1.9
			c-1.5,0-2.8,0.8-3.5,2.1c-0.2,0-0.3,0.1-0.5,0.2c-0.5-0.2-1.1-0.4-1.7-0.4c-1.3,0-2.4,0.6-3.2,1.6c-2.2,0-4.1,1.8-4.1,4.1
			c0,2.1,1.6,3.9,3.7,4.1c0.1,0.3,0.3,0.6,0.5,0.9c-0.9,14.7-0.8,28.3-0.5,39.7c0,0.9,0.1,1.9,0.1,2.8c-0.3,2.3-0.6,4.5-0.9,6.7
			c-0.3,3.2-0.6,6.4-0.8,9.7c-0.4,5.5-0.7,11.1-1,16.4c-0.2,3.5-0.3,6.9-0.5,10.3c-0.3,0-0.6,0-0.9,0.2c-1.1,0.4-1.7,1.7-1.3,2.9
			l0,0c-0.2,0.1-0.3,0.2-0.5,0.4c-0.2,0-0.4-0.1-0.6-0.1c-1.7,0-3.2,1.1-3.8,2.6c-0.5-0.2-1-0.3-1.5-0.3c-2.1,0-3.8,1.6-4,3.6
			c-0.1,0-0.2,0-0.2,0c-2.3,0-4.1,1.8-4.1,4.1c-0.3,0-0.5,0-0.8,0.1c-0.4-0.5-1-0.9-1.7-0.9c-0.6-1.6-2.1-2.7-3.8-2.7
			c-0.1,0-0.1,0-0.2,0c0-0.2,0.1-0.3,0.1-0.5c0-2.3-1.8-4.1-4.1-4.1c-0.4,0-0.8,0.1-1.2,0.2c0.1-1.2-0.8-2.3-2-2.4
			c-0.4,0-0.8,0.1-1.2,0.2c-0.4-0.5-0.9-0.8-1.5-0.9c-0.7-0.8-1.8-1.2-2.9-1.2c-0.4,0-0.8,0.1-1.1,0.2c-0.4-0.2-0.8-0.4-1.3-0.3
			c-1.2,0.1-2.2,1.1-2.1,2.3v0.1c-0.7-1.3-2-2.3-3.6-2.3c-0.4,0-0.8,0.1-1.2,0.2c-0.2-0.1-0.4-0.1-0.7-0.1c-0.6-0.4-1.4-0.7-2.2-0.7
			c-0.1,0-0.2,0-0.3,0c-0.7-0.8-1.8-1.2-2.9-1.2c-1.8,0-3.4,1.2-3.9,2.9c-0.6-0.4-1.4-0.7-2.3-0.7c-0.2,0-0.4,0-0.6,0.1
			c-0.4-1.8-2-3.2-4-3.2c-1.7,0-3.2,1.1-3.8,2.6c-0.6-0.3-1.2-0.4-1.8-0.4c-1.5,0-2.8,0.8-3.5,2c-0.5,0.1-1,0.3-1.4,0.6
			c-0.7-1-1.9-1.6-3.3-1.6c-1.9,0-3.5,1.3-4,3.1H330c-1.8,0-3.3,1.2-3.9,2.8c-1.6,0.5-2.8,2.1-2.8,3.9c0,1.5,0.9,2.9,2.1,3.6
			c-0.5,0.2-1,0.5-1.4,0.9c-0.1,0-0.1,0-0.2,0.1c-1.1,0.5-1.6,1.9-1,3l0,0c-2,0.3-3.6,2-3.6,4c0,0.4,0.1,0.8,0.2,1.2
			c-0.4-0.2-0.8-0.2-1.2-0.1c-1.2,0.2-2,1.4-1.8,2.6c0.1,0.8,0.3,1.6,0.4,2.4c-1.1,0.3-2,1-2.5,2c-1.1,0.2-1.9,1.1-1.9,2.3
			c0,0.8,0,1.6,0.1,2.5c-0.7,0.6-1.1,1.4-1.3,2.3l-0.1-0.1c0-0.1,0-0.1,0-0.2c0-1.8-1.1-3.3-2.7-3.8c0-0.1,0-0.3,0-0.4
			c0.2-0.4,0.2-0.9,0.2-1.4c0-0.6-0.1-1.2-0.4-1.7c-0.1-3.4,0-6.5,0.3-9.5c0.1-1.2-0.8-2.3-2-2.4c-0.5,0-1,0.1-1.4,0.4
			c-0.1-1.2-0.2-2.5-0.4-3.7c-0.1-1.2-1.3-2.1-2.4-2c-0.8,0.1-1.4,0.5-1.7,1.2c-0.1-0.1-0.1-0.3-0.2-0.4c-0.3-0.8-1.1-1.3-1.9-1.3
			c-0.4-0.2-0.8-0.3-1.3-0.3c-0.8,0.1-1.4,0.5-1.8,1.1c-0.7-1.1-2-1.9-3.4-1.9h-0.1c-0.7-1.2-2-2.1-3.6-2.1c-0.8,0-1.6,0.3-2.3,0.7
			c-0.4-0.5-1-0.8-1.7-0.8c0,0,0,0-0.1,0s-0.2,0-0.3,0c-0.6-0.3-1.2-0.5-1.9-0.5c-0.9,0-1.8,0.3-2.5,0.9c-0.7-0.5-1.6-0.9-2.5-0.9
			c-0.7,0-1.4,0.2-1.9,0.5c-0.4-0.2-0.8-0.4-1.3-0.4c-0.6-0.5-1.4-0.6-2.2-0.3c-0.7,0.3-1.1,0.8-1.3,1.4c-0.8,0.7-1.2,1.8-1.2,2.9
			c0,0.1,0,0.2,0,0.3c-0.6,0.4-0.9,1.1-0.9,1.9c-0.3,0.4-0.5,1-0.4,1.6c0.1,0.5,0.1,0.9,0.1,1.4c-2.2,0.1-3.9,1.9-3.9,4.1
			c0,0.1,0,0.2,0,0.2c-0.5-0.7-1.3-1.2-2.2-1h-0.1c-0.4-0.3-0.9-0.5-1.5-0.6c-0.2,0-0.4,0-0.5,0.1c-0.4-0.2-0.8-0.2-1.2-0.2
			c-1.2,0.2-2.1,1.3-1.9,2.5c-0.4-0.1-0.8-0.2-1.3-0.2c-1.2,0-2.3,0.6-3.1,1.4h-0.1c-0.4-0.8-0.9-1.4-1.7-1.8
			c-0.2-1.2-0.3-2.4-0.5-3.6s-1.3-2.1-2.5-1.9c-0.4,0.1-0.8,0.3-1.2,0.5c-0.6-0.3-1.2-0.5-1.9-0.5c-0.1,0-0.2,0-0.3,0
			c-0.7-1.2-2-1.9-3.5-1.9c-0.2,0-0.4,0-0.7,0.1c0-0.2,0.1-0.4,0.1-0.5c0.2-1.2-0.6-2.4-1.8-2.6c-1-0.2-1.9,0.3-2.4,1.2
			c-0.5-1.6-2.1-2.8-3.9-2.8c-0.7,0-1.3,0.2-1.8,0.5c-0.6-0.3-1.2-0.5-1.8-0.5c-0.5,0-1.1,0.1-1.5,0.3c-0.2-1.8-0.4-3.6-0.6-5.4
			c-0.2-1.2-1.3-2.1-2.5-1.9c-0.6,0.1-1,0.3-1.4,0.7c-0.6-0.4-1.4-0.6-2.2-0.6c-0.4,0-0.8,0.1-1.2,0.2c-0.7-0.7-1.8-1.2-2.9-1.2
			h-0.1c-0.3-1.3-1.3-2.4-2.5-2.8c0-0.1,0-0.2,0-0.3c0-2.3-1.8-4.1-4.1-4.1c-0.8,0-1.6,0.3-2.2,0.7c-0.7-1-1.9-1.7-3.3-1.7
			c-0.2,0-0.4,0-0.6,0.1c0.1-0.4,0.2-0.8,0.2-1.2c0-2.3-1.8-4.1-4.1-4.1c-2.3,0-4.1,1.8-4.1,4.1c0,0.4,0.1,0.7,0.2,1.1
			c-1,0.7-1.9,1.4-1.8,2.2c-0.5,0.3-0.9,0.8-1.1,1.5c-1.4,7.5-1.5,14.8-1.6,21.8c0,4.9-0.1,9.5-0.6,14.3c-0.2,5.4-0.5,11.2-0.7,17.4
			c-1.6,43.2-2.5,101.1,2.7,131.6c0.8,4.9,1.5,10.2,2,15.7c0.5,5,0.8,10.3,1.1,16.2c1.1,18.3-0.1,35.9-1.3,54.5
			c-1,15.2-2.1,31-1.8,47.1l0.1,0.4c1.3,5.6,2.1,11,2.5,16c1,13.2-1.5,19.8-1.5,19.8c-0.5,1.1,0.1,2.4,1.3,2.9
			c0.3,0.1,0.5,0.2,0.8,0.2c0.9,0,1.7-0.5,2.1-1.4c0.1-0.3,2.9-7.5,1.8-21.8c-0.4-5.2-1.2-10.7-2.5-16.5
			c-0.3-15.8,0.7-31.4,1.8-46.4c1.2-17.9,2.5-36.5,1.4-55.1c-0.2-6-0.6-11.3-1.1-16.4c-0.4-4.4-0.9-8.7-1.6-12.8h0.1
			c0.4,0,0.7-0.1,1.1-0.3c0.3,0.8,1,1.4,1.9,1.5c0.1,0,0.1,0,0.2,0c1.1,0,2.1-0.9,2.2-2c0.5-5.9,1-12,1.5-18.2
			c0.1-1.3,0.2-2.7,0.3-4c0.9,8.2,2.2,14.5,3.8,18.9c0.2,0.5,0.3,1,0.5,1.4c-0.7,4.2-0.6,8.5-0.5,12.7c0.1,2.7,0.1,5.3,0,7.8
			c-0.1,1.2,0.9,2.3,2.1,2.4c0.1,0,0.1,0,0.1,0c0.8,0,1.6-0.5,2-1.2c-1.2,16.1,0,32.2,1.4,48c-0.4,5.5-0.8,11.2-1.1,17
			c-1.4,9.4-3.1,18.8-4.8,28.1c-0.8,6.1,0,12.5,0.7,18.7c0.7,6.3,1.4,12.9,0.6,19v0.2v0.2c0,3.4,0,6.5,0,9c-0.1,1.4-0.1,2.8-0.1,4.1
			c0,1.9-0.1,2.9-0.1,3c0,0.6,0.2,1.2,0.6,1.6c1.5,8.1,5.8,11.5,6,11.7c0.4,0.3,0.8,0.4,1.2,0.4c1.1,6.2,1.9,10.3,1.9,10.4
			c0.2,1.1,1.1,1.8,2.2,1.8c0.1,0,0.3,0,0.4,0c1.2-0.2,2-1.4,1.8-2.6c0-0.1-2.7-14.5-5.2-30.9c-0.6-4.2-1.2-8.1-1.6-11.7
			c0.6-1.8,1.3-3.6,2-5.4l0.1-0.4c4.5-22.9,2.5-46.1,0.4-68.5c0.9-7.9,1.6-15.9,1.7-23.9c0.7,12,2,24,3.2,35.7
			c1.3,12.3,2.5,24.9,3.3,37.6c-0.6,5.4-0.3,10.4,0.1,15.6c0.2,2.7,0.4,5.4,0.4,8.3c0,2.1,0.1,4.1,0.1,6.2c0,0.4-0.1,0.9-0.1,1.3
			c-1.3,12.7-5.8,23.2-5.9,23.3c-0.5,1.1,0,2.4,1.1,2.9c0.3,0.1,0.6,0.2,0.9,0.2c0.9,0,1.7-0.5,2-1.3c0.1-0.2,0.9-2.1,2-5.2
			c-0.1,2.8-0.1,4.4-0.1,4.5c0,1.2,0.9,2.3,2.1,2.3h0.1c1.2,0,2.2-0.9,2.2-2.1c0-0.1,0.2-6.8,0.2-16.2c0-3.1-0.1-6.3-0.1-9.5
			c0.4-4.3,0.4-8.5,0-12.5c0-5.9-0.3-11.8-0.6-17.6c0.1-0.5,0.1-1.1,0.2-1.6c2.2-8.4,4.4-17.4,6.1-26.8c0.3,20.1,1.2,39.6,2.6,59
			c0.1,0.4,0.1,0.9,0.2,1.3c0,1,0,2,0,3c0,14.5-0.2,26.9-0.2,27.1c0,1.2,1,2.2,2.2,2.3l0,0c1.2,0,2.2-1,2.2-2.2
			c0-0.1,0.1-5.8,0.1-13.9c0.1,0,0.1,0,0.1,0c0.1,0,0.3,0,0.4,0c1.2-0.2,2-1.4,1.8-2.6c0-0.1-1.1-5.7-2.2-13.8
			c0.1-3.7,0.2-7.8,0.3-11.7c2.6-23.4,0.8-46.8-1-69.5c-0.7-9.3-1.4-18.9-1.9-28.5c0.2-8.8,0.5-17.8,0.9-27c0.2-2.4,0.5-4.7,0.8-6.9
			c0.3-1.7,0.5-3.4,0.9-5.3c0.2-1.1,0.4-2.1,0.7-3.2l0.1-0.3c0.1-0.8,0.2-1.6,0.3-2.4c0.1-0.5,0.2-1.1,0.3-1.6c0.7-4,1.4-8.2,2-12.7
			c0.1,2.7,0.2,5.3,0.3,8c-0.1,1.5-0.3,3.1-0.4,4.6l-0.1,1.1c-0.4,4.7-0.8,9.5-1.1,14.5v0.1v0.1c0.5,22.6,1.9,45.5,3.3,67.7
			c1.3,21.2,2.7,43,3.2,64.5c-0.7,4.3-1.6,8.7-2.7,13l-0.1,0.4l0.1,0.4c0.4,3.4,1,6.3,1.6,8.5c-1.8,9-4.7,15.5-4.7,15.6
			c-0.5,1.1,0,2.4,1.1,2.9c0.3,0.1,0.6,0.2,0.9,0.2c0.9,0,1.7-0.5,2-1.3c0.1-0.2,1.5-3.5,3-8.6c0,0.2,0,0.3,0,0.3
			c0,1.2,1,2.2,2.2,2.3l0,0h0.1c0.4,0.5,1,0.8,1.7,0.8l0,0c1.2,0,2.2-1,2.2-2.2c0,0,0.1-5.5,0.1-13.5c0-4,0.1-8.6,0.2-13.4
			c0.2-2.7,0.4-5.4,0.6-8c0.1,1.8,0.3,3.5,0.4,5.3c0.7,4.5,1.3,8.3,1.8,11.1c0.2,4.1,0.3,6.6,0.3,6.6c0,0.6,0.3,1.1,0.7,1.5
			c-1.5,5.3-3,8.7-3,8.7c-0.5,1.1,0,2.4,1.1,2.9c0.3,0.1,0.6,0.2,0.9,0.2c0.9,0,1.7-0.5,2-1.3c0-0.1,0.6-1.3,1.4-3.5
			c0.7-0.2,1.3-0.7,1.6-1.4c0.3-1,0.6-1.9,0.8-2.9c-0.4,11.1-1,19.9-1,20c-0.1,1.2,0.8,2.3,2.1,2.4c0.1,0,0.1,0,0.2,0
			c1.2,0,2.1-0.9,2.2-2.1c0-0.1,0.5-7.8,0.9-17.9c0.7-0.4,1.2-1.1,1.2-2c0,0,0-2.2,0.1-5.8c0.9,4.9,2,8.1,2.1,8.3
			c0.1,0.4,0.4,0.7,0.7,0.9c-0.1,4.3-0.1,6.9-0.2,7c0,1.2,0.9,2.3,2.1,2.3h0.1c1.2,0,2.2-0.9,2.2-2.1c0-0.1,0.2-6.7,0.2-15.9
			c0.6-0.4,0.9-1.1,0.9-1.9c0,0-0.2-6.5-0.5-15.3c0.8-10.9,1-21.8,0.8-32.7c0.1,1.3,0.1,2.6,0.2,3.9c0.5,10.2,0.6,18.8,0.6,27
			c0,4.1-0.1,8.6-0.3,13.3c-0.4,12.7-1.1,23.2-1.1,23.3c-0.1,1.2,0.8,2.3,2.1,2.4c0.1,0,0.1,0,0.2,0c1.2,0,2.1-0.9,2.2-2.1
			c0-0.1,0.7-10.7,1.1-23.5c0.2-4.8,0.2-9.3,0.3-13.4c0.1-8.2-0.1-16.9-0.6-27.2c-0.2-4.5-0.4-9-0.7-13.6l-0.3-3.4
			c-0.1-1.4-0.2-2.8-0.3-4.1c0.2-1.1,0.4-2.2,0.6-3.3c1.7-10.1,2.7-19.4,3.1-28.1c0.3,2.1,0.5,4.1,0.8,6.2c2.2,16,4.4,32.6,1.3,48.8
			v0.2c-0.2,3.1-0.4,6.2-0.6,9.3c-0.2,3.5-0.3,6.5-0.4,9.4c0,3.9,0,8.1,0.1,12.5c0.2,11.9,0.7,21.6,0.7,21.7c0.1,1.2,1,2.1,2.2,2.1
			h0.1c1.2-0.1,2.2-1.1,2.1-2.3c0.4-0.2,0.7-0.6,0.9-1c0.1-0.1,0.5-1.2,1.2-3c0.4,0.4,0.9,0.7,1.5,0.7h0.1c0.5,0,0.9-0.2,1.3-0.4
			c0.3,7.4,0.5,12.7,0.5,12.8c0,1.2,1,2.1,2.2,2.1h0.1c1.2,0,2.2-1.1,2.1-2.3c0-0.1-0.6-14.9-1-30c-0.2-5.1-0.3-10.2-0.4-15
			c-0.4-8.1-1-16.4-1.6-24.4c-0.5-6.5-0.9-13.1-1.3-19.7c1.4-15.7,3.2-31.4,5-46.9c0.2,1.1,0.4,2.3,0.6,3.4
			c-2.7,24.2-1.7,50.3,2.9,81.1c-0.2,1.1-0.3,2.1-0.5,3.2c-0.4,2.7-0.9,5.4-1.3,7.9l-0.4,2.6c-1.7,10.1-2.9,18.2-2.3,23.7
			c0.1,1.1,1.1,2,2.2,2c0.1,0,0.2,0,0.2,0c1.2-0.1,2.1-1.2,2-2.5c-0.4-4.1,0.3-10.3,1.5-17.8c0.4,7.9,0.4,15.6-1.1,19.9
			c-0.4,1.2,0.2,2.4,1.4,2.8c0.2,0.1,0.5,0.1,0.7,0.1c0.9,0,1.8-0.6,2.1-1.5c1.7-5,1.9-13,0.9-27.8c-0.2-3.4-0.5-7.2-1-12.4
			c1.5-9.7,2.2-19.4,2.1-29.2c1.4,7.4,2.9,14.9,4.4,22.2c1.3,6.2,2.6,12.7,3.8,19c0.1,3.2-0.2,5.6-0.8,7.5c-0.4,1.2,0.2,2.4,1.4,2.8
			c0.2,0.1,0.5,0.1,0.7,0.1s0.4,0,0.6-0.1c0,1,0,2,0.1,3c0,0.7-0.1,1.4-0.2,2.2c-1.3,12.7-5.8,23.2-5.9,23.3c-0.5,1.1,0,2.4,1.1,2.9
			c0.3,0.1,0.6,0.2,0.9,0.2c0.9,0,1.7-0.5,2-1.3c0.1-0.2,0.9-2.2,2-5.4c0.3,0.8,1.1,1.3,2,1.4h0.1c1.2,0,2.2-0.9,2.2-2.1
			c0-0.1,0.2-4.3,0.2-10.7h0.1h0.1c1.2,0,2.2-0.9,2.2-2.1c0-0.2,0.2-6-0.3-14.2l-0.1-0.4c-1.5-5.6-2.7-11.3-3.8-17.1
			c-0.6-8.9-0.4-17.8,0.2-26.6c0.8,6.2,1.7,12.3,2.5,18.4c0.7,5,1.4,10,2.1,15c0.2,6,0,12.2-0.1,16.3c-0.3,10.2-0.7,18.1-0.7,18.2
			c-0.1,1.2,0.9,2.3,2.1,2.3h0.1c1.2,0,2.2-0.9,2.2-2.1c0-0.1,0.4-8.1,0.7-18.3c0.1-4.2,0.2-10.5,0.1-16.7v-0.2
			c-0.7-5-1.4-10.1-2.1-15.2c-1.9-13.2-3.7-26.5-5-39.9c0.1-0.7,0.1-1.4,0.2-2c2-19.1,4-38.8,1.7-58.4c0.2-2.5,0.3-4.9,0.3-7.3
			c0.5-2.5,1.1-5,1.8-7.5c0,9.9,0.7,19.7,1.8,29.4c-0.4,3.3-0.8,6.6-1.3,9.8c-0.2,1.2,0.6,2.4,1.8,2.6c0.1,0,0.3,0,0.4,0
			c0.2,0,0.4-0.1,0.6-0.1c0.1,4.4,0.3,8.8,0.6,13.1c-1.1,23.7,0.3,48.5,4.3,75.2c-0.5,2.9-1,5.8-1.7,8.7v0.1
			c-0.8,5.1-1.3,8.5-1.6,11.5c-0.4,3.7-0.4,6.7-0.2,9c0.1,1.1,1.1,2,2.2,2c0.1,0,0.2,0,0.2,0c1.2-0.1,2.1-1.2,2-2.5
			c-0.2-2-0.2-4.7,0.2-8.1c0.2-2.1,0.5-4.5,1-7.6c0.2,1,0.3,2,0.5,3c0.2,7-0.3,11.9-1.3,14.9c-0.3,0.8-0.1,1.6,0.5,2.2
			c-0.3,0.9-0.6,1.4-0.6,1.4c-0.5,1.1,0,2.4,1.1,2.9c0.3,0.1,0.6,0.2,0.9,0.2c0.9,0,1.7-0.5,2-1.3c0.1-0.2,2.2-5,4-12.2
			c0.2-0.8,0.4-1.6,0.6-2.5c0.5,2.7,0.9,5.1,1.2,7.1c-1.6,5.7-3.3,9.6-3.3,9.6c-0.5,1.1,0,2.4,1.1,2.9c0.3,0.1,0.6,0.2,0.9,0.2
			c0.9,0,1.7-0.5,2-1.3c0-0.1,0.5-1.2,1.2-3c0.4,0.4,0.9,0.6,1.5,0.6c0.1,0,0.3,0,0.4,0c0.7-0.1,1.3-0.6,1.6-1.2
			c0.3,0.1,0.6,0.2,0.9,0.2l0,0c1.2,0,2.2-1,2.2-2.2c0,0,0-2,0.1-5.3c0.6-0.6,0.9-1.5,0.6-2.4c0,0-0.2-0.7-0.6-1.9c0-1.2,0-2.6,0-4
			c0-3.4,0-7.3,0-11.4c0.2,0.7,0.4,1.3,0.5,2c0.2,1,0.4,2.1,0.7,3.1c-0.3,1.8-0.5,3.7-0.6,5.6c-0.6,13.2,3.2,24.2,3.3,24.7
			c0.3,0.9,1.2,1.5,2.1,1.5c0.2,0,0.4,0,0.5-0.1c0.3,0.9,1.1,1.5,2.1,1.5c0.1,0,0.3,0,0.4,0c1.2-0.2,2-1.4,1.8-2.6
			c0,0-0.8-4-1.8-10.1c0.2,0.1,0.4,0.1,0.7,0.1c0.2,0,0.4,0,0.6-0.1c0.1,0,0.1,0.1,0.2,0.1c0.3,0.1,0.6,0.2,0.9,0.2
			c0.4,0,0.8-0.1,1.1-0.3c0.4,0.4,1,0.7,1.6,0.7l0,0c1.2,0,2.2-1,2.2-2.2c0,0,0-3.1,0.1-8c0.3-1.1,0.7-2.4,1-3.7
			c1.1-4.2,1.8-8.4,2.2-12.4v-0.2v-0.2c-1.2-12.4-3.2-24.7-5.2-36.7c0.5-3.3,1.1-6.6,1.5-9.9c0.7,5.3,1.4,10.6,2.2,15.9
			c1.1,7.6,2.1,15.4,3,23.1c0,6.3-0.3,12.6-1.1,18.8v0.2c-0.2,4,0,8.1,0.6,12.4c0.1,0.4,0.1,0.7,0.2,1.1c-0.3,5.3-0.5,8.8-0.5,8.8
			c-0.1,1.2,0.8,2.3,2.1,2.4c0.1,0,0.1,0,0.2,0c0.3,0,0.6-0.1,0.8-0.2c0,0.1,0.1,0.2,0.1,0.2c0.3,0.9,1.2,1.5,2.1,1.5
			c0.2,0,0.5,0,0.7-0.1c1.2-0.4,1.8-1.7,1.4-2.8c0,0-1.4-4.1-2.3-10c0.2-4,0.4-8.8,0.6-14.1c0-1,0.1-2,0.1-2.9c0.8,2,1.6,4,2.2,5.8
			c0.2,0.4,0.3,0.8,0.5,1.3c0.3,13.3,0,23.9-0.1,24c0,0.5,0.2,1,0.4,1.4c-0.7,0.8-1.6,1.3-2.7,1.6c-7.8,1.9-13.8,3.3-19,10
			c-5.2,6.7-16.7,15.8-31.6,23.2c-12.7,6.4-17.3,14.9-26.3,21.4l-480.3-1.3c108.9,224.8,340,379,606.4,376.9
			c262.8-2,488.9-155.5,596.3-377H570.2z M757.9,962.7c-0.3-5-0.3-10.1,0-15.2v0.1c0,1.5,0,3,0,4.5c-0.1,3.6,0,7.1,0.2,10.7
			C758.1,962.7,758,962.7,757.9,962.7z M759.1,916c0.2-6.8,0.5-13.7,0.7-20.6c0.4-0.2,0.7-0.4,1.1-0.6
			C760.1,901.7,759.6,908.8,759.1,916z M763.5,853.3c0.1,4.2,0.2,9.3,0.1,14.5c-0.6,5.6-1.2,11.3-1.8,17c-0.6,0.1-1.2,0.3-1.8,0.4
			c0.1-7.3,0.2-14.6,0.1-21.8v-0.2c0.6-2.3,1.3-4.7,2.1-7c0.4-1.2,0.9-2.4,1.3-3.6C763.5,852.8,763.5,853.1,763.5,853.3z M763,840.5
			c0,0.5,0,1,0.1,1.6c-1.7,3.6-3.3,7.4-4.6,11.2c-0.2-1.2-0.4-2.5-0.7-3.8c-0.4-2.3-0.9-4.6-1.4-6.9
			C758.7,841.8,761,841.2,763,840.5z M742.5,930.1v-0.7c-0.3-7.4-0.6-15-0.8-22.5c0.2-3.1,0.4-6.2,0.5-9.5l0,0
			c1.1,4.9,2.2,9.8,3.1,14.7C744.2,918.1,743.2,924.2,742.5,930.1z M747.8,982.5c-0.1-0.5-0.1-1-0.2-1.4c-0.7-5.6-1.4-11.3-1.9-17
			c1.2,0.4,2.6,0.7,4,1C749.3,970.9,748.5,976.7,747.8,982.5z M747.5,900.8c-0.2-0.9-0.4-1.8-0.6-2.6c0.4,0,0.8,0,1.1,0.1
			C747.9,899,747.7,899.9,747.5,900.8z M748.2,930.2c-0.4,0.1-0.8,0.2-1.2,0.2c0.2-1.5,0.4-3,0.6-4.5
			C747.8,927.3,748,928.7,748.2,930.2z M750.1,958.2c-0.1-0.2-0.3-0.5-0.3-0.7c-1-4.2-5.1-11-0.4-16.7c0.2,2.3,0.4,4.5,0.5,6.7
			C750.2,951.1,750.2,954.6,750.1,958.2z M753.7,939.5c-0.1-0.6-0.1-1.2-0.2-1.8c0.1,0,0.2-0.1,0.2-0.1
			C753.8,938.3,753.8,938.9,753.7,939.5z M754.2,927.6l-0.1,1.8c-0.5,0-1,0.1-1.5,0.1c-0.8-5.8-1.7-11.6-2.8-17.5
			c0.9-4.8,1.8-9.6,2.9-14.4c0.1,0,0.3-0.1,0.4-0.1c0.2,7.2,0.8,14.2,1.4,20.8C754.4,921.5,754.3,924.6,754.2,927.6z M752.7,846.8
			c0.2,1.2,0.5,2.3,0.7,3.5c0.9,4.8,1.6,8.8,2.1,12.7c-0.3,1-0.5,2.1-0.8,3.1c-0.2-0.5-0.3-1-0.5-1.5c-0.8-4.4-2-8.8-3.7-13.2
			C751.2,849.8,751.9,848.3,752.7,846.8z M748.7,844.8c-0.2,0.4-0.4,0.7-0.6,1.1c-0.1-0.3-0.2-0.5-0.4-0.8
			C748.1,845,748.4,844.9,748.7,844.8z M748,857.8c0.8,2.6,1.4,5.2,1.9,7.7l0.1,0.4c2.4,6.6,2.7,12,1.2,19.6c-0.3,1-0.5,2-0.8,3
			h-0.1c-1.1,0.3-3.4-0.5-6.1-1.9c-1.4-7.3-1-12.6,1.3-19l0.1-0.4C746.1,864.1,746.9,860.9,748,857.8z M741.1,865.4
			c0.5-4,1.2-8.3,2.2-13.4c0.3-1.4,0.6-2.8,0.8-4.2c0.5,1.1,1,2.3,1.5,3.4c-0.2,0.5-0.4,1-0.6,1.6c-1.7,4.5-3,9-3.8,13.5v0.1
			c0-0.1,0-0.1,0-0.2V866C741.1,865.8,741.1,865.6,741.1,865.4z M651.3,1007.1c-0.2-2.2-0.4-4.3-0.6-6.5c0.4-0.3,0.9-0.5,1.3-0.8
			C651.8,1002.3,651.6,1004.7,651.3,1007.1z M660.7,914.3c0.2,0,0.4,0.1,0.5,0.1c0.7,0,1.4-0.4,1.9-1c-0.8,3.7-1.6,7.5-2.3,11.3
			c-1.3-7.1-3.2-14.2-5-21.1c-0.1-0.5-0.2-0.9-0.4-1.4c0.7-5.6,1.3-11.2,1.9-16.8c0.4-3.9,0.9-7.8,1.3-11.8c0.4,0.5,0.8,0.9,1.3,1.3
			c0,0.3,0,0.6,0.1,0.8c1.1,12.3,2.1,23.9-0.9,35.8C658.8,912.8,659.5,914,660.7,914.3z M668.7,937.3c-0.1,5.4-0.2,10.8-0.2,16.2
			c-0.1,3.4-0.1,6.7,0.2,10c0,0.2,0,0.5,0,0.7c-3.1,1.1-5.5,2.9-7.7,5c0-5.2,0.2-10.3,0.5-15.3c0.7-3.9,1.1-7.8,1.1-12
			c0.1-0.5,0.1-1,0.2-1.6c1.3-9.6,3.3-18.9,5.4-28.7c0.6-2.8,1.2-5.7,1.8-8.6C669.4,913.9,669,925.3,668.7,937.3z M664.6,878
			c1.3,0.5,2.6,0.8,4.1,0.9c-0.3,3.8-0.6,7.6-1,11.4c-0.9,5.1-1.9,10.2-3,15.3C666,896.2,665.4,887,664.6,878z M674.8,1042.7
			c-1.4-14.9-2.6-30.7-2.8-46.7c0-3.1,0-6.1,0-9.1c0.4,1.8,0.7,3.5,1.1,5.2c0.9,4.6,1.9,9.4,2.7,14v0.2
			C679,1018.2,678.6,1030.6,674.8,1042.7z M677.1,962.2c-1.5,0.4-2.8,0.6-4,0.9c0.5-6.8,1.2-13.5,2.1-20c0.8-4.3,1.6-8.7,2.4-13
			l0.6-3.3c0.8-4.5,1.7-9,2.5-13.6c-0.4,4.4-0.9,8.9-1.6,13.4c-0.6,4.3-1.4,8.5-2.3,12.6v0.2C675.9,946.9,676.2,954.6,677.1,962.2z
			 M680.2,1005.3c-0.8-4.7-1.8-9.5-2.7-14.1c-0.6-3-1.2-6.1-1.8-9.1c0.9-0.4,2.5-1.1,4.4-1.9c0.6,2.9,1.2,5.9,1.8,8.8
			c1.1,5.4,2.2,10.7,3.2,16c-0.1,0.7-0.2,1.3-0.4,2c-0.8,4.1-1.6,8.2-2.4,12.4C682.1,1014.7,681.4,1009.9,680.2,1005.3z
			 M683.2,1052.4c-0.9-2.7-1.4-5.7-1.3-8.8c0-3.8,0.7-7.6,2.1-11l0.1-0.3c1-4.5,2-9,2.9-13.5C688,1030.2,687.4,1041.4,683.2,1052.4z
			 M687.2,992.5c-0.3-1.5-0.6-2.9-0.9-4.4c-0.7-3.2-1.3-6.4-2-9.6c1.3-0.5,2.7-1.1,4.2-1.7c0.1,1.4,0.3,2.8,0.4,4.2
			C688.4,984.9,687.8,988.7,687.2,992.5z M687.4,928.3c-0.5,4.5-0.9,9.4-1.2,14.3v0.1v0.1c0.1,5.5,0.5,11.1,1,16.6
			c-2,0.6-3.9,1.2-5.7,1.6c-0.8-7.1-1.1-14.2-0.3-21.2c0.9-4.1,1.7-8.4,2.3-12.7c1.8-11.6,2.5-23.1,3-34.3
			c0.8,6.2,1.3,12.4,1.1,18.5c0,1,0.6,1.9,1.5,2.2C688.5,918.5,687.9,923.4,687.4,928.3z M689.5,883.6c-0.3-1.8-0.6-3.5-0.9-5.3
			c-0.2-1.4-0.5-2.8-0.7-4.2c1.7-0.6,3.5-1.1,5.1-1.6c-0.4,5.6-0.9,11.2-1.5,16.7C690.9,887.3,690.2,885.4,689.5,883.6z M693,934.9
			c-0.3,7.4-0.8,14.7-1.4,22.1c-0.2-3.4-0.3-6.9-0.3-10.3c0.3-5.1,0.8-10.1,1.3-14.7c0.2-1.5,0.4-3,0.5-4.5
			C693.1,929.8,693.1,932.3,693,934.9z M693.9,980c-0.1-0.5-0.1-1.1-0.2-1.6c0.2-1.3,0.3-2.6,0.5-3.9c0.1,0,0.2-0.1,0.3-0.1
			c0,4,0,8.1,0.2,12.1C694.4,984.3,694.2,982.2,693.9,980z M702.9,1043c-0.4-6.8-1-13.6-1.5-20.3c-1.2-15.9-2.5-32.1-2.4-48.3
			c0.7,3.8,1.5,7.6,2.3,11.3C705.4,1005.7,709.4,1024.8,702.9,1043z M705.4,878.5c0-2.9,0-5.9-0.1-8.9c0.4,0,0.7,0,1,0
			c0.7,0.9,1.4,1.9,2,2.8c0,0.5,0,1-0.1,1.4c-0.3,4.7-0.7,9.7-1.4,14.8v0.2c-0.1,4-0.5,8-1.1,11.9c0-2.9-0.1-5.8-0.5-8.7
			C705.4,888,705.4,883.5,705.4,878.5z M705.3,923.2l0.8-3.3c0.1-0.3,0.2-0.6,0.2-0.9l-0.1,0.6c-0.4,4.6-0.9,9.2-1.3,13.8
			c-0.2,1.8-0.3,3.6-0.4,5.4c0,0.2,0,0.3-0.1,0.5c-1.5,5.1-2.1,10.1-1.9,15.1c-0.7,0.2-1.3,0.5-2,0.7c-0.2-2.4-0.3-4.8-0.2-7.2
			c0.7-6,1.7-12.1,3.1-18.1C704.2,927.6,704.8,925.4,705.3,923.2z M708.8,1000.9c-0.9-5.4-2-10.8-3.2-16.1c-1-4.6-1.9-9.2-2.8-13.8
			c1-0.4,1.9-0.8,2.9-1.2c0.4,1.6,0.8,3.2,1.1,4.8c0.8,5.2,1.7,10.5,2.6,15.8c0.1,0.9,0.2,1.8,0.3,2.7
			C709.4,995.8,709.1,998.3,708.8,1000.9z M712.4,975.1c-0.1,0.8-0.2,1.7-0.4,2.5c-0.2-1.2-0.5-2.5-0.7-3.7c-0.3-2-0.6-4.1-0.9-6.1
			c0.8-0.3,1.6-0.7,2.3-1c0.1,1.1,0.2,2.3,0.4,3.4C712.9,971.9,712.6,973.5,712.4,975.1z M725.9,1031.7c0.2-2.5,0.3-5,0.3-7.4
			c0.4,0.3,0.8,0.5,1.3,0.5C727.1,1027.1,726.6,1029.4,725.9,1031.7z M736.3,917.6c-0.5-7.7-1.1-15.3-1.9-22.8
			c0.8,0.4,1.6,0.7,2.5,1c0.1,3.7,0.2,7.4,0.3,11C736.9,910.5,736.6,914.1,736.3,917.6z M738,974.9c-0.3-3.5-0.5-7.1-0.7-10.7
			c0.1-1,0.1-2,0.2-3c0.5,0,1,0.1,1.5,0.2C738.7,965.9,738.4,970.4,738,974.9z M739.7,847.4c-0.3,1.3-0.5,2.6-0.8,3.9
			c-0.3,1.4-0.5,2.7-0.7,4c-0.2-0.7-0.5-1.5-0.7-2.2c-0.5-1.5-1.1-3-1.6-4.4C737,848.1,738.3,847.8,739.7,847.4z M731.9,855.1
			c0-1.4,0.1-2.7,0.2-4c0.4,1.1,0.8,2.2,1.2,3.3c1.4,4.1,2.5,8.1,3.4,12.1c-0.1,4.9-0.1,9.9,0,14.8c-1.3-1.1-2.6-2.4-3.7-3.7
			c-0.3-2.1-0.6-4.3-0.9-6.5c-0.1-0.5-0.1-1.1-0.2-1.6C731.7,864.4,731.8,859.3,731.9,855.1z M731.5,932.7v-0.2
			c0.3-2.5,0.5-4.9,0.8-7c0.2,3.4,0.3,6.8,0.4,10.1c-0.6,0-1.2-0.1-1.7-0.4C731.2,934.3,731.3,933.5,731.5,932.7z M732.7,961.2
			c0,1,0.1,2,0.1,2.9c-0.3,4.4-0.9,8.8-1.5,13.2c-0.5-5.2-1.1-10.5-1.4-15.9C730.8,961.3,731.8,961.2,732.7,961.2z M723.2,888.3
			c0.1,0.1,0.2,0.1,0.3,0.2c0.1,0,0.1,0.1,0.2,0.1c-0.2,1-0.4,2.1-0.6,3.1C723.1,890.6,723.2,889.5,723.2,888.3z M722.4,929.6
			c0.6-4.7,1-9,1.2-13.1c0-0.6,0-1.2,0-1.9c0.9-4.6,1.5-8.7,2-12.5c0.4-2.6,1-5.3,1.5-7.9c0.2-1,0.4-2.1,0.7-3.1
			c0.6,0.3,1.1,0.7,1.7,1c0.2,9.7-0.3,18.7-1,26.4c-0.3,3.9-0.8,8.1-1.4,13.3c-0.6,2.7-1,5.3-1.3,8c-0.6,1.4-1.2,2.8-1.7,4.1
			c-0.3,0.7-1.5,1.6-3.3,2.6C721.5,940.9,722,935.3,722.4,929.6z M718.5,964.3c0.2-0.1,0.3-0.2,0.4-0.3c0.9-0.6,3.5-1.4,6.6-2
			c0.4,6.1,1,12.2,1.6,18.1c0.5,4.6,0.9,9.1,1.3,13.6c-1.1,6.1-2.1,12.3-2.6,18.6c-0.9-13-3.4-26.1-6-39.6c-0.5-2.6-1-5.2-1.5-7.8
			C718.4,964.7,718.5,964.5,718.5,964.3z M718.4,1020.6c0-0.3,0-0.6-0.1-0.9c-0.9-9.3-2.4-18.3-4-27c0.3-2.2,0.6-4.4,0.9-6.6
			c0.1,0.4,0.1,0.8,0.2,1.2c0.5,3.1,0.9,6.1,1.4,9.2C718.3,1004.3,718.6,1012.6,718.4,1020.6z M718.1,898
			c-0.6,6.5-1.5,13.4-2.5,20.8c-0.4,2.8-0.8,5.7-1.3,8.6l-0.8,5.2c-1.2,6.1-1.6,12.2-1.7,18.2c-0.9,0.4-1.9,0.8-2.9,1.1
			c-0.2-4.2-0.1-8.5,0.1-12.8c0.4-3.2,0.8-6.4,1.2-9.6l0.3-2.5c1.6-12.3,3.1-25.4,3-38.8c0.1-1.9,0.2-3.9,0.2-5.8
			C715.8,887.3,717.2,892.5,718.1,898z M712.5,708.5c0.1,1.5,0.2,3,0.3,4.3c0.1,2.4,0.2,4.8,0.3,7.3c0.1,2.9,0.2,5.9,0.4,8.9
			c2.8,37.6,3.5,66.2,2.4,92.8l-0.1,1.4c-0.2,3.9-0.3,7.9-0.3,11.9v0.4c0.6,3.2,1.1,6.5,1.5,9.8c-0.9,1.1-2.2,2.5-3.9,4.1
			c-0.1-7.5-0.1-15.1,0.1-22.8c0.2-4.5,0.4-9,0.5-13.4c0.1-8.1,0-16.3-0.3-24.4c0-21.6-1.6-43.8-4.7-66.2c-0.1-0.4-0.1-0.7-0.2-1.1
			c-0.1-1.4-0.1-2.8-0.2-4.2c-0.1-2.4-0.3-5-0.6-7.7C709.5,709.1,711.1,708.8,712.5,708.5z M708.3,853.5c-1,0.8-2.1,1.6-3.2,2.4
			c-0.1-6-0.2-12.1-0.2-18.1c0.1-2,0.3-4.1,0.4-6.2C706.9,838.7,707.8,845.9,708.3,853.5z M703.1,716.6c0.4,1.7,0.7,3.5,1,5.2
			c0,0.2,0,0.3,0,0.5c0.2,3.6,0.3,7.3,0.7,11.1c0,0.4,0.1,0.7,0.1,1.1c-0.3-1.6-0.5-3.2-0.8-4.8c-0.2-1.6-0.4-3.2-0.6-4.8
			c-0.3-2-0.5-4-0.8-6C702.9,718.2,703,717.4,703.1,716.6z M701.3,749.4c2.7,24.1,2.8,48.9,0.3,73.9l-0.2,1.9
			c-0.2,1.9-0.4,3.9-0.5,5.9c-0.2-3.1-0.3-6.1-0.3-8.8C700.1,798.3,700.5,774.5,701.3,749.4z M699.7,858.6c0.1,0.2,0.1,0.4,0.2,0.5
			c-0.1,0-0.1,0.1-0.2,0.1C699.7,859,699.7,858.8,699.7,858.6z M699.5,711.2c-0.1,0.4-0.1,0.8-0.2,1.2c-0.1-0.4-0.2-0.7-0.3-1.1
			C699.1,711.3,699.3,711.2,699.5,711.2z M699.1,870.8c0.6-0.2,1.2-0.3,1.8-0.4c0,2.7,0.1,5.5,0.1,8.2c0,5,0,9.5-0.1,13.6v0.1v0.1
			c1.3,11.8-0.4,23.4-2.2,34.2l-0.6,3.4c-0.2,1.2-0.4,2.3-0.6,3.5c0.1-4.3,0.1-8.5-0.1-12.5c-0.3-5.2-0.8-10.2-1.7-15.1
			C697.1,894.3,698.3,882.6,699.1,870.8z M694.6,712.4c1.3,3.8,2.3,8,3,12.8c-0.2,7-0.5,13.9-0.7,20.6c-0.7-6.2-1.6-12.3-2.5-18.5
			c-0.3-3.5-0.7-6.8-1.1-10.3c-0.2-1.4-0.4-2.8-0.6-4.1C693.3,712.8,694,712.6,694.6,712.4z M683.4,718.7c0.5-1.2,1.8-2.3,3.5-3.3
			c0.1,1.2,0.3,2.5,0.4,3.9c0.2,2.2,0.4,4.4,0.5,6.7c0.1,1.3,0.2,2.7,0.3,4v0.3c5.6,28.4,7.9,57,6.7,85.2c-0.2,4.6-0.5,9.3-0.8,14.2
			v0.1v0.1c0.5,10.7,0.3,21.4-0.3,32.2c-2.1,0.8-4.2,1.4-6.4,1.8c0.3-7.4,0.6-15,1.3-22.5c0.3-3.5,0.6-7.1,1-10.6
			c0.2-1.8,0.4-3.6,0.5-5.3c3.7-36.4,2.1-68.4-4.9-97.5c0-0.2,0-0.4,0-0.6c0-0.4-0.2-0.7-0.4-1c-0.6-2.3-1.2-4.6-1.8-6.8
			C683.2,719.2,683.3,719,683.4,718.7z M687.5,783.6c0,2.2,0.1,4.3,0,6.5c0,0,0,0,0-0.1C687.5,788,687.5,785.8,687.5,783.6z
			 M680.4,727.1c0.1,0.5,0.2,1,0.4,1.5c0.2,2.9,0.4,5.7,0.6,8.5c-0.3-1.7-0.6-3.5-1-5.2C680.4,730.3,680.4,728.7,680.4,727.1z
			 M678.9,846.9c0.1-1.5,0.1-3.1,0.2-4.6c0-0.4,0.1-0.8,0.1-1.2c0.6-5.3,1.1-10.2,1.5-14.9c1.5-16.7,2-32.7,1.5-48.3
			c0.3,4.2,0.6,8.3,0.8,12.4c0,12.1-0.3,23.9-0.9,35.6l-0.2,3.9c-0.2,3.4-0.3,6.8-0.4,10.2c-1.1,8.1-0.7,16.2,0.4,24.2
			c-0.7-0.1-1.4-0.1-2.1-0.3c-0.4-0.7-0.8-1.3-1.1-2.1C678.7,856.8,678.7,851.8,678.9,846.9z M674.1,909.6L674.1,909.6
			c1.2,0,2.1-0.8,2.3-1.9c1.7-10.1,2.1-20.5,2.2-30.8c0.9-0.3,1.9-0.6,2.8-0.9c0.1,0.1,0.1,0.2,0.2,0.4c-1.7,16.4-4.7,32.7-7.8,49.5
			l-0.4,2C673.6,921.7,673.8,915.6,674.1,909.6z M666.3,726.3c3.8,20.1,6.3,38.5,7.4,55.9c-0.9,14.7-1.7,29.9-1.9,44.8
			c-0.1,6,0,10.8,0.2,15.2c-0.5,5.6-1,11.1-1.5,16.6c-0.3-0.3-0.7-0.7-1-1c-2.3-2.7-4.2-5.3-5.9-8c0.2-2.4,0.4-4.9,0.8-7.3
			c0.4-4.2,1-8.7,1.7-14.6c0.3-2.3,0.6-4.6,0.9-6.9c4.3-32.3,8.3-62.7-5.3-93.8C663.2,726.9,664.8,726.6,666.3,726.3z M657.4,728.6
			c11.9,26.6,10.1,53.3,6.6,81.1c-0.3-27.2-4-54.1-7.9-80.5C656.5,728.9,657,728.7,657.4,728.6z M653.2,740.4
			c4.5,31.1,8.1,63,5.5,94.9c-0.1,1.7-0.3,3.4-0.5,5.2c-0.6-1.1-1.2-2.2-1.7-3.3c0.4-5.3,0.6-10.5,0.7-15.7
			c0.9-22.5-0.4-45.4-3.9-68.4C653.3,748.8,653.3,744.6,653.2,740.4z M653.1,864c0.5,1.3,1.1,2.6,1.7,3.8
			c-0.7,5.8-1.3,11.5-1.9,17.2c-0.2,1.7-0.4,3.3-0.5,5c-0.5-2-0.9-4-1.3-6c0.3-5.9,0.7-11.9,1.4-18.1c0.2-0.8,0.3-1.6,0.5-2.3
			C653,863.8,653.1,863.9,653.1,864z M651.8,799c0-0.9,0.1-1.8,0.1-2.7c0.6,8.4,0.8,16.7,0.7,25.1c-0.1,2.8-0.3,5.6-0.4,8.4
			c-0.4-0.7-0.9-1.3-1.4-2C651.5,817.8,651.9,808.2,651.8,799z M650.4,900.7c0.2,0.6,0.3,1.3,0.5,1.9c-0.4,3.2-0.8,6.4-1.2,9.6
			C650,908.3,650.2,904.5,650.4,900.7z M649.6,950.4c0.2-5.5,0.5-10.5,0.9-15.3c1.3-6.9,2.4-14,3.3-21c2.3,9.1,4.1,17.9,4.1,26.9
			c0,0.1,0,0.3,0,0.4c-0.5,3.7-0.8,7.3-1,10.7c0,0.4,0,0.8-0.1,1.2c-0.1,0.6-0.2,1.3-0.4,1.9l-0.1,0.5c-0.1,5.8-0.5,11.9-1.3,19.3
			c-1.7,1.6-3.5,3.2-5.8,4.5c-0.1-3.8-0.1-7.7,0-11.5C649.4,962,649.5,956.1,649.6,950.4z M646.3,772.4c0.7,8.6,1.1,17.4,1.1,26.6
			c-0.1,1.6-0.1,3.1-0.2,4.7c0-10.1-0.6-20.2-1.4-30.3C645.9,773,646.1,772.7,646.3,772.4z M645.8,917.1c0.3,0.3,0.7,0.4,1.2,0.5
			c0.1,0,0.1,0,0.2,0c0.8,0,1.5-0.5,1.9-1.1c-0.7,4.8-1.4,9.5-2.3,14.3c-0.4-3.1-0.9-6.1-1.4-9.1
			C645.5,920.1,645.7,918.6,645.8,917.1z M612.8,976.7c-0.6-0.1-1.2,0-1.8,0.1c-0.3-3.9-0.7-7.8-1.2-11.6c0-0.1,0-0.3,0-0.4
			c0.1-1.3,0.3-2.5,0.4-3.8c1.3-9.9,2-19.6,2.2-29c0.2,6.1,0.6,12.5,1.1,19.5C612.8,959.9,612.7,968.2,612.8,976.7z M621.4,1025.3
			c0-7.2,0-14.4-0.1-21.8c0.4,13.1,1.5,26.2,3.2,39.4C623.3,1037.1,622.3,1031.2,621.4,1025.3z M625.6,981.4
			c0.2-9.6,0.8-19.1,1.8-28.6c0.6-8.5,1.5-17.2,3-27.1c0,2.2,0,4.4,0,6.6c0.1,7.4,0.3,15.2,0.8,23.1c0.2,9,1.2,18.2,2.4,27.2
			C631,982.4,628.2,982,625.6,981.4z M634.9,934.4c0-0.7,0-1.5,0-2.2c-0.1-8.2,0.1-16.1,0.5-23.6c0-0.9,0.1-1.9,0.2-2.8
			c0.5,3,0.9,6,1.3,9C636,921.4,635.4,927.9,634.9,934.4z M636.1,1003.4c0.1,0,0.2,0,0.3,0c0,0.4,0.1,0.8,0.1,1.1
			c-0.1,0.3-0.2,0.6-0.2,0.9c-0.1,0.3-0.2,0.7-0.3,1C636,1005.4,636,1004.4,636.1,1003.4z M637,1047c-0.1-4.6-0.3-9.2-0.5-13.7
			c-0.1-2.7-0.2-5.5-0.3-8.3c0.5-2.5,1-4.9,1.6-7.4C638.5,1027.5,638.5,1037.3,637,1047z M642.2,908c0-0.1-0.1-0.2-0.1-0.3
			c0.3-2.7,0.7-5.4,1-8.1C642.9,902.5,642.6,905.3,642.2,908z M641.7,779.4c1,13.4,1.3,26.9,0.4,40.4c-0.3-0.2-0.6-0.3-0.9-0.5
			c0.4-12.2,0.2-24.8-0.6-38.2C640.9,780.6,641.3,780,641.7,779.4z M638.3,875.2c0.3-3.3,0.6-6.6,0.9-9.9l0.6-6.6
			c0.4-1.4,0.8-2.9,1.2-4.3c1,0.5,2,1,3,1.4c-0.2,1.8-0.4,3.6-0.6,5.4c-1,10.8-2.5,22-3.9,32.8c-0.1,1-0.3,2-0.4,3.1
			c-0.7-2.4-1.5-4.7-2.2-7C637.3,885,637.8,880,638.3,875.2z M634.2,796c1-1.4,1.8-2.9,2.5-4.3c0.3,8.9,0.4,17.5,0.1,25.8
			c-0.9-0.3-1.9-0.5-2.9-0.7C634.2,809.9,634.2,802.9,634.2,796z M632,846.5c0.2,0.3,0.5,0.5,0.7,0.8c0.6,0.7,1.1,1.4,1.7,2
			c-0.3,4.1-0.5,8.1-0.7,12.2v0.9c-0.2,4.5-0.4,9-0.6,13.5c0,0.3-0.1,0.6-0.1,0.8c-0.2-1.5-0.4-3.1-0.6-4.8
			c-0.2-4.9-0.4-10.1-0.5-15.4C631.9,853,631.9,849.6,632,846.5z M629.4,904.7c-1.2,6.3-2.2,12.2-3,17.7c-1.7,11.2-2.8,20.7-3.4,30
			c-0.9,9.2-1.5,18.5-1.7,27.8c-0.3-0.1-0.6-0.2-0.9-0.3c-0.5-8.8-1.3-17.8-2.4-26.8c0-0.6-0.1-1.1-0.1-1.7c0-0.8,0.1-1.6,0.1-2.3
			l0.1-3.1c0.1-6.3,0.3-12.3,0.7-19.3c0.6-9.2,1.7-18.7,3.4-29.7c0.8-5.4,1.8-11.3,3-17.5c0.7-3,1.2-6.2,1.8-9.3
			c0.6,3.7,1.3,7.2,2.1,10.5c0.1,0.3,0.2,0.6,0.2,0.8c0.1,0.6,0.2,1.3,0.3,1.9c0.6,2.9,1.2,5.4,1.9,7.6
			C630.8,896,630.1,900.5,629.4,904.7z M629.6,719.4c-0.1,0.3-0.2,0.6-0.2,0.9c-0.1,1.4,0,2.8,0.2,4.1c-0.6,3.7-1,7.5-1.2,11.2
			c-0.1-1.1-0.1-2.1-0.2-3.2l-0.3-5.1c-0.1-4.4-0.6-8.6-1.2-12.8C627.8,716.1,628.8,717.7,629.6,719.4z M625.4,841.9
			c0.1,0,0.1,0,0.2,0.1c0,1.8,0.1,3.6,0.1,5.4c-0.2,1.2-0.3,2.4-0.5,3.6c-0.6,4.9-1.2,9.4-2,13.8c-0.8,4.7-1.6,9.4-2.6,13.9
			c-1.2,6.3-2.2,12.2-3,17.7c-0.2,1.2-0.4,2.4-0.5,3.6c0.4-5.7,0.9-11.1,1.6-16.4c0.5-3.5,1-6.7,1.6-9.7c0.9-4.5,1.7-9.1,2.4-13.8
			c0.7-4.4,1.3-9,1.9-13.8C624.9,844.9,625.2,843.4,625.4,841.9z M624.6,804.3c-0.1,3.4-0.2,6.8-0.4,10.2
			C614.3,811.4,617.9,808.1,624.6,804.3z M608.8,690.5c2,3.8,4.6,8.4,7.9,12.8c0.3,2.6,0.5,5.3,0.7,7.9c0.3,3.8,0.6,7.4,1.1,10.8
			c0.3,4,0.5,8.2,0.8,12.7v0.2c1.4,9.9,2.7,20.1,3.6,30.5c-2.1,1.8-4.7,4.1-6.7,6.7c-0.2-4.7-0.5-9.4-0.9-14.1
			c-0.3-5.4-0.8-10.7-1.2-15.8c-0.5-5.2-1-10.5-1.6-15.6c-0.1-1.6-0.2-3.3-0.3-5c-0.1-2.2-0.1-4.4-0.2-6.5
			C611.4,706.3,610.3,698.9,608.8,690.5z M609.9,884c0.3-6,0.7-11.2,1.2-15.9c0.6-4.5,1.2-9.1,1.6-13.7c0.5-4.5,0.9-9.1,1.2-13.7
			c0-0.1,0-0.2,0-0.3c2.3-0.1,4.8,0,7.2,0.4c-0.3,1.6-0.6,3.3-0.9,4.9v0.2c-0.6,4.8-1.2,9.4-1.9,13.7c-0.7,4.6-1.5,9.2-2.4,13.6
			c-0.6,3.1-1.1,6.3-1.6,9.9c-1.5,11-2.3,22.6-2.3,35.4c-0.3-7-0.9-13.7-1.9-20.1c-0.2-1.2-0.4-2.5-0.6-3.7
			C609.6,890.9,609.7,887.4,609.9,884z M601.1,984.2c-1.1,1.3-2.2,2.7-3.3,4.2c0-11.7-0.1-22.1-0.3-31.7c0.3,2.8,0.7,5.6,1.1,8.5
			c1.2,5.9,2.2,11.8,2.8,17.8C601.3,983.4,601.2,983.8,601.1,984.2z M604.2,971.1c-0.4-2.2-0.8-4.4-1.2-6.6
			c-1.4-10.6-2.4-20.2-3.3-29.5c-1.1-12-1.8-23.6-2.1-34.4c-0.1-5.3-0.2-10.6-0.1-15.5c0.3-4.2,0.6-8.5,1-13.2
			c1.1,3.7,2.4,7.4,3.8,11.1c-0.5,5.1-0.9,10.3-1.1,15.6c-0.4,10.3-0.4,20.8,0.2,31.2c0.4,8,1.2,16.2,2.3,25
			c0.6,3.3,1.1,6.6,1.5,9.9C604.9,967,604.6,969,604.2,971.1z M602.6,841c1.5,0.1,3.7-0.2,6.2-0.4c-1.3,11.2-2.9,22.4-5,33.4
			c-1.6-5.1-3-10.2-4.1-15.3c0.1-1.5,0.3-3.1,0.5-4.7c0.4-4.3,0.9-8.6,1.4-12.8C601.8,841,602.2,841,602.6,841z M601.4,728.5
			c0,0.2,0,0.5,0,0.7c0-0.1,0-0.1,0-0.2C601.4,728.9,601.4,728.7,601.4,728.5z M601.1,718.6c-0.5-5.5-1.5-10.9-2.8-16.2
			c0-1.2-0.1-2.4-0.1-3.6C599.8,705.3,600.8,711.9,601.1,718.6z M595.7,747c0-2.8,0-5.6-0.1-8.4c0.1-1.8,0.2-3.6,0.3-5.3
			c0.1,1.8,0.2,3.6,0.2,5.5l0.1,1.9v0.2c1.2,9.3,2,18.8,2.4,28.4c0.3,7.3,0.4,14.9,0.3,22.4c-1.1,0.4-2.1,0.9-3.1,1.3
			c-0.2,0.1-0.5,0.2-0.7,0.4C596,778,596.3,762.5,595.7,747z M594.1,919.8c0.3,4.8,0.7,9.7,1.1,14.7c-0.1-0.6-0.2-1.3-0.2-1.9
			c-0.4-3-0.7-6.2-1.1-9.7C594,921.9,594,920.9,594.1,919.8z M593.8,685.4c0,0.1-0.1,0.1-0.1,0.2c-0.1-0.4-0.2-0.8-0.4-1.3
			C593.5,684.6,593.6,685,593.8,685.4z M593.8,710.3c-0.1,1.6-0.2,3.2-0.4,4.8c-0.1-0.6-0.1-1.2-0.2-1.8c-0.6-4.8-1.5-9.3-2.6-13.6
			C591.8,703.2,592.9,706.7,593.8,710.3z M553.3,851.9c-1.9-5.8-3.2-11.7-4.2-17.8c0.2-3.8,0.2-7.5,0.2-11.2
			c0.3-3.8,0.5-7.5,0.7-11.2c1.3,2.1,2.5,4.3,3.8,6.7c0.3,0.7,0.7,1.3,1,1.9C554.8,830.8,554.3,841.3,553.3,851.9z M555.1,886.4
			c-0.1,2.5-0.2,5.1-0.3,7.5c-0.3,0.2-0.5,0.4-0.8,0.5C554.3,891.9,554.7,889.2,555.1,886.4z M553.4,1057.1c0,0.1,0,0.3,0,0.4
			c-0.2-2.4-0.4-4.9-0.6-7.3c0.3-1,0.5-2,0.7-3C553.6,1050.6,553.5,1053.8,553.4,1057.1z M557.9,974.7c-0.2,0.6-0.3,1.3-0.5,1.9
			c-0.6-1.5-1.2-3.1-1.7-4.8c-3.9-13.4-1.6-24.6,2.7-33.1c0.1,0.8,0.1,1.6,0.2,2.4c0.7,6.5,1.5,13.4,2.4,20.7
			C560.2,966.1,559.1,970.4,557.9,974.7z M560.4,982.5c0.6-2.2,1.3-4.4,1.8-6.6c0.2-0.6,0.3-1.1,0.4-1.7c0.4,3.4,0.9,6.8,1.2,10.1
			c0.1,1,0.2,2,0.2,3C562.8,985.9,561.5,984.3,560.4,982.5z M561.7,887.1c0-1.8,0-3.7,0-5.5c0.1,0.2,0.1,0.3,0.2,0.5
			C561.8,883.8,561.8,885.4,561.7,887.1C561.7,887,561.7,887.1,561.7,887.1z M564.9,941c-0.4-3.4-0.7-6.7-1-9.9c0-0.3,0-0.5-0.1-0.8
			c0.3-0.3,0.5-0.6,0.8-0.9c0.1,0.8,0.2,1.6,0.3,2.3c0.2,1.6,0.4,3.1,0.6,4.5C565.3,937.8,565.1,939.4,564.9,941z M566.7,956.9
			c0.1-0.3,0.1-0.6,0.2-0.9c0,0.9,0,1.9,0.1,2.8C566.9,958.2,566.8,957.5,566.7,956.9z M582,958.1c-0.2-4.7-0.9-9.9-1.7-16l-0.2-1.3
			c-0.8-6.1-1.7-13.3-2.4-21.8c0.3-0.2,0.7-0.3,1-0.5c0.3,5,0.7,10,1.2,15.2c0.8,9.1,1.9,18.5,3.2,28.9c-0.3,1.2-0.7,2.4-1,3.5
			C582,963.5,582,960.8,582,958.1z M583,994.5c0,0.8,0,1.6,0,2.5c-0.2,0-0.5,0-0.7-0.1c0-1.5,0-3.1,0-4.6c0-2,0-4,0-6
			c0.2-1.7,0.5-3.4,0.9-5.1C583.1,985.2,583.1,989.5,583,994.5z M588.4,933.1c-0.1,0.8-0.2,1.6-0.3,2.4c-0.7-7.6-1.2-15.1-1.5-22.3
			c0.3-0.3,0.6-0.6,0.8-0.8C587.6,918.7,588,925.6,588.4,933.1z M583.7,678.9c0.3,0.4,0.7,0.7,1.2,1c0.5,2.6,1.2,5.1,1.9,7.6
			c-1.1-2.8-2.3-5.5-3.7-8.1C583.3,679.2,583.5,679,583.7,678.9z M584,704.8c0.3,1.3,0.5,2.7,0.7,4c0.8,4.9,1.2,9.8,1.2,14.6
			c0.1,2.7,0.1,5.5,0.2,8.4l0.1,2.6c-0.1-0.7-0.2-1.4-0.3-2.1c0.1-3.2,0.1-6.5-0.1-9.7c-0.7-12.6-3.8-24.4-7.2-35.9
			C581,692.6,582.8,698.7,584,704.8z M576.1,741.1c0.2-5.8,0.6-11.4,0.9-16.3c0.2-7.4,0-14.5-0.3-21.4c1.1,4.7,2.1,9.5,2.7,14.3
			c0.5,3.9,0.8,7.5,0.9,10.9v0.2c2.2,23.9,4.1,48.5,3.7,73.3c-2.1,1.3-3.9,1.9-5.3,0.7c-0.4-3.5-0.7-6.9-1.1-10.4
			c1-16.2,0.7-32.5-1.6-48.8C576.1,742.7,576.1,741.9,576.1,741.1z M573.9,934.1l0.1-3c0-1.1,0.1-2.3,0.1-3.4
			c0.5,5.2,1.1,9.9,1.6,13.8l0.2,1.3c0.8,6,1.5,11.1,1.7,15.5c0.1,8.4,0.2,17.5,0.3,27.7c-0.4,3.2-0.7,6.5-0.8,9.7
			c-0.6-0.2-1.2-0.4-1.8-0.6c-0.5-3.7-0.9-7.4-1.3-11.1c-0.9-8.9-1.3-17.1-1.3-24.9C573.5,949,573.7,941.2,573.9,934.1z
			 M573.1,793.9c-0.8-1-1.7-1.9-2.7-3c0.8-10.2,1.3-20.4,1.2-30.7c0.2,10.7,0.7,21.4,1.7,32.2C573.2,792.9,573.2,793.4,573.1,793.9z
			 M566.1,672.9c0.5,0.3,1.1,0.4,1.8,0.4c1.1,0,2.2-0.5,2.9-1.2c0.3,0,0.5-0.1,0.8-0.1c-0.1,1.7-0.1,3.4-0.1,5.2c0,0.2,0,0.4,0,0.5
			c-0.1,7,0.3,13.9,0.6,21c0.1,1.2,0.1,2.4,0.2,3.5c-1.8-10.1-4.2-19.9-6.6-28.8C565.8,673.2,565.9,673.1,566.1,672.9z M561.6,675.7
			c4.1,15.6,8.1,33.3,9.1,51.4l0.1,3.2c0.1,3.7,0.3,7.5,0.5,11.4v0.2c0.1,0.6,0.2,1.3,0.3,1.9c-0.1,4.5-0.2,9-0.1,13.5
			c-0.1-7-0.5-14.1-1.3-21.1c0-3.4,0-6.6-0.1-9.8c-0.5-18.9-3.9-35.4-10.3-50.2C560.5,676.2,561.1,676,561.6,675.7z M555.5,683.2
			c0.1-0.1,0.2-0.2,0.3-0.3c4.9,13.6,9.2,28.7,8.2,43.9v0.1v0.1c0.1,3.1,0.1,6.4,0.1,9.9c0.1,5.5,0.2,10.9,0.3,16.2
			c-0.2-2.8-0.4-5.6-0.6-8.4c-0.2-3.3-0.4-6.6-0.5-9.7c-0.1-2.8-0.3-5.6-0.4-8.3c0.7-11.9-2-23.1-4.7-34c-0.7-2.8-1.4-5.5-2-8.3
			C556,684,555.8,683.6,555.5,683.2C555.5,683.3,555.5,683.3,555.5,683.2z M552.4,709.2c0-0.2,0-0.4,0.1-0.6
			c0.6-4.7,1.2-9.6,1.4-14.5c2.7,10.9,5.2,21.2,4.5,32.4v0.1v0.1c0.2,2.7,0.3,5.5,0.5,8.4c0.2,3.2,0.3,6.4,0.5,9.8
			c1,13,1.7,25.4,2.1,37.4c-1.1-0.9-2.1-1.8-3.2-2.8c-0.7-11.9-1.7-24.2-2.8-37.1c-0.4-4.6-0.8-8.9-1.1-12.8l-0.1-0.7
			c0.1-2.7-0.5-5.7-1-8.5c-0.7-3.6-1.3-7.3-0.8-10.3C552.5,709.9,552.5,709.5,552.4,709.2z M550.9,742.8c0.3,4.2,0.7,8.2,1,12.3
			c-1.1,0.2-2,1.2-1.9,2.4c0.5,5.3,1,10.6,1.6,15.9c-0.3-0.4-0.7-0.7-1-1.1c-0.3-9.9-0.9-19.5-1.9-28.8c0.2-2.7,0.4-5.3,0.7-7.8
			c0.2-1.4,0.4-2.8,0.6-4.3C550.2,734.9,550.5,738.7,550.9,742.8z M549.4,692c-0.1,5.4-0.8,10.6-1.4,16.1c-0.5,4.5-1.1,9.1-1.4,13.7
			c0,0.4-0.1,0.8-0.1,1.1c-0.3-1.8-0.6-3.5-0.9-5.1c-0.9-4.5-1.8-8.5-2.9-11.8c0-0.1-0.1-0.2-0.1-0.3
			C544.6,700.6,547.1,695.9,549.4,692z M544.2,831.1c-0.3,3.2-0.6,6.5-1,9.8c0.3-3.5,0.6-7,0.9-10.5
			C544.1,830.6,544.1,830.9,544.2,831.1z M542.4,903.9c2-10.5,3.4-23,4.3-37.1c0.3-4.8,0.6-9.7,0.8-13.4c0.2-1.3,0.3-2.5,0.4-3.8
			c1.2,4.1,2.5,8.1,4.2,12.1l0.1,0.1c-0.1,1.2-0.3,2.3-0.4,3.5c-0.4,5.3-1,10.3-1.5,15c-0.6,4.9-1.3,9.6-2.1,13.9
			c-0.3,1.8-0.6,3.7-1,5.6c-0.1,0.2-0.2,0.3-0.3,0.5c-0.9,1.7-2.2,3.6-4.7,5.9C542.2,905.3,542.3,904.6,542.4,903.9z M541.8,853.8
			c0.1-0.5,0.1-1.1,0.2-1.6c-0.2,2.1-0.4,4.3-0.6,6.5c-0.1,1.6-0.3,3.2-0.4,4.7c0-0.6-0.1-1.1-0.1-1.7
			C541.2,859.2,541.5,856.5,541.8,853.8z M541.7,1028.4c0.1-0.9,0.2-1.7,0.3-2.6c0.5,0.1,1,0.2,1.6,0.4c0.1,0.5,0.1,1,0.2,1.5
			c-0.4,4.5-0.7,9.1-0.6,13.7c-0.6-3.8-1.4-7.7-2.3-11.5C541.3,1029.5,541.6,1029,541.7,1028.4z M539.5,1058.3c0,0.2,0,0.5-0.1,0.7
			c0-0.3,0-0.6,0-0.9C539.4,1058.2,539.4,1058.3,539.5,1058.3z M534.9,1060.8c-0.3-7-0.7-13.7-1.2-20.3
			C534.6,1047.2,535.1,1054,534.9,1060.8z M531.5,690.9c0.4,3.4,0.6,6.8,0.6,10.1c-0.3,0.3-0.5,0.6-0.8,0.9
			C531.4,698.2,531.5,694.5,531.5,690.9z M508.1,895.5c-0.1,0.8-0.2,1.6-0.2,2.4c-0.2-4.1-0.5-8.3-0.6-12.6c0.2-2.1,0.4-4.2,0.6-6.4
			c0.1-0.9,0.1-1.7,0.2-2.6c0.1,2.7,0.2,5.4,0.4,7.9C508.3,887.8,508.2,891.6,508.1,895.5z M508.2,841.7c0-0.4,0-0.8,0-1.2
			c0-0.3,0.1-0.6,0.1-1c0.1,1.1,0.2,2.1,0.3,3.2C508.4,842.4,508.3,842,508.2,841.7z M522.8,1055.1c-1-6.6-3.2-13.2-5.4-19.7
			c-0.6-1.9-1.3-3.8-1.9-5.7c1.1-0.5,2.1-1.1,3.3-1.5c1.2,4.3,2.3,8.6,3.4,13.1C523.3,1045.7,523.5,1050.4,522.8,1055.1z
			 M523,1026.6L523,1026.6c0.1,0.3,0.2,0.6,0.3,1C523.2,1027.2,523.1,1026.9,523,1026.6z M524.9,918.4c0.3-3,0.6-6.1,1-9.1
			c0.1,0.8,0.1,1.5,0.2,2.3c0.2,1.8,0.3,3.6,0.5,5.5C526,917.5,525.4,917.9,524.9,918.4z M529.2,1040.3c-0.4-5-1-9.9-1.8-14.8
			c0.2,0,0.4-0.1,0.6-0.1C528.5,1030.3,528.9,1035.3,529.2,1040.3z M526.4,838.8c-0.3,2.3-0.5,4.6-0.8,6.9c0-1.5,0-2.9,0-4.4
			c0-4.2,0-8.6-0.1-13.5c-0.4-6.7-0.5-13.6-0.6-20.3c0-0.9,0-1.8,0-2.7c0.6,3.6,1.3,7.3,2,10.9c0.2,4.2,0.4,8.5,0.6,12.6
			C527.2,831.8,526.8,835.3,526.4,838.8z M527.3,671.5c-0.1,0.2-0.1,0.5-0.1,0.7v2.2c0,10.7-0.1,21.7-0.5,32.5
			c-0.4,0.4-0.7,0.7-1.1,1.1c-0.2-4.5-0.6-8.9-0.9-12.9c-0.2-2.2-0.4-4.4-0.6-6.7c-0.1-4.6-0.4-9.2-0.6-13.6
			c-0.3-5-0.5-9.9-0.6-14.7C524.6,663.7,526.1,667.6,527.3,671.5z M523.1,882.7c0.4,2.6,0.8,5,1.3,7.2c-0.5,3.8-1.1,7.4-1.7,10.9
			c-1.3,7.2-2.2,14.5-2.7,21.8c-1,0.9-1.9,1.9-2.8,2.8c0-0.2,0-0.4,0-0.5s0-0.3,0-0.4c0.7-7.7,1.8-15.9,3.4-24.7
			C521.6,894.5,522.4,888.8,523.1,882.7z M519.2,683.3l0.3,3.3c-0.1-0.9-0.3-1.9-0.4-2.8c0-1.3-0.1-2.7-0.1-4
			C519,681,519.1,682.1,519.2,683.3z M518.6,773.6c0.2,0.4,0.3,0.8,0.5,1.2c-0.3,3.6-0.6,7.2-0.9,10.7
			C518.3,781.5,518.5,777.6,518.6,773.6z M516,883.2c0.1-0.9,0.3-1.9,0.4-2.8c0.5-4.1,1-8.5,1.5-13.1c1.5-15,1.7-30.3,1.4-45.5
			c0.1,0,0.3,0,0.4-0.1c0,0.6,0.1,1.1,0.1,1.7c0.1,4,0.2,8.1,0.3,12.1c0.1,4.1,0.3,8.2,0.5,12.3c0.1,2.8,0.2,5.4,0.3,7.7
			c-0.3,5-0.6,9.9-1,14.5c-0.9,10.7-2.1,20.4-3.7,28.8c-0.3,1.5-0.5,2.9-0.8,4.3C515.9,896.8,516.1,890,516,883.2z M514.6,684.2
			c0.1,2.2,0.1,4.3,0.2,6.5c0,0.5,0,1.1,0,1.6c-0.3-3.7-0.6-7.3-1-10.9c-0.1-0.9-0.1-1.9-0.2-2.8C514,680.5,514.3,682.3,514.6,684.2
			z M513.2,651.4c0.2,2.3,0.3,4.6,0.4,6.9c-0.5-2.1-1.1-4.2-1.6-6.2C512.5,651.9,512.9,651.7,513.2,651.4z M511.6,813.4
			c-0.1,4.2-0.2,8.4-0.3,12.6c-0.3-2.3-0.5-4.5-0.8-6.8c0.5-4.6,0.9-9.1,1.4-13.6C511.7,808.2,511.7,810.8,511.6,813.4z
			 M507.6,802.5c0.1-5.2,0.2-10.4,0.3-15.6c0.2-9.5,0.4-19.1,0.7-28.7c0.5-5.1,1-10.1,1.4-15.2c0.4,0.8,0.6,1.3,0.6,1.3
			c0.1,1.2,0.4,2.6,0.6,4.2C510.7,766.7,509.3,784.5,507.6,802.5z M505.5,656.1c0.4-0.2,0.8-0.4,1.2-0.7c0.3,4.3,0.8,8.7,1.4,13
			c0.6,4.6,1.1,9,1.4,13.4c0.4,4.1,0.8,8.2,1.1,12.3c0.4,5.1,0.7,9.6,0.9,13.8c-0.1,0-0.1,0.1-0.2,0.1c-0.4-8.4-1.4-17.1-2.8-26.4
			c-0.4-5.9-1.3-11.9-3.3-18c-0.1-0.4-0.2-0.9-0.3-1.3C505.1,660.2,505.3,658.1,505.5,656.1z M504.4,1037.2c0,0.7,0,1.4,0.1,2.1
			c-0.1-0.6-0.3-1.2-0.4-1.8C504.1,1037.4,504.3,1037.3,504.4,1037.2z M501.4,933.2c0-1.8,0-3.7,0-5.5c0.6,6.1,1.3,11.7,1.9,16.6
			C502.4,943,501.9,938,501.4,933.2z M502.9,675.4c0.1,0.6,0.2,1.3,0.3,1.9c-0.1,0-0.2,0-0.3,0s-0.2,0-0.3,0.1
			C502.7,676.7,502.8,676,502.9,675.4z M501.3,684.9c0.5,6.6,0.9,13.3,1.3,19.8c0,0.9,0.1,1.7,0.1,2.6c-0.2,0-0.4-0.1-0.6,0
			c-0.1,0-0.2,0-0.3,0.1c0,0,0-0.1-0.1-0.1c0-1.4-0.1-2.8-0.1-4.2c-0.2-5.3-0.3-10.7-0.6-16.1C501.1,686.2,501.2,685.6,501.3,684.9z
			 M498.7,901c0.1-1,0.2-2.1,0.2-3.1c0,0.3,0,0.7,0.1,1C498.9,899.6,498.8,900.3,498.7,901z M498.9,659.5c0.5,1.2,1,2.3,1.4,3.5
			c-0.2,1.6-0.5,3.2-0.7,4.8c-0.3-2.7-0.6-5.4-1-8.1C498.7,659.6,498.8,659.6,498.9,659.5z M495.9,865.8c-0.2,2.1-0.3,4.2-0.5,6.3
			c-0.4,3-0.9,5.9-1.4,8.7c-0.2,0.9-0.3,1.8-0.5,2.7c0-0.8,0-1.6,0-2.4c0.1-3.1,0.1-6.3,0.3-9.3c0.8-9.4,1.5-18.7,2.2-28
			C495.8,851.2,495.8,858.5,495.9,865.8z M496.3,731.6c0,0.5,0.1,1,0.1,1.5c-0.6,11.3-1.3,22.5-2.1,33.4c-0.3,4-0.6,7.9-0.8,12
			c-0.5-6.2-0.7-12.4-0.6-18.7c1-8,1.9-16.1,2.6-24.2C495.7,734.2,496,732.9,496.3,731.6z M495.3,694.5L495.3,694.5
			c0-0.1,0-0.2,0-0.3C495.3,694.3,495.3,694.4,495.3,694.5z M494.3,661.5c0.1,0.5,0.2,1.1,0.2,1.6c-0.9,0.4-1.4,1.2-1.4,2.2
			c0.5,6.2,1,12.5,1.4,18.9c-0.6-7.2-1.6-14.5-3.2-21.7C492.3,662.3,493.3,661.9,494.3,661.5z M197.2,906.5
			c-0.3,2.7-0.5,5.2-0.8,7.6c-4.3-31.2-3.5-85-1.9-125.7c0.2-6.1,0.5-12,0.7-17.2c0.5-4.8,0.6-9.5,0.6-14.6c0-3.8,0.1-7.6,0.3-11.5
			v0.1c0.2,3.1,0.4,6.9,0.6,11.3C198.7,794.1,201.3,863.4,197.2,906.5z M203.8,739.3c0.1,0,0.2,0,0.3,0c0.1,0,0.2,0,0.3,0
			c1.5,1,3,2.1,4.4,3.2c0.1,0.2,0.3,0.4,0.4,0.6c-0.5,5.8-1.2,11.4-1.8,16.9c-0.6,4.8-1.1,9.6-1.6,14.6
			C205.9,762.2,205.7,751.4,203.8,739.3z M210.5,866.3c0.2,12.8,0.4,26-0.2,39.5c-3.2-19.6-3.7-55.1-1.6-104.1
			c0.1-3.4,0.3-6.8,0.5-10.1c0.1-4.2,0.4-8.2,0.7-12.2c0.6,10.1,1.3,23.1,1.7,38.2C210,833,210.2,849.2,210.5,866.3z M212.6,755.1
			L212.6,755.1c0.2-1.9,0.4-3.7,0.6-5.6c4,14.6,3.5,30.4,2,42.9C214,769.6,212.6,755.5,212.6,755.1z M213.2,937.2c0-1,0-2.1,0-3.2
			c0.1,0.4,0.2,0.8,0.2,1.2C213.3,935.9,213.3,936.6,213.2,937.2z M213.9,1085.4c0-0.9,0-1.9,0.1-3.1c0.6,4.1,1.3,8.1,1.9,11.8
			C214.9,1092,214.1,1089.2,213.9,1085.4z M215.2,923.9c-0.4-1.4-0.8-2.8-1.3-4.2c0-0.4,0.1-0.8,0.1-1.1c0.1-0.6,0.3-1.1,0.4-1.6
			l0.1-0.5c0.2-4,0.5-7.9,0.6-11.8c1.7-32.2,1.6-62.2,1-86.8c0.4-3.4,0.8-6.7,1.4-10c0.3-1.7,0.6-3.5,0.8-5.3c0.2,3,0.4,6,0.6,9
			c0.1,3.2,0.2,6.4,0.4,9.6c1.2,38.8,0.2,71-3.1,95.5C215.9,919.2,215.5,921.5,215.2,923.9z M216.1,1051.8c0.1-10,0.4-19.8,0.8-29.4
			C217.2,1032.2,217.2,1042,216.1,1051.8z M220.8,923.2c-0.6,5.2-1.3,10.6-2.1,16.2c-0.2-1.2-0.4-2.4-0.6-3.6
			c-0.1-0.3-0.1-0.5-0.2-0.8c0.2-1.9,0.5-3.8,0.8-5.7c0.7-3.6,1.3-7.4,1.8-11.3c0.2,0.2,0.5,0.4,0.8,0.6
			C221.2,920.1,221,921.7,220.8,923.2z M222.7,755.9c-0.1-1.1-1-1.9-2-2c0-0.4,0-0.7-0.1-1c1,1,1.9,2,2.7,2.7
			c0.2,3.5,0.3,7,0.4,10.5C223.1,759.8,222.7,756.1,222.7,755.9z M233.5,766.3c-0.1,0.6-0.2,1.1-0.2,1.7c-0.3-1-0.5-1.9-0.8-2.6
			C232.9,765.8,233.2,766,233.5,766.3z M228.5,895.7c0.1,6.7,0.2,13.6,0.2,20.6c-0.4-2.8-0.8-5.9-1.1-9.4
			C227.9,903.1,228.2,899.4,228.5,895.7z M230.8,1029.4c-0.7-7.9-1.5-15.7-2.3-23.4c-2.6-25.1-5.2-51.1-3.1-77.1
			c0.1-1.4,0.3-2.7,0.4-4.1c0.5,1.8,0.9,3.5,1.5,4.9c0.4,0.9,0.7,1.9,1.1,2.8c0,0.1,0,0.2,0,0.3v1.4c-0.1,4.7-0.2,9.3-0.4,14.1
			c0,1.2,0.9,2.3,2.2,2.3h0.1c1.2,0,2.2-0.9,2.2-2.2c0-1.2,0.1-2.4,0.1-3.6C239.2,968.8,238.6,995.8,230.8,1029.4z M240.5,913.3
			l-0.3,4.3c-0.2,3.6-0.5,7.2-0.7,10.8c-0.3,5.4-0.6,10.5-0.7,15.6c0,0.2,0,0.3,0,0.5c-0.2,1.5-0.4,3-0.6,4.5
			c-1.3-5.7-3-11.5-5.3-17.1c0.1-3.3,0.1-6.5,0.2-9.7c0.4,0.7,1.1,1.1,1.9,1.1c0.1,0,0.1,0,0.2,0c1.2-0.1,2.2-1.2,2.1-2.4
			c-1.6-23.7-2.5-50.5-2.6-79.8c0.3-1.9,0.5-3.8,0.9-5.7c3.9-21.9,2.8-40.3,0.8-53.1c0.4-4.4,0.8-8.6,1.3-12.7
			c0.3,0.2,0.6,0.4,0.9,0.6c0.6,12,1.7,33.1,3.2,60.4C243.1,854.1,242.7,881.1,240.5,913.3z M243.1,773c0.2,0.1,0.3,0.2,0.5,0.3
			c0.1,5.6,0.3,11.3,0.3,16.9C243.6,783.4,243.3,777.6,243.1,773z M258.5,781.4c0,0.3,0,0.7,0,1
			C258.4,782.1,258.4,781.7,258.5,781.4C258.4,781.4,258.4,781.4,258.5,781.4z M254.2,786c0.5,9.7,0.2,19.6-0.1,29.3
			c-0.1,2.3-0.2,4.6-0.2,6.9c0,3.4,0,7-0.1,10.7c-0.2,10.3-0.5,21.1-1.1,32.6C252.6,833.4,253.5,804.6,254.2,786z M255.2,1002.7
			c-0.5-8.4-1-16.9-1.5-25.5c0,0.4,0.1,0.8,0.1,1.2c1.5,16.8,2.9,33.8,3,50.9C256.3,1020.4,255.8,1011.5,255.2,1002.7z M253.7,917.7
			c0-0.6-0.1-1.3-0.1-1.9c0-0.3,0-0.6,0-0.9c2.7-30.3,4.3-57.9,4.7-82.1c0-2.5,0.1-4.9,0.1-7.3v0.3c0,2.7,0.1,5.4,0.1,8.1
			C258.8,868.4,257.2,896.5,253.7,917.7z M262.3,921.1l-0.6,6.8c-0.1,3.3-0.1,6.5-0.1,9.8c-0.4,13.9-0.8,28-1.1,42.1
			c-0.5-3.6-1-7.1-1.7-10.7c-1.5-13.5,0.1-27.2,1.9-40c0.7-4.1,1.2-7.5,1.6-10.9c0.2-1.7,0.5-3.5,0.7-5.3
			C262.9,915.6,262.6,918.3,262.3,921.1z M267.4,765.2c0.7,2.7,1.3,5.4,1.6,8.1c-1.1-0.5-2.1-1-3.2-1.5c-0.1,0-0.1,0-0.1-0.1
			c0-1.6-0.1-3.2-0.2-4.9C266.3,766.6,266.9,765.9,267.4,765.2z M265.9,1014.9c-0.3,2.3-0.6,4.5-0.9,6.8c-0.2-9.2-0.2-18.5-0.1-27.7
			c0.1,1.6,0.3,3.1,0.4,4.7c0.4,4.3,0.8,8.6,1.1,13C266.2,1012.7,266,1013.8,265.9,1014.9z M267.9,1034.1c0-0.1,0-0.3,0-0.4
			c0,0,0,0,0,0.1C268,1033.9,267.9,1034,267.9,1034.1z M269.1,789.7c-0.1,5.5-0.2,11.1-0.2,16.7c-0.2,2.8-0.4,5.6-0.5,8.3
			c-0.4,8.1-0.5,16.3-0.7,24.3c-0.1,3.7-0.1,7.5-0.2,11.2c0,0.9-0.1,1.8-0.1,2.8c-0.8-15.7-1.5-25.8-1.5-26c0-0.1,0-0.1,0-0.2
			c-0.1-2-0.1-4-0.2-6v-0.3c-1.9-10.7-1.3-21.2-0.6-31.4c0.1-1.1,0.1-2.2,0.2-3.4c1.3,0.8,2.6,1.7,3.9,2.5
			C269.1,788.7,269.1,789.2,269.1,789.7z M275,767.7c0.1,2.8,0.1,5.5,0.1,8.3c-0.2-0.1-0.4-0.2-0.5-0.2c0-0.2,0-0.4,0-0.5
			c0.1-4.9,0-9.8-0.4-14.8C274.5,762.9,274.8,765.3,275,767.7z M271.4,917.6c-0.2,1.1-0.4,2.2-0.6,3.3c-0.3,1.2-0.5,2.4-0.7,3.6
			c0-0.3,0-0.7,0-1c0.2-5.2,0.6-10.5,1.2-15.7c0.5-5,1-9.9,1.5-14.8c0,0.3,0,0.6,0,0.9c-0.3,7-0.7,13.7-1.1,19.9
			C271.6,915.1,271.5,916.3,271.4,917.6z M276.1,966c-0.4,5.1-0.8,10.3-1.2,15.3c-0.6-5.5-1.3-11.1-2.2-16.7c0.2-13.7,1-27.4,2.6-41
			c0-0.5,0.1-0.9,0.1-1.4c0.4,2.1,0.8,4.1,1.2,5.8C275.4,940.7,275.5,953.4,276.1,966z M281.1,756.7c0.1,1,0.1,1.9,0.2,2.9
			c-0.3,1.6-0.5,3.2-0.8,4.8c-0.2,0-0.4,0-0.5,0c-0.2,0-0.4,0.1-0.6,0.2v-0.1c-0.1-3.3-0.2-6.6-0.3-9.9c0-0.2-0.1-0.4-0.1-0.6
			C279.7,754.7,280.4,755.7,281.1,756.7z M279.5,1032c-0.1-9.2-0.9-18.3-1.9-27.3c0.2-2.6,0.4-5.1,0.6-7.6
			C279.1,1008.6,279.7,1020.3,279.5,1032z M281.5,960.4c-0.1,3.8-0.1,7.8,0,11.8c-0.2-3.7-0.3-7.4-0.5-11.2c0.2-2.5,0.4-4.9,0.6-7.4
			l0,0C281.6,955.9,281.5,958.1,281.5,960.4z M281.5,877.8c0,3.4,0,6.8-0.1,10.3l0,0c-0.3,3.7-0.5,7.2-0.9,10.6
			c-0.4,4.7-1,9.2-1.5,13.4c-0.1,0.6-0.2,1.1-0.3,1.7v-0.1c-0.4-3.1-0.7-6.4-0.9-10c1.2-10.5,2-22.4,2.5-35.4
			c0.2-4.6,0.3-9.5,0.4-14.9c0.3-3.2,0.5-6.5,0.6-9.9C281.8,854.7,281.9,866.2,281.5,877.8z M291.6,770.2c0.4,0.6,0.9,1.1,1.3,1.6
			c0.1,0.5,0.2,1,0.4,1.5c1,3.2,1.7,6.4,2.3,9.6c-1.3-0.2-2.6-0.5-4-0.9c0-1.2,0.1-2.4,0.1-3.6C291.7,775.5,291.7,772.8,291.6,770.2
			z M289,843c0.2,9.2,0.1,18.5-0.8,27.6C288.6,861.3,288.9,852.2,289,843z M284.8,921.6c0,0.3-0.1,0.6-0.1,0.9
			c0.1-2.2,0.3-4.5,0.4-6.7c0.3-5.3,0.5-10.7,0.7-16.1c0.5-3.9,0.9-8,1.3-12.3c0.2-2.4,0.4-4.8,0.6-7.2c-0.1,2.2-0.1,4.5-0.2,6.7
			C286.8,899.7,285.9,911.3,284.8,921.6z M286.5,997.7c-0.4-8-0.6-15.9-0.5-23.9c-0.1-4.2-0.1-8.3,0-12.2
			C287.5,972.6,287.7,984.4,286.5,997.7z M291.9,917.9c0,4.5-0.1,9-0.3,13.3c-0.2,1.2-0.4,2.4-0.5,3.6c-0.6,3.9-1.1,7.9-1.3,12.1
			c-0.2,3-0.2,6.1-0.2,9.2c-0.7-3.8-1.5-7.6-2.5-11.2c-0.1-0.4-0.2-0.8-0.3-1.1c0.2-3.3,0.5-6.5,0.8-9.6c0.6-3.8,1.2-7.9,1.7-12.1
			c1.1-9.6,1.9-20.4,2.5-32.2l0.1,4c0,3,0.1,6.1,0.1,9.2C291.9,908.8,291.9,913.5,291.9,917.9z M294.4,841.5c-0.3,2.3-0.6,4.7-0.9,7
			c-0.1-9.6-0.5-19.1-1-28.5c-0.3-5.9-0.6-11.9-0.8-17.9c1.8,0.9,3.1,1.4,3.9,1.4c0.6,0.1,1.3,0.1,2,0.2
			C297.6,816.4,296,829.1,294.4,841.5z M296.4,895.4l-0.2,1.6v0.1c0-1.1,0-2.3,0-3.4l-0.1-5.4c-1.2-15.3,0.8-31.1,2.7-46.4
			c0-0.4,0.1-0.7,0.1-1.1c-0.3,16-1.1,31.7-1.9,46.3C296.8,890.2,296.6,892.9,296.4,895.4z M298.6,919.2c0,0.2,0,0.4,0,0.5
			c-0.4,4.6-0.9,9.3-1.3,14c0.2-3.4,0.5-6.7,0.8-10C298.3,922.2,298.4,920.7,298.6,919.2z M297.5,1085.8c-0.1-3.2-0.2-6.9-0.3-10.9
			c-0.1-4.4-0.1-8.6-0.1-12.4c0-0.4,0-0.9,0-1.3c0.3,0.2,0.6,0.3,0.9,0.3c0,0.4,0.1,0.7,0.1,1.1c0.4,4.9,0.8,9.8,1.1,14.6
			c0,0.4,0,0.8,0,1.2C298.8,1081.1,298.1,1083.6,297.5,1085.8z M300.8,895.6l0.2-2.2c0.1-0.3,0.1-0.7,0.2-1
			c-0.2,2.8-0.5,5.7-0.8,8.5C300.5,899.2,300.7,897.5,300.8,895.6z M301,943.2c0.5-6.8,1.1-13.6,1.7-20.5c0,0.8,0,1.5,0.1,2.2
			c-0.1,1.1-0.2,2.2-0.3,3.4c-0.3,3.6-0.6,7.2-0.9,10.9C301.4,940.6,301.2,941.9,301,943.2z M302.5,982.6c0.1-9.5,0.6-18.9,1.7-28.3
			c0.2-1.8,0.4-3.6,0.6-5.3c0.4,1.9,0.7,3.8,1.1,5.6C304.6,963.8,303.5,973.2,302.5,982.6z M308.8,926.8c-0.2,3.5-0.5,6.9-0.8,10.1
			c-0.1,0.4-0.1,0.9-0.2,1.3c-0.1-2.2-0.3-4.4-0.4-6.8c0.5-2.8,0.9-5.6,1.3-8.6c0.1-0.9,0.3-1.9,0.4-2.9
			C309.1,922.3,308.9,924.6,308.8,926.8z M312.9,805.6c0,0.2,0,0.3,0,0.5C312.9,805.9,312.9,805.8,312.9,805.6L312.9,805.6z
			 M311.1,958.7c-0.3-1.4-0.5-2.8-0.8-4.3c0.5-4.1,1-8.1,1.5-12.1c0,0.6,0.1,1.1,0.1,1.7c0.1,2.8,0.3,5.6,0.4,8.4
			C311.9,954.5,311.5,956.6,311.1,958.7z M314,1034.3c-1.5-14.4-2.2-27.8-1.9-40.5C313.8,1007.3,314.6,1020.9,314,1034.3z
			 M332,753.5c0,0.4,0,0.8,0,1.2c0.1,3.2,0.1,6.5,0,10.7c0.3,5.9,0.7,11.9,1.1,17.9c-0.6-4-1.3-8-2.1-11.9c-0.1-1.5-0.2-3.1-0.4-4.6
			C330.8,762,331.3,757.5,332,753.5z M329.8,854.2c0.7-11.2,1.3-22.4,1.7-33.8c0.1,14.1-0.9,28.2-2.2,42.4
			C329.5,859.9,329.6,857,329.8,854.2z M325.9,765.4c0-0.8-0.2-1.5-0.6-2.1c0.1,0,0.2-0.1,0.3-0.2c0.6,2.9,0.8,5.7,1,8.5v0.3
			c0,0,0,0,0,0.1c0.4,6.1,0.7,12.2,0.8,18.4c-0.8-0.1-1.5-0.2-2.2-0.3c-0.8-6.8-1.8-13.7-3-20.6
			C324.2,769.3,325.9,767.5,325.9,765.4z M327.4,807.9c0,1,0,2.1-0.1,3.1c-0.1-1.1-0.2-2.1-0.3-3.2
			C327.2,807.9,327.3,807.9,327.4,807.9z M318.9,777.4c0.6,3.9,1.1,7.9,1.6,11.7c-0.2-0.1-0.4-0.1-0.5-0.2c-0.4-0.9-0.8-1.8-1.3-2.6
			c-0.4-2.5-0.8-5.1-1.2-7.6C318.2,778.4,318.6,777.9,318.9,777.4z M317,914.5c-0.2,3.4-0.4,6.8-0.6,10c-0.2,2.8-0.4,5.4-0.6,7.8
			c-0.2-3.6-0.3-7.3-0.5-10.9c-0.1-4-0.3-8-0.3-11.9c0.1-8.4,0.3-16.9,0.5-25.5c0.5-8.1,0.7-16.5,0.7-25c0.5-15.7,0.9-31.7,1.1-47.7
			c2.9,30.5,2.9,61.6,0.1,93C317.3,907.7,317.2,911.1,317,914.5z M317.6,981.5c0.2,0.1,0.5,0.2,0.7,0.2c0,4.7,0.1,9.4,0.4,14.3
			C318.2,991.1,317.8,986.3,317.6,981.5z M318.7,957.3c-0.4,2.5-0.7,5-1,7.6c0.4-7.6,1.3-15.3,2.9-22.9
			C320.1,947.2,319.4,952.3,318.7,957.3z M321.5,806.9c2.1,15.6,2.6,31.4,2.4,47.1c-0.1-15.9-1-31.6-2.6-47.2
			C321.4,806.9,321.5,806.9,321.5,806.9z M323.1,993.7c-0.8-20.5,0.2-39.8,3.1-58.6c0.3-2.7,0.5-5.3,0.8-8c0.3,1.1,0.6,2.1,0.9,3.1
			c0.4,1.3,0.7,2.6,1,4c-0.1,0.7-0.1,1.4-0.2,2.1l-0.3,3.3c-0.2,2.2-0.3,4.4-0.5,6.5C325.4,962.9,323.8,978.7,323.1,993.7z
			 M327.7,1023.7c-0.7-11.7-0.6-23.9,0.2-36.8c0.2,6.8,0.7,13.6,1.3,20.4C328.7,1012.7,328.2,1018.2,327.7,1023.7z M331.5,902.9
			c0,3.1,0,6.1,0,9.1c-0.3,1.4-0.6,2.8-0.9,4.1v0.3c-0.2,1.4-0.3,2.9-0.4,4.3c-0.5-2.8-1-5.9-1.4-9.4c0-0.2,0-0.5-0.1-0.8
			c0.7-6.6,1.4-13.2,2.1-19.6c2.5-21.9,5-44.1,5.1-66.7c0.7,12.4,1.1,24.9,0.9,37.4C333.8,874.7,330.7,888.3,331.5,902.9z
			 M337.6,907.8c-0.2,1.5-0.4,2.9-0.7,4.4c-0.3,2.3-0.6,4.5-0.9,6.6c0-0.2,0-0.4,0-0.5v-1.4c0-1.4,0-2.9-0.1-4.5
			c0.6-3,1.2-6.1,1.7-9.1C337.7,904.8,337.6,906.3,337.6,907.8z M341,838.3c-0.3-9.4-0.9-18.7-1.5-28c0,0,0,0,0.1,0
			C341.7,819.8,341.6,829.6,341,838.3z M338.1,790.2c-0.6-8.3-1.2-16.7-1.6-24.9c0-2.7,0-5.1,0-7.3c0.7,4.9,1.7,10.1,2.9,14.8
			c0.8,5.4,1.5,10.8,2,16.3C340.5,789.6,339.4,790,338.1,790.2z M346.6,884.7c-0.5,9.1-1.1,18.5-1.4,27.8c-0.2,5.7-0.4,10-0.7,14.1
			c-0.9,3.7-1.5,7.3-2.1,10.8c-0.1-3.9-0.1-7.8,0-11.7c-0.1-3.2-0.2-6.4-0.2-9.7c0-2.8,0-5.4,0-7.9c3.8-25.5,5.8-49.8,6-73.2
			c0-0.5,0.1-1,0.1-1.5C348.6,850.7,347.6,867.9,346.6,884.7z M357.9,887.6c0.7-11.4,1.3-22.9,1.6-34.4c0.2-2.4,0.4-4.9,0.6-7.3
			c-0.1,11.7-0.6,23.9-1.5,36.7c-0.2,2-0.5,3.9-0.7,5.9C357.9,888.2,357.9,887.9,357.9,887.6z M357.7,1031.5
			c0.1,0.9,0.2,1.8,0.3,2.7c-0.6-3.4-1.3-6.9-1.9-10.3c-2.3-15-4.1-30.1-4.5-45.3c0-0.2,0-0.4,0.1-0.6c0.2,0,0.3,0.1,0.5,0.1
			c0,0,0,0,0.1,0c0.3,0,0.6-0.1,0.9-0.2C353.5,995.8,355.6,1013.8,357.7,1031.5z M351,885c1.4-23.5,2.8-47.6,0.4-71.9
			c1,0.3,1.9,0.5,2.9,0.8c1,12.3,1.1,24.7,0.8,37c-0.3,3.5-0.6,7-0.9,10.4c-0.1,1-0.2,2-0.3,3.1c-0.9,8.5-2,17-3.2,25.7
			C350.8,888.4,350.9,886.7,351,885z M351.6,918.4c0,1.1,0,2.3,0.1,3.4c0,0.3,0,0.6-0.1,0.8c-0.3,1.2-0.6,2.4-0.9,3.5
			C351,923.5,351.3,920.9,351.6,918.4z M352.8,1076.2c-0.9-4.8-1.6-9.5-2.3-14.2c0.1-0.6,0.2-1.2,0.3-1.8c0.6,3.2,1.2,6.3,1.9,9.5
			c0.1,1.3,0.3,2.6,0.4,3.8C353.1,1074.4,353,1075.3,352.8,1076.2z M359.6,1079.2c-0.9-3.5-1.7-7-2.5-10.5
			c-1.3-11.4-3.1-22.9-4.8-34c0-0.2-0.1-0.4-0.1-0.6c-0.1-3-0.2-6.1-0.4-9.1c0.9,5.9,1.9,11.8,2.8,17.6c1.8,10.9,3.6,22.2,5,33.3
			c0,0.5,0,1.1-0.1,1.6v0.2v0.2c0,0.2,0.1,0.4,0.1,0.6C359.6,1078.7,359.6,1078.9,359.6,1079.2z M361.4,992
			c0.2-4.9,0.6-9.7,1.2-14.5c0,0.7,0,1.3,0.1,2C362.2,983.7,361.8,987.8,361.4,992z M364,945c-1.8,7-3.2,14.1-4.4,21.3
			c0.4-10.5,1.5-21,3.8-31.4v-0.2c0.3-2.5,0.6-4.9,0.9-7.2c0.1-0.3,0.2-0.7,0.3-1c0.1,0.4,0.2,0.8,0.4,1.2l0.2,0.4
			c0.4,0.7,0.8,1.5,1.2,2.2C365.5,935.1,364.6,940,364,945z M475.8,718.1c-0.3-7.1-0.8-14.3-1.3-21.4c0.2,0.7,0.4,1.5,0.6,2.2
			c0.4,6.2,0.8,12.5,1,18.9c0.1,3.6,0.2,6.7,0.3,9.6c-1.9,27.1-3.2,54.5-4.3,81.9c0.4-20.4,1.5-40.9,2.7-61.2
			c0.4-5.9,0.9-11.9,1.2-17.8C476,726.7,476,722.8,475.8,718.1z M470.3,721.4c0.5,3.2,0.8,6.2,1,9.3l-0.2,3.1
			c-0.3,4.7-0.6,9.4-0.9,14.1c-0.6,8.3-1.3,16.6-2,24.8c-0.1,1.4-0.2,2.9-0.3,4.3c-0.2-12.8,0-25.6,0.7-38.6
			c0.3-3.3,0.5-6.5,0.8-9.8v-0.2c0-2.8-0.1-5.5-0.2-8.1c0-0.4,0.1-0.8,0.1-1.2c0.1-0.8,0.2-1.7,0.3-2.5c0.3,1.6,0.5,3.1,0.5,4.4
			L470.3,721.4z M468.9,682.3c0,0.6,0.1,1.1,0.1,1.7c0.3,3.6,0.6,7.3,0.9,11c-0.1,0-0.1,0-0.2,0c-0.7,0.1-1.3,0.5-1.7,1.1
			c-0.2-3.3-0.5-6.6-0.8-9.8c-0.2-2.6-0.4-5.3-0.6-7.9C467.4,679.7,468.2,681,468.9,682.3z M463.6,888.6c0.1,4.1,0.3,8.2,0.5,12.3
			c-1.2-0.8-2.3-1.7-3.4-2.5c-0.2-3.2-0.3-6.5-0.4-10c-0.1-4.9,0-9.9,0.2-14.9c0.1-4.5,0.2-9.1,0.3-13.6c0.8,3.2,1.7,6.4,2.7,9.5
			c0,0.9,0,1.8,0,2.7C463.4,877.3,463.4,882.8,463.6,888.6z M463.6,852.3c-0.8-3.8-1.5-7.6-2.1-11.4c0.6-14.5,1.5-28.9,2.6-43.5
			c0.3,6.8,0.6,13.7,0.9,20.6C464.3,829.5,463.8,840.9,463.6,852.3z M461.8,673.1c0.3,4.5,0.7,9.1,1,13.5c0.8,9.3,1.6,18.8,1.8,28.7
			c0,0.4,0,0.9,0.1,1.3c-0.4,0.4-0.6,1-0.5,1.7c0,0,0.2,1.5,0.4,4.2c-0.4,3.5-0.9,7.4-1.5,11.5c-0.3,1.3-0.5,2.6-0.8,3.9
			c0.4-5.4,0.8-10.9,1.2-16.4v-0.1v-0.1c-0.2-4.5-0.3-9-0.5-13.2c-0.2-11.5-0.7-22.3-1.3-33.3C461.7,674.2,461.7,673.6,461.8,673.1z
			 M462,765.4c-1.1,13.7-2.1,27.2-3,40.6C459,791.8,460.2,778.1,462,765.4z M456.7,839.2c0.1,0.7,0.2,1.3,0.3,2
			c-0.1,1.2-0.1,2.4-0.1,3.5c-0.2-1.9-0.3-3.7-0.5-5.6C456.5,839.1,456.6,839.2,456.7,839.2z M456,965.1c0.3,2.5,0.7,4.8,0.9,6.9
			c-0.1,3.3-0.2,6.7-0.3,10.3c-0.4-1.7-0.8-3.6-1.1-5.5c0-4.2,0-8.5,0-12.6C455.6,964.4,455.8,964.7,456,965.1z M453.8,704.2
			c0.2,4,0.4,8.2,0.6,12.4c-0.1,7.5-0.3,15-0.5,22.6c-0.1,1-0.2,2.1-0.3,3.1l0,0c-0.3-0.3-0.5-0.6-0.9-0.8c0.3-4.4,0.7-8.7,0.9-13.1
			v-0.1v-0.1c-0.1-5.4-0.3-10.7-0.4-14.6c-0.2-5.6-0.5-11.5-0.9-18c0.2-3.3,0.3-6.6,0.3-10c0,0.8,0,1.6,0,2.5
			C453.1,693.5,453.5,698.9,453.8,704.2z M454.5,874c-0.1,3.3-0.1,6.6-0.2,9.9c-0.1,2.9-0.2,5.7-0.3,8.4c0-0.1,0-0.2,0-0.3
			c-0.1-5.3-0.2-10.6-0.1-15.7c-0.2-6.3-0.3-12.5-0.4-18.8C453.8,863.1,454.2,868.6,454.5,874z M451.5,653.8c0,0.2,0,0.3,0,0.5
			c0.3,1.5,0.5,3,0.7,4.4c-0.1,0.3-0.2,0.7-0.2,1.1c0.2,1.9,0.4,3.8,0.7,5.6c0.1,3.6,0,7.2,0,10.9c-0.1,2.6-0.1,5.3-0.1,8.2
			c-0.1-5.8-0.5-11.7-0.8-17.4c-0.3-4.4-0.6-8.9-0.7-13.4C451.3,653.7,451.4,653.8,451.5,653.8z M451,980.2c0,5.7,0,11.1-0.1,15.8
			c-0.8,0.9-1.6,1.8-2.4,2.7c-1.5-5.8-4.4-19.9,0-33.1c0.1-0.2,0.1-0.5,0.2-0.7C449.5,970.2,450.3,975.4,451,980.2z M449.7,814.6
			c-0.9,14.4-1.9,29.1-2.6,43.4c-0.6,6.6-1,11.9-1.2,16.8c-0.1,2.9-0.2,5.7-0.2,8.4l0,0c0-1.2-0.1-2.4-0.1-3.6
			c-0.2-5.9-0.2-11.8-0.2-16.3c-0.3-23.3,1.2-47.4,3.1-71.3c0.3,7,0.7,14.1,1.2,21.1C449.7,813.6,449.7,814.1,449.7,814.6z
			 M444.8,666.8c0.2-4.7,0.4-9.6,0.4-14.5c0.5,0.1,1,0.2,1.5,0.3c0.1,5,0.5,10,0.8,14.9c0.6,9.4,1.2,19,0.5,27.9v0.1v0.1
			c0.4,6.6,0.6,12.5,0.9,18.1c0.2,3.9,0.3,9,0.4,14.4c-0.3,3.8-0.5,7.6-0.8,11.4c-0.4-0.4-0.8-0.8-1.3-1c0.2-6.9,0.1-13.9-0.6-21
			l-1.1-20.5v-0.2c-0.2-1.6-0.4-3.1-0.5-4.7c0-1.9,0-3.9-0.1-6c0.7-5.1,0.4-10.2-0.2-15.4C444.6,669.5,444.7,668.1,444.8,666.8z
			 M446.3,751c0.4-0.3,0.9-0.6,1.3-1c-0.5,6.6-1.1,13.2-1.7,19.7c-2.7,30.9-5.4,62.9-5,93.5c0,3.6,0,8.2,0.1,13
			c-1.2-2.1-2.3-4.1-3.1-5.8c0-1.2,0.1-2.4,0.1-3.6c0.2-11.2-0.2-22.4-0.8-33.4c0.2,0,0.3,0.1,0.5,0.1c0.1,0,0.1,0,0.2,0
			c1.2-0.1,2.1-1.2,2-2.4c-1.5-18.6,1-37,3.3-54.8C444.4,768,445.6,759.5,446.3,751z M442.2,723.8c0.1-0.5,0.2-1,0.2-1.5
			c0.4,5.7,0.4,11.4,0.2,17c-0.6,0.6-1.1,1.3-1.3,2.1c-0.2,0-0.3-0.1-0.5-0.1s-0.4,0-0.7,0.1C440.8,735.4,441.4,729.5,442.2,723.8z
			 M440.1,671c-0.3,7.2-0.4,14.2,0.2,21.4c0,3.9-0.1,7.5-0.3,11c-0.1,1.4-0.2,2.7-0.3,4.1c-0.1-2-0.2-3.9-0.3-5.8l-0.3-6.9
			c-0.3-11.3-0.4-22.6-0.5-33.3C439.3,664.7,439.7,667.9,440.1,671z M438,768.4c0.3-3.3,0.5-6.7,0.7-10.1c0.9-1.1,1.8-2.1,2.7-3
			c-0.7,6.9-1.6,13.7-2.5,20.4c-0.7,5.2-1.4,10.5-2,15.9C437.1,783.7,437.5,776,438,768.4z M434.2,650.8c0,13.8,0,28.9,0.5,44.1
			l0.3,6.9c0.2,3.6,0.3,7.4,0.5,11.2c0.2,5.1,0.4,9.9,0.5,14.4c-0.2,4.5-0.4,8.9-0.7,13.4c-0.3-0.1-0.7-0.2-1.1-0.2
			c-0.2,0-0.3,0-0.5,0.1c0.3-4.3,0.6-8.6,0.7-13c0.1-3.2,0.1-6.7,0.1-10.8c0-6.5-0.1-12.9-0.3-18.9c-0.1-4.1-0.3-8-0.4-11.6
			l-0.2-4.1V682c-1.1-6-1.1-12-1-18.3c0-4.4,0.1-8.8-0.3-13.3C433,650.7,433.6,650.7,434.2,650.8z M433.6,767.2c0,0.3,0,0.5,0,0.8
			c-0.1,1.4-0.2,2.9-0.3,4.3c-0.1-1.3-0.1-2.7-0.2-4C433.2,767.9,433.4,767.6,433.6,767.2z M432.7,838.2c0.1,0.2,0.2,0.3,0.4,0.4
			c0.2,5.3,0.4,10.6,0.5,15.9c-0.2-1.2-0.6-2.4-1.5-3.7C432.2,846.6,432.4,842.4,432.7,838.2z M431.7,1001.6
			c0.1,1.2,1.1,2.1,2.2,2.1h0.1c1.2-0.1,2.2-1.1,2.1-2.4c-0.2-2.9-0.3-6.1-0.4-9.5c-0.2-4.7-0.3-9.5-0.7-13.9
			c0-4.8,0.1-9.3,0.3-13.5c0.4-6.7-0.4-17-1.4-30.1c-0.3-3.7-0.6-7.6-0.9-11.6c0.1-0.5,0.2-0.9,0.2-1.4c5.1,8.8,6.4,16.4,12.2,27.1
			c0.2,6.9-0.1,12.4-1.2,15.9c-5.9,17.6,0,36.1,0.8,38.4c-4.5,4.6-12.9,7.3-20.4,9.1c0-0.7,0-1.4,0-2.1c0.2,0,0.3,0.1,0.5,0.1
			c0.1,0,0.3,0,0.4,0c1.2-0.2,2-1.4,1.8-2.6c-0.3-1.3-0.5-2.6-0.8-3.9c0.7-0.1,1.4-0.5,1.8-1.2c1.2-2.4,2.2-4.9,3.1-7.5
			C431.5,997,431.6,999.4,431.7,1001.6z M424.9,994.6c0.4-13.5,1.4-26.4,2.9-38.5c0.2-1.6,0.4-3.3,0.6-4.9c0.3,2.2,0.6,4.3,0.9,6.2
			c0.3,2.3,0.6,4.4,0.9,6.3c0.8,8.9,0.6,21.7-4.7,34C425.3,996.6,425.1,995.6,424.9,994.6z M429.3,682.9l0.1,1.6
			c-0.1-0.8-0.1-1.5-0.2-2.3C429.3,682.4,429.3,682.7,429.3,682.9z M429.6,787.2c0.3,5.3,0.7,10.5,1.1,15.7
			c-1.2,14.6-2.3,29.4-2.9,44.2c-0.3-0.2-0.6-0.5-1-0.7c-0.1-0.3-0.2-0.5-0.3-0.8c-0.1-5.1-0.1-10.3,0-15.4
			C427.8,816.2,428.8,801.9,429.6,787.2z M424.2,657.7c-0.3,9.7,0,18.2,0.7,27.3c0.4,5.3,0.7,10.7,1,16.1c0.2,4,0.4,8.2,0.6,12.4
			c0.1,9.8,0,19.4-0.1,28.8c0,0-0.1,0-0.1,0.1c-0.4-1.8-2-3.2-4-3.2c-1.5,0-2.7,0.8-3.5,1.9c0.1-2.2,0.2-4.5,0.3-6.7
			c0-4.6-0.1-9.3-0.2-14.4c-0.1-4.6-0.2-9.1-0.4-13.4l-0.1-4c-0.1-3.1-0.2-6-0.3-8.9C419.9,682.5,421.7,670.3,424.2,657.7z
			 M425.5,779.4c-0.1,1.5-0.1,3.1-0.2,4.6c-0.8,8.4-1.6,17-2.2,25.6c-0.5-8.7-0.9-17.6-1.3-26.4C423,782.1,424.2,780.8,425.5,779.4z
			 M418.6,652.6c0.3-0.1,0.5-0.2,0.8-0.3c0.3,0.5,0.6,1,1.1,1.4c-0.9,4.3-1.7,8.5-2.4,12.7C418.2,661.9,418.3,657.3,418.6,652.6z
			 M418.3,946.5c0.7-5.7,1.5-10.8,2.3-15.7c1.2-6.6,2.1-14.3,2.8-23c0,0.1,0.1,0.1,0.1,0.2c0.7,8.6,1.6,16.7,2.4,24
			c-1,5.8-2,10.8-2.8,14.7c-1.6,7.2-3,12-3.9,14.8c-0.5-4.6-1-9.1-1.2-13.6C418.1,947.4,418.2,947,418.3,946.5z M421.9,969.8
			c-0.2,2-0.4,3.9-0.5,5.9c-0.1-0.3-0.1-0.7-0.2-1C421.3,973.1,421.6,971.5,421.9,969.8z M415.8,969.1c0.3,1.9,0.6,3.8,0.9,5.7
			c-0.9,9.2,0.1,18.3,2.9,26.4c0.1,0.4,0.4,0.7,0.7,0.9c0,3.5-0.1,7,0,10.6c-1.9,0.4-3.6,0.7-5.1,1.1
			C414.4,998.7,414.6,983.9,415.8,969.1z M411.7,886.5c-0.9,11.9-2.1,24.3-3.4,37.1c-0.5,4.9-0.9,10.1-1.3,15.8
			c-1,7.7-1.6,15.4-1.8,23.1c-0.7,3.9-1.3,7.8-2,11.7c0-9.3,0.5-18.6,1.4-27.9c0.3-5.4,0.7-10.7,1.2-15.7c0.9-8.3,1.7-16.6,2.4-24.6
			c0.3-3.9,0.7-7.7,1-11.5c0.3-3.6,0.6-7.4,0.9-11.3C410.7,884.3,411.2,885.4,411.7,886.5z M409.2,1019.3c-0.5,1.3-1.1,2.8-1.7,4.3
			c0.2-4.4,0.3-8.8,0.6-13.2C408.4,1013.4,408.8,1016.3,409.2,1019.3z M407.4,748.3c0.9,0,1.8-0.3,2.5-0.9c-0.3,2.4-0.5,4.8-0.7,7.2
			c-0.4-2-1.2-3.9-1.9-5.7c-0.1-0.2-0.2-0.4-0.2-0.6C407.2,748.2,407.3,748.3,407.4,748.3z M396.7,777.7c0.3-4.9,0.6-9.1,0.9-12.7
			c0.5-6,0.8-9.9,0.9-10.9c1.1-0.2,2-0.8,2.7-1.6c0.1,0.8,0.2,1.7,0.2,2.7c0.3,2.9,0.6,6.4,0.9,10.4c0.3,3.2,0.5,6.4,0.7,9.5
			c-2.2,1.9-4.4,3.8-6.3,5.7C396.6,779.7,396.6,778.7,396.7,777.7z M396.6,908.6c2.4-17.5,3-35.1,2.8-52.5c1.9,2.6,3.2,4.7,3.2,6.1
			c0,1.8,1.3,6,3.4,11.2c-0.2,3.4-0.4,6.7-0.6,10c-0.3,5.6-0.6,11-1,16c-0.4,5.3-0.9,10.5-1.5,15.3c-0.7,5.6-1.5,10.9-2.4,15.7v0.2
			c-0.3,3.1-0.6,6.2-1.1,9.2c-0.9-3.9-2.1-7.8-3.5-11.6c-0.3-1.7-0.6-3.6-0.8-5.6C395.7,918.2,396.2,913.5,396.6,908.6z
			 M399.1,1039.7c-0.2,0.3-0.4,0.6-0.6,0.9c0.1-1.5,0.2-2.9,0.3-4.4C398.9,1037.4,399,1038.5,399.1,1039.7z M383.1,750
			c0.1,0,0.1,0,0.2,0c0,0.2-0.1,0.3-0.1,0.5c0,1.7,1,3.1,2.5,3.7c0,0.1,0,0.2,0,0.3c0,1.2-0.1,2.5-0.1,3.7c0,2.9,0.2,6.7,1.5,10.3
			c0.2,11.1,0.8,22.3,1.5,33.6c-0.4-0.4-0.8-0.7-1.2-1.2c-0.3-10.9-1.3-21.8-2.9-32.6c-0.1-4.1-0.7-8.2-1.3-11.8l-0.1-0.4
			c-0.4-2.2-0.7-4.3-1-6.4C382.5,750,382.8,750,383.1,750z M380.6,793.4L380.6,793.4c-0.2-1.2-0.3-2.4-0.4-3.5
			c-0.7-7.2-1.4-14.7-2-22C379.4,776.3,380.1,784.8,380.6,793.4z M376.1,823.6c0,3.7-0.1,7.5-0.2,11.4c-0.2-3.6-0.4-7.1-0.8-10.7
			c-0.1-0.8-0.6-1.4-1.3-1.8c0-0.3,0-0.5,0-0.8C374.8,822.3,375.5,822.9,376.1,823.6z M372.1,772.1c0,0.5,0.1,1,0.1,1.5v0.2
			c0.7,3.7,1.3,7.4,1.8,11.1c-0.9-1.2-1.7-2.4-2.5-3.6C371.7,778.2,371.9,775.1,372.1,772.1z M368.5,745.2c0.3,1.8,0.7,3.5,1,5.2
			c-0.1,0.3-0.2,0.6-0.2,0.9c-0.1,2.4-0.4,5.3-0.9,8.9c-0.3-3.2-0.6-6.4-0.9-9.7l-0.5-4.7C367.6,745.7,368.1,745.5,368.5,745.2z
			 M366.6,915.7c0.1-0.7,0.2-1.4,0.3-2.2c0.3-2.1,0.6-4.3,0.8-6.8c0-0.3,0.1-0.6,0.1-0.9c1.3-6.7,2.3-13.5,3.2-20.4
			c-0.1,3.6-0.1,7.2-0.1,10.8c-0.5,3.7-1,7.4-1.5,11.2c-0.4,4.3-0.9,9.3-1.5,14.5C367.6,920,367.1,917.9,366.6,915.7z M371.4,1057.8
			c-2.1-9.6-3.2-19.3-3.6-28.9c1,6.5,2,13,3.1,19.5c0.4,2.3,0.7,4.5,1.1,6.8C371.8,1056,371.6,1056.9,371.4,1057.8z M373.9,1067.4
			C373.9,1067.3,373.9,1067.3,373.9,1067.4L373.9,1067.4L373.9,1067.4z M374.5,1042.6c-2.4-14.7-4.6-29.1-6-43.4
			c0-0.6,0.1-1.1,0.1-1.7c1.4,14.7,3.7,29.3,6.1,43.8C374.6,1041.8,374.6,1042.2,374.5,1042.6z M376.5,1055.3
			c0.1-0.4,0.2-0.7,0.2-1.1c0.2,1.7,0.3,3.5,0.4,5.2C377,1058,376.8,1056.7,376.5,1055.3z M377.8,1081.3c0.1-0.6,0.2-1.1,0.3-1.7
			c0,0.1,0,0.2,0,0.3C378,1080.4,377.9,1080.9,377.8,1081.3z M378.2,1019.5c-0.8-5.3-1.7-10.6-2.4-15.8c-1.6-17.4-2.3-34.4-0.3-51.3
			c1.6,5.6,2.7,11.4,3.5,17.3c-0.6,11.2-0.2,22.5,0.8,33.8C379.5,1008.8,378.9,1014.1,378.2,1019.5z M380.6,954.7
			c-1-4-2.2-8-3.6-11.9c1.1-5.9,2.6-11.7,4.5-17.6l0.1-0.3c0.7-3.8,1.4-8,1.9-12.3c0.6-4.3,1.1-9,1.7-14.7
			c2.1-18.4,3.2-36.6,3.4-54.7c0.4,0.5,0.9,1.1,1.3,1.6c-0.6,15-1.2,30.3-1.4,45.6c0.1,4.2,0.2,8.6,0.4,12.9
			c-0.1,0.9-0.1,1.9-0.2,2.8c-0.4,4.7-0.8,9.3-1.2,13.5c-0.6,5.2-1.2,9.7-1.9,13.7C383.3,940.2,381.7,947.4,380.6,954.7z
			 M396,1018.1c-0.9,9.6-1.9,19.3-2.4,29.1c-0.4,0.4-0.7,0.8-1.1,1.2c-0.4,0.4-0.7,0.8-1,1.3c-0.5-9.8-1.4-19.5-2.3-29.1
			c-2.7-27.9-5.4-56.8,3.8-84.8l0.1-0.3c0.1-0.4,0.1-0.8,0.2-1.1c1.9,6.2,3.2,12.5,4.1,18.9c-1.5,9.6-3,19.5-3,29.8
			c0.5,9,1.4,18.1,2.4,27.1C396.6,1012.8,396.3,1015.4,396,1018.1z M474.2,907.3c-0.4-0.2-0.7-0.4-1.1-0.6c-0.1-3.1-0.1-6.4,0-9.7
			c0.5,2,1,3.9,1.5,5.9C474.4,904.4,474.3,905.9,474.2,907.3z M477.4,881.1c-0.6,3.3-1.1,6.6-1.6,9.9c-0.7-2.3-1.6-4.6-2.4-6.9
			c0.2-4.3,0.5-9,1-14.4l0.2-6c1-31.5,2.1-63.7,3.8-95.7c-0.2,15.5,0.2,31.1,0.5,46.3c0.2,8.2,0.4,16.6,0.5,24.9
			c-0.6,11.8-1,23.7-0.9,35.5C478.2,876.8,477.8,878.9,477.4,881.1z M479,902.6c0.1-0.6,0.1-1.3,0.2-1.9c0.1,1.4,0.2,2.9,0.3,4.3
			C479.4,904.2,479.2,903.4,479,902.6z M489.3,910c-0.1-1.6-0.3-3.3-0.4-4.9c0.1-0.7,0.2-1.3,0.3-2c0.1,1.9,0.1,3.8,0.2,5.6
			C489.4,909.1,489.4,909.5,489.3,910z M487.9,667.8c1.4,7.3,2.2,14.6,2.6,22c-0.7-1.6-1.3-3.2-1.8-4.6c-0.4-4.4-0.8-8.9-1.2-13.4
			C487.7,670.2,487.8,669,487.9,667.8z M487.4,807c0.2,15.6,0.6,31.5,1.3,47.3c-0.1,5.6-0.3,11.2-0.7,16.7c-0.2,1.2-0.3,2.4-0.5,3.6
			c0-1.2-0.1-2.4-0.1-3.6c0-2-0.1-4.1-0.1-6.1v-0.2C485,845.7,485.6,826.2,487.4,807z M484.5,729.9v-0.2v-0.2
			c-0.4-4.1-0.7-8.1-1-12.3c0.7,0.7,1.5,1.4,2.4,2c0,0.1,0,0.1,0,0.2c0,1,0,2.1,0,3.1c0.2,4.6,0.3,9.2,0.5,13.8
			c-0.6,18.2-2,36.5-3.5,54.4C482.6,770.4,482.8,749.9,484.5,729.9z M483,878.9c0-1.3,0-2.6,0-3.9c0-0.3,0.1-0.5,0.1-0.7
			c0,2.2,0.1,4.4,0.2,6.5c0.2,6,0.4,12,0.8,17.8c-0.1,1-0.2,2-0.3,2.9c-0.2-2.1-0.3-4.2-0.4-6.4C483,889.5,482.9,884.2,483,878.9z"
			/>
	</g>
</g>
<path id="XMLID_1102_" class="st4" d="M764.2,806.2c-0.3-0.6,1.8-5.5,6.1-12.9s10.9-15.3,12.6-17.3s3.8-4.4-0.4-1.5
	s-7.5,6.2-8.7,3.8c-0.2-0.5,1,0.3,1.8-0.2c0.7-0.6,7.7-5.8,8.9-6.9c1.2-1,6.1-4.7,8.1-6.8c0.6-0.5,4.5-3,6.2-3.2
	c1.7-0.2,5.1-3.1,5.5-3.3c0.5-0.3,3-1.1,5.4-3c-0.1-0.5,0-1.3-1-1.2c-1,0.1-0.1-1,1.1-0.5c0-0.1,4.1-2.2-0.4-3c-1-0.2-5-2-8.4-1.4
	c-0.6,0.2-1.1,0.2-2.1,1.1c-1,0.9-2.9,1.2-3.7,1.2c-0.8,0.1-3,3-3.7,3.9c-0.7,0.8-2.1,3.7-3,3.2c0-0.6,0.2-5.1,0.4-7
	c0.2-1.9,0.7-4.7,5.8-7.7c1.3-0.8,3.9-2.5,4.7-2.2c0.5-0.4,2.1-1.8,3.3-1.8s1.8,0.5,3.1-0.1c1.3-0.6,5-1,7.2-1
	c2.2-0.1,10.7-1.9,11.2-2c0.5-0.1,0.3,0.9,0.3,0.9s-6.3,0.7-10.4,1.8c0,0-5.6,0.1-8,1c-0.4,0-2.3,0.6-0.4,0.9c1.9,0.3,6.4,0.7,8,0.6
	c1.6-0.1,4.7,0,5.3,0.2c0.6-0.3,3.1-1.9,5-2c0-0.8-0.7-9,0-15.5c0-1.4,0.5-2-0.6-4.8s-0.5-8.7-1.4-14.3c-0.2-1.6-0.2-4.8-2.2-7.1
	c0-0.6,1.5-2.2-1.4-2.4c-1.8-0.1-2.5,0.1-2.7,0.2c-0.2,0.1-1.4,0,1.3-1.2c2.7-1.2,4.6,0.9,5.2,2.5c0.6,1.6,0.3,3.7,2.8,4.4
	c0.8,0.2,1.8,1.2,2.1-0.9c0.2-2.1,3.1-10.2,5.8-17.5c2.6-7.3,5.3-10.7,5.5-11.4c0.2-0.6,0.8-2.7,2.6-6.4c1.8-3.7,3.5-8.4,8.2-13.2
	c1-1.1,1.8-3.1,0.8,1.1s-1.6,8.2-1.6,8.8c0.4-0.6,2.1-3.1,4.5-4.6c-0.4,1-1.2,1.4-1.1,2.9s0.7,6.2,0.4,8.1c0.4-0.2,1.6-2.2,2.1-2.1
	c0.5,0.1,0,1.1-1,2.8c-0.2,0.4-0.2,1.2,0.2,2.9s-1.7,10.6-2.4,14c-0.7,3.4-0.8,6.2-1.9,7.9c-1.1,1.8-1.8,12.3-2.7,18.7
	c-1,6.5-3.1,15.3-4.9,22.4c-0.5,2.1-0.8,4-0.5,8c0,2.4,0,6.2,0.2,6.4c0.2,0.2,6.5-0.6,11.9-3.7c1.5-0.9,4.6-2.2,6.4-3.7
	s1.8-2.5,4.1-2.5c1,0,6.3-2.3,8.6-4.9c0.8-0.1,2.6,0.1,2.7-1.3c0.1-1.4-0.3-2.1-1-2.5c-0.4-0.3-0.1-0.8,1.3,0.4
	c1.4,1.2,0.4,3.4-1.9,4.9s-4.7,3.8-5.3,4.5c-0.2,0.2-0.1,0.8,2.9,0.4c3-0.4,7.3-0.6,9.1-0.7c1.8-0.1,1.9,0-0.6,1s-11.2,6.1-15.5,8.3
	s-6.6,2.7-10.1,5.7c-1,0.8-4.6,3.6-0.3,5.8c4.2,2.3,8,3.7,12,6.1c3.4,1.9,8.4,4.9,10,5.4s7,2.1,6.5,3.2c0.6,0.4,0.6,0.4,1,1.4
	c0.3,0.3,2.9,1.9,2.9,2.1s-0.3,0.2-3.1-1.6c-0.5-0.2-1-0.3-1.4,0.1c-0.2,0.2-2.7-0.3-2.6,0.2s3.5,3.4,3,3.4c-0.4,0-2.9-2.2-3.3-2.1
	s-0.9-0.8-1.8-0.5c-0.3,0-1.8-3-2.5-4.2c-0.7-1.1-3.6-3.4-10.8-6.4c-5-2.3-11.1-5.3-14.2-5.1s-3.4-0.4-5.5,2.2
	c-0.6,0.7-2.3,4.3-2.8,7.4c-0.6,3.2-1.2,6.4-1.7,8.8c-0.2,0.7-1.4,3.3-1.4,4.6c-0.2,0.5-1.6-1-2.5-2.4c-0.9-1.4-2.3-2.2-3-3.7
	c-0.4-0.8-1-1.2-0.9,0.1c0.1,1.2-0.3,1.9-1,3c-0.7,1.2-1.9,3.6-2,5.1c-0.1,0.8-2.5,1.9-3.7,0.9c-0.3-0.3,0.6,0.1,1.2-0.1
	c0.6-0.2,1.3-0.8,1.6-2.1c0.3-1.4,1.6-5.1,1.6-8.3s0.2-7-0.3-9.2s-0.5-3.7-0.3-4.2s-0.3-2.3-1.7-2s-2.4-0.6-3.1-0.7
	c-0.6,0.1-2.8,2.4-4.9,3.3s-6.9,3.8-16.1,7c-2.9,1-12.3,4.5-15,6.7c-2.7,2.1-9,9.7-9.3,10.1c-0.3,0.4-1,2.6-1.4,1.2
	c-0.4,0.2-3.1,4.4-4.2,5.3c-1.1,0.9-1.9,1.7-1.9,2.2s-0.2,1.6-1.1,0.6C768.8,797.7,764.6,807.1,764.2,806.2z"/>
</svg>
