<?xml version="1.0" encoding="utf-8"?>
<!-- Generator: Adobe Illustrator 19.0.0, SVG Export Plug-In . SVG Version: 6.00 Build 0)  -->
<svg version="1.1" id="Layer_1" xmlns="http://www.w3.org/2000/svg" xmlns:xlink="http://www.w3.org/1999/xlink" x="0px" y="0px"
	 viewBox="0 0 1202.6 1038.2" style="enable-background:new 0 0 1202.6 1038.2;" xml:space="preserve">
<style type="text/css">
	.st0{display:none;fill:#3A3A3A;}
	.st1{fill:none;}
	.st2{display:none;fill:#FFFFFF;}
	.st3{font-family:'Lato-Light';}
	.st4{font-size:150px;}
	.st5{fill:#424F56;}
</style>
<path id="XMLID_873_" class="st0" d="M0,661.3c108.9,224.8,340,379,606.4,376.9c262.8-2,488.9-155.5,596.3-377L0,661.3z"/>
<rect id="XMLID_54_" y="803.2" class="st1" width="1202.6" height="112"/>
<text id="XMLID_55_" transform="matrix(1 0 0 1 470.8185 912.5218)" class="st2 st3 st4">404</text>
<g id="XMLID_1_">
	<g id="XMLID_2362_">
		<path id="XMLID_2650_" class="st5" d="M702.8,876.4v-55.6c0-0.8,0-1.8,0.1-2.7c0-0.9,0.2-1.9,0.3-2.9l-45.8,61.2H702.8z"/>
		<path id="XMLID_2649_" class="st5" d="M622.7,822.4c-2.8-3.9-6-6.7-9.8-8.5s-7.6-2.7-11.7-2.7s-8,0.9-11.7,2.7
			c-3.7,1.8-7,4.6-9.8,8.5c-2.8,3.9-5,8.9-6.7,15c-1.6,6.1-2.5,13.5-2.5,22.1c0,8.7,0.8,16,2.5,22.1c1.7,6.1,3.9,11.1,6.7,14.9
			c2.8,3.9,6,6.7,9.8,8.5c3.7,1.8,7.6,2.7,11.7,2.7s8-0.9,11.7-2.7c3.7-1.8,7-4.6,9.8-8.5c2.8-3.9,5-8.8,6.6-14.9s2.5-13.4,2.5-22.1
			c0-8.6-0.8-15.9-2.5-22.1C627.7,831.3,625.5,826.3,622.7,822.4z"/>
		<path id="XMLID_2364_" class="st5" d="M736.2,661.2c-0.1-0.1-0.3-0.3-0.4-0.4c-4.8-6.7-3.5-3-11-20.4
			c-7.6-17.5-41.7-19.8-59.5-40.1c-10.6-12.1-11.4-30.1-8.6-44.2c-0.1,2.3-0.2,4.5-0.3,6.8c-0.1,1.2,0.8,2.3,2.1,2.4
			c0.1,0,0.1,0,0.2,0c1.2,0,2.1-0.9,2.2-2.1c0.3-4.1,0.4-8.1,0.4-12.2c0.5-0.6,0.6-1.4,0.3-2.2c-0.1-0.3-0.2-0.6-0.3-1
			c0-1.9,0-3.8-0.1-5.8c0.9-1.8,1.8-3.4,2.7-4.6c0.9,3.5,1.8,7.1,2.7,10.7c0.2,1,1.2,1.7,2.2,1.7c0.1,0,0.1,0,0.2,0
			c0,0.1,0,0.2,0,0.3c0.1,0.6,0.4,1.1,0.8,1.4c-1,3.5-2.5,7-4.7,10.4c-0.7,1-0.3,2.4,0.7,3.1c0.4,0.2,0.8,0.3,1.2,0.3
			c0.7,0,1.5-0.4,1.9-1.1c1.7-2.7,3-5.4,4-8.1c0.1,0.6,0.2,1.2,0.4,1.8c-0.3,4.3-0.8,8.7-1.6,13c-0.2,1.2,0.6,2.4,1.8,2.6
			c0.1,0,0.3,0,0.4,0c1.1,0,2-0.8,2.2-1.8c0.7-4,1.2-8,1.5-12.1c0.3-0.5,0.4-1,0.2-1.6c0-0.1-0.1-0.3-0.1-0.4
			c0.7-10.3,0.1-20.7-1.2-31c0.2-0.1,0.4-0.2,0.6-0.4c2.9,10.6,5.7,21.5,7.4,32.8c0,0.1,0.1,0.2,0.1,0.3c-0.1,1.3-0.3,2.6-0.6,3.9
			c-1.1,2-2.4,4-3.9,5.9c-0.8,1-0.6,2.4,0.3,3.1c0.4,0.3,0.9,0.5,1.4,0.5c0.7,0,1.3-0.3,1.7-0.8c1-1.2,1.9-2.5,2.7-3.8
			c0.7-0.2,1.2-0.7,1.5-1.5c0.2-0.6,0.3-1.2,0.5-1.8c0.9-1.7,1.7-3.5,2.4-5.4c-0.1,1.2-0.2,2.4-0.4,3.6c-0.2,1.2,0.7,2.3,1.9,2.5
			c0.1,0,0.2,0,0.3,0c1.1,0,2.1-0.8,2.2-1.9c1-7.7,1.2-15.3,0.8-22.9c0.5,7.4,0.8,15,1.2,23c0.1,1.2,1,2.1,2.2,2.1c0,0,0.1,0,0.1,0
			c1.2-0.1,2.2-1.1,2.1-2.3c-0.1-1.4-0.1-2.7-0.2-4c0.4,0.6,1,1,1.7,1c0.1,0,0.1,0,0.2,0c0.5,0,1-0.2,1.4-0.5
			c-0.7,3.1-1.6,6.2-2.9,9.3c-0.5,1.1,0.1,2.4,1.2,2.9c0.3,0.1,0.6,0.2,0.9,0.2c0.9,0,1.7-0.5,2.1-1.4c2.5-6.1,3.9-12.2,4.3-18.2
			c0.1-0.3,0.1-0.5,0.1-0.8c0.2-3.6,0.1-7.1-0.2-10.7c0.4,0.5,0.9,0.8,1.6,0.9c0.3,6.5,0.2,13-0.2,19.5c-0.1,1.2,0.8,2.3,2.1,2.4
			c0.1,0,0.1,0,0.2,0c1.2,0,2.1-0.9,2.2-2.1c0.1-0.9,0.1-1.7,0.1-2.6c0.6,5.6,1.2,11.3,1.9,17c0.1,1.1,1.1,1.9,2.2,1.9
			c0.1,0,0.2,0,0.3,0c1.2-0.2,2.1-1.3,1.9-2.5c-1-8.1-1.9-16.2-2.6-24.2c0.2,1,1,1.8,2.1,1.9c0,0,0.1,0,0.1,0c1.2,0,2.2-0.9,2.2-2.1
			c0.3-8.1,0.1-16.2-0.5-24.3c0.2,0.3,0.3,0.5,0.4,0.8c0.4,0.7,1.2,1.1,1.9,1.1c0.1,0,0.2,0,0.3,0c0.3,0.8,1.1,1.4,2,1.4
			c0.1,0,0.2,0,0.3,0c1.2-0.2,2.1-1.3,1.9-2.5c0-0.3-0.1-0.7-0.2-1c4.6,0.7,9.5,1,14.2,0.6c0.2,0.9,0.4,1.7,0.7,2.6
			c0.3,1,1.2,1.7,2.2,1.7c0.2,0,0.4,0,0.6-0.1c1.2-0.3,1.9-1.5,1.6-2.7c-0.2-0.7-0.3-1.3-0.5-2c4.8-0.8,9.1-2.4,12.2-4.8
			c0.6,4,1.5,7.9,3,11.7c0.3,0.9,1.2,1.4,2.1,1.4c0.3,0,0.5,0,0.8-0.2c1.1-0.4,1.7-1.7,1.3-2.9c-1.5-3.9-2.5-7.8-2.9-11.9
			c0.2-0.2,0.4-0.4,0.5-0.6c1.6-3,3-6.3,4-9.7c0.3-1.1,0.6-2.2,0.9-3.3c0.7-1.6,1.5-3.1,2.4-4.4c0,1,0.1,2,0.1,3.1
			c-0.3,7.1-0.8,14.4-1.5,22c-0.1,1.1,0.6,2.1,1.6,2.4c0,1.1,0,2.2-0.1,3.3c0,1.2,0.9,2.3,2.1,2.3c0,0,0.1,0,0.1,0
			c1.2,0,2.2-0.9,2.2-2.1c0.3-9.2,0.2-18.5-0.1-27.8c0.1-2.4,0.1-4.7,0.2-7.1c0.7-0.3,1.5-0.4,2.4-0.5c0.7,7.4,1.6,14.8,2.7,22.2
			c0,6.4-0.1,12.7-0.2,18.8c0,1.2,1,2.2,2.2,2.3c0,0,0,0,0,0c0.6,0,1.2-0.3,1.6-0.7c0.3,1.5,0.6,3.1,1,4.6c0.2,1,1.1,1.8,2.2,1.8
			c0.2,0,0.3,0,0.5-0.1c0.7-0.1,1.2-0.6,1.5-1.1c1.3,8.4,2.8,16.9,4.6,25.3c0.2,1,1.1,1.8,2.2,1.8c0.2,0,0.3,0,0.5,0
			c1.2-0.3,2-1.4,1.7-2.6c-5.1-24.2-8.1-48.4-8.9-72.3c2,0,3.9,0,5.9,0c-0.3,7.1-0.2,14.3,0.1,21.3c-2.1,11.4-2.7,23.1,0.9,35.1
			c0,0.9,0,1.8,0,2.7c0,0.5,0.1,0.9,0.4,1.3c0,0.9,0.6,1.7,1.5,2c0.2,0.1,0.5,0.1,0.8,0.1c0.9,0,1.8-0.6,2.1-1.5
			c1.4-4,2.5-8,3.3-12.1c-0.1,6.3-0.3,12.5-0.8,18.8c-0.1,1.2,0.8,2.3,2,2.4c0.1,0,0.1,0,0.2,0c1.2,0,2.1-0.9,2.2-2.1
			c0.1-0.7,0.1-1.3,0.1-2c0.4,0.7,1.1,1.2,2,1.2c0.1,0,0.1,0,0.2,0c1.2-0.1,2.1-1.2,2.1-2.4c-1.1-14.5-1.4-28.8-1.7-42.7
			c-0.2-7.6-0.3-15.3-0.6-23.1c0,0,0.1,0,0.1,0c0.5,5.5,1.1,11,1.6,16.4c0.6,5.4,1.1,10.8,1.6,16.2c-0.3,12.1-0.2,24.1,0.5,36.3
			c0,0.6,0.3,1.1,0.7,1.5c0,0.5,0,0.9-0.1,1.4c-0.1,1.2,0.9,2.3,2.1,2.4c0,0,0.1,0,0.1,0c1.2,0,2.2-0.9,2.2-2.1
			c0.8-13.1,0-26.5-1.2-39.6c0.4-12.8,1.3-25.6,2.8-38.6c0.3-0.2,0.6-0.5,0.9-0.7c2.2,23.2,4.7,45.8,7.2,67.1c0.1,1.1,1.1,2,2.2,2
			c0.1,0,0.2,0,0.3,0c1.2-0.1,2.1-1.3,2-2.5c-2.6-22.1-5.2-45.7-7.5-69.7c1.9-1.5,3.8-3,5.5-4.3c0,2.6,0,5.2,0,7.8
			c0.2,18.5,1.8,36.7,3.5,53.6c0.1,0.7,0.2,1.5,0.3,2.3c-0.6,1.2-1.1,2.4-1.7,3.6c-0.6,1.1-0.1,2.4,1,3c0.3,0.2,0.7,0.2,1,0.2
			c0.2,0,0.4,0,0.6-0.1c0.7,5.8,1.6,11.7,2.5,17.7c0.2,1.1,1.1,1.9,2.2,1.9c0.1,0,0.2,0,0.3,0c1.2-0.2,2.1-1.3,1.9-2.5
			c-1.2-7.9-2.3-15.7-3.2-23.1c0.7-1.5,1.3-3.1,1.9-4.6c0.3,2.7,1,5.3,2,7.7c0.3,0.7,0.9,1.1,1.5,1.3c-0.9,1.9-1.9,3.7-3,5.6
			c-0.6,1.1-0.3,2.4,0.7,3.1c0.4,0.2,0.8,0.3,1.2,0.3c0.8,0,1.5-0.4,1.9-1.1c11.9-19.4,11.1-39.7,7.6-59.9c0.3-1.9,0.7-3.8,1-5.7
			c1.2,13.8,2,27.4,1,41.2c-0.7,5.2-1.7,10.5-3.2,15.8c-0.3,1.2,0.4,2.4,1.6,2.7c0.2,0.1,0.4,0.1,0.6,0.1c1,0,1.9-0.6,2.1-1.6
			c0-0.2,0.1-0.3,0.1-0.5c0.8-0.3,1.4-0.9,1.5-1.7c0.8-5,1.4-10,1.7-14.9c0.6-5,1-10.1,1.1-15.1c0.7,8.6,1.3,17.4,1.8,26.2
			c-0.8,1.4-1.7,2.8-2.6,4.2c-0.7,1-0.4,2.4,0.6,3.1c0.4,0.3,0.8,0.4,1.3,0.4c0.4,0,0.7-0.1,1.1-0.3c0.1,2.9,0.2,5.7,0.2,8.5
			c0,1.2,1,2.2,2.2,2.2c0,0,0,0,0,0c1.2,0,2.2-1,2.2-2.2c0-4.9-0.2-9.9-0.4-14.9c1-1.8,1.9-3.7,2.6-5.6c0.1,0.5,0.3,1,0.7,1.4
			c-0.1,0.7-0.3,1.3-0.4,2c0,0.2,0,0.3,0,0.5c-0.7,1.1-1.4,2.3-2.2,3.4c-0.7,1-0.4,2.4,0.6,3.1c0.4,0.3,0.8,0.4,1.3,0.4
			c0.7,0,1.4-0.3,1.8-1c4.6-6.7,7.7-13.5,9.3-20.4c-0.4,3.6-0.9,7.1-1.3,10.1c-0.2,1.2,0.7,2.4,1.9,2.5c0.1,0,0.2,0,0.3,0
			c0.2,0,0.3-0.1,0.5-0.1c-0.8,3.2-1.9,6.4-3.1,9.6c-0.4,1.1,0.1,2.4,1.3,2.9c0.3,0.1,0.5,0.2,0.8,0.2c0.9,0,1.7-0.5,2.1-1.4
			c3-7.8,4.9-15.6,5.8-23.4c0.3,0.3,0.6,0.5,1,0.7c0.2,0.1,0.5,0.1,0.7,0.1c0.9,0,1.8-0.6,2.1-1.5c4.7-13.8,4.7-28,3.7-42.1
			c0.3-1.5,0.5-3,0.8-4.5c0.2-1.3,0.5-2.6,0.7-3.9c1,12.7,1.7,25.8-0.6,38.9c-0.2,1.2,0.6,2.4,1.8,2.6c0.1,0,0.3,0,0.4,0
			c1.1,0,2-0.8,2.2-1.8c0.2-1.2,0.4-2.4,0.6-3.5c0.3,0.1,0.6,0.2,0.9,0.2c0.1,0,0.3,0,0.4,0c1.2-0.2,2-1.4,1.8-2.6
			c-2.3-12.9-1.1-25.6,0.2-39.1c0.2-1.7,0.3-3.3,0.5-5c0.3,2.1,0.5,4.2,0.8,6.3c1,7.9,2,16,2.3,24c-0.2,3.3-0.2,6.5-0.1,9.8
			c-0.1,1.9-0.3,3.9-0.5,5.8c-0.1,0.9,0.3,1.8,1.1,2.2c0,0,0,0.1,0,0.1c0.1,1.1,1.1,2,2.2,2c0.1,0,0.2,0,0.3,0
			c1.2-0.2,2.1-1.3,1.9-2.5c-0.3-2.5-0.5-5.1-0.6-7.6c0.2-3.3,0.2-6.5,0.1-9.8c0.4-7.5,1.3-14.9,2.2-22.3c0.6-4.8,1.2-9.6,1.7-14.5
			c0.3,3.2,0.6,6.4,0.9,9.6c0.5,5.6,1,11,1.3,16.4c-0.3,5.5-0.5,11.1-0.3,16.8c-0.2,2-0.5,3.9-0.8,5.9c-0.2,1.1,0.4,2.1,1.4,2.5
			c0.2,2.3,0.6,4.7,1,7c0.2,1.1,1.1,1.8,2.2,1.8c0.1,0,0.3,0,0.4,0c1.2-0.2,2-1.4,1.8-2.6c-0.9-4.8-1.3-9.6-1.5-14.4
			c0.6-5.7,0.6-11.3,0.3-17c0.2-3.3,0.5-6.7,0.7-10c0.2,0.9,0.3,1.9,0.5,2.8c2,10.8,4,21.9,3.8,33c0,1.2,1,2.2,2.2,2.3c0,0,0,0,0,0
			c1.2,0,2.2-1,2.2-2.2c0.2-11.5-1.9-22.9-3.9-33.9c-1.2-6.6-2.4-13.4-3.1-20.2c1-0.1,1.7-0.2,1.9-0.5c0.4-0.5-0.5-1.1-2.1-1.7
			c0-0.3,0-0.7-0.1-1c0.2-5.3,0.1-10.7-0.3-16.1c0-2.9,0-6,0.1-9.2c0-1.2,0.1-2.4,0.1-3.6c5.1-1.4,9.8-2.4,10.9-3.5
			c1.1-1.1-4.2-1.8-10.7-1.8c0.6-12.6,1.6-25.3,2.8-37.6c4.2-3.3,7.1-6.5,9.9-6.5c3.4,0,0-2.3-9.2-1.1c0.5-5.3,1.1-10.6,1.7-15.8
			l0-0.2c0.1-5.4,0-10.5-0.1-14.8c-0.1-3.8-0.3-7.6-0.4-11.3c2.1-0.1,3.9-1.9,3.9-4.1c0-2.3-1.8-4.1-4.1-4.1c-0.7,0-1.4,0.2-2,0.6
			c-0.7-1.2-2-2-3.5-2c-1.4,0-2.6,0.7-3.3,1.7c-0.7-0.7-1.7-1.2-2.9-1.2c-1.2,0-2.2,0.5-3,1.3c-0.2,0-0.3-0.1-0.5-0.1
			c-1.6,0-3,0.9-3.6,2.3c-0.4,0.1-0.8,0.2-1.2,0.3c-0.7-1.1-2-1.8-3.4-1.8c-1.8,0-3.3,1.2-3.9,2.8c-0.1,0.2-0.3,0.4-0.3,0.7
			c-0.7-0.8-1.8-1.4-3.1-1.4c-1.5,0-2.8,0.8-3.5,2c-0.4,0-0.9,0-1.4,0.1c-0.7-0.5-1.5-0.9-2.5-0.9c-0.4,0-0.7,0.1-1,0.2
			c-0.7-0.8-1.8-1.4-3-1.4c-0.9,0-1.7,0.3-2.4,0.8c-0.5-5.7-0.8-11.3-0.4-17.1c0.2-4.7,0.4-9.4,0.5-14c0.6-23.5-0.5-47.2-3.2-70.4
			c-0.1-4.3-0.7-8.7-1.2-13l-0.3-2.2c-0.6-4.4-1.1-9.1-0.8-13.7c0.8-0.3,1.2-0.6,1.2-0.9c-0.3-1.3-0.4-3.1-1.2-4.7
			c0.3-0.5,0.4-1.2,0.4-1.8c0-1.8-1.1-3.3-2.7-3.8c-0.4-0.9-1.5-1.5-2.5-1.2c-0.9,0.2-1.5,0.9-1.7,1.7c-0.7-0.5-1.5-0.8-2.4-0.8
			c-1,0-1.9,0.4-2.6,0.9c-0.7-0.6-1.6-0.9-2.6-0.9c-1.6,0-3,1-3.7,2.4c-0.4-0.1-0.7-0.2-1.1-0.2c-1.1,0-2,0.4-2.8,1.1
			c-0.6-0.3-1.3-0.5-2-0.5c-1.5,0-2.8,0.8-3.5,2c-0.6-0.4-1.4-0.7-2.2-0.7c-1.4,0-2.7,0.7-3.4,1.9c-0.4,0.1-0.9,0.2-1.3,0.2
			c-1.5,0.2-2.9,0.7-4.3,1.2c-0.4-0.1-0.8-0.2-1.3-0.2c-1.7,0-3.1,1-3.7,2.4c-0.4-0.1-0.7-0.2-1.1-0.2c-1.6,0-2.9,0.9-3.6,2.2
			c-0.2,0-0.4,0.1-0.5,0.2c-0.3,0.2-0.6,0.4-0.8,0.7c-0.2,0-0.5-0.1-0.7-0.1c-1.6,0-3,0.9-3.6,2.3c-0.1,0-0.3,0-0.4,0
			c-1.6,0-3,0.9-3.7,2.3c-0.6-0.3-1.2-0.5-1.8-0.5c-1.9,0-3.5,1.3-4,3.1c-0.2,0.1-0.3,0.2-0.5,0.2c-0.2-0.1-0.4-0.3-0.6-0.3
			c-1.1-0.4-2.3,0-2.8,1.1c-0.6-1.6-2.1-2.7-3.8-2.7c-0.8,0-1.5,0.2-2.1,0.6c-0.7-0.6-1.6-0.9-2.6-0.9c-0.1,0-0.3,0-0.4,0
			c0,0,0,0,0,0c0.3-0.5,0.4-1.1,0.4-1.8c0-2.3-1.8-4.1-4.1-4.1c-0.2,0-0.3,0-0.5,0c0-0.1,0-0.2,0-0.3c0.1-1.1-0.6-2.1-1.6-2.4
			c-0.5-0.4-1.1-0.7-1.8-0.9c0.1-0.3,0.1-0.7,0.1-1c0-2.3-1.8-4.1-4.1-4.1c0,0,0,0-0.1,0c-0.3-2-2-3.5-4-3.5c0-2.3-1.8-4.1-4.1-4.1
			c-0.2,0-0.4,0-0.6,0.1c0.4-0.6,0.6-1.3,0.6-2.1c0-2-1.4-3.6-3.2-4c0.1-0.4,0.2-0.9,0.2-1.3c0-2.2-1.7-3.9-3.8-4.1
			c-0.7-1-1.9-1.6-3.2-1.6c-0.9,0-1.8,0.3-2.5,0.8c-0.5-0.2-1-0.3-1.6-0.3c-0.9,0-1.8,0.3-2.5,0.8c-0.5-0.4-1.1-0.6-1.8-0.5
			c-1.2,0.2-2.1,1.3-1.9,2.5c0.6,4.4,1.7,8.5,2.9,12.6c1.5,5.5,3,10.7,3.1,16.5l0,0.2c0.4,3.4,0.6,7.1,0.8,10.7
			c0.1,3,0.2,6.1,0.3,9.4c0.3,4.7,0.6,9.3,0.9,13.9c0.3,4.6,0.5,9.2,0.8,13.8c0.5,8.6,0.8,17.4,0.9,26.1c-1,1.3-2.4,2.4-4,3.3
			c0.7-8.9,1.1-17.8,0.7-26.9c0-11-0.5-21.1-1.5-30.9c-0.1-3.1-0.1-6.1-0.2-8.9c-0.3-13.6-3.2-26.9-8.3-39.1c1.3-0.7,2.1-2,2.1-3.6
			c0-1.4-0.7-2.7-1.8-3.4c-0.5-1.6-2.1-2.8-3.9-2.8c-0.5,0-0.9,0.1-1.3,0.2c-0.7-0.5-1.7-0.7-2.5-0.2c0,0-0.1,0-0.1,0.1
			c-0.5-0.6-1.3-0.9-2.1-0.7c-0.5-0.6-1.2-0.9-2-0.8c-1,0.1-1.7,0.9-1.9,1.8c-0.7-0.7-1.8-1.2-2.9-1.2c0-1.2-0.5-2.2-1.3-3
			c-0.2-0.5-0.3-1.1-0.5-1.6c-0.4-1.2-1.6-1.8-2.8-1.5c-0.3,0.1-0.6,0.3-0.9,0.5c-0.4-0.3-0.8-0.5-1.3-0.6c-0.2,0-0.4,0-0.6,0
			c-0.7-1-1.9-1.6-3.2-1.6c-1.1,0-2.2,0.5-2.9,1.2c-1.1,0.1-2.1,0.7-2.8,1.5c-0.5-0.3-1.1-0.4-1.8-0.4c-1.4,0-2.7,0.7-3.4,1.8
			c-1.3,0.1-2.5,0.7-3.2,1.8c-0.6-0.4-1.3-0.6-2.1-0.6c-2.3,0-4.1,1.8-4.1,4.1c0,0.1,0,0.1,0,0.2c-3.2,7-7.4,13.8-12,19.9
			c-0.2-0.2-0.4-0.4-0.6-0.6c-0.7-2.6-1.5-5.1-2.3-7.5c-0.2-1.2-0.4-2.5-0.7-3.7c-2.1-11-5.1-22.9-9.2-36.8
			c-0.1-0.4-0.4-0.8-0.7-1.1c1.5-1.1,2.4-1.7,2.4-1.7s-1.4-0.2-3.5-0.4c-0.1-2.2-1.9-3.9-4.1-3.9c-1.2,0-2.3,0.6-3.1,1.4
			c-0.1,0-0.1,0-0.2,0c-0.9,0-1.7,0.3-2.4,0.8c-0.1,0-0.2,0-0.3,0c-1.7,0-3.2,1.1-3.8,2.6c-0.2-0.1-0.5-0.2-0.7-0.2
			c-0.3,0-0.6,0-0.9,0.1c-0.6-0.3-1.3-0.6-2-0.6c-1.6,0-3,1-3.7,2.3c-1.9,0.1-3.5,1.6-3.8,3.4c0,0,0,0-0.1,0c-1.8,0-3.4,1.2-3.9,2.9
			c-0.1,0-0.1,0-0.2,0c-1.6,0-3.1,1-3.7,2.4c-0.4-0.1-0.8-0.2-1.2-0.2c-1,0-1.8,0.4-2.6,0.9c-0.1,0-0.1,0-0.2,0
			c-0.8,0.2-1.4,0.9-1.5,1.6c-1,0.1-1.8,0.5-2.5,1.2c-0.6-0.4-1.4-0.7-2.3-0.7c-1.1,0-2,0.4-2.8,1.1c-0.7-0.8-1.8-1.3-3-1.3
			c-1.3,0-2.5,0.6-3.2,1.6c-0.1-0.3-0.3-0.6-0.5-0.8c-0.2-1.6-1.3-3-2.9-3.5c0-0.1,0-0.1,0-0.2c0-2.3-1.8-4.1-4.1-4.1
			c-0.6,0-1.2,0.2-1.8,0.4c-0.3-1.2-1.1-2.3-2.2-2.8c0-0.1,0-0.2,0-0.3c-0.1-1.2-1.1-2.2-2.3-2.1c-0.4,0-0.7,0.1-1,0.3
			c-0.6-1.4-2.1-2.5-3.7-2.5c-1.2,0-2.2,0.5-3,1.3c-0.3-0.2-0.7-0.3-1.1-0.3c-0.7,0-1.2,0.2-1.6,0.6c-0.4-0.1-0.7-0.2-1.1-0.2
			c-0.6,0-1.1,0.1-1.6,0.3c-0.4-1.9-2-3.3-4-3.3c-0.3,0-0.6,0-0.9,0.1c-0.7-0.6-1.6-0.9-2.6-0.9c-1.3,0-2.4,0.6-3.2,1.5
			c-0.6,0.1-1.2,0.2-1.7,0.5c-0.7-1.1-2-1.7-3.3-1.7c-0.9,0-1.8,0.3-2.5,0.9c-0.7-1.1-2-1.9-3.4-1.9c-1.5,0-2.8,0.8-3.5,2.1
			c-0.2,0-0.3,0.1-0.5,0.2c-0.5-0.2-1.1-0.4-1.7-0.4c-1.3,0-2.4,0.6-3.2,1.6c-2.2,0-4.1,1.8-4.1,4.1c0,2.1,1.6,3.9,3.7,4.1
			c0.1,0.3,0.3,0.6,0.5,0.9c-0.9,14.7-0.8,28.3-0.5,39.7c0,0.9,0.1,1.9,0.1,2.8c-0.3,2.3-0.6,4.5-0.9,6.7c-0.3,3.2-0.6,6.4-0.8,9.7
			c-0.4,5.5-0.7,11.1-1,16.4c-0.2,3.5-0.3,6.9-0.5,10.3c-0.3,0-0.6,0-0.9,0.2c-1.1,0.4-1.7,1.7-1.3,2.9c0,0,0,0,0,0
			c-0.2,0.1-0.3,0.2-0.5,0.4c-0.2,0-0.4-0.1-0.6-0.1c-1.7,0-3.2,1.1-3.8,2.6c-0.5-0.2-1-0.3-1.5-0.3c-2.1,0-3.8,1.6-4,3.6
			c-0.1,0-0.2,0-0.2,0c-2.3,0-4.1,1.8-4.1,4.1c-0.3,0-0.5,0-0.8,0.1c-0.4-0.5-1-0.9-1.7-0.9c-0.6-1.6-2.1-2.7-3.8-2.7
			c-0.1,0-0.1,0-0.2,0c0-0.2,0.1-0.3,0.1-0.5c0-2.3-1.8-4.1-4.1-4.1c-0.4,0-0.8,0.1-1.2,0.2c0.1-1.2-0.8-2.3-2-2.4
			c-0.4,0-0.8,0.1-1.2,0.2c-0.4-0.5-0.9-0.8-1.5-0.9c-0.7-0.8-1.8-1.2-2.9-1.2c-0.4,0-0.8,0.1-1.1,0.2c-0.4-0.2-0.8-0.4-1.3-0.3
			c-1.2,0.1-2.2,1.1-2.1,2.3c0,0,0,0.1,0,0.1c-0.7-1.3-2-2.3-3.6-2.3c-0.4,0-0.8,0.1-1.2,0.2c-0.2-0.1-0.4-0.1-0.7-0.1
			c-0.6-0.4-1.4-0.7-2.2-0.7c-0.1,0-0.2,0-0.3,0c-0.7-0.8-1.8-1.2-2.9-1.2c-1.8,0-3.4,1.2-3.9,2.9c-0.6-0.4-1.4-0.7-2.3-0.7
			c-0.2,0-0.4,0-0.6,0.1c-0.4-1.8-2-3.2-4-3.2c-1.7,0-3.2,1.1-3.8,2.6c-0.6-0.3-1.2-0.4-1.8-0.4c-1.5,0-2.8,0.8-3.5,2
			c-0.5,0.1-1,0.3-1.4,0.6c-0.7-1-1.9-1.6-3.3-1.6c-1.9,0-3.5,1.3-4,3.1c0,0-0.1,0-0.1,0c-1.8,0-3.3,1.2-3.9,2.8
			c-1.6,0.5-2.8,2.1-2.8,3.9c0,1.5,0.9,2.9,2.1,3.6c-0.5,0.2-1,0.5-1.4,0.9c-0.1,0-0.1,0-0.2,0.1c-1.1,0.5-1.6,1.9-1,3c0,0,0,0,0,0
			c-2,0.3-3.6,2-3.6,4c0,0.4,0.1,0.8,0.2,1.2c-0.4-0.2-0.8-0.2-1.2-0.1c-1.2,0.2-2,1.4-1.8,2.6c0.1,0.8,0.3,1.6,0.4,2.4
			c-1.1,0.3-2,1-2.5,2c-1.1,0.2-1.9,1.1-1.9,2.3c0,0.8,0,1.6,0.1,2.5c-0.7,0.6-1.1,1.4-1.3,2.3c0,0-0.1-0.1-0.1-0.1
			c0-0.1,0-0.1,0-0.2c0-1.8-1.1-3.3-2.7-3.8c0-0.1,0-0.3,0-0.4c0.2-0.4,0.2-0.9,0.2-1.4c0-0.6-0.1-1.2-0.4-1.7
			c-0.1-3.4,0-6.5,0.3-9.5c0.1-1.2-0.8-2.3-2-2.4c-0.5,0-1,0.1-1.4,0.4c-0.1-1.2-0.2-2.5-0.4-3.7c-0.1-1.2-1.3-2.1-2.4-2
			c-0.8,0.1-1.4,0.5-1.7,1.2c-0.1-0.1-0.1-0.3-0.2-0.4c-0.3-0.8-1.1-1.3-1.9-1.3c-0.4-0.2-0.8-0.3-1.3-0.3c-0.8,0.1-1.4,0.5-1.8,1.1
			c-0.7-1.1-2-1.9-3.4-1.9c0,0-0.1,0-0.1,0c-0.7-1.2-2-2.1-3.6-2.1c-0.8,0-1.6,0.3-2.3,0.7c-0.4-0.5-1-0.8-1.7-0.8c0,0,0,0-0.1,0
			c-0.1,0-0.2,0-0.3,0c-0.6-0.3-1.2-0.5-1.9-0.5c-0.9,0-1.8,0.3-2.5,0.9c-0.7-0.5-1.6-0.9-2.5-0.9c-0.7,0-1.4,0.2-1.9,0.5
			c-0.4-0.2-0.8-0.4-1.3-0.4c-0.6-0.5-1.4-0.6-2.2-0.3c-0.7,0.3-1.1,0.8-1.3,1.4c-0.8,0.7-1.2,1.8-1.2,2.9c0,0.1,0,0.2,0,0.3
			c-0.6,0.4-0.9,1.1-0.9,1.9c-0.3,0.4-0.5,1-0.4,1.6c0.1,0.5,0.1,0.9,0.1,1.4c-2.2,0.1-3.9,1.9-3.9,4.1c0,0.1,0,0.2,0,0.2
			c-0.5-0.7-1.3-1.2-2.2-1c0,0-0.1,0-0.1,0c-0.4-0.3-0.9-0.5-1.5-0.6c-0.2,0-0.4,0-0.5,0.1c-0.4-0.2-0.8-0.2-1.2-0.2
			c-1.2,0.2-2.1,1.3-1.9,2.5c-0.4-0.1-0.8-0.2-1.3-0.2c-1.2,0-2.3,0.6-3.1,1.4c0,0-0.1,0-0.1,0c-0.4-0.8-0.9-1.4-1.7-1.8
			c-0.2-1.2-0.3-2.4-0.5-3.6c-0.2-1.2-1.3-2.1-2.5-1.9c-0.4,0.1-0.8,0.3-1.2,0.5c-0.6-0.3-1.2-0.5-1.9-0.5c-0.1,0-0.2,0-0.3,0
			c-0.7-1.2-2-1.9-3.5-1.9c-0.2,0-0.4,0-0.7,0.1c0-0.2,0.1-0.4,0.1-0.5c0.2-1.2-0.6-2.4-1.8-2.6c-1-0.2-1.9,0.3-2.4,1.2
			c-0.5-1.6-2.1-2.8-3.9-2.8c-0.7,0-1.3,0.2-1.8,0.5c-0.6-0.3-1.2-0.5-1.8-0.5c-0.5,0-1.1,0.1-1.5,0.3c-0.2-1.8-0.4-3.6-0.6-5.4
			c-0.2-1.2-1.3-2.1-2.5-1.9c-0.6,0.1-1,0.3-1.4,0.7c-0.6-0.4-1.4-0.6-2.2-0.6c-0.4,0-0.8,0.1-1.2,0.2c-0.7-0.7-1.8-1.2-2.9-1.2
			c0,0-0.1,0-0.1,0c-0.3-1.3-1.3-2.4-2.5-2.8c0-0.1,0-0.2,0-0.3c0-2.3-1.8-4.1-4.1-4.1c-0.8,0-1.6,0.3-2.2,0.7
			c-0.7-1-1.9-1.7-3.3-1.7c-0.2,0-0.4,0-0.6,0.1c0.1-0.4,0.2-0.8,0.2-1.2c0-2.3-1.8-4.1-4.1-4.1c-2.3,0-4.1,1.8-4.1,4.1
			c0,0.4,0.1,0.7,0.2,1.1c-1,0.7-1.9,1.4-1.8,2.2c-0.5,0.3-0.9,0.8-1.1,1.5c-1.4,7.5-1.5,14.8-1.6,21.8c0,4.9-0.1,9.5-0.6,14.3
			c-0.2,5.4-0.5,11.2-0.7,17.4c-1.6,43.2-2.5,101.1,2.7,131.6c0.8,4.9,1.5,10.2,2,15.7c0.5,5,0.8,10.3,1.1,16.2
			c1.1,18.3-0.1,35.9-1.3,54.5c-1,15.2-2.1,31-1.8,47.1l0.1,0.4c1.3,5.6,2.1,11,2.5,16c1,13.2-1.5,19.8-1.5,19.8
			c-0.5,1.1,0.1,2.4,1.3,2.9c0.3,0.1,0.5,0.2,0.8,0.2c0.9,0,1.7-0.5,2.1-1.4c0.1-0.3,2.9-7.5,1.8-21.8c-0.4-5.2-1.2-10.7-2.5-16.5
			c-0.3-15.8,0.7-31.4,1.8-46.4c1.2-17.9,2.5-36.5,1.4-55.1c-0.2-6-0.6-11.3-1.1-16.4c-0.4-4.4-0.9-8.7-1.6-12.8c0,0,0.1,0,0.1,0
			c0.4,0,0.7-0.1,1.1-0.3c0.3,0.8,1,1.4,1.9,1.5c0.1,0,0.1,0,0.2,0c1.1,0,2.1-0.9,2.2-2c0.5-5.9,1-12,1.5-18.2
			c0.1-1.3,0.2-2.7,0.3-4c0.9,8.2,2.2,14.5,3.8,18.9c0.2,0.5,0.3,1,0.5,1.4c-0.7,4.2-0.6,8.5-0.5,12.7c0.1,2.7,0.1,5.3,0,7.8
			c-0.1,1.2,0.9,2.3,2.1,2.4c0.1,0,0.1,0,0.1,0c0.8,0,1.6-0.5,2-1.2c-1.2,16.1,0,32.2,1.4,48c-0.4,5.5-0.8,11.2-1.1,17
			c-1.4,9.4-3.1,18.8-4.8,28.1c-0.8,6.1,0,12.5,0.7,18.7c0.7,6.3,1.4,12.9,0.6,19l0,0.2l0,0.2c0,3.4,0,6.5,0,9
			c-0.1,1.4-0.1,2.8-0.1,4.1c0,1.9-0.1,2.9-0.1,3c0,0.6,0.2,1.2,0.6,1.6c1.5,8.1,5.8,11.5,6,11.7c0.4,0.3,0.8,0.4,1.2,0.4
			c1.1,6.2,1.9,10.3,1.9,10.4c0.2,1.1,1.1,1.8,2.2,1.8c0.1,0,0.3,0,0.4,0c1.2-0.2,2-1.4,1.8-2.6c0-0.1-2.7-14.5-5.2-30.9
			c-0.6-4.2-1.2-8.1-1.6-11.7c0.6-1.8,1.3-3.6,2-5.4l0.1-0.4c4.5-22.9,2.5-46.1,0.4-68.5c0.9-7.9,1.6-15.9,1.7-23.9
			c0.7,12,2,24,3.2,35.7c1.3,12.3,2.5,24.9,3.3,37.6c-0.6,5.4-0.3,10.4,0.1,15.6c0.2,2.7,0.4,5.4,0.4,8.3c0,2.1,0.1,4.1,0.1,6.2
			c0,0.4-0.1,0.9-0.1,1.3c-1.3,12.7-5.8,23.2-5.9,23.3c-0.5,1.1,0,2.4,1.1,2.9c0.3,0.1,0.6,0.2,0.9,0.2c0.9,0,1.7-0.5,2-1.3
			c0.1-0.2,0.9-2.1,2-5.2c-0.1,2.8-0.1,4.4-0.1,4.5c0,1.2,0.9,2.3,2.1,2.3c0,0,0.1,0,0.1,0c1.2,0,2.2-0.9,2.2-2.1
			c0-0.1,0.2-6.8,0.2-16.2c0-3.1-0.1-6.3-0.1-9.5c0.4-4.3,0.4-8.5,0-12.5c0-5.9-0.3-11.8-0.6-17.6c0.1-0.5,0.1-1.1,0.2-1.6
			c2.2-8.4,4.4-17.4,6.1-26.8c0.3,20.1,1.2,39.6,2.6,59c0.1,0.4,0.1,0.9,0.2,1.3c0,1,0,2,0,3c0,14.5-0.2,26.9-0.2,27.1
			c0,1.2,1,2.2,2.2,2.3c0,0,0,0,0,0c1.2,0,2.2-1,2.2-2.2c0-0.1,0.1-5.8,0.1-13.9c0.1,0,0.1,0,0.1,0c0.1,0,0.3,0,0.4,0
			c1.2-0.2,2-1.4,1.8-2.6c0-0.1-1.1-5.7-2.2-13.8c0.1-3.7,0.2-7.8,0.3-11.7c2.6-23.4,0.8-46.8-1-69.5c-0.7-9.3-1.4-18.9-1.9-28.5
			c0.2-8.8,0.5-17.8,0.9-27c0.2-2.4,0.5-4.7,0.8-6.9c0.3-1.7,0.5-3.4,0.9-5.3c0.2-1.1,0.4-2.1,0.7-3.2l0.1-0.3
			c0.1-0.8,0.2-1.6,0.3-2.4c0.1-0.5,0.2-1.1,0.3-1.6c0.7-4,1.4-8.2,2-12.7c0.1,2.7,0.2,5.3,0.3,8c-0.1,1.5-0.3,3.1-0.4,4.6l-0.1,1.1
			c-0.4,4.7-0.8,9.5-1.1,14.5l0,0.1l0,0.1c0.5,22.6,1.9,45.5,3.3,67.7c1.3,21.2,2.7,43,3.2,64.5c-0.7,4.3-1.6,8.7-2.7,13l-0.1,0.4
			l0.1,0.4c0.4,3.4,1,6.3,1.6,8.5c-1.8,9-4.7,15.5-4.7,15.6c-0.5,1.1,0,2.4,1.1,2.9c0.3,0.1,0.6,0.2,0.9,0.2c0.9,0,1.7-0.5,2-1.3
			c0.1-0.2,1.5-3.5,3-8.6c0,0.2,0,0.3,0,0.3c0,1.2,1,2.2,2.2,2.3c0,0,0,0,0,0c0,0,0.1,0,0.1,0c0.4,0.5,1,0.8,1.7,0.8c0,0,0,0,0,0
			c1.2,0,2.2-1,2.2-2.2c0,0,0.1-5.5,0.1-13.5c0-4,0.1-8.6,0.2-13.4c0.2-2.7,0.4-5.4,0.6-8c0.1,1.8,0.3,3.5,0.4,5.3
			c0.7,4.5,1.3,8.3,1.8,11.1c0.2,4.1,0.3,6.6,0.3,6.6c0,0.6,0.3,1.1,0.7,1.5c-1.5,5.3-3,8.7-3,8.7c-0.5,1.1,0,2.4,1.1,2.9
			c0.3,0.1,0.6,0.2,0.9,0.2c0.9,0,1.7-0.5,2-1.3c0-0.1,0.6-1.3,1.4-3.5c0.7-0.2,1.3-0.7,1.6-1.4c0.3-1,0.6-1.9,0.8-2.9
			c-0.4,11.1-1,19.9-1,20c-0.1,1.2,0.8,2.3,2.1,2.4c0.1,0,0.1,0,0.2,0c1.2,0,2.1-0.9,2.2-2.1c0-0.1,0.5-7.8,0.9-17.9
			c0.7-0.4,1.2-1.1,1.2-2c0,0,0-2.2,0.1-5.8c0.9,4.9,2,8.1,2.1,8.3c0.1,0.4,0.4,0.7,0.7,0.9c-0.1,4.3-0.1,6.9-0.2,7
			c0,1.2,0.9,2.3,2.1,2.3c0,0,0.1,0,0.1,0c1.2,0,2.2-0.9,2.2-2.1c0-0.1,0.2-6.7,0.2-15.9c0.6-0.4,0.9-1.1,0.9-1.9
			c0,0-0.2-6.5-0.5-15.3c0.8-10.9,1-21.8,0.8-32.7c0.1,1.3,0.1,2.6,0.2,3.9c0.5,10.2,0.6,18.8,0.6,27c0,4.1-0.1,8.6-0.3,13.3
			c-0.4,12.7-1.1,23.2-1.1,23.3c-0.1,1.2,0.8,2.3,2.1,2.4c0.1,0,0.1,0,0.2,0c1.2,0,2.1-0.9,2.2-2.1c0-0.1,0.7-10.7,1.1-23.5
			c0.2-4.8,0.2-9.3,0.3-13.4c0.1-8.2-0.1-16.9-0.6-27.2c-0.2-4.5-0.4-9-0.7-13.6l-0.3-3.4c-0.1-1.4-0.2-2.8-0.3-4.1
			c0.2-1.1,0.4-2.2,0.6-3.3c1.7-10.1,2.7-19.4,3.1-28.1c0.3,2.1,0.5,4.1,0.8,6.2c2.2,16,4.4,32.6,1.3,48.8l0,0.2
			c-0.2,3.1-0.4,6.2-0.6,9.3c-0.2,3.5-0.3,6.5-0.4,9.4c0,3.9,0,8.1,0.1,12.5c0.2,11.9,0.7,21.6,0.7,21.7c0.1,1.2,1,2.1,2.2,2.1
			c0,0,0.1,0,0.1,0c1.2-0.1,2.2-1.1,2.1-2.3c0.4-0.2,0.7-0.6,0.9-1c0.1-0.1,0.5-1.2,1.2-3c0.4,0.4,0.9,0.7,1.5,0.7c0,0,0.1,0,0.1,0
			c0.5,0,0.9-0.2,1.3-0.4c0.3,7.4,0.5,12.7,0.5,12.8c0,1.2,1,2.1,2.2,2.1c0,0,0.1,0,0.1,0c1.2,0,2.2-1.1,2.1-2.3
			c0-0.1-0.6-14.9-1-30c-0.2-5.1-0.3-10.2-0.4-15c-0.4-8.1-1-16.4-1.6-24.4c-0.5-6.5-0.9-13.1-1.3-19.7c1.4-15.7,3.2-31.4,5-46.9
			c0.2,1.1,0.4,2.3,0.6,3.4c-2.7,24.2-1.7,50.3,2.9,81.1c-0.2,1.1-0.3,2.1-0.5,3.2c-0.4,2.7-0.9,5.4-1.3,7.9l-0.4,2.6
			c-1.7,10.1-2.9,18.2-2.3,23.7c0.1,1.1,1.1,2,2.2,2c0.1,0,0.2,0,0.2,0c1.2-0.1,2.1-1.2,2-2.5c-0.4-4.1,0.3-10.3,1.5-17.8
			c0.4,7.9,0.4,15.6-1.1,19.9c-0.4,1.2,0.2,2.4,1.4,2.8c0.2,0.1,0.5,0.1,0.7,0.1c0.9,0,1.8-0.6,2.1-1.5c1.7-5,1.9-13,0.9-27.8
			c-0.2-3.4-0.5-7.2-1-12.4c1.5-9.7,2.2-19.4,2.1-29.2c1.4,7.4,2.9,14.9,4.4,22.2c1.3,6.2,2.6,12.7,3.8,19c0.1,3.2-0.2,5.6-0.8,7.5
			c-0.4,1.2,0.2,2.4,1.4,2.8c0.2,0.1,0.5,0.1,0.7,0.1c0.2,0,0.4,0,0.6-0.1c0,1,0,2,0.1,3c0,0.7-0.1,1.4-0.2,2.2
			c-1.3,12.7-5.8,23.2-5.9,23.3c-0.5,1.1,0,2.4,1.1,2.9c0.3,0.1,0.6,0.2,0.9,0.2c0.9,0,1.7-0.5,2-1.3c0.1-0.2,0.9-2.2,2-5.4
			c0.3,0.8,1.1,1.3,2,1.4c0,0,0.1,0,0.1,0c1.2,0,2.2-0.9,2.2-2.1c0-0.1,0.2-4.3,0.2-10.7c0,0,0.1,0,0.1,0c0,0,0.1,0,0.1,0
			c1.2,0,2.2-0.9,2.2-2.1c0-0.2,0.2-6-0.3-14.2l-0.1-0.4c-1.5-5.6-2.7-11.3-3.8-17.1c-0.6-8.9-0.4-17.8,0.2-26.6
			c0.8,6.2,1.7,12.3,2.5,18.4c0.7,5,1.4,10,2.1,15c0.2,6,0,12.2-0.1,16.3c-0.3,10.2-0.7,18.1-0.7,18.2c-0.1,1.2,0.9,2.3,2.1,2.3
			c0,0,0.1,0,0.1,0c1.2,0,2.2-0.9,2.2-2.1c0-0.1,0.4-8.1,0.7-18.3c0.1-4.2,0.2-10.5,0.1-16.7l0-0.2c-0.7-5-1.4-10.1-2.1-15.2
			c-1.9-13.2-3.7-26.5-5-39.9c0.1-0.7,0.1-1.4,0.2-2c2-19.1,4-38.8,1.7-58.4c0.2-2.5,0.3-4.9,0.3-7.3c0.5-2.5,1.1-5,1.8-7.5
			c0,9.9,0.7,19.7,1.8,29.4c-0.4,3.3-0.8,6.6-1.3,9.8c-0.2,1.2,0.6,2.4,1.8,2.6c0.1,0,0.3,0,0.4,0c0.2,0,0.4-0.1,0.6-0.1
			c0.1,4.4,0.3,8.8,0.6,13.1c-1.1,23.7,0.3,48.5,4.3,75.2c-0.5,2.9-1,5.8-1.7,8.7l0,0.1c-0.8,5.1-1.3,8.5-1.6,11.5
			c-0.4,3.7-0.4,6.7-0.2,9c0.1,1.1,1.1,2,2.2,2c0.1,0,0.2,0,0.2,0c1.2-0.1,2.1-1.2,2-2.5c-0.2-2-0.2-4.7,0.2-8.1
			c0.2-2.1,0.5-4.5,1-7.6c0.2,1,0.3,2,0.5,3c0.2,7-0.3,11.9-1.3,14.9c-0.3,0.8-0.1,1.6,0.5,2.2c-0.3,0.9-0.6,1.4-0.6,1.4
			c-0.5,1.1,0,2.4,1.1,2.9c0.3,0.1,0.6,0.2,0.9,0.2c0.9,0,1.7-0.5,2-1.3c0.1-0.2,2.2-5,4-12.2c0.2-0.8,0.4-1.6,0.6-2.5
			c0.5,2.7,0.9,5.1,1.2,7.1c-1.6,5.7-3.3,9.6-3.3,9.6c-0.5,1.1,0,2.4,1.1,2.9c0.3,0.1,0.6,0.2,0.9,0.2c0.9,0,1.7-0.5,2-1.3
			c0-0.1,0.5-1.2,1.2-3c0.4,0.4,0.9,0.6,1.5,0.6c0.1,0,0.3,0,0.4,0c0.7-0.1,1.3-0.6,1.6-1.2c0.3,0.1,0.6,0.2,0.9,0.2c0,0,0,0,0,0
			c1.2,0,2.2-1,2.2-2.2c0,0,0-2,0.1-5.3c0.6-0.6,0.9-1.5,0.6-2.4c0,0-0.2-0.7-0.6-1.9c0-1.2,0-2.6,0-4c0-3.4,0-7.3,0-11.4
			c0.2,0.7,0.4,1.3,0.5,2c0.2,1,0.4,2.1,0.7,3.1c-0.3,1.8-0.5,3.7-0.6,5.6c-0.6,13.2,3.2,24.2,3.3,24.7c0.3,0.9,1.2,1.5,2.1,1.5
			c0.2,0,0.4,0,0.5-0.1c0.3,0.9,1.1,1.5,2.1,1.5c0.1,0,0.3,0,0.4,0c1.2-0.2,2-1.4,1.8-2.6c0,0-0.8-4-1.8-10.1
			c0.2,0.1,0.4,0.1,0.7,0.1c0.2,0,0.4,0,0.6-0.1c0.1,0,0.1,0.1,0.2,0.1c0.3,0.1,0.6,0.2,0.9,0.2c0.4,0,0.8-0.1,1.1-0.3
			c0.4,0.4,1,0.7,1.6,0.7c0,0,0,0,0,0c1.2,0,2.2-1,2.2-2.2c0,0,0-3.1,0.1-8c0.3-1.1,0.7-2.4,1-3.7c1.1-4.2,1.8-8.4,2.2-12.4l0-0.2
			l0-0.2c-1.2-12.4-3.2-24.7-5.2-36.7c0.5-3.3,1.1-6.6,1.5-9.9c0.7,5.3,1.4,10.6,2.2,15.9c1.1,7.6,2.1,15.4,3,23.1
			c0,6.3-0.3,12.6-1.1,18.8l0,0.2c-0.2,4,0,8.1,0.6,12.4c0.1,0.4,0.1,0.7,0.2,1.1c-0.3,5.3-0.5,8.8-0.5,8.8
			c-0.1,1.2,0.8,2.3,2.1,2.4c0.1,0,0.1,0,0.2,0c0.3,0,0.6-0.1,0.8-0.2c0,0.1,0.1,0.2,0.1,0.2c0.3,0.9,1.2,1.5,2.1,1.5
			c0.2,0,0.5,0,0.7-0.1c1.2-0.4,1.8-1.7,1.4-2.8c0,0-1.4-4.1-2.3-10c0.2-4,0.4-8.8,0.6-14.1c0-1,0.1-2,0.1-2.9c0.8,2,1.6,4,2.2,5.8
			c0.2,0.4,0.3,0.8,0.5,1.3c0.3,13.3,0,23.9-0.1,24c0,0.5,0.2,1,0.4,1.4c-0.7,0.8-1.6,1.3-2.7,1.6c-7.8,1.9-13.8,3.3-19,10
			s-16.7,15.8-31.6,23.2c-12.7,6.4-17.3,14.9-26.3,21.4L0,661.3c108.9,224.8,340,379,606.4,376.9c262.8-2,488.9-155.5,596.3-377
			L736.2,661.2z M923.9,456.9c-0.3-5-0.3-10.1,0-15.2c0,0,0,0.1,0,0.1c0,1.5,0,3,0,4.5c-0.1,3.6,0,7.1,0.2,10.7
			C924.1,456.9,924,456.9,923.9,456.9z M925.1,410.2c0.2-6.8,0.5-13.7,0.7-20.6c0.4-0.2,0.7-0.4,1.1-0.6
			C926.1,395.9,925.6,403,925.1,410.2z M929.5,347.5c0.1,4.2,0.2,9.3,0.1,14.5c-0.6,5.6-1.2,11.3-1.8,17c-0.6,0.1-1.2,0.3-1.8,0.4
			c0.1-7.3,0.2-14.6,0.1-21.8l0-0.2c0.6-2.3,1.3-4.7,2.1-7c0.4-1.2,0.9-2.4,1.3-3.6C929.5,347,929.5,347.3,929.5,347.5z M929,334.7
			c0,0.5,0,1,0.1,1.6c-1.7,3.6-3.3,7.4-4.6,11.2c-0.2-1.2-0.4-2.5-0.7-3.8c-0.4-2.3-0.9-4.6-1.4-6.9C924.7,336,927,335.4,929,334.7z
			 M908.5,424.3l0-0.7c-0.3-7.4-0.6-15-0.8-22.5c0.2-3.1,0.4-6.2,0.5-9.5c0,0,0,0,0,0c1.1,4.9,2.2,9.8,3.1,14.7
			C910.2,412.3,909.2,418.4,908.5,424.3z M913.8,476.7c-0.1-0.5-0.1-1-0.2-1.4c-0.7-5.6-1.4-11.3-1.9-17c1.2,0.4,2.6,0.7,4,1
			C915.3,465.1,914.5,470.9,913.8,476.7z M913.5,395c-0.2-0.9-0.4-1.8-0.6-2.6c0.4,0,0.8,0,1.1,0.1
			C913.9,393.2,913.7,394.1,913.5,395z M914.2,424.4c-0.4,0.1-0.8,0.2-1.2,0.2c0.2-1.5,0.4-3,0.6-4.5
			C913.8,421.5,914,422.9,914.2,424.4z M916.1,452.4c-0.1-0.2-0.3-0.5-0.3-0.7c-1-4.2-5.1-11-0.4-16.7c0.2,2.3,0.4,4.5,0.5,6.7
			C916.2,445.3,916.2,448.8,916.1,452.4z M919.7,433.7c-0.1-0.6-0.1-1.2-0.2-1.8c0.1,0,0.2-0.1,0.2-0.1
			C919.8,432.5,919.8,433.1,919.7,433.7z M920.2,421.8l-0.1,1.8c-0.5,0-1,0.1-1.5,0.1c-0.8-5.8-1.7-11.6-2.8-17.5
			c0.9-4.8,1.8-9.6,2.9-14.4c0.1,0,0.3-0.1,0.4-0.1c0.2,7.2,0.8,14.2,1.4,20.8C920.4,415.7,920.3,418.8,920.2,421.8z M918.7,341
			c0.2,1.2,0.5,2.3,0.7,3.5c0.9,4.8,1.6,8.8,2.1,12.7c-0.3,1-0.5,2.1-0.8,3.1c-0.2-0.5-0.3-1-0.5-1.5c-0.8-4.4-2-8.8-3.7-13.2
			C917.2,344,917.9,342.5,918.7,341z M914.7,339c-0.2,0.4-0.4,0.7-0.6,1.1c-0.1-0.3-0.2-0.5-0.4-0.8
			C914.1,339.2,914.4,339.1,914.7,339z M914,352c0.8,2.6,1.4,5.2,1.9,7.7l0.1,0.4c2.4,6.6,2.7,12,1.2,19.6c-0.3,1-0.5,2-0.8,3
			c0,0-0.1,0-0.1,0c-1.1,0.3-3.4-0.5-6.1-1.9c-1.4-7.3-1-12.6,1.3-19l0.1-0.4C912.1,358.3,912.9,355.1,914,352z M907.1,359.6
			c0.5-4,1.2-8.3,2.2-13.4c0.3-1.4,0.6-2.8,0.8-4.2c0.5,1.1,1,2.3,1.5,3.4c-0.2,0.5-0.4,1-0.6,1.6c-1.7,4.5-3,9-3.8,13.5
			c0,0,0,0.1,0,0.1c0-0.1,0-0.1,0-0.2l0-0.2C907.1,360,907.1,359.8,907.1,359.6z M817.3,501.3c-0.2-2.2-0.4-4.3-0.6-6.5
			c0.4-0.3,0.9-0.5,1.3-0.8C817.8,496.5,817.6,498.9,817.3,501.3z M826.7,408.5c0.2,0,0.4,0.1,0.5,0.1c0.7,0,1.4-0.4,1.9-1
			c-0.8,3.7-1.6,7.5-2.3,11.3c-1.3-7.1-3.2-14.2-5-21.1c-0.1-0.5-0.2-0.9-0.4-1.4c0.7-5.6,1.3-11.2,1.9-16.8
			c0.4-3.9,0.9-7.8,1.3-11.8c0.4,0.5,0.8,0.9,1.3,1.3c0,0.3,0,0.6,0.1,0.8c1.1,12.3,2.1,23.9-0.9,35.8
			C824.8,407,825.5,408.2,826.7,408.5z M834.7,431.5c-0.1,5.4-0.2,10.8-0.2,16.2c-0.1,3.4-0.1,6.7,0.2,10c0,0.2,0,0.5,0,0.7
			c-3.1,1.1-5.5,2.9-7.7,5c0-5.2,0.2-10.3,0.5-15.3c0.7-3.9,1.1-7.8,1.1-12c0.1-0.5,0.1-1,0.2-1.6c1.3-9.6,3.3-18.9,5.4-28.7
			c0.6-2.8,1.2-5.7,1.8-8.6C835.4,408.1,835,419.5,834.7,431.5z M830.6,372.2c1.3,0.5,2.6,0.8,4.1,0.9c-0.3,3.8-0.6,7.6-1,11.4
			c-0.9,5.1-1.9,10.2-3,15.3C832,390.4,831.4,381.2,830.6,372.2z M840.8,536.9c-1.4-14.9-2.6-30.7-2.8-46.7c0-3.1,0-6.1,0-9.1
			c0.4,1.8,0.7,3.5,1.1,5.2c0.9,4.6,1.9,9.4,2.7,14l0,0.2C845,512.4,844.6,524.8,840.8,536.9z M843.1,456.4c-1.5,0.4-2.8,0.6-4,0.9
			c0.5-6.8,1.2-13.5,2.1-20c0.8-4.3,1.6-8.7,2.4-13l0.6-3.3c0.8-4.5,1.7-9,2.5-13.6c-0.4,4.4-0.9,8.9-1.6,13.4
			c-0.6,4.3-1.4,8.5-2.3,12.6l0,0.2C841.9,441.1,842.2,448.8,843.1,456.4z M846.2,499.5c-0.8-4.7-1.8-9.5-2.7-14.1
			c-0.6-3-1.2-6.1-1.8-9.1c0.9-0.4,2.5-1.1,4.4-1.9c0.6,2.9,1.2,5.9,1.8,8.8c1.1,5.4,2.2,10.7,3.2,16c-0.1,0.7-0.2,1.3-0.4,2
			c-0.8,4.1-1.6,8.2-2.4,12.4C848.1,508.9,847.4,504.1,846.2,499.5z M849.2,546.6c-0.9-2.7-1.4-5.7-1.3-8.8c0-3.8,0.7-7.6,2.1-11
			l0.1-0.3c1-4.5,2-9,2.9-13.5C854,524.4,853.4,535.6,849.2,546.6z M853.2,486.7c-0.3-1.5-0.6-2.9-0.9-4.4c-0.7-3.2-1.3-6.4-2-9.6
			c1.3-0.5,2.7-1.1,4.2-1.7c0.1,1.4,0.3,2.8,0.4,4.2C854.4,479.1,853.8,482.9,853.2,486.7z M853.4,422.5c-0.5,4.5-0.9,9.4-1.2,14.3
			l0,0.1l0,0.1c0.1,5.5,0.5,11.1,1,16.6c-2,0.6-3.9,1.2-5.7,1.6c-0.8-7.1-1.1-14.2-0.3-21.2c0.9-4.1,1.7-8.4,2.3-12.7
			c1.8-11.6,2.5-23.1,3-34.3c0.8,6.2,1.3,12.4,1.1,18.5c0,1,0.6,1.9,1.5,2.2C854.5,412.7,853.9,417.6,853.4,422.5z M855.5,377.8
			c-0.3-1.8-0.6-3.5-0.9-5.3c-0.2-1.4-0.5-2.8-0.7-4.2c1.7-0.6,3.5-1.1,5.1-1.6c-0.4,5.6-0.9,11.2-1.5,16.7
			C856.9,381.5,856.2,379.6,855.5,377.8z M859,429.1c-0.3,7.4-0.8,14.7-1.4,22.1c-0.2-3.4-0.3-6.9-0.3-10.3
			c0.3-5.1,0.8-10.1,1.3-14.7c0.2-1.5,0.4-3,0.5-4.5C859.1,424,859.1,426.5,859,429.1z M859.9,474.2c-0.1-0.5-0.1-1.1-0.2-1.6
			c0.2-1.3,0.3-2.6,0.5-3.9c0.1,0,0.2-0.1,0.3-0.1c0,4,0,8.1,0.2,12.1C860.4,478.5,860.2,476.4,859.9,474.2z M868.9,537.2
			c-0.4-6.8-1-13.6-1.5-20.3c-1.2-15.9-2.5-32.1-2.4-48.3c0.7,3.8,1.5,7.6,2.3,11.3C871.4,499.9,875.4,519,868.9,537.2z
			 M871.4,372.7c0-2.9,0-5.9-0.1-8.9c0.4,0,0.7,0,1,0c0.7,0.9,1.4,1.9,2,2.8c0,0.5,0,1-0.1,1.4c-0.3,4.7-0.7,9.7-1.4,14.8l0,0.2
			c-0.1,4-0.5,8-1.1,11.9c0-2.9-0.1-5.8-0.5-8.7C871.4,382.2,871.4,377.7,871.4,372.7z M871.3,417.4l0.8-3.3
			c0.1-0.3,0.2-0.6,0.2-0.9l-0.1,0.6c-0.4,4.6-0.9,9.2-1.3,13.8c-0.2,1.8-0.3,3.6-0.4,5.4c0,0.2,0,0.3-0.1,0.5
			c-1.5,5.1-2.1,10.1-1.9,15.1c-0.7,0.2-1.3,0.5-2,0.7c-0.2-2.4-0.3-4.8-0.2-7.2c0.7-6,1.7-12.1,3.1-18.1
			C870.2,421.8,870.8,419.6,871.3,417.4z M874.8,495.1c-0.9-5.4-2-10.8-3.2-16.1c-1-4.6-1.9-9.2-2.8-13.8c1-0.4,1.9-0.8,2.9-1.2
			c0.4,1.6,0.8,3.2,1.1,4.8c0.8,5.2,1.7,10.5,2.6,15.8c0.1,0.9,0.2,1.8,0.3,2.7C875.4,490,875.1,492.5,874.8,495.1z M878.4,469.3
			c-0.1,0.8-0.2,1.7-0.4,2.5c-0.2-1.2-0.5-2.5-0.7-3.7c-0.3-2-0.6-4.1-0.9-6.1c0.8-0.3,1.6-0.7,2.3-1c0.1,1.1,0.2,2.3,0.4,3.4
			C878.9,466.1,878.6,467.7,878.4,469.3z M891.9,525.9c0.2-2.5,0.3-5,0.3-7.4c0.4,0.3,0.8,0.5,1.3,0.5
			C893.1,521.3,892.6,523.6,891.9,525.9z M902.3,411.8c-0.5-7.7-1.1-15.3-1.9-22.8c0.8,0.4,1.6,0.7,2.5,1c0.1,3.7,0.2,7.4,0.3,11
			C902.9,404.7,902.6,408.3,902.3,411.8z M904,469.1c-0.3-3.5-0.5-7.1-0.7-10.7c0.1-1,0.1-2,0.2-3c0.5,0,1,0.1,1.5,0.2
			C904.7,460.1,904.4,464.6,904,469.1z M905.7,341.6c-0.3,1.3-0.5,2.6-0.8,3.9c-0.3,1.4-0.5,2.7-0.7,4c-0.2-0.7-0.5-1.5-0.7-2.2
			c-0.5-1.5-1.1-3-1.6-4.4C903,342.3,904.3,342,905.7,341.6z M897.9,349.3c0-1.4,0.1-2.7,0.2-4c0.4,1.1,0.8,2.2,1.2,3.3
			c1.4,4.1,2.5,8.1,3.4,12.1c-0.1,4.9-0.1,9.9,0,14.8c-1.3-1.1-2.6-2.4-3.7-3.7c-0.3-2.1-0.6-4.3-0.9-6.5c-0.1-0.5-0.1-1.1-0.2-1.6
			C897.7,358.6,897.8,353.5,897.9,349.3z M897.5,426.9l0-0.2c0.3-2.5,0.5-4.9,0.8-7c0.2,3.4,0.3,6.8,0.4,10.1
			c-0.6,0-1.2-0.1-1.7-0.4C897.2,428.5,897.3,427.7,897.5,426.9z M898.7,455.4c0,1,0.1,2,0.1,2.9c-0.3,4.4-0.9,8.8-1.5,13.2
			c-0.5-5.2-1.1-10.5-1.4-15.9C896.8,455.5,897.8,455.4,898.7,455.4z M889.2,382.5c0.1,0.1,0.2,0.1,0.3,0.2c0.1,0,0.1,0.1,0.2,0.1
			c-0.2,1-0.4,2.1-0.6,3.1C889.1,384.8,889.2,383.7,889.2,382.5z M888.4,423.8c0.6-4.7,1-9,1.2-13.1c0-0.6,0-1.2,0-1.9
			c0.9-4.6,1.5-8.7,2-12.5c0.4-2.6,1-5.3,1.5-7.9c0.2-1,0.4-2.1,0.7-3.1c0.6,0.3,1.1,0.7,1.7,1c0.2,9.7-0.3,18.7-1,26.4
			c-0.3,3.9-0.8,8.1-1.4,13.3c-0.6,2.7-1,5.3-1.3,8c-0.6,1.4-1.2,2.8-1.7,4.1c-0.3,0.7-1.5,1.6-3.3,2.6
			C887.5,435.1,888,429.5,888.4,423.8z M884.5,458.5c0.2-0.1,0.3-0.2,0.4-0.3c0.9-0.6,3.5-1.4,6.6-2c0.4,6.1,1,12.2,1.6,18.1
			c0.5,4.6,0.9,9.1,1.3,13.6c-1.1,6.1-2.1,12.3-2.6,18.6c-0.9-13-3.4-26.1-6-39.6c-0.5-2.6-1-5.2-1.5-7.8
			C884.4,458.9,884.5,458.7,884.5,458.5z M884.4,514.8c0-0.3,0-0.6-0.1-0.9c-0.9-9.3-2.4-18.3-4-27c0.3-2.2,0.6-4.4,0.9-6.6
			c0.1,0.4,0.1,0.8,0.2,1.2c0.5,3.1,0.9,6.1,1.4,9.2C884.3,498.5,884.6,506.8,884.4,514.8z M884.1,392.2c-0.6,6.5-1.5,13.4-2.5,20.8
			c-0.4,2.8-0.8,5.7-1.3,8.6l-0.8,5.2c-1.2,6.1-1.6,12.2-1.7,18.2c-0.9,0.4-1.9,0.8-2.9,1.1c-0.2-4.2-0.1-8.5,0.1-12.8
			c0.4-3.2,0.8-6.4,1.2-9.6l0.3-2.5c1.6-12.3,3.1-25.4,3-38.8c0.1-1.9,0.2-3.9,0.2-5.8C881.8,381.5,883.2,386.7,884.1,392.2z
			 M878.5,202.7c0.1,1.5,0.2,3,0.3,4.3c0.1,2.4,0.2,4.8,0.3,7.3c0.1,2.9,0.2,5.9,0.4,8.9c2.8,37.6,3.5,66.2,2.4,92.8l-0.1,1.4
			c-0.2,3.9-0.3,7.9-0.3,11.9l0,0.4c0.6,3.2,1.1,6.5,1.5,9.8c-0.9,1.1-2.2,2.5-3.9,4.1c-0.1-7.5-0.1-15.1,0.1-22.8
			c0.2-4.5,0.4-9,0.5-13.4c0.1-8.1,0-16.3-0.3-24.4c0-21.6-1.6-43.8-4.7-66.2c-0.1-0.4-0.1-0.7-0.2-1.1c-0.1-1.4-0.1-2.8-0.2-4.2
			c-0.1-2.4-0.3-5-0.6-7.7C875.5,203.3,877.1,203,878.5,202.7z M874.3,347.7c-1,0.8-2.1,1.6-3.2,2.4c-0.1-6-0.2-12.1-0.2-18.1
			c0.1-2,0.3-4.1,0.4-6.2C872.9,332.9,873.8,340.1,874.3,347.7z M869.1,210.8c0.4,1.7,0.7,3.5,1,5.2c0,0.2,0,0.3,0,0.5
			c0.2,3.6,0.3,7.3,0.7,11.1c0,0.4,0.1,0.7,0.1,1.1c-0.3-1.6-0.5-3.2-0.8-4.8c-0.2-1.6-0.4-3.2-0.6-4.8c-0.3-2-0.5-4-0.8-6
			C868.9,212.4,869,211.6,869.1,210.8z M867.3,243.6c2.7,24.1,2.8,48.9,0.3,73.9l-0.2,1.9c-0.2,1.9-0.4,3.9-0.5,5.9
			c-0.2-3.1-0.3-6.1-0.3-8.8C866.1,292.5,866.5,268.7,867.3,243.6z M865.7,352.8c0.1,0.2,0.1,0.4,0.2,0.5c-0.1,0-0.1,0.1-0.2,0.1
			C865.7,353.2,865.7,353,865.7,352.8z M865.5,205.4c-0.1,0.4-0.1,0.8-0.2,1.2c-0.1-0.4-0.2-0.7-0.3-1.1
			C865.1,205.5,865.3,205.4,865.5,205.4z M865.1,365c0.6-0.2,1.2-0.3,1.8-0.4c0,2.7,0.1,5.5,0.1,8.2c0,5,0,9.5-0.1,13.6l0,0.1l0,0.1
			c1.3,11.8-0.4,23.4-2.2,34.2l-0.6,3.4c-0.2,1.2-0.4,2.3-0.6,3.5c0.1-4.3,0.1-8.5-0.1-12.5c-0.3-5.2-0.8-10.2-1.7-15.1
			C863.1,388.5,864.3,376.8,865.1,365z M860.6,206.6c1.3,3.8,2.3,8,3,12.8c-0.2,7-0.5,13.9-0.7,20.6c-0.7-6.2-1.6-12.3-2.5-18.5
			c-0.3-3.5-0.7-6.8-1.1-10.3c-0.2-1.4-0.4-2.8-0.6-4.1C859.3,207,860,206.8,860.6,206.6z M849.4,212.9c0.5-1.2,1.8-2.3,3.5-3.3
			c0.1,1.2,0.3,2.5,0.4,3.9c0.2,2.2,0.4,4.4,0.5,6.7c0.1,1.3,0.2,2.7,0.3,4l0,0.3c5.6,28.4,7.9,57,6.7,85.2
			c-0.2,4.6-0.5,9.3-0.8,14.2l0,0.1l0,0.1c0.5,10.7,0.3,21.4-0.3,32.2c-2.1,0.8-4.2,1.4-6.4,1.8c0.3-7.4,0.6-15,1.3-22.5
			c0.3-3.5,0.6-7.1,1-10.6c0.2-1.8,0.4-3.6,0.5-5.3c3.7-36.4,2.1-68.4-4.9-97.5c0-0.2,0-0.4,0-0.6c0-0.4-0.2-0.7-0.4-1
			c-0.6-2.3-1.2-4.6-1.8-6.8C849.2,213.4,849.3,213.2,849.4,212.9z M853.5,277.8c0,2.2,0.1,4.3,0,6.5c0,0,0,0,0-0.1
			C853.5,282.2,853.5,280,853.5,277.8z M846.4,221.3c0.1,0.5,0.2,1,0.4,1.5c0.2,2.9,0.4,5.7,0.6,8.5c-0.3-1.7-0.6-3.5-1-5.2
			C846.4,224.5,846.4,222.9,846.4,221.3z M844.9,341.1c0.1-1.5,0.1-3.1,0.2-4.6c0-0.4,0.1-0.8,0.1-1.2c0.6-5.3,1.1-10.2,1.5-14.9
			c1.5-16.7,2-32.7,1.5-48.3c0.3,4.2,0.6,8.3,0.8,12.4c0,12.1-0.3,23.9-0.9,35.6l-0.2,3.9c-0.2,3.4-0.3,6.8-0.4,10.2
			c-1.1,8.1-0.7,16.2,0.4,24.2c-0.7-0.1-1.4-0.1-2.1-0.3c-0.4-0.7-0.8-1.3-1.1-2.1C844.7,351,844.7,346,844.9,341.1z M840.1,403.8
			c0,0,0.1,0,0.1,0c1.1,0,2-0.8,2.2-1.9c1.7-10.1,2.1-20.5,2.2-30.8c0.9-0.3,1.9-0.6,2.8-0.9c0.1,0.1,0.1,0.2,0.2,0.4
			c-1.7,16.4-4.7,32.7-7.8,49.5l-0.4,2C839.6,415.9,839.8,409.8,840.1,403.8z M832.3,220.5c3.8,20.1,6.3,38.5,7.4,55.9
			c-0.9,14.7-1.7,29.9-1.9,44.8c-0.1,6,0,10.8,0.2,15.2c-0.5,5.6-1,11.1-1.5,16.6c-0.3-0.3-0.7-0.7-1-1c-2.3-2.7-4.2-5.3-5.9-8
			c0.2-2.4,0.4-4.9,0.8-7.3c0.4-4.2,1-8.7,1.7-14.6c0.3-2.3,0.6-4.6,0.9-6.9c4.3-32.3,8.3-62.7-5.3-93.8
			C829.2,221.1,830.8,220.8,832.3,220.5z M823.4,222.8c11.9,26.6,10.1,53.3,6.6,81.1c-0.3-27.2-4-54.1-7.9-80.5
			C822.5,223.1,823,222.9,823.4,222.8z M819.2,234.6c4.5,31.1,8.1,63,5.5,94.9c-0.1,1.7-0.3,3.4-0.5,5.2c-0.6-1.1-1.2-2.2-1.7-3.3
			c0.4-5.3,0.6-10.5,0.7-15.7c0.9-22.5-0.4-45.4-3.9-68.4C819.3,243,819.3,238.8,819.2,234.6z M819.1,358.2c0.5,1.3,1.1,2.6,1.7,3.8
			c-0.7,5.8-1.3,11.5-1.9,17.2c-0.2,1.7-0.4,3.3-0.5,5c-0.5-2-0.9-4-1.3-6c0.3-5.9,0.7-11.9,1.4-18.1c0.2-0.8,0.3-1.6,0.5-2.3
			C819,358,819.1,358.1,819.1,358.2z M817.8,293.2c0-0.9,0.1-1.8,0.1-2.7c0.6,8.4,0.8,16.7,0.7,25.1c-0.1,2.8-0.3,5.6-0.4,8.4
			c-0.4-0.7-0.9-1.3-1.4-2C817.5,312,817.9,302.4,817.8,293.2z M816.4,394.9c0.2,0.6,0.3,1.3,0.5,1.9c-0.4,3.2-0.8,6.4-1.2,9.6
			C816,402.5,816.2,398.7,816.4,394.9z M815.6,444.6c0.2-5.5,0.5-10.5,0.9-15.3c1.3-6.9,2.4-14,3.3-21c2.3,9.1,4.1,17.9,4.1,26.9
			c0,0.1,0,0.3,0,0.4c-0.5,3.7-0.8,7.3-1,10.7c0,0.4,0,0.8-0.1,1.2c-0.1,0.6-0.2,1.3-0.4,1.9l-0.1,0.5c-0.1,5.8-0.5,11.9-1.3,19.3
			c-1.7,1.6-3.5,3.2-5.8,4.5c-0.1-3.8-0.1-7.7,0-11.5C815.4,456.2,815.5,450.3,815.6,444.6z M812.3,266.6c0.7,8.6,1.1,17.4,1.1,26.6
			c-0.1,1.6-0.1,3.1-0.2,4.7c0-10.1-0.6-20.2-1.4-30.3C811.9,267.2,812.1,266.9,812.3,266.6z M811.8,411.3c0.3,0.3,0.7,0.4,1.2,0.5
			c0.1,0,0.1,0,0.2,0c0.8,0,1.5-0.5,1.9-1.1c-0.7,4.8-1.4,9.5-2.3,14.3c-0.4-3.1-0.9-6.1-1.4-9.1
			C811.5,414.3,811.7,412.8,811.8,411.3z M778.8,470.9c-0.6-0.1-1.2,0-1.8,0.1c-0.3-3.9-0.7-7.8-1.2-11.6c0-0.1,0-0.3,0-0.4
			c0.1-1.3,0.3-2.5,0.4-3.8c1.3-9.9,2-19.6,2.2-29c0.2,6.1,0.6,12.5,1.1,19.5C778.8,454.1,778.7,462.4,778.8,470.9z M787.4,519.5
			c0-7.2,0-14.4-0.1-21.8c0.4,13.1,1.5,26.2,3.2,39.4C789.3,531.3,788.3,525.4,787.4,519.5z M791.6,475.6c0.2-9.6,0.8-19.1,1.8-28.6
			c0.6-8.5,1.5-17.2,3-27.1c0,2.2,0,4.4,0,6.6c0.1,7.4,0.3,15.2,0.8,23.1c0.2,9,1.2,18.2,2.4,27.2
			C797,476.6,794.2,476.2,791.6,475.6z M800.9,428.6c0-0.7,0-1.5,0-2.2c-0.1-8.2,0.1-16.1,0.5-23.6c0-0.9,0.1-1.9,0.2-2.8
			c0.5,3,0.9,6,1.3,9C802,415.6,801.4,422.1,800.9,428.6z M802.1,497.6c0.1,0,0.2,0,0.3,0c0,0.4,0.1,0.8,0.1,1.1
			c-0.1,0.3-0.2,0.6-0.2,0.9c-0.1,0.3-0.2,0.7-0.3,1C802,499.6,802,498.6,802.1,497.6z M803,541.2c-0.1-4.6-0.3-9.2-0.5-13.7
			c-0.1-2.7-0.2-5.5-0.3-8.3c0.5-2.5,1-4.9,1.6-7.4C804.5,521.7,804.5,531.5,803,541.2z M808.2,402.2c0-0.1-0.1-0.2-0.1-0.3
			c0.3-2.7,0.7-5.4,1-8.1C808.9,396.7,808.6,399.5,808.2,402.2z M807.7,273.6c1,13.4,1.3,26.9,0.4,40.4c-0.3-0.2-0.6-0.3-0.9-0.5
			c0.4-12.2,0.2-24.8-0.6-38.2C806.9,274.8,807.3,274.2,807.7,273.6z M804.3,369.4c0.3-3.3,0.6-6.6,0.9-9.9l0.6-6.6
			c0.4-1.4,0.8-2.9,1.2-4.3c1,0.5,2,1,3,1.4c-0.2,1.8-0.4,3.6-0.6,5.4c-1,10.8-2.5,22-3.9,32.8c-0.1,1-0.3,2-0.4,3.1
			c-0.7-2.4-1.5-4.7-2.2-7C803.3,379.2,803.8,374.2,804.3,369.4z M800.2,290.2c1-1.4,1.8-2.9,2.5-4.3c0.3,8.9,0.4,17.5,0.1,25.8
			c-0.9-0.3-1.9-0.5-2.9-0.7C800.2,304.1,800.2,297.1,800.2,290.2z M798,340.7c0.2,0.3,0.5,0.5,0.7,0.8c0.6,0.7,1.1,1.4,1.7,2
			c-0.3,4.1-0.5,8.1-0.7,12.2l0,0.9c-0.2,4.5-0.4,9-0.6,13.5c0,0.3-0.1,0.6-0.1,0.8c-0.2-1.5-0.4-3.1-0.6-4.8
			c-0.2-4.9-0.4-10.1-0.5-15.4C797.9,347.2,797.9,343.8,798,340.7z M795.4,398.9c-1.2,6.3-2.2,12.2-3,17.7
			c-1.7,11.2-2.8,20.7-3.4,30c-0.9,9.2-1.5,18.5-1.7,27.8c-0.3-0.1-0.6-0.2-0.9-0.3c-0.5-8.8-1.3-17.8-2.4-26.8
			c0-0.6-0.1-1.1-0.1-1.7c0-0.8,0.1-1.6,0.1-2.3l0.1-3.1c0.1-6.3,0.3-12.3,0.7-19.3c0.6-9.2,1.7-18.7,3.4-29.7
			c0.8-5.4,1.8-11.3,3-17.5c0.7-3,1.2-6.2,1.8-9.3c0.6,3.7,1.3,7.2,2.1,10.5c0.1,0.3,0.2,0.6,0.2,0.8c0.1,0.6,0.2,1.3,0.3,1.9
			c0.6,2.9,1.2,5.4,1.9,7.6C796.8,390.2,796.1,394.7,795.4,398.9z M795.6,213.6c-0.1,0.3-0.2,0.6-0.2,0.9c-0.1,1.4,0,2.8,0.2,4.1
			c-0.6,3.7-1,7.5-1.2,11.2c-0.1-1.1-0.1-2.1-0.2-3.2l-0.3-5.1c-0.1-4.4-0.6-8.6-1.2-12.8C793.8,210.3,794.8,211.9,795.6,213.6z
			 M791.4,336.1c0.1,0,0.1,0,0.2,0.1c0,1.8,0.1,3.6,0.1,5.4c-0.2,1.2-0.3,2.4-0.5,3.6c-0.6,4.9-1.2,9.4-2,13.8
			c-0.8,4.7-1.6,9.4-2.6,13.9c-1.2,6.3-2.2,12.2-3,17.7c-0.2,1.2-0.4,2.4-0.5,3.6c0.4-5.7,0.9-11.1,1.6-16.4c0.5-3.5,1-6.7,1.6-9.7
			c0.9-4.5,1.7-9.1,2.4-13.8c0.7-4.4,1.3-9,1.9-13.8C790.9,339.1,791.2,337.6,791.4,336.1z M790.6,298.5c-0.1,3.4-0.2,6.8-0.4,10.2
			C780.3,305.6,783.9,302.3,790.6,298.5z M774.8,184.7c2,3.8,4.6,8.4,7.9,12.8c0.3,2.6,0.5,5.3,0.7,7.9c0.3,3.8,0.6,7.4,1.1,10.8
			c0.3,4,0.5,8.2,0.8,12.7l0,0.2c1.4,9.9,2.7,20.1,3.6,30.5c-2.1,1.8-4.7,4.1-6.7,6.7c-0.2-4.7-0.5-9.4-0.9-14.1
			c-0.3-5.4-0.8-10.7-1.2-15.8c-0.5-5.2-1-10.5-1.6-15.6c-0.1-1.6-0.2-3.3-0.3-5c-0.1-2.2-0.1-4.4-0.2-6.5
			C777.4,200.5,776.3,193.1,774.8,184.7z M775.9,378.2c0.3-6,0.7-11.2,1.2-15.9c0.6-4.5,1.2-9.1,1.6-13.7c0.5-4.5,0.9-9.1,1.2-13.7
			c0-0.1,0-0.2,0-0.3c2.3-0.1,4.8,0,7.2,0.4c-0.3,1.6-0.6,3.3-0.9,4.9l0,0.2c-0.6,4.8-1.2,9.4-1.9,13.7c-0.7,4.6-1.5,9.2-2.4,13.6
			c-0.6,3.1-1.1,6.3-1.6,9.9c-1.5,11-2.3,22.6-2.3,35.4c-0.3-7-0.9-13.7-1.9-20.1c-0.2-1.2-0.4-2.5-0.6-3.7
			C775.6,385.1,775.7,381.6,775.9,378.2z M767.1,478.4c-1.1,1.3-2.2,2.7-3.3,4.2c0-11.7-0.1-22.1-0.3-31.7c0.3,2.8,0.7,5.6,1.1,8.5
			c1.2,5.9,2.2,11.8,2.8,17.8C767.3,477.6,767.2,478,767.1,478.4z M770.2,465.3c-0.4-2.2-0.8-4.4-1.2-6.6
			c-1.4-10.6-2.4-20.2-3.3-29.5c-1.1-12-1.8-23.6-2.1-34.4c-0.1-5.3-0.2-10.6-0.1-15.5c0.3-4.2,0.6-8.5,1-13.2
			c1.1,3.7,2.4,7.4,3.8,11.1c-0.5,5.1-0.9,10.3-1.1,15.6c-0.4,10.3-0.4,20.8,0.2,31.2c0.4,8,1.2,16.2,2.3,25
			c0.6,3.3,1.1,6.6,1.5,9.9C770.9,461.2,770.6,463.2,770.2,465.3z M768.6,335.2c1.5,0.1,3.7-0.2,6.2-0.4c-1.3,11.2-2.9,22.4-5,33.4
			c-1.6-5.1-3-10.2-4.1-15.3c0.1-1.5,0.3-3.1,0.5-4.7c0.4-4.3,0.9-8.6,1.4-12.8C767.8,335.2,768.2,335.2,768.6,335.2z M767.4,222.7
			c0,0.2,0,0.5,0,0.7c0-0.1,0-0.1,0-0.2C767.4,223.1,767.4,222.9,767.4,222.7z M767.1,212.8c-0.5-5.5-1.5-10.9-2.8-16.2
			c0-1.2-0.1-2.4-0.1-3.6C765.8,199.5,766.8,206.1,767.1,212.8z M761.7,241.2c0-2.8,0-5.6-0.1-8.4c0.1-1.8,0.2-3.6,0.3-5.3
			c0.1,1.8,0.2,3.6,0.2,5.5l0.1,1.9l0,0.2c1.2,9.3,2,18.8,2.4,28.4c0.3,7.3,0.4,14.9,0.3,22.4c-1.1,0.4-2.1,0.9-3.1,1.3
			c-0.2,0.1-0.5,0.2-0.7,0.4C762,272.2,762.3,256.7,761.7,241.2z M760.1,414c0.3,4.8,0.7,9.7,1.1,14.7c-0.1-0.6-0.2-1.3-0.2-1.9
			c-0.4-3-0.7-6.2-1.1-9.7C760,416.1,760,415.1,760.1,414z M759.8,179.6c0,0.1-0.1,0.1-0.1,0.2c-0.1-0.4-0.2-0.8-0.4-1.3
			C759.5,178.8,759.6,179.2,759.8,179.6z M759.8,204.5c-0.1,1.6-0.2,3.2-0.4,4.8c-0.1-0.6-0.1-1.2-0.2-1.8
			c-0.6-4.8-1.5-9.3-2.6-13.6C757.8,197.4,758.9,200.9,759.8,204.5z M719.3,346.1c-1.9-5.8-3.2-11.7-4.2-17.8
			c0.2-3.8,0.2-7.5,0.2-11.2c0.3-3.8,0.5-7.5,0.7-11.2c1.3,2.1,2.5,4.3,3.8,6.7c0.3,0.7,0.7,1.3,1,1.9
			C720.8,325,720.3,335.5,719.3,346.1z M721.1,380.6c-0.1,2.5-0.2,5.1-0.3,7.5c-0.3,0.2-0.5,0.4-0.8,0.5
			C720.3,386.1,720.7,383.4,721.1,380.6z M719.4,551.3c0,0.1,0,0.3,0,0.4c-0.2-2.4-0.4-4.9-0.6-7.3c0.3-1,0.5-2,0.7-3
			C719.6,544.8,719.5,548,719.4,551.3z M723.9,468.9c-0.2,0.6-0.3,1.3-0.5,1.9c-0.6-1.5-1.2-3.1-1.7-4.8
			c-3.9-13.4-1.6-24.6,2.7-33.1c0.1,0.8,0.1,1.6,0.2,2.4c0.7,6.5,1.5,13.4,2.4,20.7C726.2,460.3,725.1,464.6,723.9,468.9z
			 M726.4,476.7c0.6-2.2,1.3-4.4,1.8-6.6c0.2-0.6,0.3-1.1,0.4-1.7c0.4,3.4,0.9,6.8,1.2,10.1c0.1,1,0.2,2,0.2,3
			C728.8,480.1,727.5,478.5,726.4,476.7z M727.7,381.3c0-1.8,0-3.7,0-5.5c0.1,0.2,0.1,0.3,0.2,0.5
			C727.8,378,727.8,379.6,727.7,381.3C727.7,381.2,727.7,381.3,727.7,381.3z M730.9,435.2c-0.4-3.4-0.7-6.7-1-9.9
			c0-0.3,0-0.5-0.1-0.8c0.3-0.3,0.5-0.6,0.8-0.9c0.1,0.8,0.2,1.6,0.3,2.3c0.2,1.6,0.4,3.1,0.6,4.5
			C731.3,432,731.1,433.6,730.9,435.2z M732.7,451.1c0.1-0.3,0.1-0.6,0.2-0.9c0,0.9,0,1.9,0.1,2.8
			C732.9,452.4,732.8,451.7,732.7,451.1z M748,452.3c-0.2-4.7-0.9-9.9-1.7-16l-0.2-1.3c-0.8-6.1-1.7-13.3-2.4-21.8
			c0.3-0.2,0.7-0.3,1-0.5c0.3,5,0.7,10,1.2,15.2c0.8,9.1,1.9,18.5,3.2,28.9c-0.3,1.2-0.7,2.4-1,3.5C748,457.7,748,455,748,452.3z
			 M749,488.7c0,0.8,0,1.6,0,2.5c-0.2,0-0.5,0-0.7-0.1c0-1.5,0-3.1,0-4.6c0-2,0-4,0-6c0.2-1.7,0.5-3.4,0.9-5.1
			C749.1,479.4,749.1,483.7,749,488.7z M754.4,427.3c-0.1,0.8-0.2,1.6-0.3,2.4c-0.7-7.6-1.2-15.1-1.5-22.3c0.3-0.3,0.6-0.6,0.8-0.8
			C753.6,412.9,754,419.8,754.4,427.3z M749.7,173.1c0.3,0.4,0.7,0.7,1.2,1c0.5,2.6,1.2,5.1,1.9,7.6c-1.1-2.8-2.3-5.5-3.7-8.1
			C749.3,173.4,749.5,173.2,749.7,173.1z M750,199c0.3,1.3,0.5,2.7,0.7,4c0.8,4.9,1.2,9.8,1.2,14.6c0.1,2.7,0.1,5.5,0.2,8.4l0.1,2.6
			c-0.1-0.7-0.2-1.4-0.3-2.1c0.1-3.2,0.1-6.5-0.1-9.7c-0.7-12.6-3.8-24.4-7.2-35.9C747,186.8,748.8,192.9,750,199z M742.1,235.3
			c0.2-5.8,0.6-11.4,0.9-16.3c0.2-7.4,0-14.5-0.3-21.4c1.1,4.7,2.1,9.5,2.7,14.3c0.5,3.9,0.8,7.5,0.9,10.9l0,0.2
			c2.2,23.9,4.1,48.5,3.7,73.3c-2.1,1.3-3.9,1.9-5.3,0.7c-0.4-3.5-0.7-6.9-1.1-10.4c1-16.2,0.7-32.5-1.6-48.8
			C742.1,236.9,742.1,236.1,742.1,235.3z M739.9,428.3l0.1-3c0-1.1,0.1-2.3,0.1-3.4c0.5,5.2,1.1,9.9,1.6,13.8l0.2,1.3
			c0.8,6,1.5,11.1,1.7,15.5c0.1,8.4,0.2,17.5,0.3,27.7c-0.4,3.2-0.7,6.5-0.8,9.7c-0.6-0.2-1.2-0.4-1.8-0.6
			c-0.5-3.7-0.9-7.4-1.3-11.1c-0.9-8.9-1.3-17.1-1.3-24.9C739.5,443.2,739.7,435.4,739.9,428.3z M739.1,288.1c-0.8-1-1.7-1.9-2.7-3
			c0.8-10.2,1.3-20.4,1.2-30.7c0.2,10.7,0.7,21.4,1.7,32.2C739.2,287.1,739.2,287.6,739.1,288.1z M732.1,167.1
			c0.5,0.3,1.1,0.4,1.8,0.4c1.1,0,2.2-0.5,2.9-1.2c0.3,0,0.5-0.1,0.8-0.1c-0.1,1.7-0.1,3.4-0.1,5.2c0,0.2,0,0.4,0,0.5
			c-0.1,7,0.3,13.9,0.6,21c0.1,1.2,0.1,2.4,0.2,3.5c-1.8-10.1-4.2-19.9-6.6-28.8C731.8,167.4,731.9,167.3,732.1,167.1z M727.6,169.9
			c4.1,15.6,8.1,33.3,9.1,51.4l0.1,3.2c0.1,3.7,0.3,7.5,0.5,11.4l0,0.2c0.1,0.6,0.2,1.3,0.3,1.9c-0.1,4.5-0.2,9-0.1,13.5
			c-0.1-7-0.5-14.1-1.3-21.1c0-3.4,0-6.6-0.1-9.8c-0.5-18.9-3.9-35.4-10.3-50.2C726.5,170.4,727.1,170.2,727.6,169.9z M721.5,177.4
			c0.1-0.1,0.2-0.2,0.3-0.3c4.9,13.6,9.2,28.7,8.2,43.9l0,0.1l0,0.1c0.1,3.1,0.1,6.4,0.1,9.9c0.1,5.5,0.2,10.9,0.3,16.2
			c-0.2-2.8-0.4-5.6-0.6-8.4c-0.2-3.3-0.4-6.6-0.5-9.7c-0.1-2.8-0.3-5.6-0.4-8.3c0.7-11.9-2-23.1-4.7-34c-0.7-2.8-1.4-5.5-2-8.3
			C722,178.2,721.8,177.8,721.5,177.4C721.5,177.5,721.5,177.5,721.5,177.4z M718.4,203.4c0-0.2,0-0.4,0.1-0.6
			c0.6-4.7,1.2-9.6,1.4-14.5c2.7,10.9,5.2,21.2,4.5,32.4l0,0.1l0,0.1c0.2,2.7,0.3,5.5,0.5,8.4c0.2,3.2,0.3,6.4,0.5,9.8
			c1,13,1.7,25.4,2.1,37.4c-1.1-0.9-2.1-1.8-3.2-2.8c-0.7-11.9-1.7-24.2-2.8-37.1c-0.4-4.6-0.8-8.9-1.1-12.8l-0.1-0.7
			c0.1-2.7-0.5-5.7-1-8.5c-0.7-3.6-1.3-7.3-0.8-10.3C718.5,204.1,718.5,203.7,718.4,203.4z M716.9,237c0.3,4.2,0.7,8.2,1,12.3
			c-1.1,0.2-2,1.2-1.9,2.4c0.5,5.3,1,10.6,1.6,15.9c-0.3-0.4-0.7-0.7-1-1.1c-0.3-9.9-0.9-19.5-1.9-28.8c0.2-2.7,0.4-5.3,0.7-7.8
			c0.2-1.4,0.4-2.8,0.6-4.3C716.2,229.1,716.5,232.9,716.9,237z M715.4,186.2c-0.1,5.4-0.8,10.6-1.4,16.1c-0.5,4.5-1.1,9.1-1.4,13.7
			c0,0.4-0.1,0.8-0.1,1.1c-0.3-1.8-0.6-3.5-0.9-5.1c-0.9-4.5-1.8-8.5-2.9-11.8c0-0.1-0.1-0.2-0.1-0.3
			C710.6,194.8,713.1,190.1,715.4,186.2z M710.2,325.3c-0.3,3.2-0.6,6.5-1,9.8c0.3-3.5,0.6-7,0.9-10.5
			C710.1,324.8,710.1,325.1,710.2,325.3z M708.4,398.1c2-10.5,3.4-23,4.3-37.1c0.3-4.8,0.6-9.7,0.8-13.4c0.2-1.3,0.3-2.5,0.4-3.8
			c1.2,4.1,2.5,8.1,4.2,12.1l0.1,0.1c-0.1,1.2-0.3,2.3-0.4,3.5c-0.4,5.3-1,10.3-1.5,15c-0.6,4.9-1.3,9.6-2.1,13.9
			c-0.3,1.8-0.6,3.7-1,5.6c-0.1,0.2-0.2,0.3-0.3,0.5c-0.9,1.7-2.2,3.6-4.7,5.9C708.2,399.5,708.3,398.8,708.4,398.1z M707.8,348
			c0.1-0.5,0.1-1.1,0.2-1.6c-0.2,2.1-0.4,4.3-0.6,6.5c-0.1,1.6-0.3,3.2-0.4,4.7c0-0.6-0.1-1.1-0.1-1.7
			C707.2,353.4,707.5,350.7,707.8,348z M707.7,522.6c0.1-0.9,0.2-1.7,0.3-2.6c0.5,0.1,1,0.2,1.6,0.4c0.1,0.5,0.1,1,0.2,1.5
			c-0.4,4.5-0.7,9.1-0.6,13.7c-0.6-3.8-1.4-7.7-2.3-11.5C707.3,523.7,707.6,523.2,707.7,522.6z M705.5,552.5c0,0.2,0,0.5-0.1,0.7
			c0-0.3,0-0.6,0-0.9C705.4,552.4,705.4,552.5,705.5,552.5z M700.9,555c-0.3-7-0.7-13.7-1.2-20.3C700.6,541.4,701.1,548.2,700.9,555
			z M697.5,185.1c0.4,3.4,0.6,6.8,0.6,10.1c-0.3,0.3-0.5,0.6-0.8,0.9C697.4,192.4,697.5,188.7,697.5,185.1z M674.1,389.7
			c-0.1,0.8-0.2,1.6-0.2,2.4c-0.2-4.1-0.5-8.3-0.6-12.6c0.2-2.1,0.4-4.2,0.6-6.4c0.1-0.9,0.1-1.7,0.2-2.6c0.1,2.7,0.2,5.4,0.4,7.9
			C674.3,382,674.2,385.8,674.1,389.7z M674.2,335.9c0-0.4,0-0.8,0-1.2c0-0.3,0.1-0.6,0.1-1c0.1,1.1,0.2,2.1,0.3,3.2
			C674.4,336.6,674.3,336.2,674.2,335.9z M688.8,549.3c-1-6.6-3.2-13.2-5.4-19.7c-0.6-1.9-1.3-3.8-1.9-5.7c1.1-0.5,2.1-1.1,3.3-1.5
			c1.2,4.3,2.3,8.6,3.4,13.1C689.3,539.9,689.5,544.6,688.8,549.3z M689,520.8c0,0,0.1,0,0.1,0c0,0.3,0.1,0.6,0.2,1
			C689.2,521.4,689.1,521.1,689,520.8z M690.9,412.6c0.3-3,0.6-6.1,1-9.1c0.1,0.8,0.1,1.5,0.2,2.3c0.2,1.8,0.3,3.6,0.5,5.5
			C692,411.7,691.4,412.1,690.9,412.6z M695.2,534.5c-0.4-5-1-9.9-1.8-14.8c0.2,0,0.4-0.1,0.6-0.1
			C694.5,524.5,694.9,529.5,695.2,534.5z M692.4,333c-0.3,2.3-0.5,4.6-0.8,6.9c0-1.5,0-2.9,0-4.4c0-4.2,0-8.6-0.1-13.5
			c-0.4-6.7-0.5-13.6-0.6-20.3c0-0.9,0-1.8,0-2.7c0.6,3.6,1.3,7.3,2,10.9c0.2,4.2,0.4,8.5,0.6,12.6C693.2,326,692.8,329.5,692.4,333
			z M693.3,165.7c-0.1,0.2-0.1,0.5-0.1,0.7l0,2.2c0,10.7-0.1,21.7-0.5,32.5c-0.4,0.4-0.7,0.7-1.1,1.1c-0.2-4.5-0.6-8.9-0.9-12.9
			c-0.2-2.2-0.4-4.4-0.6-6.7c-0.1-4.6-0.4-9.2-0.6-13.6c-0.3-5-0.5-9.9-0.6-14.7C690.6,157.9,692.1,161.8,693.3,165.7z M689.1,376.9
			c0.4,2.6,0.8,5,1.3,7.2c-0.5,3.8-1.1,7.4-1.7,10.9c-1.3,7.2-2.2,14.5-2.7,21.8c-1,0.9-1.9,1.9-2.8,2.8c0-0.2,0-0.4,0-0.5
			c0-0.1,0-0.3,0-0.4c0.7-7.7,1.8-15.9,3.4-24.7C687.6,388.7,688.4,383,689.1,376.9z M685.2,177.5l0.3,3.3c-0.1-0.9-0.3-1.9-0.4-2.8
			c0-1.3-0.1-2.7-0.1-4C685,175.2,685.1,176.3,685.2,177.5z M684.6,267.8c0.2,0.4,0.3,0.8,0.5,1.2c-0.3,3.6-0.6,7.2-0.9,10.7
			C684.3,275.7,684.5,271.8,684.6,267.8z M682,377.4c0.1-0.9,0.3-1.9,0.4-2.8c0.5-4.1,1-8.5,1.5-13.1c1.5-15,1.7-30.3,1.4-45.5
			c0.1,0,0.3,0,0.4-0.1c0,0.6,0.1,1.1,0.1,1.7c0.1,4,0.2,8.1,0.3,12.1c0.1,4.1,0.3,8.2,0.5,12.3c0.1,2.8,0.2,5.4,0.3,7.7
			c-0.3,5-0.6,9.9-1,14.5c-0.9,10.7-2.1,20.4-3.7,28.8c-0.3,1.5-0.5,2.9-0.8,4.3C681.9,391,682.1,384.2,682,377.4z M680.6,178.4
			c0.1,2.2,0.1,4.3,0.2,6.5c0,0.5,0,1.1,0,1.6c-0.3-3.7-0.6-7.3-1-10.9c-0.1-0.9-0.1-1.9-0.2-2.8C680,174.7,680.3,176.5,680.6,178.4
			z M679.2,145.6c0.2,2.3,0.3,4.6,0.4,6.9c-0.5-2.1-1.1-4.2-1.6-6.2C678.5,146.1,678.9,145.9,679.2,145.6z M677.6,307.6
			c-0.1,4.2-0.2,8.4-0.3,12.6c-0.3-2.3-0.5-4.5-0.8-6.8c0.5-4.6,0.9-9.1,1.4-13.6C677.7,302.4,677.7,305,677.6,307.6z M673.6,296.7
			c0.1-5.2,0.2-10.4,0.3-15.6c0.2-9.5,0.4-19.1,0.7-28.7c0.5-5.1,1-10.1,1.4-15.2c0.4,0.8,0.6,1.3,0.6,1.3c0.1,1.2,0.4,2.6,0.6,4.2
			C676.7,260.9,675.3,278.7,673.6,296.7z M671.5,150.3c0.4-0.2,0.8-0.4,1.2-0.7c0.3,4.3,0.8,8.7,1.4,13c0.6,4.6,1.1,9,1.4,13.4
			c0.4,4.1,0.8,8.2,1.1,12.3c0.4,5.1,0.7,9.6,0.9,13.8c-0.1,0-0.1,0.1-0.2,0.1c-0.4-8.4-1.4-17.1-2.8-26.4c-0.4-5.9-1.3-11.9-3.3-18
			c-0.1-0.4-0.2-0.9-0.3-1.3C671.1,154.4,671.3,152.3,671.5,150.3z M670.4,531.4c0,0.7,0,1.4,0.1,2.1c-0.1-0.6-0.3-1.2-0.4-1.8
			C670.1,531.6,670.3,531.5,670.4,531.4z M667.4,427.4c0-1.8,0-3.7,0-5.5c0.6,6.1,1.3,11.7,1.9,16.6
			C668.4,437.2,667.9,432.2,667.4,427.4z M668.9,169.6c0.1,0.6,0.2,1.3,0.3,1.9c-0.1,0-0.2,0-0.3,0c-0.1,0-0.2,0-0.3,0.1
			C668.7,170.9,668.8,170.2,668.9,169.6z M667.3,179.1c0.5,6.6,0.9,13.3,1.3,19.8c0,0.9,0.1,1.7,0.1,2.6c-0.2,0-0.4-0.1-0.6,0
			c-0.1,0-0.2,0-0.3,0.1c0,0,0-0.1-0.1-0.1c0-1.4-0.1-2.8-0.1-4.2c-0.2-5.3-0.3-10.7-0.6-16.1C667.1,180.4,667.2,179.8,667.3,179.1z
			 M664.7,395.2c0.1-1,0.2-2.1,0.2-3.1c0,0.3,0,0.7,0.1,1C664.9,393.8,664.8,394.5,664.7,395.2z M664.9,153.7c0.5,1.2,1,2.3,1.4,3.5
			c-0.2,1.6-0.5,3.2-0.7,4.8c-0.3-2.7-0.6-5.4-1-8.1C664.7,153.8,664.8,153.8,664.9,153.7z M661.9,360c-0.2,2.1-0.3,4.2-0.5,6.3
			c-0.4,3-0.9,5.9-1.4,8.7c-0.2,0.9-0.3,1.8-0.5,2.7c0-0.8,0-1.6,0-2.4c0.1-3.1,0.1-6.3,0.3-9.3c0.8-9.4,1.5-18.7,2.2-28
			C661.8,345.4,661.8,352.7,661.9,360z M662.3,225.8c0,0.5,0.1,1,0.1,1.5c-0.6,11.3-1.3,22.5-2.1,33.4c-0.3,4-0.6,7.9-0.8,12
			c-0.5-6.2-0.7-12.4-0.6-18.7c1-8,1.9-16.1,2.6-24.2C661.7,228.4,662,227.1,662.3,225.8z M661.3,188.7
			C661.3,188.7,661.3,188.7,661.3,188.7c0-0.1,0-0.2,0-0.3C661.3,188.5,661.3,188.6,661.3,188.7z M660.3,155.7
			c0.1,0.5,0.2,1.1,0.2,1.6c-0.9,0.4-1.4,1.2-1.4,2.2c0.5,6.2,1,12.5,1.4,18.9c-0.6-7.2-1.6-14.5-3.2-21.7
			C658.3,156.5,659.3,156.1,660.3,155.7z M363.2,400.7c-0.3,2.7-0.5,5.2-0.8,7.6c-4.3-31.2-3.5-85-1.9-125.7
			c0.2-6.1,0.5-12,0.7-17.2c0.5-4.8,0.6-9.5,0.6-14.6c0-3.8,0.1-7.6,0.3-11.5c0,0,0,0.1,0,0.1c0.2,3.1,0.4,6.9,0.6,11.3
			C364.7,288.3,367.3,357.6,363.2,400.7z M369.8,233.5c0.1,0,0.2,0,0.3,0c0.1,0,0.2,0,0.3,0c1.5,1,3,2.1,4.4,3.2
			c0.1,0.2,0.3,0.4,0.4,0.6c-0.5,5.8-1.2,11.4-1.8,16.9c-0.6,4.8-1.1,9.6-1.6,14.6C371.9,256.4,371.7,245.6,369.8,233.5z
			 M376.5,360.5c0.2,12.8,0.4,26-0.2,39.5c-3.2-19.6-3.7-55.1-1.6-104.1c0.1-3.4,0.3-6.8,0.5-10.1c0.1-4.2,0.4-8.2,0.7-12.2
			c0.6,10.1,1.3,23.1,1.7,38.2C376,327.2,376.2,343.4,376.5,360.5z M378.6,249.3C378.6,249.3,378.6,249.3,378.6,249.3
			c0.2-1.9,0.4-3.7,0.6-5.6c4,14.6,3.5,30.4,2,42.9C380,263.8,378.6,249.7,378.6,249.3z M379.2,431.4c0-1,0-2.1,0-3.2
			c0.1,0.4,0.2,0.8,0.2,1.2C379.3,430.1,379.3,430.8,379.2,431.4z M379.9,579.6c0-0.9,0-1.9,0.1-3.1c0.6,4.1,1.3,8.1,1.9,11.8
			C380.9,586.2,380.1,583.4,379.9,579.6z M381.2,418.1c-0.4-1.4-0.8-2.8-1.3-4.2c0-0.4,0.1-0.8,0.1-1.1c0.1-0.6,0.3-1.1,0.4-1.6
			l0.1-0.5c0.2-4,0.5-7.9,0.6-11.8c1.7-32.2,1.6-62.2,1-86.8c0.4-3.4,0.8-6.7,1.4-10c0.3-1.7,0.6-3.5,0.8-5.3c0.2,3,0.4,6,0.6,9
			c0.1,3.2,0.2,6.4,0.4,9.6c1.2,38.8,0.2,71-3.1,95.5C381.9,413.4,381.5,415.7,381.2,418.1z M382.1,546c0.1-10,0.4-19.8,0.8-29.4
			C383.2,526.4,383.2,536.2,382.1,546z M386.8,417.4c-0.6,5.2-1.3,10.6-2.1,16.2c-0.2-1.2-0.4-2.4-0.6-3.6c-0.1-0.3-0.1-0.5-0.2-0.8
			c0.2-1.9,0.5-3.8,0.8-5.7c0.7-3.6,1.3-7.4,1.8-11.3c0.2,0.2,0.5,0.4,0.8,0.6C387.2,414.3,387,415.9,386.8,417.4z M388.7,250.1
			c-0.1-1.1-1-1.9-2-2c0-0.4,0-0.7-0.1-1c1,1,1.9,2,2.7,2.7c0.2,3.5,0.3,7,0.4,10.5C389.1,254,388.7,250.3,388.7,250.1z
			 M399.5,260.5c-0.1,0.6-0.2,1.1-0.2,1.7c-0.3-1-0.5-1.9-0.8-2.6C398.9,260,399.2,260.2,399.5,260.5z M394.5,389.9
			c0.1,6.7,0.2,13.6,0.2,20.6c-0.4-2.8-0.8-5.9-1.1-9.4C393.9,397.3,394.2,393.6,394.5,389.9z M396.8,523.6
			c-0.7-7.9-1.5-15.7-2.3-23.4c-2.6-25.1-5.2-51.1-3.1-77.1c0.1-1.4,0.3-2.7,0.4-4.1c0.5,1.8,0.9,3.5,1.5,4.9
			c0.4,0.9,0.7,1.9,1.1,2.8c0,0.1,0,0.2,0,0.3l0,1.4c-0.1,4.7-0.2,9.3-0.4,14.1c0,1.2,0.9,2.3,2.2,2.3c0,0,0.1,0,0.1,0
			c1.2,0,2.2-0.9,2.2-2.2c0-1.2,0.1-2.4,0.1-3.6C405.2,463,404.6,490,396.8,523.6z M406.5,407.5l-0.3,4.3c-0.2,3.6-0.5,7.2-0.7,10.8
			c-0.3,5.4-0.6,10.5-0.7,15.6c0,0.2,0,0.3,0,0.5c-0.2,1.5-0.4,3-0.6,4.5c-1.3-5.7-3-11.5-5.3-17.1c0.1-3.3,0.1-6.5,0.2-9.7
			c0.4,0.7,1.1,1.1,1.9,1.1c0.1,0,0.1,0,0.2,0c1.2-0.1,2.2-1.2,2.1-2.4c-1.6-23.7-2.5-50.5-2.6-79.8c0.3-1.9,0.5-3.8,0.9-5.7
			c3.9-21.9,2.8-40.3,0.8-53.1c0.4-4.4,0.8-8.6,1.3-12.7c0.3,0.2,0.6,0.4,0.9,0.6c0.6,12,1.7,33.1,3.2,60.4
			C409.1,348.3,408.7,375.3,406.5,407.5z M409.1,267.2c0.2,0.1,0.3,0.2,0.5,0.3c0.1,5.6,0.3,11.3,0.3,16.9
			C409.6,277.6,409.3,271.8,409.1,267.2z M424.5,275.6c0,0.3,0,0.7,0,1C424.4,276.3,424.4,275.9,424.5,275.6
			C424.4,275.6,424.4,275.6,424.5,275.6z M420.2,280.2c0.5,9.7,0.2,19.6-0.1,29.3c-0.1,2.3-0.2,4.6-0.2,6.9c0,3.4,0,7-0.1,10.7
			c-0.2,10.3-0.5,21.1-1.1,32.6C418.6,327.6,419.5,298.8,420.2,280.2z M421.2,496.9c-0.5-8.4-1-16.9-1.5-25.5c0,0.4,0.1,0.8,0.1,1.2
			c1.5,16.8,2.9,33.8,3,50.9C422.3,514.6,421.8,505.7,421.2,496.9z M419.7,411.9c0-0.6-0.1-1.3-0.1-1.9c0-0.3,0-0.6,0-0.9
			c2.7-30.3,4.3-57.9,4.7-82.1c0-2.5,0.1-4.9,0.1-7.3l0,0.3c0,2.7,0.1,5.4,0.1,8.1C424.8,362.6,423.2,390.7,419.7,411.9z
			 M428.3,415.3l-0.6,6.8c-0.1,3.3-0.1,6.5-0.1,9.8c-0.4,13.9-0.8,28-1.1,42.1c-0.5-3.6-1-7.1-1.7-10.7c-1.5-13.5,0.1-27.2,1.9-40
			c0.7-4.1,1.2-7.5,1.6-10.9c0.2-1.7,0.5-3.5,0.7-5.3C428.9,409.8,428.6,412.5,428.3,415.3z M433.4,259.4c0.7,2.7,1.3,5.4,1.6,8.1
			c-1.1-0.5-2.1-1-3.2-1.5c-0.1,0-0.1,0-0.1-0.1c0-1.6-0.1-3.2-0.2-4.9C432.3,260.8,432.9,260.1,433.4,259.4z M431.9,509.1
			c-0.3,2.3-0.6,4.5-0.9,6.8c-0.2-9.2-0.2-18.5-0.1-27.7c0.1,1.6,0.3,3.1,0.4,4.7c0.4,4.3,0.8,8.6,1.1,13
			C432.2,506.9,432,508,431.9,509.1z M433.9,528.3c0-0.1,0-0.3,0-0.4c0,0,0,0,0,0.1C434,528.1,433.9,528.2,433.9,528.3z
			 M435.1,283.9c-0.1,5.5-0.2,11.1-0.2,16.7c-0.2,2.8-0.4,5.6-0.5,8.3c-0.4,8.1-0.5,16.3-0.7,24.3c-0.1,3.7-0.1,7.5-0.2,11.2
			c0,0.9-0.1,1.8-0.1,2.8c-0.8-15.7-1.5-25.8-1.5-26c0-0.1,0-0.1,0-0.2c-0.1-2-0.1-4-0.2-6l0-0.3c-1.9-10.7-1.3-21.2-0.6-31.4
			c0.1-1.1,0.1-2.2,0.2-3.4c1.3,0.8,2.6,1.7,3.9,2.5C435.1,282.9,435.1,283.4,435.1,283.9z M441,261.9c0.1,2.8,0.1,5.5,0.1,8.3
			c-0.2-0.1-0.4-0.2-0.5-0.2c0-0.2,0-0.4,0-0.5c0.1-4.9,0-9.8-0.4-14.8C440.5,257.1,440.8,259.5,441,261.9z M437.4,411.8
			c-0.2,1.1-0.4,2.2-0.6,3.3c-0.3,1.2-0.5,2.4-0.7,3.6c0-0.3,0-0.7,0-1c0.2-5.2,0.6-10.5,1.2-15.7c0.5-5,1-9.9,1.5-14.8
			c0,0.3,0,0.6,0,0.9c-0.3,7-0.7,13.7-1.1,19.9C437.6,409.3,437.5,410.5,437.4,411.8z M442.1,460.2c-0.4,5.1-0.8,10.3-1.2,15.3
			c-0.6-5.5-1.3-11.1-2.2-16.7c0.2-13.7,1-27.4,2.6-41c0-0.5,0.1-0.9,0.1-1.4c0.4,2.1,0.8,4.1,1.2,5.8
			C441.4,434.9,441.5,447.6,442.1,460.2z M447.1,250.9c0.1,1,0.1,1.9,0.2,2.9c-0.3,1.6-0.5,3.2-0.8,4.8c-0.2,0-0.4,0-0.5,0
			c-0.2,0-0.4,0.1-0.6,0.2c0,0,0-0.1,0-0.1c-0.1-3.3-0.2-6.6-0.3-9.9c0-0.2-0.1-0.4-0.1-0.6C445.7,248.9,446.4,249.9,447.1,250.9z
			 M445.5,526.2c-0.1-9.2-0.9-18.3-1.9-27.3c0.2-2.6,0.4-5.1,0.6-7.6C445.1,502.8,445.7,514.5,445.5,526.2z M447.5,454.6
			c-0.1,3.8-0.1,7.8,0,11.8c-0.2-3.7-0.3-7.4-0.5-11.2c0.2-2.5,0.4-4.9,0.6-7.4c0,0,0,0,0,0C447.6,450.1,447.5,452.3,447.5,454.6z
			 M447.5,372c0,3.4,0,6.8-0.1,10.3c0,0,0,0,0,0c-0.3,3.7-0.5,7.2-0.9,10.6c-0.4,4.7-1,9.2-1.5,13.4c-0.1,0.6-0.2,1.1-0.3,1.7
			c0,0,0-0.1,0-0.1c-0.4-3.1-0.7-6.4-0.9-10c1.2-10.5,2-22.4,2.5-35.4c0.2-4.6,0.3-9.5,0.4-14.9c0.3-3.2,0.5-6.5,0.6-9.9
			C447.8,348.9,447.9,360.4,447.5,372z M457.6,264.4c0.4,0.6,0.9,1.1,1.3,1.6c0.1,0.5,0.2,1,0.4,1.5c1,3.2,1.7,6.4,2.3,9.6
			c-1.3-0.2-2.6-0.5-4-0.9c0-1.2,0.1-2.4,0.1-3.6C457.7,269.7,457.7,267,457.6,264.4z M455,337.2c0.2,9.2,0.1,18.5-0.8,27.6
			C454.6,355.5,454.9,346.4,455,337.2z M450.8,415.8c0,0.3-0.1,0.6-0.1,0.9c0.1-2.2,0.3-4.5,0.4-6.7c0.3-5.3,0.5-10.7,0.7-16.1
			c0.5-3.9,0.9-8,1.3-12.3c0.2-2.4,0.4-4.8,0.6-7.2c-0.1,2.2-0.1,4.5-0.2,6.7C452.8,393.9,451.9,405.5,450.8,415.8z M452.5,491.9
			c-0.4-8-0.6-15.9-0.5-23.9c-0.1-4.2-0.1-8.3,0-12.2C453.5,466.8,453.7,478.6,452.5,491.9z M457.9,412.1c0,4.5-0.1,9-0.3,13.3
			c-0.2,1.2-0.4,2.4-0.5,3.6c-0.6,3.9-1.1,7.9-1.3,12.1c-0.2,3-0.2,6.1-0.2,9.2c-0.7-3.8-1.5-7.6-2.5-11.2c-0.1-0.4-0.2-0.8-0.3-1.1
			c0.2-3.3,0.5-6.5,0.8-9.6c0.6-3.8,1.2-7.9,1.7-12.1c1.1-9.6,1.9-20.4,2.5-32.2l0.1,4c0,3,0.1,6.1,0.1,9.2
			C457.9,403,457.9,407.7,457.9,412.1z M460.4,335.7c-0.3,2.3-0.6,4.7-0.9,7c-0.1-9.6-0.5-19.1-1-28.5c-0.3-5.9-0.6-11.9-0.8-17.9
			c1.8,0.9,3.1,1.4,3.9,1.4c0.6,0.1,1.3,0.1,2,0.2C463.6,310.6,462,323.3,460.4,335.7z M462.4,389.6l-0.2,1.6c0,0,0,0.1,0,0.1
			c0-1.1,0-2.3,0-3.4l-0.1-5.4c-1.2-15.3,0.8-31.1,2.7-46.4c0-0.4,0.1-0.7,0.1-1.1c-0.3,16-1.1,31.7-1.9,46.3
			C462.8,384.4,462.6,387.1,462.4,389.6z M464.6,413.4c0,0.2,0,0.4,0,0.5c-0.4,4.6-0.9,9.3-1.3,14c0.2-3.4,0.5-6.7,0.8-10
			C464.3,416.4,464.4,414.9,464.6,413.4z M463.5,580c-0.1-3.2-0.2-6.9-0.3-10.9c-0.1-4.4-0.1-8.6-0.1-12.4c0-0.4,0-0.9,0-1.3
			c0.3,0.2,0.6,0.3,0.9,0.3c0,0.4,0.1,0.7,0.1,1.1c0.4,4.9,0.8,9.8,1.1,14.6c0,0.4,0,0.8,0,1.2C464.8,575.3,464.1,577.8,463.5,580z
			 M466.8,389.8l0.2-2.2c0.1-0.3,0.1-0.7,0.2-1c-0.2,2.8-0.5,5.7-0.8,8.5C466.5,393.4,466.7,391.7,466.8,389.8z M467,437.4
			c0.5-6.8,1.1-13.6,1.7-20.5c0,0.8,0,1.5,0.1,2.2c-0.1,1.1-0.2,2.2-0.3,3.4c-0.3,3.6-0.6,7.2-0.9,10.9
			C467.4,434.8,467.2,436.1,467,437.4z M468.5,476.8c0.1-9.5,0.6-18.9,1.7-28.3c0.2-1.8,0.4-3.6,0.6-5.3c0.4,1.9,0.7,3.8,1.1,5.6
			C470.6,458,469.5,467.4,468.5,476.8z M474.8,421c-0.2,3.5-0.5,6.9-0.8,10.1c-0.1,0.4-0.1,0.9-0.2,1.3c-0.1-2.2-0.3-4.4-0.4-6.8
			c0.5-2.8,0.9-5.6,1.3-8.6c0.1-0.9,0.3-1.9,0.4-2.9C475.1,416.5,474.9,418.8,474.8,421z M478.9,299.8c0,0.2,0,0.3,0,0.5
			C478.9,300.1,478.9,300,478.9,299.8C478.9,299.8,478.9,299.8,478.9,299.8z M477.1,452.9c-0.3-1.4-0.5-2.8-0.8-4.3
			c0.5-4.1,1-8.1,1.5-12.1c0,0.6,0.1,1.1,0.1,1.7c0.1,2.8,0.3,5.6,0.4,8.4C477.9,448.7,477.5,450.8,477.1,452.9z M480,528.5
			c-1.5-14.4-2.2-27.8-1.9-40.5C479.8,501.5,480.6,515.1,480,528.5z M498,247.7c0,0.4,0,0.8,0,1.2c0.1,3.2,0.1,6.5,0,10.7
			c0.3,5.9,0.7,11.9,1.1,17.9c-0.6-4-1.3-8-2.1-11.9c-0.1-1.5-0.2-3.1-0.4-4.6C496.8,256.2,497.3,251.7,498,247.7z M495.8,348.4
			c0.7-11.2,1.3-22.4,1.7-33.8c0.1,14.1-0.9,28.2-2.2,42.4C495.5,354.1,495.6,351.2,495.8,348.4z M491.9,259.6
			c0-0.8-0.2-1.5-0.6-2.1c0.1,0,0.2-0.1,0.3-0.2c0.6,2.9,0.8,5.7,1,8.5l0,0.3c0,0,0,0,0,0.1c0.4,6.1,0.7,12.2,0.8,18.4
			c-0.8-0.1-1.5-0.2-2.2-0.3c-0.8-6.8-1.8-13.7-3-20.6C490.2,263.5,491.9,261.7,491.9,259.6z M493.4,302.1c0,1,0,2.1-0.1,3.1
			c-0.1-1.1-0.2-2.1-0.3-3.2C493.2,302.1,493.3,302.1,493.4,302.1z M484.9,271.6c0.6,3.9,1.1,7.9,1.6,11.7c-0.2-0.1-0.4-0.1-0.5-0.2
			c-0.4-0.9-0.8-1.8-1.3-2.6c-0.4-2.5-0.8-5.1-1.2-7.6C484.2,272.6,484.6,272.1,484.9,271.6z M483,408.7c-0.2,3.4-0.4,6.8-0.6,10
			c-0.2,2.8-0.4,5.4-0.6,7.8c-0.2-3.6-0.3-7.3-0.5-10.9c-0.1-4-0.3-8-0.3-11.9c0.1-8.4,0.3-16.9,0.5-25.5c0.5-8.1,0.7-16.5,0.7-25
			c0.5-15.7,0.9-31.7,1.1-47.7c2.9,30.5,2.9,61.6,0.1,93C483.3,401.9,483.2,405.3,483,408.7z M483.6,475.7c0.2,0.1,0.5,0.2,0.7,0.2
			c0,4.7,0.1,9.4,0.4,14.3C484.2,485.3,483.8,480.5,483.6,475.7z M484.7,451.5c-0.4,2.5-0.7,5-1,7.6c0.4-7.6,1.3-15.3,2.9-22.9
			C486.1,441.4,485.4,446.5,484.7,451.5z M487.5,301.1c2.1,15.6,2.6,31.4,2.4,47.1c-0.1-15.9-1-31.6-2.6-47.2
			C487.4,301.1,487.5,301.1,487.5,301.1z M489.1,487.9c-0.8-20.5,0.2-39.8,3.1-58.6c0.3-2.7,0.5-5.3,0.8-8c0.3,1.1,0.6,2.1,0.9,3.1
			c0.4,1.3,0.7,2.6,1,4c-0.1,0.7-0.1,1.4-0.2,2.1l-0.3,3.3c-0.2,2.2-0.3,4.4-0.5,6.5C491.4,457.1,489.8,472.9,489.1,487.9z
			 M493.7,517.9c-0.7-11.7-0.6-23.9,0.2-36.8c0.2,6.8,0.7,13.6,1.3,20.4C494.7,506.9,494.2,512.4,493.7,517.9z M497.5,397.1
			c0,3.1,0,6.1,0,9.1c-0.3,1.4-0.6,2.8-0.9,4.1l0,0.3c-0.2,1.4-0.3,2.9-0.4,4.3c-0.5-2.8-1-5.9-1.4-9.4c0-0.2,0-0.5-0.1-0.8
			c0.7-6.6,1.4-13.2,2.1-19.6c2.5-21.9,5-44.1,5.1-66.7c0.7,12.4,1.1,24.9,0.9,37.4C499.8,368.9,496.7,382.5,497.5,397.1z
			 M503.6,402c-0.2,1.5-0.4,2.9-0.7,4.4c-0.3,2.3-0.6,4.5-0.9,6.6c0-0.2,0-0.4,0-0.5l0-1.4c0-1.4,0-2.9-0.1-4.5
			c0.6-3,1.2-6.1,1.7-9.1C503.7,399,503.6,400.5,503.6,402z M507,332.5c-0.3-9.4-0.9-18.7-1.5-28c0,0,0,0,0.1,0
			C507.7,314,507.6,323.8,507,332.5z M504.1,284.4c-0.6-8.3-1.2-16.7-1.6-24.9c0-2.7,0-5.1,0-7.3c0.7,4.9,1.7,10.1,2.9,14.8
			c0.8,5.4,1.5,10.8,2,16.3C506.5,283.8,505.4,284.2,504.1,284.4z M512.6,378.9c-0.5,9.1-1.1,18.5-1.4,27.8
			c-0.2,5.7-0.4,10-0.7,14.1c-0.9,3.7-1.5,7.3-2.1,10.8c-0.1-3.9-0.1-7.8,0-11.7c-0.1-3.2-0.2-6.4-0.2-9.7c0-2.8,0-5.4,0-7.9
			c3.8-25.5,5.8-49.8,6-73.2c0-0.5,0.1-1,0.1-1.5C514.6,344.9,513.6,362.1,512.6,378.9z M523.9,381.8c0.7-11.4,1.3-22.9,1.6-34.4
			c0.2-2.4,0.4-4.9,0.6-7.3c-0.1,11.7-0.6,23.9-1.5,36.7c-0.2,2-0.5,3.9-0.7,5.9C523.9,382.4,523.9,382.1,523.9,381.8z M523.7,525.7
			c0.1,0.9,0.2,1.8,0.3,2.7c-0.6-3.4-1.3-6.9-1.9-10.3c-2.3-15-4.1-30.1-4.5-45.3c0-0.2,0-0.4,0.1-0.6c0.2,0,0.3,0.1,0.5,0.1
			c0,0,0,0,0.1,0c0.3,0,0.6-0.1,0.9-0.2C519.5,490,521.6,508,523.7,525.7z M517,379.2c1.4-23.5,2.8-47.6,0.4-71.9
			c1,0.3,1.9,0.5,2.9,0.8c1,12.3,1.1,24.7,0.8,37c-0.3,3.5-0.6,7-0.9,10.4c-0.1,1-0.2,2-0.3,3.1c-0.9,8.5-2,17-3.2,25.7
			C516.8,382.6,516.9,380.9,517,379.2z M517.6,412.6c0,1.1,0,2.3,0.1,3.4c0,0.3,0,0.6-0.1,0.8c-0.3,1.2-0.6,2.4-0.9,3.5
			C517,417.7,517.3,415.1,517.6,412.6z M518.8,570.4c-0.9-4.8-1.6-9.5-2.3-14.2c0.1-0.6,0.2-1.2,0.3-1.8c0.6,3.2,1.2,6.3,1.9,9.5
			c0.1,1.3,0.3,2.6,0.4,3.8C519.1,568.6,519,569.5,518.8,570.4z M525.6,573.4c-0.9-3.5-1.7-7-2.5-10.5c-1.3-11.4-3.1-22.9-4.8-34
			c0-0.2-0.1-0.4-0.1-0.6c-0.1-3-0.2-6.1-0.4-9.1c0.9,5.9,1.9,11.8,2.8,17.6c1.8,10.9,3.6,22.2,5,33.3c0,0.5,0,1.1-0.1,1.6l0,0.2
			l0,0.2c0,0.2,0.1,0.4,0.1,0.6C525.6,572.9,525.6,573.1,525.6,573.4z M527.4,486.2c0.2-4.9,0.6-9.7,1.2-14.5c0,0.7,0,1.3,0.1,2
			C528.2,477.9,527.8,482,527.4,486.2z M530,439.2c-1.8,7-3.2,14.1-4.4,21.3c0.4-10.5,1.5-21,3.8-31.4l0-0.2
			c0.3-2.5,0.6-4.9,0.9-7.2c0.1-0.3,0.2-0.7,0.3-1c0.1,0.4,0.2,0.8,0.4,1.2l0.2,0.4c0.4,0.7,0.8,1.5,1.2,2.2
			C531.5,429.3,530.6,434.2,530,439.2z M554.7,880.3c0,0.6-0.2,1-0.5,1.3c-0.3,0.3-0.8,0.5-1.5,0.5h-17.4v30.5h-6.4v-30.5h-50
			c-0.8,0-1.3-0.2-1.7-0.5c-0.4-0.3-0.7-0.8-0.8-1.3l-0.7-3.5l53.3-70.5h6.4v70.1h19.4V880.3z M641.8,212.3
			c-0.3-7.1-0.8-14.3-1.3-21.4c0.2,0.7,0.4,1.5,0.6,2.2c0.4,6.2,0.8,12.5,1,18.9c0.1,3.6,0.2,6.7,0.3,9.6
			c-1.9,27.1-3.2,54.5-4.3,81.9c0.4-20.4,1.5-40.9,2.7-61.2c0.4-5.9,0.9-11.9,1.2-17.8C642,220.9,642,217,641.8,212.3z M636.3,215.6
			c0.5,3.2,0.8,6.2,1,9.3l-0.2,3.1c-0.3,4.7-0.6,9.4-0.9,14.1c-0.6,8.3-1.3,16.6-2,24.8c-0.1,1.4-0.2,2.9-0.3,4.3
			c-0.2-12.8,0-25.6,0.7-38.6c0.3-3.3,0.5-6.5,0.8-9.8l0-0.2c0-2.8-0.1-5.5-0.2-8.1c0-0.4,0.1-0.8,0.1-1.2c0.1-0.8,0.2-1.7,0.3-2.5
			c0.3,1.6,0.5,3.1,0.5,4.4L636.3,215.6z M634.9,176.5c0,0.6,0.1,1.1,0.1,1.7c0.3,3.6,0.6,7.3,0.9,11c-0.1,0-0.1,0-0.2,0
			c-0.7,0.1-1.3,0.5-1.7,1.1c-0.2-3.3-0.5-6.6-0.8-9.8c-0.2-2.6-0.4-5.3-0.6-7.9C633.4,173.9,634.2,175.2,634.9,176.5z M629.6,382.8
			c0.1,4.1,0.3,8.2,0.5,12.3c-1.2-0.8-2.3-1.7-3.4-2.5c-0.2-3.2-0.3-6.5-0.4-10c-0.1-4.9,0-9.9,0.2-14.9c0.1-4.5,0.2-9.1,0.3-13.6
			c0.8,3.2,1.7,6.4,2.7,9.5c0,0.9,0,1.8,0,2.7C629.4,371.5,629.4,377,629.6,382.8z M629.6,346.5c-0.8-3.8-1.5-7.6-2.1-11.4
			c0.6-14.5,1.5-28.9,2.6-43.5c0.3,6.8,0.6,13.7,0.9,20.6C630.3,323.7,629.8,335.1,629.6,346.5z M627.8,167.3
			c0.3,4.5,0.7,9.1,1,13.5c0.8,9.3,1.6,18.8,1.8,28.7c0,0.4,0,0.9,0.1,1.3c-0.4,0.4-0.6,1-0.5,1.7c0,0,0.2,1.5,0.4,4.2
			c-0.4,3.5-0.9,7.4-1.5,11.5c-0.3,1.3-0.5,2.6-0.8,3.9c0.4-5.4,0.8-10.9,1.2-16.4l0-0.1l0-0.1c-0.2-4.5-0.3-9-0.5-13.2
			c-0.2-11.5-0.7-22.3-1.3-33.3C627.7,168.4,627.7,167.8,627.8,167.3z M628,259.6c-1.1,13.7-2.1,27.2-3,40.6
			C625,286,626.2,272.3,628,259.6z M622.7,333.4c0.1,0.7,0.2,1.3,0.3,2c-0.1,1.2-0.1,2.4-0.1,3.5c-0.2-1.9-0.3-3.7-0.5-5.6
			C622.5,333.3,622.6,333.4,622.7,333.4z M622,459.3c0.3,2.5,0.7,4.8,0.9,6.9c-0.1,3.3-0.2,6.7-0.3,10.3c-0.4-1.7-0.8-3.6-1.1-5.5
			c0-4.2,0-8.5,0-12.6C621.6,458.6,621.8,458.9,622,459.3z M619.8,198.4c0.2,4,0.4,8.2,0.6,12.4c-0.1,7.5-0.3,15-0.5,22.6
			c-0.1,1-0.2,2.1-0.3,3.1c0,0,0,0,0,0c-0.3-0.3-0.5-0.6-0.9-0.8c0.3-4.4,0.7-8.7,0.9-13.1l0-0.1l0-0.1c-0.1-5.4-0.3-10.7-0.4-14.6
			c-0.2-5.6-0.5-11.5-0.9-18c0.2-3.3,0.3-6.6,0.3-10c0,0.8,0,1.6,0,2.5C619.1,187.7,619.5,193.1,619.8,198.4z M620.5,368.2
			c-0.1,3.3-0.1,6.6-0.2,9.9c-0.1,2.9-0.2,5.7-0.3,8.4c0-0.1,0-0.2,0-0.3c-0.1-5.3-0.2-10.6-0.1-15.7c-0.2-6.3-0.3-12.5-0.4-18.8
			C619.8,357.3,620.2,362.8,620.5,368.2z M617.5,148c0,0.2,0,0.3,0,0.5c0.3,1.5,0.5,3,0.7,4.4c-0.1,0.3-0.2,0.7-0.2,1.1
			c0.2,1.9,0.4,3.8,0.7,5.6c0.1,3.6,0,7.2,0,10.9c-0.1,2.6-0.1,5.3-0.1,8.2c-0.1-5.8-0.5-11.7-0.8-17.4c-0.3-4.4-0.6-8.9-0.7-13.4
			C617.3,147.9,617.4,148,617.5,148z M617,474.4c0,5.7,0,11.1-0.1,15.8c-0.8,0.9-1.6,1.8-2.4,2.7c-1.5-5.8-4.4-19.9,0-33.1
			c0.1-0.2,0.1-0.5,0.2-0.7C615.5,464.4,616.3,469.6,617,474.4z M615.7,308.8c-0.9,14.4-1.9,29.1-2.6,43.4c-0.6,6.6-1,11.9-1.2,16.8
			c-0.1,2.9-0.2,5.7-0.2,8.4c0,0,0,0,0,0c0-1.2-0.1-2.4-0.1-3.6c-0.2-5.9-0.2-11.8-0.2-16.3c-0.3-23.3,1.2-47.4,3.1-71.3
			c0.3,7,0.7,14.1,1.2,21.1C615.7,307.8,615.7,308.3,615.7,308.8z M610.8,161c0.2-4.7,0.4-9.6,0.4-14.5c0.5,0.1,1,0.2,1.5,0.3
			c0.1,5,0.5,10,0.8,14.9c0.6,9.4,1.2,19,0.5,27.9l0,0.1l0,0.1c0.4,6.6,0.6,12.5,0.9,18.1c0.2,3.9,0.3,9,0.4,14.4
			c-0.3,3.8-0.5,7.6-0.8,11.4c-0.4-0.4-0.8-0.8-1.3-1c0.2-6.9,0.1-13.9-0.6-21l-1.1-20.5l0-0.2c-0.2-1.6-0.4-3.1-0.5-4.7
			c0-1.9,0-3.9-0.1-6c0.7-5.1,0.4-10.2-0.2-15.4C610.6,163.7,610.7,162.3,610.8,161z M612.3,245.2c0.4-0.3,0.9-0.6,1.3-1
			c-0.5,6.6-1.1,13.2-1.7,19.7c-2.7,30.9-5.4,62.9-5,93.5c0,3.6,0,8.2,0.1,13c-1.2-2.1-2.3-4.1-3.1-5.8c0-1.2,0.1-2.4,0.1-3.6
			c0.2-11.2-0.2-22.4-0.8-33.4c0.2,0,0.3,0.1,0.5,0.1c0.1,0,0.1,0,0.2,0c1.2-0.1,2.1-1.2,2-2.4c-1.5-18.6,1-37,3.3-54.8
			C610.4,262.2,611.6,253.7,612.3,245.2z M608.2,218c0.1-0.5,0.2-1,0.2-1.5c0.4,5.7,0.4,11.4,0.2,17c-0.6,0.6-1.1,1.3-1.3,2.1
			c-0.2,0-0.3-0.1-0.5-0.1c-0.2,0-0.4,0-0.7,0.1C606.8,229.6,607.4,223.7,608.2,218z M606.1,165.2c-0.3,7.2-0.4,14.2,0.2,21.4
			c0,3.9-0.1,7.5-0.3,11c-0.1,1.4-0.2,2.7-0.3,4.1c-0.1-2-0.2-3.9-0.3-5.8l-0.3-6.9c-0.3-11.3-0.4-22.6-0.5-33.3
			C605.3,158.9,605.7,162.1,606.1,165.2z M604,262.6c0.3-3.3,0.5-6.7,0.7-10.1c0.9-1.1,1.8-2.1,2.7-3c-0.7,6.9-1.6,13.7-2.5,20.4
			c-0.7,5.2-1.4,10.5-2,15.9C603.1,277.9,603.5,270.2,604,262.6z M600.2,145c0,13.8,0,28.9,0.5,44.1l0.3,6.9
			c0.2,3.6,0.3,7.4,0.5,11.2c0.2,5.1,0.4,9.9,0.5,14.4c-0.2,4.5-0.4,8.9-0.7,13.4c-0.3-0.1-0.7-0.2-1.1-0.2c-0.2,0-0.3,0-0.5,0.1
			c0.3-4.3,0.6-8.6,0.7-13c0.1-3.2,0.1-6.7,0.1-10.8c0-6.5-0.1-12.9-0.3-18.9c-0.1-4.1-0.3-8-0.4-11.6l-0.2-4.1l0-0.3
			c-1.1-6-1.1-12-1-18.3c0-4.4,0.1-8.8-0.3-13.3C599,144.9,599.6,144.9,600.2,145z M599.6,261.4c0,0.3,0,0.5,0,0.8
			c-0.1,1.4-0.2,2.9-0.3,4.3c-0.1-1.3-0.1-2.7-0.2-4C599.2,262.1,599.4,261.8,599.6,261.4z M598.7,332.4c0.1,0.2,0.2,0.3,0.4,0.4
			c0.2,5.3,0.4,10.6,0.5,15.9c-0.2-1.2-0.6-2.4-1.5-3.7C598.2,340.8,598.4,336.6,598.7,332.4z M597.7,495.8c0.1,1.2,1.1,2.1,2.2,2.1
			c0,0,0.1,0,0.1,0c1.2-0.1,2.2-1.1,2.1-2.4c-0.2-2.9-0.3-6.1-0.4-9.5c-0.2-4.7-0.3-9.5-0.7-13.9c0-4.8,0.1-9.3,0.3-13.5
			c0.4-6.7-0.4-17-1.4-30.1c-0.3-3.7-0.6-7.6-0.9-11.6c0.1-0.5,0.2-0.9,0.2-1.4c5.1,8.8,6.4,16.4,12.2,27.1
			c0.2,6.9-0.1,12.4-1.2,15.9c-5.9,17.6,0,36.1,0.8,38.4c-4.5,4.6-12.9,7.3-20.4,9.1c0-0.7,0-1.4,0-2.1c0.2,0,0.3,0.1,0.5,0.1
			c0.1,0,0.3,0,0.4,0c1.2-0.2,2-1.4,1.8-2.6c-0.3-1.3-0.5-2.6-0.8-3.9c0.7-0.1,1.4-0.5,1.8-1.2c1.2-2.4,2.2-4.9,3.1-7.5
			C597.5,491.2,597.6,493.6,597.7,495.8z M590.9,488.8c0.4-13.5,1.4-26.4,2.9-38.5c0.2-1.6,0.4-3.3,0.6-4.9c0.3,2.2,0.6,4.3,0.9,6.2
			c0.3,2.3,0.6,4.4,0.9,6.3c0.8,8.9,0.6,21.7-4.7,34C591.3,490.8,591.1,489.8,590.9,488.8z M595.3,177.1l0.1,1.6
			c-0.1-0.8-0.1-1.5-0.2-2.3C595.3,176.6,595.3,176.9,595.3,177.1z M595.6,281.4c0.3,5.3,0.7,10.5,1.1,15.7
			c-1.2,14.6-2.3,29.4-2.9,44.2c-0.3-0.2-0.6-0.5-1-0.7c-0.1-0.3-0.2-0.5-0.3-0.8c-0.1-5.1-0.1-10.3,0-15.4
			C593.8,310.4,594.8,296.1,595.6,281.4z M590.2,151.9c-0.3,9.7,0,18.2,0.7,27.3c0.4,5.3,0.7,10.7,1,16.1c0.2,4,0.4,8.2,0.6,12.4
			c0.1,9.8,0,19.4-0.1,28.8c0,0-0.1,0-0.1,0.1c-0.4-1.8-2-3.2-4-3.2c-1.5,0-2.7,0.8-3.5,1.9c0.1-2.2,0.2-4.5,0.3-6.7
			c0-4.6-0.1-9.3-0.2-14.4c-0.1-4.6-0.2-9.1-0.4-13.4l-0.1-4c-0.1-3.1-0.2-6-0.3-8.9C585.9,176.7,587.7,164.5,590.2,151.9z
			 M591.5,273.6c-0.1,1.5-0.1,3.1-0.2,4.6c-0.8,8.4-1.6,17-2.2,25.6c-0.5-8.7-0.9-17.6-1.3-26.4C589,276.3,590.2,275,591.5,273.6z
			 M584.6,146.8c0.3-0.1,0.5-0.2,0.8-0.3c0.3,0.5,0.6,1,1.1,1.4c-0.9,4.3-1.7,8.5-2.4,12.7C584.2,156.1,584.3,151.5,584.6,146.8z
			 M584.3,440.7c0.7-5.7,1.5-10.8,2.3-15.7c1.2-6.6,2.1-14.3,2.8-23c0,0.1,0.1,0.1,0.1,0.2c0.7,8.6,1.6,16.7,2.4,24
			c-1,5.8-2,10.8-2.8,14.7c-1.6,7.2-3,12-3.9,14.8c-0.5-4.6-1-9.1-1.2-13.6C584.1,441.6,584.2,441.2,584.3,440.7z M587.9,464
			c-0.2,2-0.4,3.9-0.5,5.9c-0.1-0.3-0.1-0.7-0.2-1C587.3,467.3,587.6,465.7,587.9,464z M581.8,463.3c0.3,1.9,0.6,3.8,0.9,5.7
			c-0.9,9.2,0.1,18.3,2.9,26.4c0.1,0.4,0.4,0.7,0.7,0.9c0,3.5-0.1,7,0,10.6c-1.9,0.4-3.6,0.7-5.1,1.1
			C580.4,492.9,580.6,478.1,581.8,463.3z M577.7,380.7c-0.9,11.9-2.1,24.3-3.4,37.1c-0.5,4.9-0.9,10.1-1.3,15.8
			c-1,7.7-1.6,15.4-1.8,23.1c-0.7,3.9-1.3,7.8-2,11.7c0-9.3,0.5-18.6,1.4-27.9c0.3-5.4,0.7-10.7,1.2-15.7c0.9-8.3,1.7-16.6,2.4-24.6
			c0.3-3.9,0.7-7.7,1-11.5c0.3-3.6,0.6-7.4,0.9-11.3C576.7,378.5,577.2,379.6,577.7,380.7z M575.2,513.5c-0.5,1.3-1.1,2.8-1.7,4.3
			c0.2-4.4,0.3-8.8,0.6-13.2C574.4,507.6,574.8,510.5,575.2,513.5z M573.4,242.5c0.9,0,1.8-0.3,2.5-0.9c-0.3,2.4-0.5,4.8-0.7,7.2
			c-0.4-2-1.2-3.9-1.9-5.7c-0.1-0.2-0.2-0.4-0.2-0.6C573.2,242.4,573.3,242.5,573.4,242.5z M562.7,271.9c0.3-4.9,0.6-9.1,0.9-12.7
			c0.5-6,0.8-9.9,0.9-10.9c1.1-0.2,2-0.8,2.7-1.6c0.1,0.8,0.2,1.7,0.2,2.7c0.3,2.9,0.6,6.4,0.9,10.4c0.3,3.2,0.5,6.4,0.7,9.5
			c-2.2,1.9-4.4,3.8-6.3,5.7C562.6,273.9,562.6,272.9,562.7,271.9z M562.6,402.8c2.4-17.5,3-35.1,2.8-52.5c1.9,2.6,3.2,4.7,3.2,6.1
			c0,1.8,1.3,6,3.4,11.2c-0.2,3.4-0.4,6.7-0.6,10c-0.3,5.6-0.6,11-1,16c-0.4,5.3-0.9,10.5-1.5,15.3c-0.7,5.6-1.5,10.9-2.4,15.7
			l0,0.2c-0.3,3.1-0.6,6.2-1.1,9.2c-0.9-3.9-2.1-7.8-3.5-11.6c-0.3-1.7-0.6-3.6-0.8-5.6C561.7,412.4,562.2,407.7,562.6,402.8z
			 M565.1,533.9c-0.2,0.3-0.4,0.6-0.6,0.9c0.1-1.5,0.2-2.9,0.3-4.4C564.9,531.6,565,532.7,565.1,533.9z M549.1,244.2
			c0.1,0,0.1,0,0.2,0c0,0.2-0.1,0.3-0.1,0.5c0,1.7,1,3.1,2.5,3.7c0,0.1,0,0.2,0,0.3c0,1.2-0.1,2.5-0.1,3.7c0,2.9,0.2,6.7,1.5,10.3
			c0.2,11.1,0.8,22.3,1.5,33.6c-0.4-0.4-0.8-0.7-1.2-1.2c-0.3-10.9-1.3-21.8-2.9-32.6c-0.1-4.1-0.7-8.2-1.3-11.8l-0.1-0.4
			c-0.4-2.2-0.7-4.3-1-6.4C548.5,244.2,548.8,244.2,549.1,244.2z M546.6,287.6c0,0-0.1-0.1-0.1-0.1c-0.1-1.1-0.2-2.3-0.3-3.4
			c-0.7-7.2-1.4-14.7-2-22C545.4,270.5,546.1,279,546.6,287.6z M542.1,317.8c0,3.7-0.1,7.5-0.2,11.4c-0.2-3.6-0.4-7.1-0.8-10.7
			c-0.1-0.8-0.6-1.4-1.3-1.8c0-0.3,0-0.5,0-0.8C540.8,316.5,541.5,317.1,542.1,317.8z M538.1,266.3c0,0.5,0.1,1,0.1,1.5l0,0.2
			c0.7,3.7,1.3,7.4,1.8,11.1c-0.9-1.2-1.7-2.4-2.5-3.6C537.7,272.4,537.9,269.3,538.1,266.3z M534.5,239.4c0.3,1.8,0.7,3.5,1,5.2
			c-0.1,0.3-0.2,0.6-0.2,0.9c-0.1,2.4-0.4,5.3-0.9,8.9c-0.3-3.2-0.6-6.4-0.9-9.7l-0.5-4.7C533.6,239.9,534.1,239.7,534.5,239.4z
			 M532.6,409.9c0.1-0.7,0.2-1.4,0.3-2.2c0.3-2.1,0.6-4.3,0.8-6.8c0-0.3,0.1-0.6,0.1-0.9c1.3-6.7,2.3-13.5,3.2-20.4
			c-0.1,3.6-0.1,7.2-0.1,10.8c-0.5,3.7-1,7.4-1.5,11.2c-0.4,4.3-0.9,9.3-1.5,14.5C533.6,414.2,533.1,412.1,532.6,409.9z M537.4,552
			c-2.1-9.6-3.2-19.3-3.6-28.9c1,6.5,2,13,3.1,19.5c0.4,2.3,0.7,4.5,1.1,6.8C537.8,550.2,537.6,551.1,537.4,552z M539.9,561.6
			C539.9,561.5,539.9,561.5,539.9,561.6C539.9,561.6,539.9,561.6,539.9,561.6C539.9,561.6,539.9,561.6,539.9,561.6z M540.5,536.8
			c-2.4-14.7-4.6-29.1-6-43.4c0-0.6,0.1-1.1,0.1-1.7c1.4,14.7,3.7,29.3,6.1,43.8C540.6,536,540.6,536.4,540.5,536.8z M542.5,549.5
			c0.1-0.4,0.2-0.7,0.2-1.1c0.2,1.7,0.3,3.5,0.4,5.2C543,552.2,542.8,550.9,542.5,549.5z M543.8,575.5c0.1-0.6,0.2-1.1,0.3-1.7
			c0,0.1,0,0.2,0,0.3C544,574.6,543.9,575.1,543.8,575.5z M544.2,513.7c-0.8-5.3-1.7-10.6-2.4-15.8c-1.6-17.4-2.3-34.4-0.3-51.3
			c1.6,5.6,2.7,11.4,3.5,17.3c-0.6,11.2-0.2,22.5,0.8,33.8C545.5,503,544.9,508.3,544.2,513.7z M546.6,448.9c-1-4-2.2-8-3.6-11.9
			c1.1-5.9,2.6-11.7,4.5-17.6l0.1-0.3c0.7-3.8,1.4-8,1.9-12.3c0.6-4.3,1.1-9,1.7-14.7c2.1-18.4,3.2-36.6,3.4-54.7
			c0.4,0.5,0.9,1.1,1.3,1.6c-0.6,15-1.2,30.3-1.4,45.6c0.1,4.2,0.2,8.6,0.4,12.9c-0.1,0.9-0.1,1.9-0.2,2.8
			c-0.4,4.7-0.8,9.3-1.2,13.5c-0.6,5.2-1.2,9.7-1.9,13.7C549.3,434.4,547.7,441.6,546.6,448.9z M562,512.3
			c-0.9,9.6-1.9,19.3-2.4,29.1c-0.4,0.4-0.7,0.8-1.1,1.2c-0.4,0.4-0.7,0.8-1,1.3c-0.5-9.8-1.4-19.5-2.3-29.1
			c-2.7-27.9-5.4-56.8,3.8-84.8l0.1-0.3c0.1-0.4,0.1-0.8,0.2-1.1c1.9,6.2,3.2,12.5,4.1,18.9c-1.5,9.6-3,19.5-3,29.8
			c0.5,9,1.4,18.1,2.4,27.1C562.6,507,562.3,509.6,562,512.3z M636.3,883.6c-2,6.8-4.7,12.4-8.2,16.9c-3.4,4.5-7.5,7.8-12.1,9.9
			c-4.6,2.2-9.6,3.3-14.8,3.3c-5.3,0-10.2-1.1-14.8-3.3c-4.6-2.2-8.6-5.5-12.1-9.9c-3.5-4.4-6.2-10.1-8.1-16.9c-2-6.8-3-14.8-3-24.1
			c0-9.3,1-17.3,3-24.2c2-6.8,4.7-12.4,8.1-16.9c3.4-4.4,7.5-7.8,12.1-9.9c4.6-2.2,9.5-3.3,14.8-3.3c5.3,0,10.2,1.1,14.8,3.3
			c4.6,2.2,8.7,5.5,12.1,9.9c3.5,4.5,6.2,10.1,8.2,16.9c2,6.8,3,14.8,3,24.2C639.3,868.7,638.3,876.8,636.3,883.6z M640.2,401.5
			c-0.4-0.2-0.7-0.4-1.1-0.6c-0.1-3.1-0.1-6.4,0-9.7c0.5,2,1,3.9,1.5,5.9C640.4,398.6,640.3,400.1,640.2,401.5z M643.4,375.3
			c-0.6,3.3-1.1,6.6-1.6,9.9c-0.7-2.3-1.6-4.6-2.4-6.9c0.2-4.3,0.5-9,1-14.4l0.2-6c1-31.5,2.1-63.7,3.8-95.7
			c-0.2,15.5,0.2,31.1,0.5,46.3c0.2,8.2,0.4,16.6,0.5,24.9c-0.6,11.8-1,23.7-0.9,35.5C644.2,371,643.8,373.1,643.4,375.3z
			 M645,396.8c0.1-0.6,0.1-1.3,0.2-1.9c0.1,1.4,0.2,2.9,0.3,4.3C645.4,398.4,645.2,397.6,645,396.8z M655.3,404.2
			c-0.1-1.6-0.3-3.3-0.4-4.9c0.1-0.7,0.2-1.3,0.3-2c0.1,1.9,0.1,3.8,0.2,5.6C655.4,403.3,655.4,403.7,655.3,404.2z M653.9,162
			c1.4,7.3,2.2,14.6,2.6,22c-0.7-1.6-1.3-3.2-1.8-4.6c-0.4-4.4-0.8-8.9-1.2-13.4C653.7,164.4,653.8,163.2,653.9,162z M653.4,301.2
			c0.2,15.6,0.6,31.5,1.3,47.3c-0.1,5.6-0.3,11.2-0.7,16.7c-0.2,1.2-0.3,2.4-0.5,3.6c0-1.2-0.1-2.4-0.1-3.6c0-2-0.1-4.1-0.1-6.1
			l0-0.2C651,339.9,651.6,320.4,653.4,301.2z M650.5,224.1l0-0.2l0-0.2c-0.4-4.1-0.7-8.1-1-12.3c0.7,0.7,1.5,1.4,2.4,2
			c0,0.1,0,0.1,0,0.2c0,1,0,2.1,0,3.1c0.2,4.6,0.3,9.2,0.5,13.8c-0.6,18.2-2,36.5-3.5,54.4C648.6,264.6,648.8,244.1,650.5,224.1z
			 M649,373.1c0-1.3,0-2.6,0-3.9c0-0.3,0.1-0.5,0.1-0.7c0,2.2,0.1,4.4,0.2,6.5c0.2,6,0.4,12,0.8,17.8c-0.1,1-0.2,2-0.3,2.9
			c-0.2-2.1-0.3-4.2-0.4-6.4C649,383.7,648.9,378.4,649,373.1z M728.7,880.3c0,0.6-0.2,1-0.5,1.3c-0.3,0.3-0.8,0.5-1.5,0.5h-17.4
			v30.5h-6.5v-30.5h-50c-0.8,0-1.3-0.2-1.7-0.5c-0.4-0.3-0.7-0.8-0.8-1.3l-0.7-3.5l53.3-70.5h6.4v70.1h19.4V880.3z"/>
		<path id="XMLID_2363_" class="st5" d="M528.8,876.4v-55.6c0-0.8,0-1.8,0.1-2.7c0-0.9,0.2-1.9,0.3-2.9l-45.8,61.2H528.8z"/>
	</g>
</g>
<path id="XMLID_1102_" class="st5" d="M930.2,300.4c-0.3-0.6,1.8-5.5,6.1-12.9c4.3-7.4,10.9-15.3,12.6-17.3s3.8-4.4-0.4-1.5
	c-4.2,2.9-7.5,6.2-8.7,3.8c-0.2-0.5,1,0.3,1.8-0.2c0.7-0.6,7.7-5.8,8.9-6.9c1.2-1,6.1-4.7,8.1-6.8c0.6-0.5,4.5-3,6.2-3.2
	s5.1-3.1,5.5-3.3c0.5-0.3,3-1.1,5.4-3c-0.1-0.5,0-1.3-1-1.2c-1,0.1-0.1-1,1.1-0.5c0-0.1,4.1-2.2-0.4-3c-1-0.2-5-2-8.4-1.4
	c-0.6,0.2-1.1,0.2-2.1,1.1c-1,0.9-2.9,1.2-3.7,1.2c-0.8,0.1-3,3-3.7,3.9c-0.7,0.8-2.1,3.7-3,3.2c0-0.6,0.2-5.1,0.4-7
	s0.7-4.7,5.8-7.7c1.3-0.8,3.9-2.5,4.7-2.2c0.5-0.4,2.1-1.8,3.3-1.8c1.2,0,1.8,0.5,3.1-0.1c1.3-0.6,5-1,7.2-1
	c2.2-0.1,10.7-1.9,11.2-2c0.5-0.1,0.3,0.9,0.3,0.9s-6.3,0.7-10.4,1.8c0,0-5.6,0.1-8,1c-0.4,0-2.3,0.6-0.4,0.9c1.9,0.3,6.4,0.7,8,0.6
	c1.6-0.1,4.7,0,5.3,0.2c0.6-0.3,3.1-1.9,5-2c0-0.8-0.7-9,0-15.5c0-1.4,0.5-2-0.6-4.8s-0.5-8.7-1.4-14.3c-0.2-1.6-0.2-4.8-2.2-7.1
	c0-0.6,1.5-2.2-1.4-2.4c-1.8-0.1-2.5,0.1-2.7,0.2c-0.2,0.1-1.4,0,1.3-1.2c2.7-1.2,4.6,0.9,5.2,2.5s0.3,3.7,2.8,4.4
	c0.8,0.2,1.8,1.2,2.1-0.9c0.2-2.1,3.1-10.2,5.8-17.5c2.6-7.3,5.3-10.7,5.5-11.4c0.2-0.6,0.8-2.7,2.6-6.4s3.5-8.4,8.2-13.2
	c1-1.1,1.8-3.1,0.8,1.1s-1.6,8.2-1.6,8.8c0.4-0.6,2.1-3.1,4.5-4.6c-0.4,1-1.2,1.4-1.1,2.9s0.7,6.2,0.4,8.1c0.4-0.2,1.6-2.2,2.1-2.1
	c0.5,0.1,0,1.1-1,2.8c-0.2,0.4-0.2,1.2,0.2,2.9s-1.7,10.6-2.4,14c-0.7,3.4-0.8,6.2-1.9,7.9c-1.1,1.8-1.8,12.3-2.7,18.7
	c-1,6.5-3.1,15.3-4.9,22.4c-0.5,2.1-0.8,4-0.5,8c0,2.4,0,6.2,0.2,6.4c0.2,0.2,6.5-0.6,11.9-3.7c1.5-0.9,4.6-2.2,6.4-3.7
	c1.8-1.5,1.8-2.5,4.1-2.5c1,0,6.3-2.3,8.6-4.9c0.8-0.1,2.6,0.1,2.7-1.3c0.1-1.4-0.3-2.1-1-2.5c-0.4-0.3-0.1-0.8,1.3,0.4
	c1.4,1.2,0.4,3.4-1.9,4.9s-4.7,3.8-5.3,4.5c-0.2,0.2-0.1,0.8,2.9,0.4c3-0.4,7.3-0.6,9.1-0.7c1.8-0.1,1.9,0-0.6,1s-11.2,6.1-15.5,8.3
	c-4.3,2.2-6.6,2.7-10.1,5.7c-1,0.8-4.6,3.6-0.3,5.8c4.2,2.3,8,3.7,12,6.1c3.4,1.9,8.4,4.9,10,5.4c1.6,0.5,7,2.1,6.5,3.2
	c0.6,0.4,0.6,0.4,1,1.4c0.3,0.3,2.9,1.9,2.9,2.1c0,0.2-0.3,0.2-3.1-1.6c-0.5-0.2-1-0.3-1.4,0.1c-0.2,0.2-2.7-0.3-2.6,0.2
	s3.5,3.4,3,3.4c-0.4,0-2.9-2.2-3.3-2.1c-0.4,0.1-0.9-0.8-1.8-0.5c-0.3,0-1.8-3-2.5-4.2c-0.7-1.1-3.6-3.4-10.8-6.4
	c-5-2.3-11.1-5.3-14.2-5.1s-3.4-0.4-5.5,2.2c-0.6,0.7-2.3,4.3-2.8,7.4c-0.6,3.2-1.2,6.4-1.7,8.8c-0.2,0.7-1.4,3.3-1.4,4.6
	c-0.2,0.5-1.6-1-2.5-2.4s-2.3-2.2-3-3.7c-0.4-0.8-1-1.2-0.9,0.1c0.1,1.2-0.3,1.9-1,3c-0.7,1.2-1.9,3.6-2,5.1
	c-0.1,0.8-2.5,1.9-3.7,0.9c-0.3-0.3,0.6,0.1,1.2-0.1c0.6-0.2,1.3-0.8,1.6-2.1c0.3-1.4,1.6-5.1,1.6-8.3s0.2-7-0.3-9.2
	c-0.5-2.2-0.5-3.7-0.3-4.2s-0.3-2.3-1.7-2c-1.4,0.3-2.4-0.6-3.1-0.7c-0.6,0.1-2.8,2.4-4.9,3.3s-6.9,3.8-16.1,7
	c-2.9,1-12.3,4.5-15,6.7c-2.7,2.1-9,9.7-9.3,10.1c-0.3,0.4-1,2.6-1.4,1.2c-0.4,0.2-3.1,4.4-4.2,5.3s-1.9,1.7-1.9,2.2
	c0,0.5-0.2,1.6-1.1,0.6C934.8,291.9,930.6,301.3,930.2,300.4z"/>
</svg>
