<?xml version="1.0" encoding="utf-8"?>
<!-- Generator: Adobe Illustrator 19.0.0, SVG Export Plug-In . SVG Version: 6.00 Build 0)  -->
<svg version="1.1" id="Layer_1" xmlns="http://www.w3.org/2000/svg" xmlns:xlink="http://www.w3.org/1999/xlink" x="0px" y="0px"
	 viewBox="0 0 1202.6 1038.2" style="enable-background:new 0 0 1202.6 1038.2;" xml:space="preserve">
<style type="text/css">
	.st0{fill:#424F56;}
	.st1{display:none;fill:#3A3A3A;}
	.st2{fill:none;}
	.st3{display:none;fill:#FFFFFF;}
	.st4{font-family:'Lato-Light';}
	.st5{font-size:150px;}
	.st6{fill:#FFFFFF;}
</style>
<g id="XMLID_17_">
	<path id="XMLID_25_" class="st0" d="M837.1,661.2c15.6-10.3,25.8-27.9,25.8-47.9c0-6.7-1.1-13.1-3.2-19H1041v-18.2h2.2
		c4,0,7.2-3.2,7.2-7.2v-7c0-4-3.2-7.2-7.2-7.2h-2.2V469c0-64.1-51.9-116-116-116H614.4c0.5-0.9-1.5-1.8-2.6-2.5
		c-1.2-0.7-2-0.9-2.8-1.1c-0.4-2.8-2.5-7.2-3.2-8c-0.7-0.7-1.6-2.4-2.7-4.2c-1.2-2.5-3.7-5.9-4.7-7.4c-1.1-1.5-10.2-13.9-10.9-14.8
		c-0.7-0.9-0.3-1.1,0.4-1.4c0.8-0.5,1.4-2.1,2.1-4.1c0.6-2.1,0.1-2.8-0.3-3.2c-0.4-0.4-2.8-7.3-5.3-7.4c-2.4-0.1-4.7-0.3-5.5-0.4
		c-3.2-1.1-5.7-1.4-7.2-1.3s-1.7-0.4-2.7-0.7c-4.9-0.8-8.9-5.4-9.8-6.5s-2.4-4-3.4-4.3s-4-2.3-6.1-3.6s2.5-0.7,4.9-1.4
		s1.9-2.2,1.7-2.8c-0.2-0.6,0-1.1,0.1-1.4c0.2-1.4-0.5-1.9-0.3-2.2c0.8-0.6,0.6-1.6,0.4-2.3c-0.2-0.7,0.3-1,0.8-1.1
		c1.9-0.9-0.1-2.7-1.2-4.1c-1.1-1.3-0.7-2-0.4-2.7c0.7-1.2-0.8-3.2-1-3.6c-0.2-0.4-0.9-1.3-0.2-1.6c0.6-0.2,1.3-1.1,1.4-1.9
		c0.2-0.9,0.4-3.9-0.1-5.2s-2-2.6-3.2-2.9s-2.6,0.9-4.1,2c-1.4,1.1-2.7,0-4.3-1.2c-1.6-1.1-2.6-1-3.1-0.8c-1-0.2-1.9,0.4-2.4,0.9
		c-0.9-0.3-2.5-0.7-3.9,0.1s-1.7,1.8-2.3,2.4c-3.2-0.6-4.2,1.5-4.5,2s-0.8,2.3-1.7,3.3s-1.2,1.6-1.3,2.9s1,1.8,0.4,1.8
		c-0.6,0-1.2-0.9-1.2-0.5c0,0.3,0.6,0.7,1,1.1c0.4,0.4-0.6,0.7-1,1.2c-0.4,0.6-0.9,2.6-1,2.8c-0.1,0.2-0.4,1.8-0.6,2.2
		s-0.3,1.1,0,1.2c0.4,0.2-0.6,2.1-0.8,2.6c-0.2,0.4-0.4,1.8,0.1,2.7c0.5,0.9,0.9,0.5,0.7,0.2c-0.2-0.3-0.1-0.9,0-1.2
		c0.1-0.4,0.7-0.4,0.7-0.4s-0.6,1.7,0.2,1.3c0.8-0.3,0.7,1.8,0.5,2.1c-0.2,0.2-1,0-0.7,0.2c0.4,0.3,1.7,0,2.1,0s0.7,1,0.9,1
		c0.4,0,1.2,0.3,0.7,0.5c-0.4,0.2-0.7,0.5-0.8,1.1c-1.1-0.6-2.6,1.7-3.1,2.2c-1.2,1.4-2.7,2-3.8,3.2c-1.1,1.2-5.2,5.6-6,6.3
		c-0.8,0.7-2.4,2-2.3,2.7c0.4,1.6-1.4,4-1.7,4.6c-0.4,0.6-2.1,4.2-2.2,6.3c-0.2,2-0.9,3.5-1.3,4.3c-0.4,0.7-0.3,3.7-0.4,4.5
		c-0.9,1.2-1.1,4-0.4,4.9c0.7,0.9,0.1,1.2,0,1.2c-0.1,0-0.5,0.5-0.4,0.7c0.1,0.2,0.1,1.1,0,1.3c0,0.2-0.4,0.4-0.3,0.8
		c0.2,0.4,0,0.6-0.4,0.6s-4.5-2.2-4.9-2.3c-1.1-0.8-3.6-2.1-4.1-2.1c-1.3-0.8-4.3-2.9-7.7-3.6c-3.4-0.7-6.7,1.5-7.1,1.9
		c-0.5,0.4-1.2-0.3-1.9-0.4c-1.8-0.3-6-0.9-6.8-1.3c-2.2-0.9-5.1-1.2-6.4-1.1s-5.7,1.6-7.2,4.3c-1.6,2.8-1.6,7.3-1.2,8.8
		c0.4,1.4,0.8,3.3,0.8,4.4s0.6,1,0.7,1.7c0.3,0.8,1.5,1.6,1.8,2.2c-1.6,1.6-2.7,3.1-2.8,3.4c-1.1,0.8-2.1,1.8-2.7,2.6
		c-1.5,1-3.3,1.6-4.3,2.6c-1,1-2.2,1.8-3.1,3.6c-1.6,2.9-2.9,4.7-3.2,5.1c-46.1,5.7-81.7,45-81.7,92.6v27.3h-97.8
		c-13.3,0-24.1,10.8-24.1,24.1v14.1c0,0-29.5,5.5-29.5,17.5c0,3.9,0,10.3,0,17.2h-3.5c-4,0-7.2,3.2-7.2,7.2v7c0,4,3.2,7.2,7.2,7.2
		h3.5c0,5.9,0,9.9,0,9.9s2.9,4.1,15.1,4.9c-5.6,8.9-8.9,19.4-8.9,30.6c0,20,10.3,37.7,25.9,47.9L0,661.3
		c108.9,224.8,340,379,606.4,376.9c262.8-2,488.9-155.5,596.3-377L837.1,661.2z M939,420.2c0-4.2,3.4-7.6,7.6-7.6h18.3
		c25.6,0,46.4,31.8,46.4,57.4v3.4c0,4.2-3.4,7.6-7.6,7.6h-57c-4.2,0-7.6-3.4-7.6-7.6V420.2z M850,419.3c0-4.2,3.4-7.7,7.7-7.7h49.2
		c4.2,0,7.7,3.4,7.7,7.7v54.2c0,4.2-3.4,7.7-7.7,7.7h-49.2c-4.2,0-7.7-3.4-7.7-7.7V419.3z M826.3,419v52.7c0,5.3-4.3,9.7-9.7,9.7
		h-30.3v-72h30.3C822,409.3,826.3,413.7,826.3,419z M738.3,419c0-5.3,4.3-9.7,9.7-9.7h34.3v72H748c-5.3,0-9.7-4.3-9.7-9.7V419z
		 M729,419v52.7c0,5.3-4.3,9.7-9.7,9.7H689v-72h30.3C724.6,409.3,729,413.7,729,419z M641,419c0-5.3,4.3-9.7,9.7-9.7H685v72h-34.3
		c-5.3,0-9.7-4.3-9.7-9.7V419z M631.6,419v52.7c0,5.3-4.3,9.7-9.7,9.7h-30.3v-72H622C627.3,409.3,631.6,413.7,631.6,419z
		 M499.1,389.6v3h-10.6v-1.6l4.7-5.4c1.1-1.3,1.9-2.4,2.3-3.1c0.4-0.8,0.6-1.5,0.6-2.2c0-0.7-0.2-1.2-0.6-1.6
		c-0.4-0.4-0.9-0.7-1.5-0.7c-0.6,0-1.1,0.3-1.6,0.8s-0.6,1.2-0.7,2.1h-2.8c0.1-1.9,0.6-3.3,1.6-4.4c1-1.1,2.2-1.6,3.7-1.6
		c0.9,0,1.7,0.2,2.5,0.7s1.3,1.1,1.7,1.9s0.6,1.7,0.6,2.5c0,1-0.3,2.1-0.8,3.3c-0.5,1.2-1.5,2.6-2.8,4.2l-1.7,2H499.1z M475.6,389.1
		v-3l6.3-11.1h2.8v11.1h1.3v3h-1.3v3.5H482v-3.5H475.6z M466.5,378.5l1.5-3.1h3.9v17.2h-2.6v-14.2H466.5z M446.3,419
		c0-5.3,4.3-9.7,9.7-9.7h32.3v72H456c-5.3,0-9.7-4.3-9.7-9.7V419z M492.3,409.3h32.3c5.3,0,9.7,4.3,9.7,9.7v52.7
		c0,5.3-4.3,9.7-9.7,9.7h-32.3V409.3z M543.6,419c0-5.3,4.3-9.7,9.7-9.7h34.3v72h-34.3c-5.3,0-9.7-4.3-9.7-9.7V419z M560.2,353
		c-0.6-0.8-1.6-1.9-2.6-2.7c-0.2-0.2,0.4-0.9,1.7,0c0.2,0.4,1.3-0.3,1.9,0.7c0.6,1,2.6,1.2,2.8,1.3c0.1,0,0.8,0.4,1.4,0.8H560.2z
		 M542.5,318.8c0,0,1.5-3.7,2.2-6.2c0.7-2.5,3-7.4,3.4-8.1s1.6-3.9,2.6-3.9c1,0.1,2.7,1.8,6.1,3.2c3.4,1.3,6.7,2.8,7.8,3.1
		c1.1,0.3,3,1.3,3.4,1.4c0.4,0.1,1.3,0.4,0.2,0.9c-1.2,0.6-10.2,6.6-12.8,8.3c-0.9,0.7-1.6,1.3-2.6,1.3c-1,0-7,5.4-7.2,5.7
		c-0.2,0.3-0.3,3.1-3,2.7c-0.4-1.3,0.5-3.5-0.7-5.2C541.2,320.8,542.5,318.8,542.5,318.8z M375.3,469.3l0-0.1l9.6-51.2
		c0.6-3.7,3.8-6.4,7.5-6.4h39.9c4.2,0,7.6,3.4,7.6,7.6v51.2c0,4.2-3.4,7.6-7.6,7.6h-49.5c-2.2,0-4.3-1-5.8-2.7
		C375.6,473.7,375,471.5,375.3,469.3z M305.3,661.3c15.6-10.2,25.9-27.9,25.9-47.9c0-6.4-1.1-12.6-3-18.4c6,1.7,15.5,2.9,33.5,2.9
		c0-2.1,0-7.2,0-12.5l61,9h328.8c-2.1,5.9-3.2,12.3-3.2,19c0,20,10.3,37.7,25.8,47.9L305.3,661.3z"/>
	<polygon id="XMLID_97_" class="st0" points="482.2,380.3 478.2,386.1 482.2,386.1 	"/>
</g>
<path id="XMLID_873_" class="st1" d="M0,661.3c108.9,224.8,340,379,606.4,376.9c262.8-2,488.9-155.5,596.3-377L0,661.3z"/>
<rect id="XMLID_54_" y="803.2" class="st2" width="1202.6" height="112"/>
<text id="XMLID_55_" transform="matrix(1 0 0 1 470.8185 912.5218)" class="st3 st4 st5">404</text>
<g id="XMLID_85_">
	<path id="XMLID_86_" class="st6" d="M535.2,876.4h19.4v3.9c0,0.6-0.2,1-0.5,1.3c-0.3,0.3-0.8,0.5-1.5,0.5h-17.4v30.5h-6.4v-30.5
		h-50c-0.8,0-1.3-0.2-1.7-0.5c-0.4-0.3-0.7-0.8-0.8-1.3l-0.7-3.5l53.3-70.5h6.4V876.4z M528.8,820.8c0-0.8,0-1.8,0.1-2.7
		c0-0.9,0.2-1.9,0.3-2.9l-45.8,61.2h45.5V820.8z"/>
	<path id="XMLID_89_" class="st6" d="M639.3,859.4c0,9.3-1,17.4-3,24.1c-2,6.8-4.7,12.4-8.2,16.9c-3.4,4.5-7.5,7.8-12.1,9.9
		c-4.6,2.2-9.6,3.3-14.8,3.3c-5.3,0-10.2-1.1-14.8-3.3c-4.6-2.2-8.6-5.5-12.1-9.9c-3.5-4.4-6.2-10.1-8.1-16.9c-2-6.8-3-14.8-3-24.1
		c0-9.3,1-17.3,3-24.2c2-6.8,4.7-12.4,8.1-16.9c3.4-4.4,7.5-7.8,12.1-9.9c4.6-2.2,9.5-3.3,14.8-3.3c5.3,0,10.2,1.1,14.8,3.3
		c4.6,2.2,8.7,5.5,12.1,9.9c3.5,4.5,6.2,10.1,8.2,16.9C638.3,842.1,639.3,850.1,639.3,859.4z M631.8,859.4c0-8.6-0.8-15.9-2.5-22.1
		c-1.7-6.1-3.9-11.1-6.6-15c-2.8-3.9-6-6.7-9.8-8.5s-7.6-2.7-11.7-2.7s-8,0.9-11.7,2.7c-3.7,1.8-7,4.6-9.8,8.5
		c-2.8,3.9-5,8.9-6.7,15c-1.6,6.1-2.5,13.5-2.5,22.1c0,8.7,0.8,16,2.5,22.1c1.7,6.1,3.9,11.1,6.7,14.9c2.8,3.9,6,6.7,9.8,8.5
		c3.7,1.8,7.6,2.7,11.7,2.7s8-0.9,11.7-2.7c3.7-1.8,7-4.6,9.8-8.5c2.8-3.9,5-8.8,6.6-14.9S631.8,868.1,631.8,859.4z"/>
	<path id="XMLID_92_" class="st6" d="M709.2,876.4h19.4v3.9c0,0.6-0.2,1-0.5,1.3c-0.3,0.3-0.8,0.5-1.5,0.5h-17.4v30.5h-6.5v-30.5
		h-50c-0.8,0-1.3-0.2-1.7-0.5c-0.4-0.3-0.7-0.8-0.8-1.3l-0.7-3.5l53.3-70.5h6.4V876.4z M702.8,820.8c0-0.8,0-1.8,0.1-2.7
		c0-0.9,0.2-1.9,0.3-2.9l-45.8,61.2h45.4V820.8z"/>
</g>
</svg>
