<?xml version="1.0" encoding="utf-8"?>
<!-- Generator: Adobe Illustrator 19.0.0, SVG Export Plug-In . SVG Version: 6.00 Build 0)  -->
<svg version="1.1" id="Layer_1" xmlns="http://www.w3.org/2000/svg" xmlns:xlink="http://www.w3.org/1999/xlink" x="0px" y="0px"
	 viewBox="0 0 1202.6 1038.2" style="enable-background:new 0 0 1202.6 1038.2;" xml:space="preserve">
<style type="text/css">
	.st0{display:none;fill:#3A3A3A;}
	.st1{fill:none;}
	.st2{display:none;fill:#FFFFFF;}
	.st3{font-family:'Lato-Light';}
	.st4{font-size:150px;}
	.st5{fill:#424F56;}
</style>
<path id="XMLID_873_" class="st0" d="M0,661.3c108.9,224.8,340,379,606.4,376.9c262.8-2,488.9-155.5,596.3-377L0,661.3z"/>
<rect id="XMLID_54_" y="803.2" class="st1" width="1202.6" height="112"/>
<text id="XMLID_55_" transform="matrix(1 0 0 1 470.8185 912.5218)" class="st2 st3 st4">404</text>
<g id="XMLID_23_">
	<g id="XMLID_1047_">
		<path id="XMLID_1166_" class="st5" d="M702.8,876.4v-55.6c0-0.8,0-1.8,0.1-2.7c0-0.9,0.2-1.9,0.3-2.9l-45.8,61.2H702.8z"/>
		<path id="XMLID_1050_" class="st5" d="M1173.5,580.7l-62.6-65l-66.2-28l-50.8-45l-68-35l-29.4,40.8l-82.7,26l-15.3,89.2L764,627.3
			l-38.5,30.3l0.1-0.1l-0.7-0.4l4.2-7.6l0.6,0.3l0.8-1.5l-3-1.7l0.2-0.4l-4.3-2.4l-0.2,0.4l-2.9-1.6l-0.8,1.4l0.6,0.3l-1.9,3.4
			c-0.3-0.1-0.4,0-0.4,0l-12,4.8c0,0-3.5,1.5-5.9,2.6l-10.9-6.1c-0.3-0.9-1.4-1.4-1.4-1.4s4.9-8.7,6-10.8c1.2-2.1-1.4-3.4-1.4-3.4
			l-1.5,2.6l0.7,0.4l-6,10.7l-14.9-8.3c1-1.7,1.9-3.5,2-3.6c0.1-0.1,0.1-0.4-0.3-1l0.9-1.6l0,0l0.2-0.3l-20-11.1
			c3.2-8.9,9.6-27.1,13.7-38.5l3,1c0.2,0.1,0.5,0.1,0.7-0.1c0.2-0.1,0.4-0.3,0.5-0.6l1.3-4c0.2-0.5-0.1-1.1-0.6-1.2l-2.8-0.9
			c0.9-2.4,1.4-4,1.5-4.3c0.3-0.8,0.3-1.5,0.1-2c-0.1-0.2-0.3-0.3-0.4-0.4l1.5-4.3c0,0,0.6,0.4,0.8-0.3c0.3-0.7,0-0.8-0.4-0.9
			c-0.4-0.1-3-1.1-3-1.1l3.1-9.4l-28.3-10l-3.5,9.4l-3.4-1.3c0,0-0.6,1.1-0.4,1.2l0.5,0.2l-17.4,49l-6.1-3.4l-0.1,0.2h0l-2.2,3.9
			l-0.4-0.2l-1.5,2.6l-1.8-1l-1.1,2l-7.9-4.4l2.4-4.3l-0.3-0.2l2.2-3.9l0-0.1l0.1-0.2l-14.5-8.1l0.2-0.4c0,0,1-1.6,0.6-3
			c-0.4-1.4-1.7-1.8-1.7-1.8s-0.7,1.3-1.1,2c0.5,0.3,0.3,0.7,0.3,0.7l-0.6,1l-1.1-0.6l-0.1,0.2l0,0.1l-2.2,4l-0.3-0.2l-2.4,4.2
			l-0.4-0.2c0.4-0.7,0.9-1.6,1.1-1.9c0-0.1-1.4-2.6-6.4-5.4c-1.7-0.9-3.2-1.6-4.5-2l5.4-9.6c0.1-0.1,0-0.3-0.1-0.4l-1-0.6
			c-0.1-0.1-0.3,0-0.4,0.1l-0.4,0.7l0.8,0.4l-5.1,9.1c-1.9-0.5-3-0.5-3-0.5l-1.1,1.9l-2.3-1.3l2.1-3.8l-4.9-2.8l7.3-13.2l-15.5-8.6
			l-1.6,2.8l-5.2-2.9l-3.8,6.8l-1-0.6l-1.7,3.1l-2.8-1.6l4.2-7.6l0.8,0.4l0.4-0.7c0.1-0.1,0-0.3-0.1-0.4l-1-0.6
			c-0.1-0.1-0.3,0-0.4,0.1l-4.6,8.3l-0.9-0.5l4.6-8.3c0.1-0.1,0-0.3-0.1-0.4l-1-0.6c-0.1-0.1-0.3,0-0.4,0.1l-0.4,0.7l0.8,0.4
			l-4.2,7.6l-10.8-6c1.3-3.6,10.2-28.9,15.4-43.4l3,1c0.2,0.1,0.5,0.1,0.7-0.1c0.2-0.1,0.4-0.3,0.5-0.6l1.3-4
			c0.2-0.5-0.1-1.1-0.6-1.2l-2.8-0.9c0.9-2.4,1.4-4,1.5-4.3c0.3-0.8,0.3-1.5,0.1-2c-0.1-0.2-0.3-0.3-0.4-0.4l1.5-4.3
			c0,0,0.6,0.4,0.8-0.3c0.3-0.7,0-0.8-0.4-0.9c-0.4-0.1-3-1.1-3-1.1l3.1-9.4l-28.3-10l-3.5,9.4l-3.4-1.3c0,0-0.6,1.1-0.4,1.2
			l0.5,0.2l-14.2,40c-5.4-1.6-19.1-5.5-24.5-7.1c-0.5-0.7-0.9-1.3-1.4-2l0,0l-0.1,0c-51.5-73.8-43.1-161.5-48.3-165.2l0.3-0.3
			l-0.6-0.6l-0.4,0.4l-10.1-8.2l0.3-0.2l-1.9-0.9l0.5-1.4l-1.2-0.2l-23.9,65.4l-164.9,15.2c-0.1,0-0.1-0.1-0.2-0.1
			c0,0,0,0.1-0.1,0.1l-6.3,0.6l-16.4-9.1l1.8-3.3c0,0,5.5,3,6.4,3.6s1.3,0.2,1.6-0.3c0.2-0.4,0.1-0.8,0-1l2.6-4.6l0.1-0.1l0.1-0.1
			l-11.3-6.3l-0.2-0.1l-1.4-0.8c0,0-11.5,5-12.1,5.3c-0.3,0.2-0.6,0.4-0.7,0.6l-25-13.9l-0.1-10c0,0,0.8-0.5-0.1-0.8
			c0-1.4,0.1-15.8,0.1-15.8s0.8-0.6,0.1-0.7c-0.7,0-1.5-0.1-1.6-0.1c0,0-0.3,0.4,0.1,0.5c0,0.1,0,0.4,0,0.9
			c-0.2,0.1-0.6,0.7-1.2,1.6l0-0.2c0,0-1.6-0.8-3.3-0.6s-2.6-0.9-3.6-0.7s-3.5,0.1-4.6-0.8c-1.1-0.9-2.5-0.8-2.5,0.3
			c-0.1,1-1.1,7.5-0.4,8.1c0.7,0.6,2.7,0.2,3.2,0.2c0.5,0,2.6,0.9,3.6,0.7c0.9-0.2,2.5,0.6,2.5,0.6s2.6,0.4,3.2,0.6
			c0.6,0.2,1.1,0.2,1.1,0.2s0.8,3.7,1.4,5.2c-0.2,0.1-0.6,0.4-0.1,0.7c0,0.3,0,4.8,0,8.9l-1.8-1l0,0.1l-0.1,0.2l-2.1,3.8
			c-0.4-0.2-0.6-0.3-0.7-0.4c0,0-2.7,5-3.2,5.7c1.1,1.2,8,8.7,19.1,18.7c11.1,10,8.7,10.7,10.8,14.4c2.1,3.8,0.3,4.7-1.8,8
			c-0.8,0.8-6.9,2.9-16.4,5.6c-15.7,5.5-14.8,17.1-13.8,23.3s9.2,18.3,9.2,18.3l74.5,41.7v34.7c-0.1,0.1-0.1,0.3-0.1,0.4
			s0,0.3,0.1,0.4v2.2c0,0-0.1,0-0.1,0c-0.7-0.8-0.8,1.5-0.2,4.1c0.6,2.6,2.6,1.9,2.6,1.9s27.8,2.9,30.3,3.1c2.5,0.2,1.8-0.4,1.8-0.4
			s0.8-3,1.7-6.6c0.9-3.5,0.9-3.7,0.4-3.8c0,0-0.1,0-0.2,0V559c0-0.2-0.1-0.3-0.2-0.4c0.2-0.2,0.3-0.4,0.3-0.7c0-0.6-0.5-1-1-1
			c-0.6,0-1,0.5-1,1c0,0.3,0.1,0.5,0.3,0.7c-0.1,0.1-0.2,0.3-0.2,0.4v1.6c-0.1,0-0.3,0.1-0.5,0.1v-17.4L367.4,602v29.4
			c-0.1,0.1-0.1,0.3-0.1,0.4s0,0.3,0.1,0.4v2.2c0,0-0.1,0-0.1,0c-0.7-0.8-0.8,1.5-0.2,4.1c0.6,2.6,2.6,1.9,2.6,1.9
			s27.8,2.9,30.3,3.1c2.5,0.2,1.8-0.4,1.8-0.4s0.8-3,1.7-6.6c0.9-3.5,0.9-3.7,0.4-3.8c0,0-0.1,0-0.2,0v-1.3c0-0.2-0.1-0.3-0.2-0.4
			c0.2-0.2,0.3-0.4,0.3-0.7c0-0.6-0.5-1-1-1c-0.6,0-1,0.5-1,1c0,0.3,0.1,0.5,0.3,0.7c-0.1,0.1-0.2,0.3-0.2,0.4v1.6
			c-0.1,0-0.3,0.1-0.5,0.1V621l72,40.3l-137.2,0c0.2-0.7,0.4-1.4,0.5-2.1c1.3-5.2,1.3-5.5,0.6-5.6c-0.1,0-0.2,0-0.3,0v-1.8
			c0-0.2-0.1-0.5-0.3-0.6c0.3-0.3,0.4-0.6,0.4-1.1c0-0.8-0.7-1.5-1.5-1.5s-1.5,0.7-1.5,1.5c0,0.4,0.2,0.8,0.4,1.1
			c-0.2,0.2-0.3,0.4-0.3,0.6v2.3c-1.6,0.3-4,0.7-7.4,1.2v-1c0-0.2-0.1-0.5-0.3-0.6c0.3-0.3,0.4-0.6,0.4-1.1c0-0.8-0.7-1.5-1.5-1.5
			c-0.8,0-1.5,0.7-1.5,1.5c0,0.4,0.2,0.8,0.4,1.1c-0.2,0.2-0.3,0.4-0.3,0.6v1.3c-0.2,0-0.4,0-0.6,0.1v-0.3c0-0.2-0.1-0.5-0.3-0.6
			c0.3-0.3,0.4-0.6,0.4-1.1c0-0.8-0.7-1.5-1.5-1.5c-0.8,0-1.5,0.7-1.5,1.5c0,0.4,0.2,0.8,0.4,1.1c-0.2,0.2-0.3,0.4-0.3,0.6v0.6
			c-0.1,0-0.3,0-0.4,0v-1.6c0-0.3-0.1-0.5-0.3-0.7c0.3-0.3,0.5-0.7,0.5-1.1c0-0.9-0.7-1.6-1.6-1.6s-1.6,0.7-1.6,1.6
			c0,0.4,0.2,0.9,0.5,1.1c-0.2,0.2-0.3,0.4-0.3,0.7v1.9c-0.2,0-0.4,0-0.6,0.1v-1.1c0-0.2-0.1-0.5-0.3-0.6c0.3-0.3,0.4-0.6,0.4-1.1
			c0-0.8-0.7-1.5-1.5-1.5c-0.8,0-1.5,0.7-1.5,1.5c0,0.4,0.2,0.8,0.4,1.1c-0.2,0.2-0.3,0.4-0.3,0.6v1.4c-0.2,0-0.4,0-0.6,0v-2.3
			c0-0.2-0.1-0.5-0.3-0.6c0.3-0.3,0.4-0.6,0.4-1.1c0-0.8-0.7-1.5-1.5-1.5c-0.8,0-1.5,0.7-1.5,1.5c0,0.2,0,0.3,0.1,0.5
			c-0.2-0.3-0.6-0.5-1-0.5c-0.5,0-0.9,0.3-1.1,0.7c0-0.8-0.7-1.4-1.5-1.4c-0.8,0-1.5,0.7-1.5,1.5c0,0.4,0.2,0.8,0.4,1.1
			c-0.2,0.2-0.3,0.4-0.3,0.6v0.2v1.8c-0.1,0-0.1,0-0.2,0v-0.4c0-0.2-0.1-0.4-0.2-0.5c0.2-0.2,0.4-0.5,0.4-0.9c0-0.7-0.5-1.2-1.2-1.2
			s-1.2,0.5-1.2,1.2c0,0.3,0.1,0.7,0.4,0.9c-0.1,0.1-0.2,0.3-0.2,0.5v0.4c-0.4,0-0.7,0-1.1,0v-1.7c0-0.2-0.1-0.5-0.3-0.6
			c0.3-0.3,0.4-0.6,0.4-1.1c0-0.8-0.7-1.5-1.5-1.5c-0.8,0-1.5,0.7-1.5,1.5c0,0.4,0.2,0.8,0.4,1.1c-0.2,0.2-0.3,0.4-0.3,0.6v1.7
			c-0.4,0-0.8,0-1.2,0v-0.8c0-0.2-0.1-0.4-0.2-0.5c0.2-0.2,0.4-0.5,0.4-0.9c0-0.7-0.5-1.2-1.2-1.2c-0.1,0-0.2,0-0.4,0.1
			c-0.2-0.6-0.7-1-1.4-1c-0.8,0-1.5,0.7-1.5,1.5c0,0.4,0.2,0.8,0.4,1.1c-0.2,0.2-0.3,0.4-0.3,0.6v1c-0.2,0-0.3,0-0.5,0v-2.1
			c0-0.2-0.1-0.5-0.3-0.6c0.3-0.3,0.4-0.6,0.4-1.1c0-0.8-0.7-1.5-1.5-1.5c-0.8,0-1.5,0.7-1.5,1.5c0,0.4,0.2,0.8,0.4,1.1
			c-0.2,0.2-0.3,0.4-0.3,0.6v2c-0.2,0-0.3,0-0.5,0v-0.9c0-0.2-0.1-0.5-0.3-0.6c0.3-0.3,0.4-0.6,0.4-1.1c0-0.8-0.7-1.5-1.5-1.5
			c-0.8,0-1.5,0.7-1.5,1.5c0,0.4,0.2,0.8,0.4,1.1c-0.2,0.2-0.3,0.4-0.3,0.6v0.7c-0.2,0-0.4,0-0.7,0v-1.5c0-0.2-0.1-0.4-0.2-0.6
			c0.2-0.2,0.4-0.6,0.4-0.9c0-0.7-0.6-1.3-1.3-1.3c-0.5,0-0.9,0.3-1.1,0.7c0.1-0.2,0.2-0.4,0.2-0.7c0-0.8-0.7-1.5-1.5-1.5
			c-0.8,0-1.5,0.7-1.5,1.5c0,0.4,0.2,0.8,0.4,1.1c-0.2,0.2-0.3,0.4-0.3,0.6v2.2c-0.1,0-0.1,0-0.2,0c-1-1.1-1.1,1.7-0.4,5.2l-88.2,0
			c0.2-0.7,0.4-1.5,0.6-2.3c1.1-4.4,1.1-4.6,0.5-4.7c-0.1,0-0.2,0-0.3,0v-1.6c0-0.2-0.1-0.4-0.2-0.5c0.2-0.2,0.4-0.5,0.4-0.9
			c0-0.7-0.6-1.2-1.2-1.2s-1.2,0.6-1.2,1.2c0,0.4,0.1,0.7,0.4,0.9c-0.1,0.1-0.2,0.3-0.2,0.5v2c-1.4,0.3-3.4,0.6-6.3,1v-0.8
			c0-0.2-0.1-0.4-0.2-0.5c0.2-0.2,0.4-0.5,0.4-0.9c0-0.7-0.6-1.2-1.2-1.2s-1.2,0.6-1.2,1.2c0,0.4,0.1,0.7,0.4,0.9
			c-0.1,0.1-0.2,0.3-0.2,0.5v1.1c-0.2,0-0.3,0-0.5,0.1v-0.2c0-0.2-0.1-0.4-0.2-0.5c0.2-0.2,0.4-0.5,0.4-0.9c0-0.7-0.6-1.2-1.2-1.2
			s-1.2,0.6-1.2,1.2c0,0.4,0.1,0.7,0.4,0.9c-0.1,0.1-0.2,0.3-0.2,0.5v0.5c-0.1,0-0.2,0-0.3,0v-1.4c0-0.2-0.1-0.4-0.2-0.6
			c0.3-0.2,0.4-0.6,0.4-1c0-0.7-0.6-1.3-1.3-1.3c-0.7,0-1.3,0.6-1.3,1.3c0,0.4,0.2,0.7,0.4,1c-0.1,0.1-0.2,0.3-0.2,0.6v1.6
			c-0.1,0-0.3,0-0.5,0v-1c0-0.2-0.1-0.4-0.2-0.5c0.2-0.2,0.4-0.5,0.4-0.9c0-0.7-0.6-1.2-1.2-1.2s-1.2,0.6-1.2,1.2
			c0,0.4,0.1,0.7,0.4,0.9c-0.1,0.1-0.2,0.3-0.2,0.5v1.1c-0.2,0-0.3,0-0.5,0v-2c0-0.2-0.1-0.4-0.2-0.5c0.2-0.2,0.4-0.5,0.4-0.9
			c0-0.7-0.6-1.2-1.2-1.2s-1.2,0.6-1.2,1.2c0,0.1,0,0.3,0.1,0.4c-0.2-0.2-0.5-0.4-0.8-0.4c-0.4,0-0.8,0.2-1,0.6
			c0-0.7-0.6-1.2-1.2-1.2c-0.7,0-1.2,0.6-1.2,1.2c0,0.4,0.1,0.7,0.4,0.9c-0.1,0.1-0.2,0.3-0.2,0.5v0.1v1.5c0,0-0.1,0-0.1,0v-0.3
			c0-0.2-0.1-0.3-0.2-0.4c0.2-0.2,0.3-0.4,0.3-0.7c0-0.6-0.5-1-1-1s-1,0.5-1,1c0,0.3,0.1,0.5,0.3,0.7c-0.1,0.1-0.2,0.3-0.2,0.4v0.4
			c-0.3,0-0.6,0-0.9,0v-1.4c0-0.2-0.1-0.4-0.2-0.5c0.2-0.2,0.4-0.5,0.4-0.9c0-0.7-0.6-1.2-1.2-1.2s-1.2,0.6-1.2,1.2
			c0,0.4,0.1,0.7,0.4,0.9c-0.1,0.1-0.2,0.3-0.2,0.5v1.4c-0.3,0-0.7,0-1,0v-0.6c0-0.2-0.1-0.3-0.2-0.4c0.2-0.2,0.3-0.4,0.3-0.7
			c0-0.6-0.5-1-1-1c-0.1,0-0.2,0-0.3,0.1c-0.2-0.5-0.6-0.9-1.2-0.9c-0.7,0-1.2,0.6-1.2,1.2c0,0.4,0.1,0.7,0.4,0.9
			c-0.1,0.1-0.2,0.3-0.2,0.5v0.9c-0.1,0-0.3,0-0.4,0v-1.8c0-0.2-0.1-0.4-0.2-0.5c0.2-0.2,0.4-0.5,0.4-0.9c0-0.7-0.6-1.2-1.2-1.2
			s-1.2,0.6-1.2,1.2c0,0.4,0.1,0.7,0.4,0.9c-0.1,0.1-0.2,0.3-0.2,0.5v1.7c-0.1,0-0.3,0-0.4,0v-0.7c0-0.2-0.1-0.4-0.2-0.5
			c0.2-0.2,0.4-0.5,0.4-0.9c0-0.7-0.6-1.2-1.2-1.2s-1.2,0.6-1.2,1.2c0,0.4,0.1,0.7,0.4,0.9c-0.1,0.1-0.2,0.3-0.2,0.5v0.6
			c-0.2,0-0.4,0-0.6,0v-1.3c0-0.2-0.1-0.3-0.2-0.5c0.2-0.2,0.3-0.5,0.3-0.8c0-0.6-0.5-1.1-1.1-1.1c-0.6,0-1.1,0.5-1.1,1
			c0-0.1-0.1-0.1-0.1-0.1c0.2-0.2,0.4-0.5,0.4-0.9c0-0.7-0.6-1.2-1.2-1.2s-1.2,0.6-1.2,1.2c0,0.4,0.1,0.7,0.4,0.9
			c-0.1,0.1-0.2,0.3-0.2,0.5v1.9c-0.1,0-0.1,0-0.1,0c-0.9-1-0.9,1.8-0.3,4.9l-13.7,0c0.7-2.8,1.5-5.9,2.3-9.2
			c2.8-11.3,2.7-11.8,1.3-12.1c-0.1,0-0.4,0-0.8,0v-4c0-0.5-0.2-1-0.6-1.4c0.6-0.6,1-1.4,1-2.3c0-1.8-1.4-3.2-3.2-3.2
			c-1.8,0-3.2,1.4-3.2,3.2c0,0.9,0.4,1.7,1,2.3c-0.3,0.4-0.6,0.8-0.6,1.4v5c-3.5,0.7-8.7,1.6-16,2.6v-2.2c0-0.5-0.2-1-0.6-1.4
			c0.6-0.6,1-1.4,1-2.3c0-1.8-1.4-3.2-3.2-3.2c-1.8,0-3.2,1.4-3.2,3.2c0,0.9,0.4,1.7,1,2.3c-0.3,0.4-0.6,0.8-0.6,1.4v2.9
			c-0.4,0.1-0.9,0.1-1.3,0.2V644c0-0.5-0.2-1-0.6-1.4c0.6-0.6,1-1.4,1-2.3c0-1.8-1.4-3.2-3.2-3.2s-3.2,1.4-3.2,3.2
			c0,0.9,0.4,1.7,1,2.3c-0.3,0.4-0.6,0.8-0.6,1.4v1.2c-0.3,0-0.6,0.1-0.8,0.1v-3.5c0-0.6-0.2-1.1-0.6-1.5c0.6-0.6,1-1.5,1-2.5
			c0-1.9-1.5-3.5-3.5-3.5s-3.5,1.5-3.5,3.5c0,1,0.4,1.8,1,2.5c-0.4,0.4-0.6,0.9-0.6,1.5v4.1c-0.4,0-0.8,0.1-1.2,0.1v-2.4
			c0-0.5-0.2-1-0.6-1.4c0.6-0.6,1-1.4,1-2.3c0-1.8-1.4-3.2-3.2-3.2c-1.8,0-3.2,1.4-3.2,3.2c0,0.9,0.4,1.7,1,2.3
			c-0.3,0.4-0.6,0.8-0.6,1.4v2.9c-0.4,0-0.9,0.1-1.3,0.1v-5c0-0.5-0.2-1-0.6-1.4c0.6-0.6,1-1.4,1-2.3c0-1.8-1.4-3.2-3.2-3.2
			c-1.8,0-3.2,1.4-3.2,3.2c0,0.3,0.1,0.6,0.2,0.9c-0.5-0.6-1.3-0.9-2.1-0.9c-1.1,0-2,0.6-2.5,1.5c-0.1-1.7-1.5-3.1-3.2-3.1
			c-1.8,0-3.2,1.4-3.2,3.2c0,0.9,0.4,1.7,1,2.3c-0.3,0.4-0.6,0.8-0.6,1.4v0.4v3.9c-0.1,0-0.2,0-0.3,0v-0.9c0-0.4-0.2-0.8-0.5-1.1
			c0.5-0.5,0.8-1.1,0.8-1.9c0-1.5-1.2-2.6-2.6-2.6c-1.5,0-2.6,1.2-2.6,2.6c0,0.7,0.3,1.4,0.8,1.9c-0.3,0.3-0.5,0.7-0.5,1.1v0.9
			c-0.8,0-1.6,0-2.3,0v-3.6c0-0.5-0.2-1-0.6-1.4c0.6-0.6,1-1.4,1-2.3c0-1.8-1.4-3.2-3.2-3.2c-1.8,0-3.2,1.4-3.2,3.2
			c0,0.9,0.4,1.7,1,2.3c-0.3,0.4-0.6,0.8-0.6,1.4v3.6c-0.8,0-1.7,0-2.5,0v-1.7c0-0.4-0.2-0.8-0.5-1.1c0.5-0.5,0.8-1.1,0.8-1.9
			c0-1.4-1.2-2.6-2.6-2.6c-0.3,0-0.5,0.1-0.8,0.1c-0.4-1.3-1.6-2.2-3-2.2c-1.8,0-3.2,1.4-3.2,3.2c0,0.9,0.4,1.7,1,2.3
			c-0.3,0.4-0.6,0.8-0.6,1.4v2.2c-0.3,0-0.7,0-1,0v-4.6c0-0.5-0.2-1-0.6-1.4c0.6-0.6,1-1.4,1-2.3c0-1.8-1.4-3.2-3.2-3.2
			c-1.8,0-3.2,1.4-3.2,3.2c0,0.9,0.4,1.7,1,2.3c-0.3,0.4-0.6,0.8-0.6,1.4v4.4c-0.4,0-0.7,0-1.1-0.1v-1.9c0-0.5-0.2-1-0.6-1.4
			c0.6-0.6,1-1.4,1-2.3c0-1.8-1.4-3.2-3.2-3.2s-3.2,1.4-3.2,3.2c0,0.9,0.4,1.7,1,2.3c-0.3,0.4-0.6,0.8-0.6,1.4v1.5
			c-0.5,0-1-0.1-1.4-0.1V643c0-0.5-0.2-0.9-0.5-1.2c0.5-0.5,0.8-1.2,0.8-2c0-1.5-1.2-2.8-2.8-2.8c-0.9,0-1.8,0.5-2.3,1.2
			c0.1-0.4,0.2-0.8,0.2-1.2c0-1.8-1.4-3.2-3.2-3.2c-1.8,0-3.2,1.4-3.2,3.2c0,0.9,0.4,1.7,1,2.3c-0.3,0.4-0.6,0.8-0.6,1.4v4.8
			c-0.1,0-0.3,0-0.4,0c-2.4-2.5-2.4,4.8-0.6,13c0.2,1.1,0.6,2.1,1,2.9l-24.7,0c108.9,224.8,340,379,606.4,376.9
			c262.8-2,488.9-155.5,596.3-377L1173.5,580.7z M154.9,374.4c-0.9-1.8-2.9-7.1,0.4-12.3C155.2,365.3,155,371.4,154.9,374.4z
			 M199,403.7l-2.6-1.5l0.6-1.1l2.6,1.5L199,403.7z M200.4,401.2L200.4,401.2l-2.7-1.4l0.5-0.9l2.1,1.2
			C200.2,400.5,200.3,400.9,200.4,401.2z M197.3,399.6l-1-0.5l0.5-0.9l1,0.5L197.3,399.6z M197.1,399.8l-0.5,0.8l-1-0.5l0.5-0.8
			L197.1,399.8z M199.8,402.4l-2.6-1.5l0.5-0.8l2.6,1.5L199.8,402.4z M201.9,405.3l-1.5-0.9l0.6-1.1l1.5,0.9L201.9,405.3z
			 M202.6,404l-1.5-0.9l0.5-0.8l1.5,0.9L202.6,404z M204.5,406.8l-1.2-0.7l0.6-1.1l1.2,0.7L204.5,406.8z M205.3,405.4l-1.2-0.7
			l0.5-0.8l1.2,0.7L205.3,405.4z M205.9,404.3l-1.2-0.7l0.4-0.7l-1.4-0.8l-0.4,0.7l-1.5-0.9l0-0.1c0.4,0,0.7-0.2,0.9-0.5l3.7,2.1
			L205.9,404.3z M207,402.2l-0.5,1l-3.7-2.1c0.2-0.5,0.1-1-0.3-1.4L207,402.2z M201.9,399.3c-0.5-0.1-1,0.1-1.4,0.5l-2.1-1.2l0.5-1
			L201.9,399.3z M198.5,397.4l-0.5,1l-1-0.5l0.5-1L198.5,397.4z M196.1,396.1l0.9,0.5l-0.5,1l-0.9-0.5L196.1,396.1z M196.4,397.9
			l-0.5,0.9l-0.9-0.5l0.5-0.9L196.4,397.9z M195.7,399l-0.5,0.8l-0.9-0.5l0.5-0.8L195.7,399z M186,402.3l-0.4,0.7l-3.2-1.8
			c0.4-0.4,0.9-0.6,0.9-0.6l11.3-4.9l0.4,0.3l-2.4,4.3l-0.5-0.3l-0.5,0.8l-0.9-0.5l-0.5,0.9l-0.8-0.4l-0.4,0.7l-0.7-0.4l-0.5,0.9
			l-0.7-0.4l-0.5,1L186,402.3z M192.2,406.7l-5.3-3l4.8-1.7l2.3,1.3L192.2,406.7z M193.6,400.7l0.6-1.1l0.9,0.5l-0.6,1.1
			L193.6,400.7z M195.6,400.4l1,0.5l-0.6,1.1l-0.9-0.5L195.6,400.4z M29.9,639.6c-0.1-0.1-0.2-0.2-0.2-0.3c0.2-0.1,0.3-0.3,0.4-0.5
			C30,639.1,29.9,639.3,29.9,639.6z M30.2,643v2.9c0,0,0,0,0,0v-4.8c0.1,0.3,0.3,0.5,0.5,0.7C30.4,642.1,30.2,642.5,30.2,643z
			 M80,644v3.1c-0.1,0-0.2,0-0.4,0v-4.1c0-0.5-0.2-1-0.6-1.4c0.2-0.2,0.4-0.5,0.6-0.8c0.1,0.7,0.4,1.4,0.8,1.8
			C80.2,643.1,80,643.5,80,644z M84.9,643.3c-0.1-0.2-0.2-0.4-0.4-0.5c0.1-0.1,0.3-0.3,0.4-0.4V643.3z M85.4,640.3
			c0-0.1,0-0.2-0.1-0.3c0.1,0.1,0.1,0.1,0.2,0.2C85.4,640.2,85.4,640.2,85.4,640.3z M153,655.4v1.1c0,0,0,0,0,0v-1.9
			c0.1,0.1,0.1,0.2,0.2,0.3C153.1,655.1,153,655.2,153,655.4z M172.4,655.8v1.2c0,0-0.1,0-0.1,0v-1.6c0-0.2-0.1-0.4-0.2-0.5
			c0.1-0.1,0.2-0.2,0.2-0.3c0,0.3,0.1,0.6,0.3,0.7C172.5,655.5,172.4,655.6,172.4,655.8z M174.3,655.6c0-0.1-0.1-0.2-0.1-0.2
			c0.1-0.1,0.1-0.1,0.1-0.2V655.6z M174.5,654.4c0-0.1,0-0.1,0-0.2C174.5,654.2,174.5,654.3,174.5,654.4
			C174.5,654.3,174.5,654.4,174.5,654.4z M286.1,653.4c0-0.1-0.1-0.1-0.1-0.2c0.1-0.1,0.1-0.2,0.2-0.2
			C286.2,653.1,286.1,653.3,286.1,653.4z M286.3,654.9v1.4c0,0,0,0,0,0V654c0.1,0.1,0.1,0.2,0.2,0.3
			C286.4,654.5,286.3,654.7,286.3,654.9z M309.3,655.4v1.4c-0.1,0-0.1,0-0.2,0V655c0-0.2-0.1-0.5-0.3-0.6c0.1-0.1,0.2-0.2,0.3-0.4
			c0,0.3,0.2,0.6,0.4,0.9C309.4,655,309.3,655.2,309.3,655.4z M311.6,655.1c0-0.1-0.1-0.2-0.2-0.3c0.1-0.1,0.1-0.2,0.2-0.2V655.1z
			 M311.8,653.7c0-0.1,0-0.1,0-0.2C311.8,653.6,311.8,653.6,311.8,653.7C311.8,653.7,311.8,653.7,311.8,653.7z M531.1,572.6
			C531.2,572.6,531.2,572.7,531.1,572.6l-0.7,0.8L531.1,572.6z M542.6,506.9c0.1,0,0.2,0.1,0.1,0.2l-1.3,4c0,0.1-0.1,0.1-0.1,0.1
			c0,0-0.1,0-0.1,0l-3-1c0.6-1.6,1.1-3.1,1.5-4.3L542.6,506.9z M541,499.4c0.1,0.2,0.2,0.6-0.1,1.3c-0.1,0.3-0.7,1.9-1.5,4.3
			l-0.3-0.1L541,499.4z M538.8,505.6l0.3,0.1c-0.5,1.3-1,2.7-1.5,4.3l-0.3-0.1L538.8,505.6z M537,510.7l0.3,0.1
			c-5.1,14.3-13.9,39.2-15.3,43.2l-0.2-0.1L537,510.7z M493.5,523.5l-2.7,7.7l-2.4-1.4l-0.1,0.2l0,0l-2.2,3.9l-0.1-0.1l-0.3,0.6
			c-5.1-5.6-9.8-11.3-14.1-17.1L493.5,523.5z M470.5,517.1c4.5,6.1,9.4,12.1,14.8,18l-0.5,0.9l-4.8-2.7c-5-5.7-9.5-11.5-13.6-17.3
			L470.5,517.1z M467.6,513.9l0.2-0.4c0.3,0.4,0.5,0.7,0.8,1.1c-0.7-0.2-1.1-0.3-1.2-0.3c-0.2,0-0.4-0.1-0.7-0.2l0.3-0.5
			L467.6,513.9z M419.4,348c4.8,3.4-3.5,90.3,47.4,164l-0.2-0.1l-1,1.8l0,0.1c-0.3,0-0.5-0.1-0.8-0.1c0,0,0,0,0,0l1.2-2.1l-1.5-0.9
			l-0.6,1.2l0.7,0.4c0,0-0.1,0.2-0.3,0.5c-49.6-73.3-41.4-159-46.6-162.7L419.4,348z M450.9,498.3c-38.3-69.1-31.7-142.6-36-145.7
			l2.2-2.2c4.8,3.5-3.4,89.5,46.7,163c0,0.1-0.1,0.1-0.1,0.2c-0.6-0.1-1.1-0.1-1.4,0c-0.2-1-1.5-1.4-1.5-1.4l-0.7,1.2
			c-3-4.5-5.8-9.1-8.4-13.7l0.2-0.4l0,0l0.1-0.2L450.9,498.3z M451.5,499l-0.1,0.2c-0.1-0.1-0.1-0.2-0.2-0.3L451.5,499z M448,501
			c-0.3-0.6-0.7-1.2-1-1.8l2.1,1.2l-0.5,0.9L448,501z M448.3,501.6L448.3,501.6C448.3,501.6,448.3,501.6,448.3,501.6L448.3,501.6z
			 M437,492.1l-0.5,0.9l-1.3-0.7l0.5-0.9L437,492.1z M435.9,491.1l0.3-0.6l1.3,0.7l-0.3,0.6L435.9,491.1z M437.5,492.4l2.7,1.5
			l-0.5,0.9l-2.7-1.5L437.5,492.4z M437.6,492.1l0.3-0.6l2.7,1.5l-0.3,0.6L437.6,492.1z M440.7,494.1l2.7,1.5l-0.5,0.9l-2.7-1.5
			L440.7,494.1z M444.4,496.2c0.3,0.6,0.6,1.2,1,1.8l-2.1-1.2l0.5-0.9L444.4,496.2z M443.9,495.6l0.1-0.1c0,0.1,0.1,0.2,0.1,0.2
			L443.9,495.6z M444.8,495.3l2.3,1.3l-0.3,0.6l-1.3-0.7C445.2,496.1,445,495.7,444.8,495.3z M446.6,497.4l-0.3,0.5
			c-0.2-0.3-0.4-0.7-0.6-1L446.6,497.4z M446.1,499.4c0.2,0.3,0.3,0.6,0.5,0.9l-0.8-0.4L446.1,499.4z M446.6,498.5l0.5-0.8l2.7,1.5
			l-0.5,0.9l-2.5-1.4C446.6,498.7,446.6,498.6,446.6,498.5z M447.2,497.4l0.3-0.6l2.5,1.4c0,0.1,0.1,0.1,0.1,0.2l-0.3,0.5
			L447.2,497.4z M444.5,494.8c-35.7-67.9-29.3-137.7-32.1-139.7l2-2.1c3.9,2.8-2.7,75.7,35.3,144.7L444.5,494.8z M443.7,494.9
			l-0.2,0.4l-2.7-1.5l0.3-0.6l2.3,1.3C443.6,494.7,443.6,494.8,443.7,494.9z M443.1,497.1l2.5,1.4c0.1,0.1,0.1,0.2,0.2,0.3l-0.4,0.8
			l-2.8-1.6L443.1,497.1z M445.7,500.1l1.2,0.7c0.1,0.3,0.3,0.5,0.4,0.8l-1.9-1.1L445.7,500.1z M448.8,501.9l0.8,0.4l-0.2,0.4
			l-0.7-0.4c0-0.1-0.1-0.1-0.1-0.2L448.8,501.9z M449,501.6l0.5-0.9l0.8,0.4l-0.5,0.9L449,501.6z M449.6,500.4l0.5-0.9l0.8,0.4
			l-0.5,0.9L449.6,500.4z M450.3,499.2l0.1-0.2c0.1,0.2,0.2,0.3,0.3,0.5L450.3,499.2z M463.8,515.3l0.8,0.2l-1.4,2.5
			c-0.2-0.2-0.3-0.5-0.5-0.7L463.8,515.3z M418.8,347.5l-2,2.1l-8-10.1L418.8,347.5z M416.4,350l-2,2.1l-6.2-12.5L416.4,350z
			 M414,352.5l-1.8,1.9l-4.5-14.5L414,352.5z M230.3,561.2v0.9c0,0,0,0,0,0v-1.5c0,0.1,0.1,0.2,0.2,0.2
			C230.3,560.9,230.3,561.1,230.3,561.2z M245.9,561.5v1c0,0-0.1,0-0.1,0v-1.3c0-0.2-0.1-0.3-0.2-0.4c0.1-0.1,0.1-0.2,0.2-0.3
			c0,0.2,0.1,0.4,0.3,0.6C246,561.3,245.9,561.4,245.9,561.5z M247.5,561.3c0-0.1-0.1-0.1-0.1-0.2c0,0,0.1-0.1,0.1-0.2V561.3z
			 M247.6,560.4c0-0.1,0-0.1,0-0.2C247.6,560.3,247.6,560.3,247.6,560.4C247.6,560.3,247.6,560.4,247.6,560.4z M262,560.8
			c-1,0.2-2.4,0.4-4.1,0.6v-0.7c0-0.2-0.1-0.3-0.2-0.4c0.2-0.2,0.3-0.4,0.3-0.7c0-0.6-0.5-1-1-1c-0.6,0-1,0.5-1,1
			c0,0.3,0.1,0.5,0.3,0.7c-0.1,0.1-0.2,0.3-0.2,0.4v0.9c-0.1,0-0.3,0-0.4,0v-0.2c0-0.2-0.1-0.3-0.2-0.4c0.2-0.2,0.3-0.4,0.3-0.7
			c0-0.6-0.5-1-1-1s-1,0.5-1,1c0,0.3,0.1,0.5,0.3,0.7c-0.1,0.1-0.2,0.3-0.2,0.4v0.4c-0.1,0-0.2,0-0.3,0v-1.1c0-0.2-0.1-0.3-0.2-0.5
			c0.2-0.2,0.3-0.5,0.3-0.8c0-0.6-0.5-1.1-1.1-1.1s-1.1,0.5-1.1,1.1c0,0.3,0.1,0.6,0.3,0.8c-0.1,0.1-0.2,0.3-0.2,0.5v1.3
			c-0.1,0-0.3,0-0.4,0v-0.8c0-0.2-0.1-0.3-0.2-0.4c0.2-0.2,0.3-0.4,0.3-0.7c0-0.6-0.5-1-1-1s-1,0.5-1,1c0,0.3,0.1,0.5,0.3,0.7
			c-0.1,0.1-0.2,0.3-0.2,0.4v0.9c-0.1,0-0.3,0-0.4,0v-1.6c0-0.2-0.1-0.3-0.2-0.4c0.2-0.2,0.3-0.4,0.3-0.7c0-0.6-0.5-1-1-1
			c-0.6,0-1,0.5-1,1c0,0.1,0,0.2,0.1,0.3c-0.2-0.2-0.4-0.3-0.7-0.3c-0.3,0-0.6,0.2-0.8,0.5c0-0.5-0.5-1-1-1c-0.6,0-1,0.5-1,1
			c0,0.3,0.1,0.5,0.3,0.7c-0.1,0.1-0.2,0.3-0.2,0.4v0.1v1.2c0,0-0.1,0-0.1,0v-0.3c0-0.1-0.1-0.3-0.1-0.4c0.2-0.2,0.3-0.4,0.3-0.6
			c0-0.5-0.4-0.8-0.8-0.8s-0.8,0.4-0.8,0.8c0,0.2,0.1,0.4,0.3,0.6c-0.1,0.1-0.1,0.2-0.1,0.4v0.3c-0.2,0-0.5,0-0.7,0v-1.1
			c0-0.2-0.1-0.3-0.2-0.4c0.2-0.2,0.3-0.4,0.3-0.7c0-0.6-0.5-1-1-1s-1,0.5-1,1c0,0.3,0.1,0.5,0.3,0.7c-0.1,0.1-0.2,0.3-0.2,0.4v1.1
			c-0.3,0-0.5,0-0.8,0v-0.5c0-0.1-0.1-0.3-0.1-0.4c0.2-0.1,0.2-0.4,0.2-0.6c0-0.5-0.4-0.8-0.8-0.8c-0.1,0-0.2,0-0.3,0.1
			c-0.1-0.4-0.5-0.7-0.9-0.7c-0.6,0-1,0.5-1,1c0,0.3,0.1,0.5,0.3,0.7c-0.1,0.1-0.2,0.3-0.2,0.4v0.7c-0.1,0-0.2,0-0.3,0v-1.5
			c0-0.2-0.1-0.3-0.2-0.4c0.2-0.2,0.3-0.4,0.3-0.7c0-0.6-0.5-1-1-1c-0.6,0-1,0.5-1,1c0,0.3,0.1,0.5,0.3,0.7
			c-0.1,0.1-0.2,0.3-0.2,0.4v1.4c-0.1,0-0.2,0-0.3,0v-0.6c0-0.2-0.1-0.3-0.2-0.4c0.2-0.2,0.3-0.4,0.3-0.7c0-0.6-0.5-1-1-1
			c-0.6,0-1,0.5-1,1c0,0.3,0.1,0.5,0.3,0.7c-0.1,0.1-0.2,0.3-0.2,0.4v0.5c-0.2,0-0.3,0-0.5,0v-1c0-0.1-0.1-0.3-0.2-0.4
			c0.2-0.2,0.3-0.4,0.3-0.6c0-0.5-0.4-0.9-0.9-0.9c-0.5,0-0.9,0.4-0.9,0.8c0,0,0-0.1-0.1-0.1c0.2-0.2,0.3-0.4,0.3-0.7
			c0-0.6-0.5-1-1-1c-0.1,0-0.3,0-0.4,0.1v-33.9l33,18.5V560.8z M331,480.3c0.5,0.9-0.2,0.7-0.7,0.3c-0.5-0.4-3.1-2.3-3.7-2.6
			c-2.5-1.5-12.9-11.2-13.5-11.6c-0.3-0.2-0.3-0.3-0.2-0.5c3.6,1.7,11.6,6.5,18.7,11c-0.4,0.1-0.8,0.2-1.1,0.6
			C329.5,478.5,330.5,479.4,331,480.3z M353.8,480.8L353.8,480.8l-4.7-2.6v0l-0.5-0.3l-4.7-2.6l0,0l-0.5-0.3l0,0l-5.4-3h0l-0.5-0.3
			v0l-0.4-0.2v0l-0.5-0.3l-2.3,4.1l0,0.1c-0.2,0.3-0.8,1.5-0.9,1.6c-6.3-3.9-16.4-10.1-20.7-12.1c0-0.1,0-0.1-0.1-0.2
			c-0.4-1-1.9-1.2-2.7,0c-0.1,0.1-0.1,0.2-0.1,0.3c-1.5,1.6-2.5,5.6-2.7,6.6c0,0.2,0,0.3,0.2,0.4c0,0,0.1,0,0.1,0
			c0.2,0,0.4-0.1,0.5-0.3c0.4-1.8,1.2-4.1,2-5.5c0.1,0.1,0.2,0.2,0.2,0.2s-0.2,0.8-0.4,1.2c0.5,0.3,7,5.5,9.3,7.2
			c2.3,1.7,9.9,9.5,9.9,9.5l-2.2,4l-3.4-1.9l-0.6,1.2l0.7,0.4l-1.9,3.4c-10.2-5.7-45.8-25.5-47.6-26.5c-2.1-1.2-1.3-2.5-1.3-2.5
			l2.3-4.1c0,0-0.2-0.1-0.5-0.3l2.2-3.9l0.1-0.2l0-0.1l-2.2-1.2c0.4-0.5,0.8-0.2,0.8-0.2s0.6-1.1,1.1-2c-2.5-1.4-3.7,0.7-3.7,0.7
			l-0.2,0.3l-2.1-1.2l2.1-3.7l0.8,0.4l0.6-1.1l-3.4-1.9l0.3-0.5l-1-0.6l0.7-1.2l0.2,0.1l0.9-1.7l-0.1-0.1l0.8-1.4l4.9-4.7l0.5-0.9
			l-0.5-0.3l0.4-0.7l-1.2-0.7l-0.2,0.4l-3-1.7l-0.7,1.3l-0.4-0.2l-0.4,0.7l-0.5-0.3l-2.3,4.2l0.3,0.2l-0.3,0.5l0.2,0.1l-1,1.7
			l-0.2-0.1l-0.9,1.6l0.2,0.1l-0.7,1.2l-1-0.6l-0.3,0.5l-3.4-1.9l-0.6,1.1l0.8,0.4l-2.1,3.7l-22.1-12.3c-0.3-0.4-0.7-0.7-1.3-1.1
			c0,0.1-0.1,0.2-0.1,0.3l-15.8-8.8c0.1-0.1,1.2-2.9-2-5.3l163.9-15.1l-28.7,78.7L353.8,480.8z M369.1,633.7v0.9c0,0,0,0,0,0v-1.5
			c0,0.1,0.1,0.2,0.2,0.2C369.2,633.4,369.1,633.6,369.1,633.7z M384.8,634v1c0,0-0.1,0-0.1,0v-1.3c0-0.2-0.1-0.3-0.2-0.4
			c0.1-0.1,0.1-0.2,0.2-0.3c0,0.2,0.1,0.4,0.3,0.6C384.9,633.7,384.8,633.9,384.8,634z M386.4,633.8c0-0.1-0.1-0.1-0.1-0.2
			c0,0,0.1-0.1,0.1-0.2V633.8z M386.5,632.9c0-0.1,0-0.1,0-0.2C386.5,632.7,386.5,632.8,386.5,632.9
			C386.5,632.8,386.5,632.9,386.5,632.9z M400.9,633.3c-1,0.2-2.4,0.4-4.1,0.6v-0.7c0-0.2-0.1-0.3-0.2-0.4c0.2-0.2,0.3-0.4,0.3-0.7
			c0-0.6-0.5-1-1-1c-0.6,0-1,0.5-1,1c0,0.3,0.1,0.5,0.3,0.7c-0.1,0.1-0.2,0.3-0.2,0.4v0.9c-0.1,0-0.3,0-0.4,0V634
			c0-0.2-0.1-0.3-0.2-0.4c0.2-0.2,0.3-0.4,0.3-0.7c0-0.6-0.5-1-1-1s-1,0.5-1,1c0,0.3,0.1,0.5,0.3,0.7c-0.1,0.1-0.2,0.3-0.2,0.4v0.4
			c-0.1,0-0.2,0-0.3,0v-1.1c0-0.2-0.1-0.3-0.2-0.5c0.2-0.2,0.3-0.5,0.3-0.8c0-0.6-0.5-1.1-1.1-1.1s-1.1,0.5-1.1,1.1
			c0,0.3,0.1,0.6,0.3,0.8c-0.1,0.1-0.2,0.3-0.2,0.5v1.3c-0.1,0-0.3,0-0.4,0v-0.8c0-0.2-0.1-0.3-0.2-0.4c0.2-0.2,0.3-0.4,0.3-0.7
			c0-0.6-0.5-1-1-1s-1,0.5-1,1c0,0.3,0.1,0.5,0.3,0.7c-0.1,0.1-0.2,0.3-0.2,0.4v0.9c-0.1,0-0.3,0-0.4,0v-1.6c0-0.2-0.1-0.3-0.2-0.4
			c0.2-0.2,0.3-0.4,0.3-0.7c0-0.6-0.5-1-1-1c-0.6,0-1,0.5-1,1c0,0.1,0,0.2,0.1,0.3c-0.2-0.2-0.4-0.3-0.7-0.3c-0.3,0-0.6,0.2-0.8,0.5
			c0-0.5-0.5-1-1-1c-0.6,0-1,0.5-1,1c0,0.3,0.1,0.5,0.3,0.7c-0.1,0.1-0.2,0.3-0.2,0.4v0.1v1.2c0,0-0.1,0-0.1,0v-0.3
			c0-0.1-0.1-0.3-0.1-0.4c0.2-0.2,0.3-0.4,0.3-0.6c0-0.5-0.4-0.8-0.8-0.8s-0.8,0.4-0.8,0.8c0,0.2,0.1,0.4,0.3,0.6
			c-0.1,0.1-0.1,0.2-0.1,0.4v0.3c-0.2,0-0.5,0-0.7,0V634c0-0.2-0.1-0.3-0.2-0.4c0.2-0.2,0.3-0.4,0.3-0.7c0-0.6-0.5-1-1-1s-1,0.5-1,1
			c0,0.3,0.1,0.5,0.3,0.7c-0.1,0.1-0.2,0.3-0.2,0.4v1.1c-0.3,0-0.5,0-0.8,0v-0.5c0-0.1-0.1-0.3-0.1-0.4c0.2-0.1,0.2-0.4,0.2-0.6
			c0-0.5-0.4-0.8-0.8-0.8c-0.1,0-0.2,0-0.3,0.1c-0.1-0.4-0.5-0.7-0.9-0.7c-0.6,0-1,0.5-1,1c0,0.3,0.1,0.5,0.3,0.7
			c-0.1,0.1-0.2,0.3-0.2,0.4v0.7c-0.1,0-0.2,0-0.3,0v-1.5c0-0.2-0.1-0.3-0.2-0.4c0.2-0.2,0.3-0.4,0.3-0.7c0-0.6-0.5-1-1-1
			c-0.6,0-1,0.5-1,1c0,0.3,0.1,0.5,0.3,0.7c-0.1,0.1-0.2,0.3-0.2,0.4v1.4c-0.1,0-0.2,0-0.3,0v-0.6c0-0.2-0.1-0.3-0.2-0.4
			c0.2-0.2,0.3-0.4,0.3-0.7c0-0.6-0.5-1-1-1c-0.6,0-1,0.5-1,1c0,0.3,0.1,0.5,0.3,0.7c-0.1,0.1-0.2,0.3-0.2,0.4v0.5
			c-0.2,0-0.3,0-0.5,0v-1c0-0.1-0.1-0.3-0.2-0.4c0.2-0.2,0.3-0.4,0.3-0.6c0-0.5-0.4-0.9-0.9-0.9c-0.5,0-0.9,0.4-0.9,0.8
			c0,0,0-0.1-0.1-0.1c0.2-0.2,0.3-0.4,0.3-0.7c0-0.6-0.5-1-1-1c-0.1,0-0.3,0-0.4,0.1v-28.7l33,18.5V633.3z M400.6,494l-0.7,1.3
			c0,0-17.2-15.6-17.6-16c-0.1-0.1-0.1-0.2-0.1-0.3c5.1,3,12.2,7.3,17.7,10.8c-0.5,0.2-1.1,0.7-1.4,1.5
			C397.8,492.9,400.6,494,400.6,494z M403.4,501.5l0.4-0.7l3,1.7l-2.2,3.9l-2.9-1.6l0.9-1.6l2,1.1l0.9-1.6L403.4,501.5z M408.1,511
			l-3.8-2.1l3.3-5.9l3.8,2.1L408.1,511z M433.1,493.6l-0.7,1.2l0.5,0.3l-4.2,7.5l-3-1.7l4.4-7.9l0.9,0.5c0,0,0.6-1,0.7-1.3
			s-1.7-1-1.7-1l-5.1,9.2L422,499c0,0,3-5.3,3.2-5.7c0.2-0.3,0.1-1.8-1.2-2.6c-1.4-0.8-2.9,0.8-2.9,0.8l-5.3,9.4l-9.5-5.3
			c0.4-1.2,0.7-2.3,0.5-2.8c-0.5-1-4.6-2.7-5.4-3.1c-0.1,0-0.1,0-0.2-0.1c-3.8-2.4-13.5-8.5-20-12.1c0,0-0.1,0-0.1,0
			c-1.9-1-3.5-1.9-4.6-2.4c-0.5-0.7-2.1-0.8-2.4,0.2c-1.5,1.6-2.5,5.6-2.7,6.6c0,0.2,0,0.3,0.2,0.4c0,0,0.1,0,0.1,0
			c0.2,0,0.4-0.1,0.5-0.3c0.4-1.8,1.2-4.2,2-5.6c0.4,0.9,1.7,0.7,1.7,0.7l2.9,2.7c-0.9,1.8-1.4,4.1-1.6,4.8c0,0.2,0,0.3,0.2,0.4
			c0,0,0.1,0,0.1,0c0.2,0,0.4-0.1,0.5-0.3c0.3-1.4,0.9-3.1,1.5-4.4l19,17.5l-1.8,3.3l-0.7-0.4l-0.3,0.6l-3.6-2l-0.6,1.1l0.8,0.4
			l-0.4,0.8l-8.5-4.7l0,0l-0.8-0.5l-0.5-0.3l0,0l-3.2-1.8v0l-0.5-0.3l-0.7-0.4v0l-0.5-0.3v0l-4.8-2.7v0l-0.5-0.3v0l-4.6-2.6
			c0.1-0.1,0.1-0.2,0.1-0.2s-1.7-1-2-1.1c-0.1-0.1-0.2,0-0.3,0.1l-0.7-0.4c0.1-0.1,0.1-0.3,0.3-0.5c0.2-0.4-0.3-0.6-0.3-0.6
			s1.4-2.6,2.7-4.9c1.3-2.3-1.5-4.1-1.5-4.1s-0.8,1.5-1.2,2.2c0.6,0.3,0.3,0.9,0.3,0.9s-2.2,3.9-2.6,4.7c-0.6-0.3-0.9,0.2-0.9,0.2
			l-0.1,0.1l-0.6-0.3v0l-0.5-0.3l0,0l-0.3-0.2v0l-0.5-0.3v0l-1.2-0.6l48.7-143.3c0.1,0.3,0.1,0.6,0.1,0.6l0.3-0.3l4.5,14.7l-0.4,0.4
			l0.4,0.5l0.3-0.3c2.1,1.5-4.2,70.7,31.2,138.5l-7.3-4l-0.1,0.2l0,0l-2.1,3.7L433.1,493.6z M376.7,476.1c0.8,0.4,1.9,1,3.2,1.7
			c-0.3,0.2-0.5,0.6-0.6,0.7c-0.1,0.2-2.4-1.9-2.6-2.1C376.7,476.4,376.7,476.3,376.7,476.1z M435.4,494.9l-1.3-0.7l0.2-0.4l1.3,0.7
			L435.4,494.9z M434.6,493.6l0.5-0.9l1.3,0.7l-0.5,0.9L434.6,493.6z M438.6,496.7l-2.7-1.5l0.2-0.4l2.7,1.5L438.6,496.7z
			 M436.3,494.5l0.5-0.9l2.7,1.5L439,496L436.3,494.5z M441.7,498.4l-2.7-1.5l0.2-0.4l2.7,1.5L441.7,498.4z M439.5,496.3l0.5-0.9
			l2.7,1.5l-0.5,0.9L439.5,496.3z M442.2,498.7l0.2-0.4l2.8,1.6l-0.2,0.4L442.2,498.7z M456.3,520.2L456.3,520.2l-4-2.2l1-1.7
			l-8.3-4.6l4-7.1c2.7,4.5,5.5,9,8.6,13.4L456.3,520.2z M459.1,515.2l-1.1,1.9c-2.9-4.3-5.6-8.6-8.2-12.9l0.6-1l-0.6-0.3l1.4-2.6
			c2.6,4.6,5.4,9.2,8.5,13.7L459.1,515.2z M460.6,522.6l-0.7-0.4l0.3-0.5c0.2,0.2,0.3,0.5,0.5,0.7L460.6,522.6z M460.7,520.9l1.7-3
			c0.2,0.2,0.3,0.5,0.5,0.7l-1.7,3C461,521.4,460.8,521.2,460.7,520.9z M462.7,523.7c-0.3-0.3-0.5-0.7-0.8-1l1.7-3
			c1.9,2.6,3.8,5.2,5.9,7.8L462.7,523.7z M470.9,528.3c-2.4-3.1-4.8-6.2-7-9.3l1.7-3c3.9,5.6,8.2,11,12.8,16.4L470.9,528.3z
			 M554.7,880.3c0,0.6-0.2,1-0.5,1.3c-0.3,0.3-0.8,0.5-1.5,0.5h-17.4v30.5h-6.4v-30.5h-50c-0.8,0-1.3-0.2-1.7-0.5
			c-0.4-0.3-0.7-0.8-0.8-1.3l-0.7-3.5l53.3-70.5h6.4v70.1h19.4V880.3z M636.3,883.6c-2,6.8-4.7,12.4-8.2,16.9
			c-3.4,4.5-7.5,7.8-12.1,9.9c-4.6,2.2-9.6,3.3-14.8,3.3c-5.3,0-10.2-1.1-14.8-3.3c-4.6-2.2-8.6-5.5-12.1-9.9
			c-3.5-4.4-6.2-10.1-8.1-16.9c-2-6.8-3-14.8-3-24.1c0-9.3,1-17.3,3-24.2c2-6.8,4.7-12.4,8.1-16.9c3.4-4.4,7.5-7.8,12.1-9.9
			c4.6-2.2,9.5-3.3,14.8-3.3c5.3,0,10.2,1.1,14.8,3.3c4.6,2.2,8.7,5.5,12.1,9.9c3.5,4.5,6.2,10.1,8.2,16.9c2,6.8,3,14.8,3,24.2
			C639.3,868.7,638.3,876.8,636.3,883.6z M723.7,657.7l-7.1,3.6h-0.1l-0.6-7.7L723.7,657.7z M723.3,659l-0.1,0.3l-2.4,1.9h-1.9
			L723.3,659z M716.2,649c0,0,1-0.3,1.7-0.6l-2,3.7l-1.2-0.7l-0.3,0.6l-0.6-0.4l-0.5,0.9l-0.5-0.3l-0.4,0.8l-0.7-0.4l-0.6,1
			l-0.7-0.4l-0.5,0.9l-0.8-0.4l-0.4,0.7l-0.7-0.4l-0.5,0.9l-0.8-0.5l-0.4,0.8l-0.7-0.4l-0.5,0.9l-0.7-0.4l-0.5,0.9l-0.5-0.3
			l-0.4,0.7l-2.4-1.3L716.2,649z M715.2,654.5l0.4,6.8l-5,0l-1.3-0.7L715.2,654.5z M708.2,659.9l-4.3-2.4l10.3-4.1L708.2,659.9z
			 M671.6,578.8c0.1,0,0.2,0.1,0.1,0.2l-1.3,4c0,0.1-0.1,0.1-0.1,0.1c0,0-0.1,0-0.1,0l-3-1c0.6-1.6,1.1-3.1,1.5-4.3L671.6,578.8z
			 M670,571.3c0.1,0.2,0.2,0.6-0.1,1.3c-0.1,0.3-0.7,1.9-1.5,4.3l-0.3-0.1L670,571.3z M667.8,577.5l0.3,0.1c-0.5,1.3-1,2.7-1.5,4.3
			l-0.3-0.1L667.8,577.5z M666,582.6l0.3,0.1c-4,11.4-10.4,29.4-13.6,38.4l-0.2-0.1L666,582.6z M728.7,880.3c0,0.6-0.2,1-0.5,1.3
			c-0.3,0.3-0.8,0.5-1.5,0.5h-17.4v30.5h-6.5v-30.5h-50c-0.8,0-1.3-0.2-1.7-0.5c-0.4-0.3-0.7-0.8-0.8-1.3l-0.7-3.5l53.3-70.5h6.4
			v70.1h19.4V880.3z"/>
		<path id="XMLID_1049_" class="st5" d="M528.8,876.4v-55.6c0-0.8,0-1.8,0.1-2.7c0-0.9,0.2-1.9,0.3-2.9l-45.8,61.2H528.8z"/>
		<path id="XMLID_1048_" class="st5" d="M622.7,822.4c-2.8-3.9-6-6.7-9.8-8.5s-7.6-2.7-11.7-2.7s-8,0.9-11.7,2.7
			c-3.7,1.8-7,4.6-9.8,8.5c-2.8,3.9-5,8.9-6.7,15c-1.6,6.1-2.5,13.5-2.5,22.1c0,8.7,0.8,16,2.5,22.1c1.7,6.1,3.9,11.1,6.7,14.9
			c2.8,3.9,6,6.7,9.8,8.5c3.7,1.8,7.6,2.7,11.7,2.7s8-0.9,11.7-2.7c3.7-1.8,7-4.6,9.8-8.5c2.8-3.9,5-8.8,6.6-14.9s2.5-13.4,2.5-22.1
			c0-8.6-0.8-15.9-2.5-22.1C627.7,831.3,625.5,826.3,622.7,822.4z"/>
	</g>
</g>
</svg>
