<?xml version="1.0" encoding="utf-8"?>
<!-- Generator: Adobe Illustrator 19.0.0, SVG Export Plug-In . SVG Version: 6.00 Build 0)  -->
<svg version="1.1" id="Layer_1" xmlns="http://www.w3.org/2000/svg" xmlns:xlink="http://www.w3.org/1999/xlink" x="0px" y="0px"
	 viewBox="0 0 1202.6 1038.2" style="enable-background:new 0 0 1202.6 1038.2;" xml:space="preserve">
<style type="text/css">
	.st0{display:none;fill:#3A3A3A;}
	.st1{fill:none;}
	.st2{display:none;fill:#FFFFFF;}
	.st3{font-family:'Lato-Light';}
	.st4{font-size:150px;}
	.st5{fill:#424F56;}
</style>
<path id="XMLID_873_" class="st0" d="M0,661.3c108.9,224.8,340,379,606.4,376.9c262.8-2,488.9-155.5,596.3-377L0,661.3z"/>
<rect id="XMLID_54_" y="803.2" class="st1" width="1202.6" height="112"/>
<text id="XMLID_55_" transform="matrix(1 0 0 1 470.8185 912.5218)" class="st2 st3 st4">404</text>
<g id="XMLID_1_">
	<path id="XMLID_3_" class="st5" d="M622.7,822.4c-2.8-3.9-6-6.7-9.8-8.5s-7.6-2.7-11.7-2.7s-8,0.9-11.7,2.7c-3.7,1.8-7,4.6-9.8,8.5
		c-2.8,3.9-5,8.9-6.7,15c-1.6,6.1-2.5,13.5-2.5,22.1c0,8.7,0.8,16,2.5,22.1c1.7,6.1,3.9,11.1,6.7,14.9c2.8,3.9,6,6.7,9.8,8.5
		c3.7,1.8,7.6,2.7,11.7,2.7s8-0.9,11.7-2.7c3.7-1.8,7-4.6,9.8-8.5c2.8-3.9,5-8.8,6.6-14.9s2.5-13.4,2.5-22.1
		c0-8.6-0.8-15.9-2.5-22.1C627.7,831.3,625.5,826.3,622.7,822.4z"/>
	<path id="XMLID_108_" class="st5" d="M1200.6,149.2h-53.4c-1.1,0-2,0.9-2,2v35.6c0,1.1-0.9,2-2,2h-53.4c-1.1,0-2,0.9-2,2v35.6
		c0,1.1-0.9,2-2,2h-53.4c-1.1,0-2,0.9-2,2v35.6c0,1.1-0.9,2-2,2H975c-1.1,0-2,0.9-2,2v35.6c0,1.1-0.9,2-2,2h-53.4c-1.1,0-2,0.9-2,2
		v35.6c0,1.1-0.9,2-2,2h-53.4c-1.1,0-2,0.9-2,2v35.6c0,1.1-0.9,2-2,2h-53.4c-1.1,0-2,0.9-2,2v35.6c0,1.1-0.9,2-2,2h-53.4
		c-1.1,0-2,0.9-2,2v35.6c0,1.1-0.9,2-2,2H688c-1.1,0-2,0.9-2,2v35.6c0,1.1-0.9,2-2,2h-53.4c-1.1,0-2,0.9-2,2v35.6c0,1.1-0.9,2-2,2
		h-53.4c-1.1,0-2,0.9-2,2v35.6c0,1.1-0.9,2-2,2h-53.4c-1.1,0-2,0.9-2,2v36c0,1.1-0.9,2-2,2h-53.4c-1.1,0-2,0.9-2,2v33.7l-88.2,0
		c0.6-0.5,1.5-1.1,1.3-1.8c-0.3-1.1-3.3-1.8-4.9-2.9c5.7-3.1,3.1-5.7,2.6-12.2c-2.2-6.8-1.4-26.7,0.3-37.8c0.5-3.5,0.9-7.8,1.2-12.2
		c0.1,0.1,0.3,0.1,0.4,0.1c0.6,0,1-0.4,1-1V560c0-0.6-0.4-1-1-1s-1,0.4-1,1v5.6c-1.2-11.4-3-34.4-3-35.7c-0.1-1.5,2.7-2.2,3.1-1.1
		c0.4,1.1,2.9-0.6,3.9-0.5c1,0.1,2.7,0.8,3.2-1c3.5,1.5,2.8-8.3,2.9-11.4c0.1-3.1-2.8-6.4-5.5-10.8c-8.5-12.4-5.2-18.4-7.6-21.9
		s-1.2-6.3-1.2-8.6s1.5-5.4,1.8-6.2c1.9-3.4,0.8-5.2,0.2-7.6c0.2,0.3,0.5,0.5,0.9,0.5c0.6,0,1-0.4,1-1V427c0-0.5-0.4-0.9-0.9-1
		c-0.4-2.7-1.1-5.4-1.6-7.6c0.3-9.8-1.3-14.3-3.8-20c-2.5-5.7-3.8-5.9-2.7-8c1.1-2.3,8.3-2,11.7-2c2.8,0,2.8-1,3.4-2.2v32.7
		c0,0.6,0.4,1,1,1s1-0.4,1-1v-33.3c0-0.5-0.4-0.9-0.8-1c2.4-2.7,3.4-4.9,3.6-6.1c2.9,0.2,4.8-0.1,4.5-2.6c-0.3-2.5,0-3.9,1.2-5.2
		c2.6-3.1,4.8-6.3,5.7-6.6c2.5-2.5,2.1-5.9,1.7-8.1c-0.4-2.2-1.6-5.8-2.2-5.9c-1-3.3-3.5-5.5-5.2-5.7c-1-0.1-2.1-1.4-3-2.4v-32.3
		c0-0.6-0.4-1-1-1s-1,0.4-1,1v30.2c-1.7-1.9-4.7-3.4-5.7-3.4c-4.8-3.5-8.7-2-10.7-2.2c-0.1,0-0.2-0.1-0.3-0.1V303c0-0.6-0.4-1-1-1
		s-1,0.4-1,1v31.1c-1.9,0.2-3.9,1.3-4.5,1.8c-2.4-0.1-4.4,3.3-5.8,4.6s-5.7,5.9-6.9,7.7c-1.2,1.9,1.6,5,1.4,5.9
		c-0.2,0.9-2,2.5-1.1,5.2c0.8,2.7-0.1,5.2-0.3,8.8c-0.2,3.7-4.1,2.3-5.3,1.6c-1.2-0.7-4.4-0.8-3.8,1.3c0.6,2.1,0.6,3.5,0,4.8
		c-0.3,0-0.6,0.1-0.9,0.1v-33c0-0.6-0.4-1-1-1s-1,0.4-1,1v33.3c0,0.1,0,0.2,0.1,0.3c-1.1,0.6-2.2,1.7-3.8,3.8
		c-2.9,4-6.9,5.7-10.3,8.3s-11.8,17.9-11.5,23.2c0.3,5.3-0.3,13-1.1,15.5s-4.3,8.4-5.1,14.3s-2.8,5.1-4.6,5.7
		c-2.8,1.5-1.3,14.7-0.3,17.7c1,2.9,4.8,6.9,7.2,10.2c2.5,3.3,4.9,15.4,5.6,19.7c-1.1,5.9-0.2,10.8-0.2,13.8
		c0.3,7.5,7.2,14.7,10.2,21c2.9,6.2,1.8,6.7,4.3,15.1s1.6,14.4,0.8,17c-0.8,2.6-0.2,5.9,0,8.7c-1.6,2-1,4.6-1.8,7
		c-8.1,5.8-12.3,10.3-14.5,13.5V560c0-0.6-0.4-1-1-1s-1,0.4-1,1v33.3c0,0.3,0.1,0.5,0.3,0.7c-0.2,0.5-0.4,0.9-0.5,1.4
		c-1.8,1.9-5.2,7.2-7.8,11.4v-26.8c0-0.6-0.4-1-1-1s-1,0.4-1,1V610c-0.3,0.5-0.6,1-0.9,1.4c-2.1,3.4-5.7,8.8-7.7,10.8
		c-2,2-4.4,4.3-7,6.6c-3.1,1.6-5.2,7.7-7.5,8.7c-0.1,0-0.3,0-0.5,0c0.3-0.2,0.5-0.5,0.5-0.8v-33.3c0-0.6-0.4-1-1-1s-1,0.4-1,1v33.3
		c0,0.5,0.4,0.9,0.8,1c-3.6,1.1-10,8.4-10,8.4c-3.2,5.5,0.7,11,2.9,12.2c1.4,0.7,2.8,1.5,4.4,3.1L0,661.3
		c108.9,224.8,340,379,606.4,376.9c262.8-2,488.9-155.5,596.3-377l0,0v-510C1202.6,150.1,1201.7,149.2,1200.6,149.2z M365.8,435.9
		v24.3c-0.1-0.4-0.1-0.7-0.2-1.1C365.1,450.9,364.9,441.3,365.8,435.9z M338.8,659.7c-0.3,0.4-0.8,0.9-1.2,1.5l-43.3,0
		c-0.6-1.4-0.6-4.5,0.4-4.9c3.4,0.1,8.2-7.8,12.8-13.1v3.4c0,0.6,0.4,1,1,1s1-0.4,1-1v-5.6c5.2-5.4,16.9-20.1,20.3-25.8
		c3.5-5.8,2.8,8.1,3.7,14.7c0.9,6.7,0.2,16.1,2.4,19.7C341.5,656.9,339.7,658.6,338.8,659.7z M554.7,880.3c0,0.6-0.2,1-0.5,1.3
		c-0.3,0.3-0.8,0.5-1.5,0.5h-17.4v30.5h-6.4v-30.5h-50c-0.8,0-1.3-0.2-1.7-0.5c-0.4-0.3-0.7-0.8-0.8-1.3l-0.7-3.5l53.3-70.5h6.4
		v70.1h19.4V880.3z M636.3,883.6c-2,6.8-4.7,12.4-8.2,16.9c-3.4,4.5-7.5,7.8-12.1,9.9c-4.6,2.2-9.6,3.3-14.8,3.3
		c-5.3,0-10.2-1.1-14.8-3.3c-4.6-2.2-8.6-5.5-12.1-9.9c-3.5-4.4-6.2-10.1-8.1-16.9c-2-6.8-3-14.8-3-24.1c0-9.3,1-17.3,3-24.2
		c2-6.8,4.7-12.4,8.1-16.9c3.4-4.4,7.5-7.8,12.1-9.9c4.6-2.2,9.5-3.3,14.8-3.3c5.3,0,10.2,1.1,14.8,3.3c4.6,2.2,8.7,5.5,12.1,9.9
		c3.5,4.5,6.2,10.1,8.2,16.9c2,6.8,3,14.8,3,24.2C639.3,868.7,638.3,876.8,636.3,883.6z M728.7,880.3c0,0.6-0.2,1-0.5,1.3
		c-0.3,0.3-0.8,0.5-1.5,0.5h-17.4v30.5h-6.5v-30.5h-50c-0.8,0-1.3-0.2-1.7-0.5c-0.4-0.3-0.7-0.8-0.8-1.3l-0.7-3.5l53.3-70.5h6.4
		v70.1h19.4V880.3z"/>
	<path id="XMLID_117_" class="st5" d="M528.8,876.4v-55.6c0-0.8,0-1.8,0.1-2.7c0-0.9,0.2-1.9,0.3-2.9l-45.8,61.2H528.8z"/>
	<path id="XMLID_118_" class="st5" d="M702.8,876.4v-55.6c0-0.8,0-1.8,0.1-2.7c0-0.9,0.2-1.9,0.3-2.9l-45.8,61.2H702.8z"/>
	<path id="XMLID_119_" class="st5" d="M194.1,157.8c-2.2,3.5-3.4,7.4-3.4,11.4c0,17.4,22.7,31.6,51,32.1V223c0,0.6,0.4,1,1,1
		s1-0.4,1-1v-21.7c13.5-0.1,25.8-3.3,35-8.5c6,7.8,16.6,14,29.7,17.3v24.2c0,0.6,0.4,1,1,1s1-0.4,1-1v-23.7c6,1.3,12.4,2.1,19.1,2.1
		c14.8,0,28.2-3.5,38.2-9.2c7.7,5.5,18.8,9.1,31.4,9.7v26.5c0,0.6,0.4,1,1,1s1-0.4,1-1v-26.5c0.5,0,1,0,1.5,0
		c25.2,0,45.7-12.4,46-27.8c1.7,0.1,3.5,0.2,5.3,0.2c30.9,0,56-15.3,56-34.3c0-16.7-19.5-30.6-45.4-33.7
		C457.2,99,430,85.2,397.5,85.2c-14.6,0-28.2,2.8-39.3,7.6c-4.8-4.4-12.9-7.2-22.1-7.2c-9.6,0-18.1,3.1-22.7,7.8
		c-10.4-4.2-22.8-6.6-36.1-6.6c-31.5,0-57.8,13.5-64.4,31.5c-1.5-0.1-3.1-0.2-4.6-0.2c-18.8,0-34,9.3-34,20.8
		C174.2,147.3,182.3,154.5,194.1,157.8z"/>
	<path id="XMLID_120_" class="st5" d="M257,256.3V223c0-0.6-0.4-1-1-1s-1,0.4-1,1v33.3c0,0.6,0.4,1,1,1S257,256.9,257,256.3z"/>
	<path id="XMLID_121_" class="st5" d="M227.6,313v-33.3c0-0.6-0.4-1-1-1s-1,0.4-1,1V313c0,0.6,0.4,1,1,1S227.6,313.5,227.6,313z"/>
	<path id="XMLID_122_" class="st5" d="M250.5,313v-33.3c0-0.6-0.4-1-1-1s-1,0.4-1,1V313c0,0.6,0.4,1,1,1S250.5,313.5,250.5,313z"/>
	<path id="XMLID_123_" class="st5" d="M243,317v33.3c0,0.6,0.4,1,1,1s1-0.4,1-1V317c0-0.6-0.4-1-1-1S243,316.4,243,317z"/>
	<path id="XMLID_124_" class="st5" d="M257.3,384.7c0.6,0,1-0.4,1-1v-33.3c0-0.6-0.4-1-1-1s-1,0.4-1,1v33.3
		C256.3,384.2,256.7,384.7,257.3,384.7z"/>
	<path id="XMLID_125_" class="st5" d="M228,441.3c0.6,0,1-0.4,1-1V407c0-0.6-0.4-1-1-1s-1,0.4-1,1v33.3
		C227,440.9,227.4,441.3,228,441.3z"/>
	<path id="XMLID_126_" class="st5" d="M250.8,441.3c0.6,0,1-0.4,1-1V407c0-0.6-0.4-1-1-1s-1,0.4-1,1v33.3
		C249.8,440.9,250.3,441.3,250.8,441.3z"/>
	<path id="XMLID_127_" class="st5" d="M291.6,263c0-0.6-0.4-1-1-1s-1,0.4-1,1v33.3c0,0.6,0.4,1,1,1s1-0.4,1-1V263z"/>
	<path id="XMLID_128_" class="st5" d="M286.3,340.3V307c0-0.6-0.4-1-1-1s-1,0.4-1,1v33.3c0,0.6,0.4,1,1,1S286.3,340.9,286.3,340.3z"
		/>
	<path id="XMLID_129_" class="st5" d="M303,245v33.3c0,0.6,0.4,1,1,1s1-0.4,1-1V245c0-0.6-0.4-1-1-1S303,244.4,303,245z"/>
	<path id="XMLID_130_" class="st5" d="M297.6,340.3v33.3c0,0.6,0.4,1,1,1s1-0.4,1-1v-33.3c0-0.6-0.4-1-1-1S297.6,339.8,297.6,340.3z
		"/>
	<path id="XMLID_131_" class="st5" d="M268.3,380.3v33.3c0,0.6,0.4,1,1,1s1-0.4,1-1v-33.3c0-0.6-0.4-1-1-1S268.3,379.8,268.3,380.3z
		"/>
	<path id="XMLID_132_" class="st5" d="M331.2,236.3v33.3c0,0.6,0.4,1,1,1s1-0.4,1-1v-33.3c0-0.6-0.4-1-1-1S331.2,235.8,331.2,236.3z
		"/>
	<path id="XMLID_133_" class="st5" d="M344.5,269.7V303c0,0.6,0.4,1,1,1s1-0.4,1-1v-33.3c0-0.6-0.4-1-1-1S344.5,269.1,344.5,269.7z"
		/>
	<path id="XMLID_134_" class="st5" d="M369.6,246.3v33.3c0,0.6,0.4,1,1,1s1-0.4,1-1v-33.3c0-0.6-0.4-1-1-1S369.6,245.8,369.6,246.3z
		"/>
	<path id="XMLID_135_" class="st5" d="M394.5,263c0-0.6-0.4-1-1-1s-1,0.4-1,1v33.3c0,0.6,0.4,1,1,1s1-0.4,1-1V263z"/>
	<path id="XMLID_136_" class="st5" d="M435.6,279.7v-33.3c0-0.6-0.4-1-1-1s-1,0.4-1,1v33.3c0,0.6,0.4,1,1,1S435.6,280.2,435.6,279.7
		z"/>
	<path id="XMLID_137_" class="st5" d="M384.6,578.9c-0.6,0-1,0.4-1,1v33.3c0,0.6,0.4,1,1,1s1-0.4,1-1v-33.3
		C385.6,579.4,385.2,578.9,384.6,578.9z"/>
	<path id="XMLID_138_" class="st5" d="M413,570v33.3c0,0.6,0.4,1,1,1s1-0.4,1-1V570c0-0.6-0.4-1-1-1S413,569.4,413,570z"/>
	<path id="XMLID_139_" class="st5" d="M247.1,620.9c0.6,0,1-0.4,1-1v-33.3c0-0.6-0.4-1-1-1s-1,0.4-1,1v33.3
		C246.1,620.5,246.6,620.9,247.1,620.9z"/>
	<path id="XMLID_140_" class="st5" d="M205,603.3v33.3c0,0.6,0.4,1,1,1s1-0.4,1-1v-33.3c0-0.6-0.4-1-1-1S205,602.7,205,603.3z"/>
	<path id="XMLID_141_" class="st5" d="M446.1,318c0.6,0,1-0.4,1-1v-33.3c0-0.6-0.4-1-1-1s-1,0.4-1,1V317
		C445.1,317.5,445.5,318,446.1,318z"/>
	<path id="XMLID_142_" class="st5" d="M417.7,357v-33.3c0-0.6-0.4-1-1-1s-1,0.4-1,1V357c0,0.6,0.4,1,1,1S417.7,357.5,417.7,357z"/>
	<path id="XMLID_143_" class="st5" d="M440.6,373.7v-33.3c0-0.6-0.4-1-1-1s-1,0.4-1,1v33.3c0,0.6,0.4,1,1,1S440.6,374.2,440.6,373.7
		z"/>
	<path id="XMLID_144_" class="st5" d="M408.5,357v33.3c0,0.6,0.4,1,1,1s1-0.4,1-1V357c0-0.6-0.4-1-1-1S408.5,356.4,408.5,357z"/>
	<path id="XMLID_145_" class="st5" d="M385.8,402.3c0-0.6-0.4-1-1-1s-1,0.4-1,1v33.3c0,0.6,0.4,1,1,1s1-0.4,1-1V402.3z"/>
	<path id="XMLID_146_" class="st5" d="M402,413.7V447c0,0.6,0.4,1,1,1s1-0.4,1-1v-33.3c0-0.6-0.4-1-1-1S402,413.1,402,413.7z"/>
	<path id="XMLID_147_" class="st5" d="M444.1,396c-0.6,0-1,0.4-1,1v33.3c0,0.6,0.4,1,1,1s1-0.4,1-1V397
		C445.1,396.4,444.7,396,444.1,396z"/>
	<path id="XMLID_148_" class="st5" d="M290.6,412.7c-0.6,0-1,0.4-1,1V447c0,0.6,0.4,1,1,1s1-0.4,1-1v-33.3
		C291.6,413.1,291.2,412.7,290.6,412.7z"/>
	<path id="XMLID_149_" class="st5" d="M260.3,453.7V487c0,0.6,0.4,1,1,1s1-0.4,1-1v-33.3c0-0.6-0.4-1-1-1S260.3,453.1,260.3,453.7z"
		/>
	<path id="XMLID_150_" class="st5" d="M283.1,470.3v33.3c0,0.6,0.4,1,1,1s1-0.4,1-1v-33.3c0-0.6-0.4-1-1-1S283.1,469.8,283.1,470.3z
		"/>
	<path id="XMLID_151_" class="st5" d="M379.1,460.3v33.3c0,0.6,0.4,1,1,1s1-0.4,1-1v-33.3c0-0.6-0.4-1-1-1S379.1,459.8,379.1,460.3z
		"/>
	<path id="XMLID_152_" class="st5" d="M421.8,439.6v33.3c0,0.6,0.4,1,1,1s1-0.4,1-1v-33.3c0-0.6-0.4-1-1-1S421.8,439.1,421.8,439.6z
		"/>
	<path id="XMLID_153_" class="st5" d="M395.2,343v33.3c0,0.6,0.4,1,1,1s1-0.4,1-1V343c0-0.6-0.4-1-1-1S395.2,342.4,395.2,343z"/>
	<path id="XMLID_154_" class="st5" d="M393.5,478.6c-0.6,0-1,0.4-1,1v33.3c0,0.6,0.4,1,1,1s1-0.4,1-1v-33.3
		C394.5,479.1,394,478.6,393.5,478.6z"/>
	<path id="XMLID_155_" class="st5" d="M415.3,496.3v33.3c0,0.6,0.4,1,1,1s1-0.4,1-1v-33.3c0-0.6-0.4-1-1-1S415.3,495.7,415.3,496.3z
		"/>
	<path id="XMLID_156_" class="st5" d="M456.5,479.6v33.3c0,0.6,0.4,1,1,1s1-0.4,1-1v-33.3c0-0.6-0.4-1-1-1S456.5,479.1,456.5,479.6z
		"/>
	<path id="XMLID_157_" class="st5" d="M315.2,309.7V343c0,0.6,0.4,1,1,1s1-0.4,1-1v-33.3c0-0.6-0.4-1-1-1S315.2,309.1,315.2,309.7z"
		/>
	<path id="XMLID_158_" class="st5" d="M214.6,529.9v33.3c0,0.6,0.4,1,1,1s1-0.4,1-1v-33.3c0-0.6-0.4-1-1-1S214.6,529.4,214.6,529.9z
		"/>
	<path id="XMLID_159_" class="st5" d="M237.4,530v33.3c0,0.6,0.4,1,1,1s1-0.4,1-1V530c0-0.6-0.4-1-1-1S237.4,529.4,237.4,530z"/>
	<path id="XMLID_160_" class="st5" d="M231.9,567.3v33.3c0,0.6,0.4,1,1,1s1-0.4,1-1v-33.3c0-0.6-0.4-1-1-1S231.9,566.8,231.9,567.3z
		"/>
	<path id="XMLID_161_" class="st5" d="M278.6,513.3v33.3c0,0.6,0.4,1,1,1s1-0.4,1-1v-33.3c0-0.6-0.4-1-1-1S278.6,512.8,278.6,513.3z
		"/>
	<path id="XMLID_162_" class="st5" d="M273.2,557.3v33.3c0,0.6,0.4,1,1,1s1-0.4,1-1v-33.3c0-0.6-0.4-1-1-1S273.2,556.8,273.2,557.3z
		"/>
	<path id="XMLID_163_" class="st5" d="M302.8,536.6v-33.3c0-0.6-0.4-1-1-1s-1,0.4-1,1v33.3c0,0.6,0.4,1,1,1S302.8,537.2,302.8,536.6
		z"/>
	<path id="XMLID_164_" class="st5" d="M247.8,527v-33.3c0-0.6-0.4-1-1-1s-1,0.4-1,1V527c0,0.6,0.4,1,1,1S247.8,527.5,247.8,527z"/>
	<path id="XMLID_165_" class="st5" d="M382.4,512.3c-0.6,0-1,0.4-1,1v33.3c0,0.6,0.4,1,1,1s1-0.4,1-1v-33.3
		C383.4,512.8,383,512.3,382.4,512.3z"/>
	<path id="XMLID_166_" class="st5" d="M438.6,464.1c-0.6,0-1,0.4-1,1v33.3c0,0.6,0.4,1,1,1s1-0.4,1-1v-33.3
		C439.6,464.6,439.2,464.1,438.6,464.1z"/>
	<path id="XMLID_167_" class="st5" d="M435,568.3c0.6,0,1-0.4,1-1V534c0-0.6-0.4-1-1-1s-1,0.4-1,1v33.3
		C434,567.9,434.4,568.3,435,568.3z"/>
	<path id="XMLID_168_" class="st5" d="M404.7,543.3v33.3c0,0.6,0.4,1,1,1s1-0.4,1-1v-33.3c0-0.6-0.4-1-1-1S404.7,542.8,404.7,543.3z
		"/>
</g>
</svg>
